<?xml version="1.0" encoding="utf-8"?>
<!-- Generator: Adobe Illustrator 26.3.1, SVG Export Plug-In . SVG Version: 6.00 Build 0)  -->
<svg version="1.1" id="图层_1" xmlns="http://www.w3.org/2000/svg" xmlns:xlink="http://www.w3.org/1999/xlink" x="0px" y="0px"
	 viewBox="0 0 280 280" style="enable-background:new 0 0 280 280;" xml:space="preserve">
<style type="text/css">
	.st0{fill:#FEFEFE;}
	.st1{fill:#F44336;}
</style>
<g>
	<path class="st0" d="M279.34,263.54c0,4.81-0.05,9.62,0.04,14.42c0.02,1.17-0.23,1.6-1.4,1.37c-0.35-0.07-0.72-0.01-1.09-0.01
		c-92.08,0-184.17,0-276.25,0c0-5.26,0-10.52,0-15.78c0.95-0.48,1.48,0.19,2.12,0.7c3.42,2.78,6.33,2.19,8.28-1.85
		c1.89-3.92,3.49-7.97,5.2-11.97c20.7-48.32,41.42-96.64,62.14-144.95c11.82-27.57,23.65-55.15,35.45-82.73
		c0.29-0.67,0.59-1.33,0.81-2.02c1.24-3.97-0.41-6.56-4.57-7.16c-0.99-0.14-1.99-0.12-2.99-0.12c-32.28-0.01-64.56,0-96.84-0.01
		c-2.78,0-5.45,0.18-7.59,2.27c-0.57,0.56-1.28,0.63-2,0.21c0-4.62,0.05-9.24-0.03-13.87C0.58,0.91,0.79,0.42,1.99,0.66
		c0.35,0.07,0.72,0.01,1.09,0.01c91.28,0,182.55,0.01,273.83-0.05c2.07,0,2.56,0.5,2.49,2.52c-0.17,4.43-0.05,8.88-0.05,13.32
		c-0.8,0.42-1.41,0.04-1.92-0.53c-1.95-2.16-4.49-2.49-7.2-2.49c-15.32,0.01-30.64,0.01-45.97,0.01c-16.86,0-33.73,0-50.59,0
		c-1.18,0-2.36-0.05-3.53,0.1c-4.42,0.54-6.22,3.3-4.66,7.48c1.59,4.24,3.5,8.36,5.29,12.52c13.97,32.56,27.92,65.14,41.88,97.7
		c13.39,31.23,26.77,62.47,40.17,93.7c5.11,11.91,10.21,23.82,15.31,35.73c0.43,1,0.84,2.01,1.46,2.91
		c1.89,2.74,4.62,3.13,7.23,1.04C277.56,264.04,278.09,262.96,279.34,263.54z"/>
	<path class="st1" d="M0.64,15.91c2.11-3.12,5.15-3.74,8.74-3.73c32.93,0.08,65.86,0.05,98.79,0.05c0.36,0,0.73,0,1.09,0
		c6.47,0.05,8.93,3.71,6.42,9.62c-4.98,11.67-9.98,23.34-14.98,35c-29.32,68.4-58.65,136.81-87.98,205.21
		c-0.07,0.17-0.14,0.34-0.2,0.51c-1,2.72-2.56,4.88-5.72,5.09c-3.05,0.2-4.8-1.7-6.15-4.12C0.64,181,0.64,98.46,0.64,15.91z"/>
	<path class="st1" d="M279.34,263.54c-2.37,3.67-4.76,4.83-7.75,3.79c-2.42-0.84-3.32-2.89-4.23-5.01
		c-14.24-33.24-28.49-66.48-42.73-99.72c-19.92-46.48-39.85-92.97-59.77-139.45c-0.43-1-0.92-1.98-1.25-3.01
		c-1.21-3.83,0.89-7.2,4.87-7.79c0.89-0.13,1.81-0.12,2.71-0.12c33.37-0.01,66.75,0.02,100.12-0.05c3.58-0.01,6.37,0.92,8.01,4.27
		C279.34,98.82,279.34,181.18,279.34,263.54z"/>
	<path class="st1" d="M180.37,267.77c-7.07,0-14.15,0.01-21.22,0c-4.63-0.01-6.13-1.05-7.73-5.32c-4.85-12.89-9.73-25.77-14.48-38.7
		c-0.72-1.97-1.73-2.58-3.76-2.57c-12.7,0.08-25.39,0.05-38.09,0.03c-6.34-0.01-8.74-3.57-6.29-9.4
		c15.1-35.92,30.24-71.83,45.33-107.75c1.15-2.74,2.85-4.72,6-4.65c3.01,0.06,4.63,2.02,5.71,4.67
		c20.97,51.54,41.98,103.06,62.95,154.6c2.16,5.3-0.35,9.02-6.11,9.08C195.24,267.82,187.8,267.77,180.37,267.77z"/>
</g>
</svg>
