<svg id="图层_1" data-name="图层 1" xmlns="http://www.w3.org/2000/svg" xmlns:xlink="http://www.w3.org/1999/xlink" viewBox="0 0 97 46"><defs><style>.cls-1{fill:none;}.cls-2{fill:lime;stroke:#000;stroke-miterlimit:10;stroke-width:0.25px;}.cls-3{fill:red;}.cls-4{font-size:10px;font-family:TimesNewRomanPSMT, Times New Roman;}.cls-5{clip-path:url(#clip-path);}.cls-6{fill:#333;}</style><clipPath id="clip-path"><rect class="cls-1" x="1.75" y="23.45" width="45.96" height="5.01"/></clipPath></defs><polygon class="cls-2" points="92.25 30.5 92.25 40 89.25 40 89.25 30.5 86.25 30.5 86.25 40 83.25 40 83.25 30.5 80.25 30.5 80.25 40 77.25 40 77.25 30.5 74.25 30.5 74.25 40 71.25 40 71.25 30.5 68.25 30.5 68.25 40 65.25 40 65.25 30.5 62.25 30.5 62.25 40 59.25 40 59.25 30.5 56.25 30.5 56.25 40 53.25 40 53.25 30.5 50.25 30.5 50.25 40 47.25 40 47.25 30.5 44.25 30.5 44.25 40 41.25 40 41.25 30.5 38.25 30.5 38.25 40 35.25 40 35.25 30.5 32.25 30.5 32.25 40 29.25 40 29.25 30.5 26.25 30.5 26.25 40 23.25 40 23.25 30.5 20.25 30.5 20.25 40 17.25 40 17.25 30.5 14.25 30.5 14.25 40 11.25 40 11.25 30.5 8.25 30.5 8.25 40 5.25 40 5.25 30.5 2.25 30.5 2.25 40 2.25 40.5 2.25 45 95.25 45 95.25 40.5 95.25 40 95.25 30.5 92.25 30.5"/><path class="cls-3" d="M54.45,30.5h20.6a17,17,0,1,0-20.6,0Z"/><text class="cls-4" transform="translate(6.22 17.11) scale(0.58)">Cassie state</text><g class="cls-5"><path class="cls-6" d="M1.91,26.34a1.21,1.21,0,0,1,.39-.88,1.14,1.14,0,0,1,.83-.39.62.62,0,0,1,.39.11.33.33,0,0,1,.15.28.33.33,0,0,1-.08.22.29.29,0,0,1-.22.09.17.17,0,0,1-.13,0,.15.15,0,0,1-.05-.13.22.22,0,0,1,.05-.16.28.28,0,0,1,.1-.09l.06,0h0l0,0a.19.19,0,0,0-.1,0l-.15,0a.54.54,0,0,0-.25.06.81.81,0,0,0-.2.14A1.18,1.18,0,0,0,2.4,26a3.67,3.67,0,0,0-.1.52.38.38,0,0,0,.12.3.33.33,0,0,0,.26.11h0a1,1,0,0,0,.82-.38s0,0,.06,0,0,0,.06,0,0,0,0,.06a.13.13,0,0,1,0,.07l-.13.12a.69.69,0,0,1-.2.13L3,27.05a1,1,0,0,1-.36.05.74.74,0,0,1-.54-.22A.82.82,0,0,1,1.91,26.34Z"/><path class="cls-6" d="M4.24,26.51a.41.41,0,0,0,.11.32.39.39,0,0,0,.27.1A.61.61,0,0,0,5,26.79a1,1,0,0,0,.28-.38c0-.06.06-.17.1-.33a1.69,1.69,0,0,0,.06-.41.45.45,0,0,0-.08-.3.34.34,0,0,0-.28-.13.61.61,0,0,0-.5.26,1.33,1.33,0,0,0-.25.52A2.52,2.52,0,0,0,4.24,26.51Zm.36.59a.71.71,0,0,1-.54-.22.74.74,0,0,1-.21-.53A1.17,1.17,0,0,1,4,25.8a1.59,1.59,0,0,1,.37-.45A1.12,1.12,0,0,1,5,25.08h.18l.12,0,.15.07a.58.58,0,0,1,.17.14.64.64,0,0,1,.11.22.75.75,0,0,1,.06.31,1.17,1.17,0,0,1-.39.86A1.18,1.18,0,0,1,4.6,27.1Z"/><path class="cls-6" d="M6.45,25.76a.73.73,0,0,1,.07-.29.8.8,0,0,1,.25-.28.78.78,0,0,1,.44-.12.56.56,0,0,1,.4.12.39.39,0,0,1,.13.27.26.26,0,0,1-.08.21.22.22,0,0,1-.17.07.17.17,0,0,1-.1,0,.17.17,0,0,1-.06-.12.21.21,0,0,1,0-.12s0-.07.08-.08a.09.09,0,0,1,.06,0h0l0,0-.11,0-.18,0a.42.42,0,0,0-.31.11.36.36,0,0,0-.1.24.17.17,0,0,0,.08.16,1,1,0,0,0,.25.07,1.07,1.07,0,0,1,.23.07.45.45,0,0,1,.3.43.74.74,0,0,1,0,.25,1.65,1.65,0,0,1-.15.25.75.75,0,0,1-.28.2,1.32,1.32,0,0,1-.42.07A.72.72,0,0,1,6.25,27a.42.42,0,0,1-.15-.3.28.28,0,0,1,.1-.25.29.29,0,0,1,.19-.08.28.28,0,0,1,.13,0,.17.17,0,0,1,.06.14.3.3,0,0,1-.08.2.23.23,0,0,1-.14.08h0a0,0,0,0,0,0,0l0,0,.14.05a.61.61,0,0,0,.24,0A.78.78,0,0,0,7,26.88a.4.4,0,0,0,.17-.13.5.5,0,0,0,.08-.14.52.52,0,0,0,0-.11.23.23,0,0,0-.09-.19A.57.57,0,0,0,7,26.24a.92.92,0,0,1-.26-.07A.35.35,0,0,1,6.53,26,.44.44,0,0,1,6.45,25.76Z"/><path class="cls-6" d="M8.47,26.46c0,.31.08.47.23.47a.28.28,0,0,0,.15,0A.89.89,0,0,0,9,26.72a2.16,2.16,0,0,0,.22-.39c.07-.18.14-.4.21-.65l0-.08H8.61a1,1,0,0,1,0,.17,2.7,2.7,0,0,0-.07.35A2.24,2.24,0,0,0,8.47,26.46Zm1.2-1.94c0-.3-.07-.46-.23-.46a.44.44,0,0,0-.32.2,2.25,2.25,0,0,0-.25.46q-.09.26-.15.45a2.2,2.2,0,0,1-.06.22h.87a1,1,0,0,0,0-.15c0-.09,0-.21.07-.35A1.27,1.27,0,0,0,9.67,24.52ZM8.12,26.15a3.14,3.14,0,0,1,.17-1,3,3,0,0,1,.48-.87,1.08,1.08,0,0,1,.62-.42h.09a.45.45,0,0,1,.37.22,1.28,1.28,0,0,1,.18.72,3,3,0,0,1-.2,1,2.61,2.61,0,0,1-.52.87.85.85,0,0,1-.6.34h0A.45.45,0,0,1,8.4,27a.66.66,0,0,1-.17-.23,1.11,1.11,0,0,1-.08-.3A1.73,1.73,0,0,1,8.12,26.15Z"/><path class="cls-6" d="M10.17,27.22a.86.86,0,0,1,.27-.62.82.82,0,0,1,.58-.28.44.44,0,0,1,.28.08.24.24,0,0,1,.11.2.2.2,0,0,1-.06.15.21.21,0,0,1-.15.07.11.11,0,0,1-.13-.13.17.17,0,0,1,0-.1.23.23,0,0,1,.07-.07.06.06,0,0,1,0,0h0l0,0-.07,0-.11,0a.41.41,0,0,0-.18,0,.5.5,0,0,0-.13.1.8.8,0,0,0-.2.39,1.43,1.43,0,0,0-.07.36.29.29,0,0,0,.08.22.26.26,0,0,0,.19.08h0a.73.73,0,0,0,.58-.27l0,0,0,0a.05.05,0,0,1,0,0s0,0,0,.05l-.1.09-.14.09a1.38,1.38,0,0,1-.2.08.54.54,0,0,1-.25,0,.53.53,0,0,1-.39-.15A.56.56,0,0,1,10.17,27.22Z"/><path class="cls-6" d="M13.36,26.36a.11.11,0,0,1,.07-.09h2.85a.12.12,0,0,1,.06.09.09.09,0,0,1-.07.09H13.43A.09.09,0,0,1,13.36,26.36Zm0-.86a.09.09,0,0,1,.07-.09h2.84a.09.09,0,0,1,.07.09.09.09,0,0,1-.06.08H13.43A.11.11,0,0,1,13.36,25.5Z"/><path class="cls-6" d="M18.36,27.77h.13a.15.15,0,0,0,.11-.06.54.54,0,0,0,.07-.13,6.23,6.23,0,0,0,.15-.68q.11-.57.21-1.08c.06-.34.1-.51.1-.51h-.44a.08.08,0,0,1,0-.05l0-.12s0,0,0,0h.43s0-.08,0-.23a1.93,1.93,0,0,1,.05-.26c.11-.49.33-.73.65-.73a.41.41,0,0,1,.27.1.26.26,0,0,1,.11.23.3.3,0,0,1-.09.24.37.37,0,0,1-.19.07c-.13,0-.2-.06-.2-.19a.24.24,0,0,1,.05-.14.33.33,0,0,1,.11-.1l0,0-.13,0a.18.18,0,0,0-.11.05.23.23,0,0,0-.06.12l-.08.35c0,.15-.05.27-.07.37l0,.16a.93.93,0,0,0,.25,0H20l0,0a.32.32,0,0,1,0,.08s0,.06,0,.07,0,0,0,0H19.5l-.11.54c-.14.74-.24,1.2-.3,1.39a1.29,1.29,0,0,1-.31.56.53.53,0,0,1-.33.14.44.44,0,0,1-.25-.08.29.29,0,0,1-.12-.24.33.33,0,0,1,.09-.25.32.32,0,0,1,.19-.07c.13,0,.2.06.2.19a.24.24,0,0,1,0,.14.26.26,0,0,1-.11.1Z"/><path class="cls-6" d="M20.44,26.34a1.21,1.21,0,0,1,.39-.88,1.14,1.14,0,0,1,.83-.39.62.62,0,0,1,.39.11.33.33,0,0,1,.15.28.33.33,0,0,1-.08.22.29.29,0,0,1-.22.09.17.17,0,0,1-.13,0,.15.15,0,0,1-.05-.13.22.22,0,0,1,.05-.16.28.28,0,0,1,.1-.09l.06,0h0l0,0a.19.19,0,0,0-.1,0l-.15,0a.62.62,0,0,0-.26.06,1,1,0,0,0-.19.14,1.18,1.18,0,0,0-.28.56,3.67,3.67,0,0,0-.1.52.38.38,0,0,0,.12.3.33.33,0,0,0,.26.11h0a1,1,0,0,0,.82-.38s.05,0,.06,0,0,0,.05,0,.05,0,.05.06a.13.13,0,0,1,0,.07L22,26.8a.69.69,0,0,1-.2.13l-.29.12a1,1,0,0,1-.36.05.74.74,0,0,1-.54-.22A.82.82,0,0,1,20.44,26.34Z"/><path class="cls-6" d="M22.77,26.51a.41.41,0,0,0,.11.32.39.39,0,0,0,.27.1.61.61,0,0,0,.37-.14,1,1,0,0,0,.28-.38c0-.06.06-.17.1-.33a1.69,1.69,0,0,0,.06-.41.45.45,0,0,0-.08-.3.34.34,0,0,0-.28-.13.61.61,0,0,0-.5.26,1.33,1.33,0,0,0-.25.52A2.52,2.52,0,0,0,22.77,26.51Zm.36.59a.71.71,0,0,1-.54-.22.74.74,0,0,1-.21-.53,1.17,1.17,0,0,1,.13-.55,1.59,1.59,0,0,1,.37-.45,1.12,1.12,0,0,1,.69-.27h.18l.12,0,.15.07a.58.58,0,0,1,.17.14.64.64,0,0,1,.11.22.75.75,0,0,1,.06.31,1.34,1.34,0,0,1-1.23,1.25Z"/><path class="cls-6" d="M25,25.76a.73.73,0,0,1,.07-.29.8.8,0,0,1,.25-.28.78.78,0,0,1,.44-.12.56.56,0,0,1,.4.12.39.39,0,0,1,.13.27.26.26,0,0,1-.08.21.22.22,0,0,1-.17.07.17.17,0,0,1-.1,0,.14.14,0,0,1-.06-.12.21.21,0,0,1,0-.12s.05-.07.08-.08a.09.09,0,0,1,.06,0h0l0,0-.11,0-.18,0a.42.42,0,0,0-.31.11.36.36,0,0,0-.1.24.17.17,0,0,0,.08.16,1,1,0,0,0,.25.07,1.07,1.07,0,0,1,.23.07.45.45,0,0,1,.3.43.74.74,0,0,1-.05.25,1.65,1.65,0,0,1-.15.25.75.75,0,0,1-.28.2,1.32,1.32,0,0,1-.42.07.72.72,0,0,1-.49-.13.42.42,0,0,1-.15-.3.28.28,0,0,1,.1-.25.29.29,0,0,1,.19-.08.28.28,0,0,1,.13,0,.17.17,0,0,1,.06.14.3.3,0,0,1-.08.2.23.23,0,0,1-.14.08h0a0,0,0,0,0,0,0l0,0,.14.05a.61.61,0,0,0,.24,0,.78.78,0,0,0,.28-.05.4.4,0,0,0,.17-.13.5.5,0,0,0,.08-.14.52.52,0,0,0,0-.11.23.23,0,0,0-.09-.19.57.57,0,0,0-.22-.07.92.92,0,0,1-.26-.07.35.35,0,0,1-.21-.16A.44.44,0,0,1,25,25.76Z"/><path class="cls-6" d="M27,26.46c0,.31.08.47.23.47a.28.28,0,0,0,.15,0,.89.89,0,0,0,.18-.17,2.16,2.16,0,0,0,.22-.39c.07-.18.14-.4.21-.65l0-.08h-.87a1,1,0,0,1,0,.17,2.7,2.7,0,0,0-.07.35A2.24,2.24,0,0,0,27,26.46Zm1.2-1.94c0-.3-.07-.46-.23-.46a.44.44,0,0,0-.32.2,2.25,2.25,0,0,0-.25.46q-.09.26-.15.45a2.2,2.2,0,0,1-.06.22h.87a1,1,0,0,0,0-.15c0-.09,0-.21.07-.35A1.27,1.27,0,0,0,28.2,24.52Zm-1.55,1.63a3.14,3.14,0,0,1,.17-1,3,3,0,0,1,.48-.87,1.08,1.08,0,0,1,.62-.42H28a.45.45,0,0,1,.37.22,1.28,1.28,0,0,1,.18.72,3,3,0,0,1-.2,1,2.61,2.61,0,0,1-.52.87.85.85,0,0,1-.6.34h0a.45.45,0,0,1-.28-.09.66.66,0,0,1-.17-.23,1.11,1.11,0,0,1-.08-.3A1.73,1.73,0,0,1,26.65,26.15Z"/><path class="cls-6" d="M30,26v-.06a.1.1,0,0,1,.06-.09h2.6a.1.1,0,0,1,0,.18H30a.1.1,0,0,1-.06-.09Z"/><path class="cls-6" d="M34.48,25.93a3.52,3.52,0,0,1,0-.58c0-.19.07-.35.1-.48a2,2,0,0,1,.17-.4l.17-.3a1.14,1.14,0,0,1,.19-.23l.14-.15.12-.09h.07s.06,0,.06,0,0,0-.07.09a1.47,1.47,0,0,0-.18.24,1.9,1.9,0,0,0-.22.38,2.28,2.28,0,0,0-.19.62,4.66,4.66,0,0,0,0,1.72,3.12,3.12,0,0,0,.18.62,2.13,2.13,0,0,0,.22.38l.19.24.07.09s0,0-.06,0h-.07l-.13-.1a2.26,2.26,0,0,1-.61-.95A3.6,3.6,0,0,1,34.48,25.93Z"/><path class="cls-6" d="M36.75,24.47l-.06,0-.18,0a1,1,0,0,1-.26,0h-.08v-.2h.08a1.59,1.59,0,0,0,.39-.07.86.86,0,0,0,.25-.11l.13-.09s0,0,0,0a.13.13,0,0,1,.08,0v2.67l.05,0a.23.23,0,0,0,.11,0h.39v.21h-.05c-.06,0-.29,0-.71,0s-.64,0-.7,0h-.05v-.21h.4l.07,0h0s0,0,0,0l0,0Z"/><path class="cls-6" d="M39.4,26v-.06a.1.1,0,0,1,.06-.09h2.6a.09.09,0,0,1,0,.18h-2.6a.1.1,0,0,1-.06-.09Z"/><path class="cls-6" d="M44,27.77h.13a.15.15,0,0,0,.11-.06.54.54,0,0,0,.07-.13,6.23,6.23,0,0,0,.15-.68q.1-.57.21-1.08c.06-.34.1-.51.1-.51h-.44a.08.08,0,0,1,0-.05l0-.12s0,0,0,0h.43s0-.08,0-.23a1.93,1.93,0,0,1,.05-.26c.11-.49.33-.73.65-.73a.41.41,0,0,1,.27.1.26.26,0,0,1,.11.23.3.3,0,0,1-.09.24.37.37,0,0,1-.19.07c-.13,0-.2-.06-.2-.19a.24.24,0,0,1,.05-.14.33.33,0,0,1,.11-.1l0,0-.13,0a.18.18,0,0,0-.11.05.23.23,0,0,0-.06.12l-.08.35c0,.15,0,.27-.07.37l0,.16a.93.93,0,0,0,.25,0h.23l0,0a.32.32,0,0,1,0,.08s0,.06,0,.07,0,0,0,0h-.49l-.11.54c-.14.74-.24,1.2-.3,1.39a1.29,1.29,0,0,1-.31.56.53.53,0,0,1-.33.14.44.44,0,0,1-.25-.08.29.29,0,0,1-.12-.24.33.33,0,0,1,.09-.25.32.32,0,0,1,.19-.07c.13,0,.2.06.2.19a.24.24,0,0,1,0,.14.26.26,0,0,1-.11.1Z"/><path class="cls-6" d="M46.22,23.7h.12l.12.1a2.17,2.17,0,0,1,.61.95,3.61,3.61,0,0,1,.2,1.18A4.29,4.29,0,0,1,47.12,27a2.66,2.66,0,0,1-.17.4,3.2,3.2,0,0,1-.17.3,1.46,1.46,0,0,1-.18.22l-.14.15-.11.09h-.14s0,0,0,0l0-.06a3,3,0,0,0,.69-2.12,3,3,0,0,0-.69-2.12l0-.06A.08.08,0,0,1,46.22,23.7Z"/></g></svg>