<?xml version="1.0" encoding="utf-8"?>
<!-- Generator: Adobe Illustrator 25.2.0, SVG Export Plug-In . SVG Version: 6.00 Build 0)  -->
<svg version="1.1" id="图层_1" xmlns="http://www.w3.org/2000/svg" xmlns:xlink="http://www.w3.org/1999/xlink" x="0px" y="0px"
	 viewBox="0 0 280 280" style="enable-background:new 0 0 280 280;" xml:space="preserve">
<style type="text/css">
	.st0{fill-rule:evenodd;clip-rule:evenodd;fill:#FFFFFF;}
	.st1{fill-rule:evenodd;clip-rule:evenodd;fill:#595757;}
	.st2{fill-rule:evenodd;clip-rule:evenodd;fill:#5F946A;}
	.st3{fill-rule:evenodd;clip-rule:evenodd;fill:#B71C22;}
	.st4{fill-rule:evenodd;clip-rule:evenodd;fill:#404A7B;}
</style>
<path class="st0" d="M140,0c77.32,0,140,62.68,140,140c0,77.32-62.68,140-140,140C62.68,280,0,217.32,0,140C0,62.68,62.68,0,140,0
	L140,0z"/>
<path class="st1" d="M140,56.37c47.32,0,85.7,37.72,85.7,84.23c0,4.8-0.42,9.5-1.2,14.08l-4.01-1.65c0.64-4.05,0.98-8.2,0.98-12.43
	c0-44.21-36.48-80.07-81.47-80.07c-26.86,0-50.68,12.78-65.52,32.49l-4.01-1.65C86.03,70.17,111.38,56.37,140,56.37L140,56.37z
	 M40.41,174.94l-0.3-0.98c-0.06-0.21-0.13-0.39-0.2-0.52c-0.07-0.14-0.16-0.24-0.27-0.3c-0.11-0.06-0.28-0.07-0.51-0.04
	c-0.23,0.04-0.49,0.09-0.8,0.17l-12.81,3.3c-0.41,0.11-0.66,0.23-0.75,0.35c-0.08,0.13-0.09,0.33-0.01,0.61l0.36,1.21l-0.86,0.22
	l-3.73-13.41l4.78-1.16l0.2,0.73c-0.15,0.07-0.29,0.13-0.41,0.18c-0.12,0.05-0.3,0.12-0.54,0.22c-0.24,0.1-0.48,0.22-0.75,0.34
	c-0.26,0.13-0.49,0.27-0.68,0.42c-0.19,0.16-0.36,0.35-0.5,0.57c-0.13,0.22-0.22,0.47-0.26,0.75c-0.04,0.27-0.05,0.55-0.03,0.85
	c0.02,0.3,0.09,0.66,0.21,1.09l1.19,4.26l6.84-1.76l-0.71-2.54c-0.04-0.17-0.11-0.35-0.18-0.54c-0.07-0.2-0.17-0.35-0.31-0.47
	c-0.13-0.12-0.33-0.21-0.58-0.28c-0.25-0.07-0.52-0.09-0.81-0.08c-0.29,0.02-0.64,0.06-1.04,0.14l-0.41,0.08l-0.21-0.75l6.52-1.68
	l0.21,0.75l-0.45,0.14c-0.32,0.12-0.67,0.27-1.05,0.46c-0.37,0.19-0.62,0.39-0.73,0.59c-0.11,0.21-0.16,0.43-0.15,0.65
	c0.01,0.23,0.06,0.48,0.14,0.78l0.7,2.52l5.96-1.54c0.52-0.14,0.83-0.22,0.91-0.25c0.09-0.03,0.17-0.09,0.26-0.18
	c0.08-0.09,0.14-0.19,0.16-0.33c0.02-0.13-0.01-0.31-0.09-0.55l-0.78-2.8c-0.06-0.21-0.13-0.45-0.21-0.7
	c-0.08-0.25-0.15-0.44-0.22-0.58c-0.06-0.14-0.18-0.35-0.34-0.64c-0.17-0.28-0.35-0.52-0.57-0.7c-0.21-0.18-0.47-0.34-0.77-0.46
	c-0.3-0.13-0.65-0.22-1.04-0.27c-0.39-0.05-0.88-0.07-1.45-0.03l-0.61,0.03l-0.23-0.82l5.06-0.79l3.76,13.49L40.41,174.94
	L40.41,174.94z M147.82,24.95c0.04-0.27,0.08-0.57,0.14-0.92c0.06-0.34,0.15-0.77,0.28-1.27c0.13-0.5,0.29-0.96,0.47-1.38
	c0.18-0.41,0.45-0.85,0.79-1.31c0.34-0.46,0.68-0.85,1.03-1.15c0.34-0.3,0.7-0.57,1.07-0.79c0.37-0.23,0.79-0.43,1.25-0.61
	c0.47-0.18,0.91-0.31,1.32-0.4c0.41-0.09,0.81-0.13,1.2-0.14c0.39-0.01,0.8,0.01,1.22,0.06c0.6,0.09,1.16,0.23,1.69,0.41
	c0.52,0.19,1,0.43,1.43,0.72c0.43,0.29,0.83,0.6,1.17,0.94c0.35,0.34,0.68,0.72,0.98,1.14c0.31,0.43,0.57,0.91,0.78,1.45
	c0.21,0.54,0.34,1.13,0.4,1.75c0.06,0.62,0.07,1.22,0.05,1.79c-0.02,0.57-0.06,1.01-0.09,1.3c-0.05,0.25-0.11,0.55-0.19,0.9
	c-0.08,0.35-0.17,0.72-0.28,1.11c-0.11,0.39-0.25,0.78-0.41,1.16c-0.16,0.38-0.43,0.83-0.81,1.36c-0.38,0.53-0.77,0.97-1.19,1.31
	c-0.41,0.34-0.86,0.62-1.34,0.83c-0.48,0.21-0.94,0.37-1.37,0.48c-0.43,0.11-0.8,0.18-1.11,0.22c-0.31,0.04-0.66,0.05-1.05,0.06
	c-0.39,0-0.69-0.01-0.9-0.03c-0.26-0.02-0.61-0.08-1.04-0.2c-0.43-0.12-0.83-0.26-1.2-0.43c-0.37-0.17-0.81-0.43-1.32-0.78
	c-0.51-0.35-0.92-0.7-1.24-1.05c-0.32-0.36-0.63-0.82-0.93-1.4c-0.3-0.58-0.51-1.1-0.65-1.56c-0.13-0.46-0.21-0.92-0.25-1.37
	c-0.03-0.45-0.04-0.84-0.02-1.18C147.75,25.64,147.78,25.3,147.82,24.95L147.82,24.95z M140,5.81c37.06,0,70.6,15.02,94.89,39.3
	c24.28,24.28,39.3,57.83,39.3,94.89c0,37.05-15.02,70.6-39.3,94.89c-24.28,24.28-57.83,39.3-94.89,39.3
	c-37.05,0-70.6-15.02-94.89-39.3C20.83,210.6,5.81,177.06,5.81,140c0-37.06,15.02-70.6,39.3-94.89C69.39,20.83,102.94,5.81,140,5.81
	L140,5.81z M16.09,185.01h40.7c-7.97-13.73-12.54-29.63-12.54-46.57c0-51.97,42.88-94.11,95.75-94.11
	c52.87,0,95.75,42.14,95.75,94.11c0,16.94-4.56,32.84-12.53,46.57h40.7c5.1-14.04,7.89-29.2,7.89-45.01
	c0-36.4-14.75-69.35-38.6-93.19C209.34,22.96,176.39,8.2,140,8.2c-36.4,0-69.34,14.75-93.19,38.6C22.95,70.66,8.2,103.61,8.2,140
	C8.2,155.81,10.99,170.97,16.09,185.01L16.09,185.01z M236.2,214.68l1.03,2.07c0,0,0.66,1.67,0.19,2.2c-0.47,0.53-6,4.1-6,4.1
	s-1.2,0.07-1.74,0.38c-0.54,0.31-1.05-0.21-0.61-0.85c0.44-0.64,0.35-0.88,1.2-1.44c0.85-0.56,1.95-1.33,1.95-1.33
	s0.66-0.52,0.93-1.13c0.28-0.61,1.16-1.5,0.82-2.05c-0.35-0.55-0.73-1.28-0.73-1.28s-1.22,0.42-1.5,0.91
	c-0.28,0.48-1.28,1.96-1.81,2.1c-0.53,0.13-0.92,0.27-1.41-0.35c-0.49-0.62-0.78-1.59-0.4-2.19c0.38-0.59,0.66-0.82,1.24-1.21
	c0.58-0.38,1.28-0.89,1.49-1.03c0.21-0.14,0.43-0.71-0.02-0.84c-0.45-0.13-1.38,0.44-1.87,0.89c-0.48,0.45-1.01,0.46-1.52,0.32
	c-0.5-0.14-1.83,0.01-2.11,0.49c-0.28,0.49-0.44,1.32-1.01,1.66c-0.57,0.33-1.3,0.3-1.71,0.23c-0.41-0.07-0.46,0.17-0.4,0.57
	c0.06,0.39,0.58,1.12,0.57,1.55c0,0.43-0.67,0.87-0.97,0.77c-0.3-0.1-0.9-0.14-1.44-0.89c-0.54-0.76-0.9-1.26-1.04-2.02
	c-0.15-0.76-0.03-0.97,0.16-1.83c0.19-0.86,0.04-1.45,0.16-1.96c0.13-0.51,0.3-0.71,0.61-0.7c0.32,0.01,1.01-0.15,0.71-0.64
	c-0.3-0.49-0.88-1.23-0.88-1.23s-0.03-1.48-0.36-2c-0.32-0.52-0.35-0.93-0.37-1.65c-0.02-0.72,0.06-0.3-0.15-1.28
	c-0.21-0.98-0.63-1.26-1.06-1.66c-0.42-0.41-1.56-0.43-1.4-0.96c0.16-0.53,0.53-0.95,1.27-0.67c0.74,0.28,1.34-0.07,1.12-0.44
	c-0.22-0.37-0.77-1.21-0.31-1.56c0.47-0.35,1.1-0.64,1.49-0.86c0.38-0.21,1.33-0.45,1.6-0.07c0.27,0.38,0.48,0.67,0.64,1.08
	c0.16,0.41,0.39,0.73,0.68,0.2c0.29-0.54,1.05-1.81,0.74-2.38c-0.32-0.57-0.26-0.95-0.42-1.36c-0.16-0.41,0.11-1.19,0.48-1.26
	c0.37-0.07,0.74,0.23,0.72,0.51c-0.02,0.29,0.07,0.73,0.74,0.84c0.67,0.12,2.2,0.83,2.54,1.52c0.35,0.7,0.86,0.87,1.17,0.92
	c0.31,0.05,0.61,0.28,0.36,1.13c-0.24,0.85-0.48,1.65,0.49,1.31c0.97-0.34,2.38-1.36,2.62-1.52c0.24-0.16,0.85-0.43,1.95-0.21
	c1.1,0.22,1.51,0.17,1.75,0.39c0.38,0.34,0.54,0.76,0.6,1.28c0.06,0.52-0.03,1.27-0.73,1.73c-0.7,0.46-1.87,1.2-2.24,1.44
	c-0.36,0.24-1.23,0.9-1.23,0.9s0.54,2-0.07,3.4l0.93,1.36c0,0,0.51,0.65,1.4,0.15c0.89-0.5,0.96-1.15,1.56-0.95
	c0.59,0.21,1.37,0.47,1.47,1.05c0.1,0.58-0.42,1.35-0.92,1.64c-0.51,0.29-1.28,0.76-1.26,1.05
	C235.69,213.34,236.2,214.68,236.2,214.68L236.2,214.68z M225.94,201.62c0,0-1.39,1.38-0.5,2.33c0.9,0.95,0.9,0.51,1.26,0.79
	c0.36,0.28,0.16,0.52,0.12,0.71c-0.04,0.19-0.81,0.74-1.15,0.51c-0.34-0.23-1.24-1.97-1.28-2.03c-0.04-0.05,0.08-1.95,0.66-2.52
	c0.59-0.57,0.66-0.65,0.81-0.33C226.17,201.34,225.94,201.62,225.94,201.62L225.94,201.62z M223.33,213.13
	c-0.13-0.07-0.61,0.03-0.5-0.34c0.05-0.18,0.36-0.26,0.54-0.33c1.45-0.53,3.27-3.1,3.56-3.85c0.24-0.62,0.54-1.26,0.86-1.31
	c0.32-0.04,0.62,0.3,0.44,0.58c-0.18,0.29-1.19,2.08-1.34,2.22c-0.14,0.14-1.4,1.77-1.77,1.96
	C224.85,212.25,223.46,213.2,223.33,213.13L223.33,213.13z M229.13,206.09c-0.16-0.35,1.07-0.66,1.34-1.22
	c0.26-0.56,0.91-1.52,0.91-1.52s0.51-0.13,0.56,0.3c0.05,0.43-0.67,1.36-0.99,1.58C230.61,205.44,229.3,206.44,229.13,206.09
	L229.13,206.09z M202.95,229.72c0,0,0.29,1.39,1.37,0.7c1.08-0.69,2.03-1.08,2.95,0.05c0.92,1.14,0.72,2.33,0.36,2.8
	c-0.36,0.47-2.39,1.71-2.11,3.32c0.29,1.62,1.05,4.69,1.11,5.27c0.05,0.58,0.22,2.37-1.95,3.55c-2.18,1.19-3.67,1.84-3.93,1.95
	c-0.26,0.12-1.51,0.46-1.5-0.64c0.01-1.11,0.38-1.31,1.14-1.77c0.76-0.46,1.59-1.49,1.88-2.19c0.29-0.7,0.5-1.94,0.33-2.28
	c-0.17-0.34-0.14-0.85-0.92-0.49c-0.77,0.35-2.04,0.9-2.04,0.9s-1.32-0.04-2.19-0.67c-0.87-0.63-0.97-0.85-0.99-1.6
	c-0.02-0.75,0.4-1.44,1.1-1.3c0.7,0.14,1.27,0.18,1.78-0.63c0.51-0.8,1.78-1.99,1.69-3.21c-0.09-1.21-1.13-3.09-1.38-3.43
	c-0.25-0.34-1.57-1.49-1.71-2.33c-0.14-0.85-0.03-1.43,0.87-1.84c0.9-0.41,2.03-0.44,2.33,0.07c0.29,0.51,1.02,1.66,1.18,2.16
	C202.48,228.6,202.95,229.72,202.95,229.72L202.95,229.72z M209.79,237.23c0,0,3.41-1.18,4.93-0.66c1.52,0.52,1.86,0.48,2.04,0.85
	c0.18,0.37,0.49,0.99,0.05,1.61c-0.44,0.62-0.87,1.99-2.51,1.72c-1.64-0.28-2.41-0.64-3.14-0.84c-0.73-0.2-2.94-0.82-2.76-1.66
	C208.83,237.29,209.79,237.23,209.79,237.23L209.79,237.23z M160.23,252.43l-0.32-2.27c0,0,0.28-1.33,1.22-1.1
	c0.93,0.23,1.66,1.25,1.66,1.25s0.14,0.84-0.17,1.37c-0.3,0.53-0.39,1.35-0.02,2.26c0.37,0.91,0.53,2.18,1.11,2.36
	c0.59,0.18,1.1,0.91,1.72,0.6c0.62-0.31,1.7-0.58,1.39-1.83c-0.32-1.24-0.09-3.53-0.23-4.05c-0.13-0.53-0.09-3.27-0.1-3.65
	c-0.01-0.37,0.65-1.12,0.92-1.54c0.27-0.42,0.21-0.65,0-0.89c-0.21-0.24-0.37-1.24-0.23-1.77c0.14-0.54,0.83-0.82,1.21-0.88
	c0.38-0.06,1.1-0.44,1.11-0.71c0.01-0.27,0.02-0.54,0.02-0.54s-2.04,1.17-2.7,1.27c-0.65,0.1-1.87-0.47-1.95-1.32
	c-0.08-0.85,0.36-1.56,1.13-2c0.76-0.44,1.97-0.62,2.37-0.9c0.4-0.28,1.84-1.03,2.55-1.14c0.71-0.11,1.91-0.61,2.26-0.18
	c0.35,0.43,0.42,1.23,0.1,1.65c-0.32,0.43-0.84,0.99-0.87,1.48c-0.03,0.49-0.1,1.47-0.1,1.47s1.1,0.21,1.27,0.56
	c0.17,0.35-0.03,1.19-0.24,1.6c-0.21,0.41-0.06,0.33-0.06,0.33s1.44-0.11,1.82-0.17c0.38-0.06,2.25,0.73,2.47,2.1
	c0.22,1.36,1.42,7.26,1.42,7.26l0.12,1.76c0,0-0.36,1.18-1.54,1.52c-1.17,0.34-3.34-0.57-3.34-0.57s-1.12,1.03-1.53,0.88
	c-0.42-0.15-1.56,0.11-1.92-0.87c-0.36-0.97-1.78-1.46-2-2.79c-0.22-1.34,0.95-1.92,1.16-2.21c0.21-0.29-1.34-0.98-1.59-0.51
	c-0.26,0.47,0.06,2.73-0.01,3.66c-0.07,0.92,0.22,2.71,0.34,3.07c0.12,0.36,4.12,0.56,6.24,0.23c2.13-0.32,4.47-0.68,6.49-1.31
	c2.02-0.63,3.36-0.99,3.36-0.99s0.98,0.17,0.18,1.1c-0.8,0.93-2.24,2.13-2.16,2.77c0.09,0.63-0.22,0.87-0.22,0.87
	s-2.15,0.81-2.82,0.48c-0.67-0.33-1.97-0.4-2.47-0.05c-0.5,0.35-3.57,1.08-4.37,0.61c-0.81-0.47-1.42-0.16-2.3-0.03
	c-0.87,0.13-2.72-0.23-3.15-0.49c-0.43-0.26-3.7-0.41-4.51,0.09c-0.81,0.5-2.52,0.98-2.81,0.59c-0.29-0.39-1.88-0.9-1.7-2.16
	c0.18-1.27,1.62-1.7,2.13-1.35c0.5,0.35,0.9,0.03,0.77-0.44c-0.13-0.46-1.2-2.56-1.22-3.31
	C160.14,252.88,160.23,252.43,160.23,252.43L160.23,252.43z M162.31,246.03c0,0,1.06-0.38,0.96-0.95c-0.1-0.58-0.71-1.61-1.31-1.52
	c-0.6,0.09-1.85-0.04-2.06,1.07c-0.21,1.11,0.22,1.31,0.76,1.23C161.2,245.77,162.31,246.03,162.31,246.03L162.31,246.03z
	 M174.96,252.88l1.36-0.21c0,0,0.08-0.51,0.03-0.81c-0.05-0.3-0.35-3.12-0.47-2.85c-0.12,0.27-0.8-1.2-0.75-2.11
	c0.05-0.92-0.81-1.07-1.13-0.83c0.35,0.75,0.14,2.13,0.1,1.56c-0.04-0.57,0.27,1.65,0.51,1.92c0.24,0.27,0.95,0.7,1.12,0.98
	c0.17,0.28,0.47,0.43,0.04,1.22C175.34,252.55,174.93,252.73,174.96,252.88L174.96,252.88z M126.31,258.37
	c-0.43-0.32-2.84,0.2-4.7,1.13c-1.86,0.93-3.73,1.14-4.95,0.78c-1.22-0.36-2.31-1.47-2.02-1.97c0.29-0.5,1.97-0.46,2.65-0.72
	c0.68-0.26,1.62-0.56,2.15-0.53c0.53,0.03,1.5-0.78,1.5-0.78s0.28-0.33-0.46-0.41c-0.75-0.08-1.48-0.41-2.68-0.34
	c-1.2,0.07-2.17,0.11-2.7,0.13c-0.53,0.02-1.08-0.48-1.41-0.88c-0.33-0.4-1.68-0.98-0.78-1.74c0.89-0.76,3.06-0.32,3.9-0.32
	c0.84,0,1.43,0.58,1.94,0.05c0.52-0.53,0.66-0.69,0.4-0.92c-0.25-0.23-1.35-2.02-0.15-2.26c1.21-0.24,2.21-0.83,2.25-1.55
	c0,0-1.31-0.34-1.53-1.1c-0.22-0.76-0.26-1.66,0.3-2.15c0.55-0.49,0.72-0.43,1.42-0.31c0.7,0.12,0.75,0.12,1.34-0.19
	c0.59-0.31,1.94-0.84,2.6-0.77c0.66,0.07,1.63,0.89,1.92,1.28c0.29,0.4,0.58,1.64,0.16,2.05c-0.42,0.41-1.77,1.66-1.92,1.99
	c-0.15,0.33,0.01,0.6,0.4,0.79c0.39,0.19,1.46,1.69,1.57,2.12c0.11,0.43,0.06,1.32-0.2,2.12c-0.26,0.8-0.32,0.96,0.41,1.55
	c0.72,0.59,1.27,1,1.57,1.31c0.29,0.31,1.72,0.89,2.54,1.23c0.82,0.34,3.26,1.86,3.95,2.32c0.68,0.46,2.35,1.6,2.67,2.22
	c0.32,0.61,0.89,1.62,0.37,2.19c-0.52,0.57-1.79,0.47-2.04,0.2c-0.25-0.27-2.44-2.33-2.92-2.57c-0.47-0.23-1.18-0.99-2.18-1.42
	c-0.99-0.43-0.96-1.02-1.35-1.17c-0.39-0.15-1.09-0.22-1.4-0.37c-0.3-0.14-0.8-0.68-1.16-0.69
	C127.4,258.63,126.74,258.68,126.31,258.37L126.31,258.37z M124.42,239.21c0,0,0.93-0.77,1.32-0.84c0.39-0.06,0.98-0.03,1.42,0.44
	c0.44,0.47,1.57,1.59,1.1,2.59c-0.48,1-0.97,1.47-1.56,1.44c-0.59-0.03-2.59-0.86-2.69-1.32c-0.1-0.46-0.25-0.83,0.15-1.14
	C124.31,240.06,124.25,239.2,124.42,239.21L124.42,239.21z M128.5,248.15c0.12-0.65,1-0.36,1.07-0.07c0.07,0.29,0.85,0,1.26,0.35
	c0.41,0.35,1.8,1.32,1.73,2.58c-0.07,1.26-0.76,2.29-2,1.74C129.28,252.24,128.38,248.8,128.5,248.15L128.5,248.15z M122.21,253.94
	l0.97,0.05c0,0-0.14-0.54-0.48-0.59C122.36,253.33,122.22,253.73,122.21,253.94L122.21,253.94z M83.34,247.89c0,0-2.52,4-4.06,3.65
	c-1.54-0.34-2.11-0.51-2.38-1.18c-0.27-0.67-0.83-2.45-1.16-2.62c-0.33-0.17-0.55-0.11-0.97,0.06c-0.42,0.17-2.18-0.11-2.6-0.79
	c-0.42-0.68-0.85-1.56-0.55-2.16c0.29-0.6,0.61-1.01,1.38-1.09c0.78-0.09,2.37-0.72,2.37-0.72s0.68-1.55,1.83-1.83
	c1.15-0.28,1.94-0.51,1.94-0.51s-0.07-3.21,0.02-3.94c0.1-0.73,0.77-2.38,1.63-2.91c0.86-0.52,3.27-1.39,3.38-1.63l0.34-0.73
	c0,0-1.59-1.07-1.46-1.64c0.13-0.57,0.56-0.65,1.1-0.63c0.54,0.01,1.93-0.13,2.51,0.14c0.58,0.27,0.6-0.25,0.6-0.25
	s-0.6-1.56,0.51-1.85c1.11-0.29,2.17,0.25,2.36,0.51c0.19,0.26,0.39,1.34,0.23,1.61c-0.16,0.27,0.82,0.4,0.82,0.4
	s1.08-0.35,1.17,0.16c0.09,0.51,1.02,1.62,0.26,2.28c-0.76,0.66-1.48,0.49-2.13,0.24c-0.64-0.24-0.72,0.06-0.9,0.28
	c-0.19,0.21-0.29,0.46-0.29,0.7c0,0.24,0.52,0.53,0.95,0.69c0.43,0.16,1.54,0.72,1.96,0.88c0.43,0.16,1.16,0.44,1.49,0.47
	c0.33,0.03,1.14,0.24,1.15,1.05c0.01,0.81-0.37,2.62-0.77,2.99c-0.4,0.37-1.41,0.24-1.56,0.08c-0.12-0.13-0.95,0.11-1.84,0.87
	c-1.61,1.4-4.56,2.68-4.98,2.74c-0.63,0.09-1.01,1.52-0.65,1.85c0.36,0.33,0.79,0.97,2.05,1.39c1.26,0.43,3.92,1.53,3.92,1.53
	s1.05,1.06,0.5,2.04c-0.55,0.98-1.02,2.14-1.35,2.35c-0.33,0.21-1.6,0.54-2.79-0.43c-1.19-0.97-3.07-3.39-3.26-3.89
	C83.98,247.56,83.34,247.89,83.34,247.89L83.34,247.89z M85.24,232.82c0,0,1.36,0.69,0.53,1.16c-0.83,0.47-1.2,0.38-1.59,0.32
	c-0.38-0.06-0.68-0.34-0.31-0.47c0.37-0.12,0.99-0.41,0.99-0.41L85.24,232.82L85.24,232.82z M88.74,236.47c0,0,0.52-0.42,0.73-0.1
	c0.22,0.32,0.36,0.71-0.19,1.07c-0.55,0.37-0.92,0.08-0.8-0.21C88.6,236.94,88.74,236.47,88.74,236.47L88.74,236.47z M77.31,246.57
	l3.64-2.15c0,0,0.25,0.85-0.43,2.03c-0.68,1.17-1.34,1.35-1.49,1.58c-0.14,0.23-1.22-0.27-1.4-0.81
	C77.47,246.67,77.31,246.57,77.31,246.57L77.31,246.57z M82.48,236.91l1.18,1.82c0,0,0.07,0.93-0.57,0.78
	c-0.63-0.14-1.03-0.15-1.18-0.73C81.75,238.21,82.31,237.09,82.48,236.91L82.48,236.91z M54.08,220.32l-2.66,3.19
	c0,0-1.93,1.89-2.74,2.25c-0.82,0.36-1.22,0.35-1.57,0.72c-0.35,0.37-0.6,0.69-0.95,0.6c-0.35-0.08-0.56-0.18-0.42-0.59
	c0.14-0.4,0.03-1.03-0.05-1.37c-0.07-0.29,1.41-2.19,1.65-2.65c0.19-0.36,0.88-1.11,1.37-1.65c0.49-0.54,1.34-1.1,1.8-1.45
	c0.45-0.35,0.88-0.51,0.91-1.14c0.03-0.63-0.64-1.16-1.36-1.31c-0.72-0.15-1.09-0.53-1.28-1.26c-0.18-0.73,0.33-1.26,0.86-1.87
	c0.53-0.61,1.7-0.51,2.08-0.03c0.38,0.48,1.37,0.91,1.84,1.01c0.47,0.1,0.79-0.55,0.79-0.55s-0.04-0.12-1.02-0.33
	c-0.98-0.21-2.89-0.91-2.89-0.91l-3.45-0.5c0,0-1.59-0.48-1.99-0.77c-0.39-0.29-1.43-1.47-1.34-1.77c0.09-0.3,0.57-0.6,1.35-0.31
	c0.78,0.29,2.84,0.79,2.84,0.79s0.98-0.21,1.56,0.22c0.58,0.42,1.09,0.38,1.09,0.38l0.78,0.29c0,0,0.5-0.14,0.11-0.56
	c-0.39-0.42-0.54-1.14-0.04-2.07c0.5-0.93,1.19-1.07,2.5-1.22l0.81-0.84c0,0,1.05-0.48,1.44-0.42c0.39,0.06,1.12-0.01,1.39,0.19
	c0.27,0.2,0.74,0.46,1.21,0.66c0.46,0.2,1.63,0.37,1.63,0.37s0.2-0.13-0.19-0.42c-0.4-0.29-0.7-0.09-0.93-0.22
	c-0.24-0.13-1.12-0.78-1.12-0.78s-1.07-0.35-1.29-0.8c-0.21-0.46-0.26-1.31-0.15-1.87c0.11-0.57,0.52-1.57,1.48-1.51
	c0.96,0.06,2.61,0.35,3.16,0.75c0.55,0.4,0.66,0.44,0.66,0.44l0.08-0.22c0,0-2.09-1.86-1.87-2.81c0.22-0.95,2.18-1.23,2.9-0.93
	c0.73,0.3,1.96,1.35,1.96,1.35s0.61,1.05,0.5,1.8c-0.11,0.75-0.13,1.25,0.15,1.27c0.28,0.02,0.97-1.1,0.97-1.1s0.88-1.35,2.27-0.56
	c1.39,0.79,1.23,1.73,1.01,2.31c-0.22,0.58-1.25,1.4-1.25,1.4s-0.14,0.25,0.31,0.54c0.66,0.43,0.85,1.73,0.42,2.14
	c-0.43,0.4-0.89,0.41-1.05,0.36c-0.16-0.04-0.57-0.05-0.78-0.5c-0.21-0.45,0.16-0.97-0.2-1.24c-0.36-0.26-0.81-0.37-0.94-0.11
	c-0.14,0.27-0.45,0.66-0.29,1.03c0.16,0.37,0.28,0.9-0.35,1.06c-0.62,0.16-1.91,1.12-1.91,1.12s-0.01,0.39,0.47,0.12
	c0.48-0.27,1.01-0.46,1.27-0.45c0.26,0.01,1.26,0.23,1.34,0.8c0.08,0.57,0.34,1.05,0.27,1.33c-0.07,0.28,0.42,1.44,0.17,1.84
	c-0.25,0.41-0.54,1.07-1.41,0.72c-0.87-0.34-2.03-0.22-2.26,0.17c-0.23,0.38,0.39,0.61,0.75,0.73c0.36,0.12,0.7,0.07,1.22,0.28
	c0.52,0.2,0.9,0.4,1.38,1.27c0.49,0.87,0.7,1.32,0.62,1.81c-0.08,0.49-0.19,0.92-1.03,0.78c-0.84-0.14-1.61-0.89-2.36-1.33
	c-0.75-0.44-2.73-1.68-3.17-1.99c-0.43-0.32-1.76-0.75-1.98-0.43c0,0-0.19,0.05,0.31,0.33c0.49,0.29,1.12,0.89,1.12,0.89
	s0.62,1.04,0.53,1.82c-0.09,0.78-0.82,0.79-1.02,0.9c-0.2,0.11-0.82,0.6-1.33,0.48c-0.51-0.12-1.68-1.05-1.68-1.05
	s-1.16-0.16-1.5,0.21C54.91,219.75,54.08,220.32,54.08,220.32L54.08,220.32z M60.72,212.9l0.31-0.43c0,0,0.38-0.24,0.61-0.29
	c0.23-0.05,0.33,0.16,0.11,0.44c-0.22,0.28-0.49,0.66-0.6,0.62C60.91,213.08,60.68,212.99,60.72,212.9L60.72,212.9z M56.86,210.25
	c-0.14-0.06,0.64-0.04,0.9,0.3c0.26,0.34,0.46,0.48-0.08,0.82c-0.53,0.34-2.2,0.72-2.44,0.55c-0.24-0.18-0.09-0.36,0.27-0.53
	c0.36-0.17,0.98-0.09,1.09-0.18c0.12-0.1,0.47-0.64,0.47-0.64S56.99,210.31,56.86,210.25L56.86,210.25z M61.61,185.01L61.61,185.01
	c0.14,0.22,0.28,0.44,0.42,0.66l0.5,0.79c0.18,0.28,0.37,0.57,0.55,0.85l0.4,0.6c0.35,0.52,0.7,1.03,1.06,1.54l0.4,0.57
	c0.21,0.3,0.42,0.59,0.64,0.88l0.5,0.67c0.33,0.44,0.66,0.88,0.99,1.3l0.49,0.63c0.2,0.25,0.39,0.5,0.59,0.75
	c0.25,0.31,0.5,0.62,0.76,0.93c0.29,0.36,0.59,0.71,0.89,1.06l0.5,0.58c0.23,0.27,0.46,0.54,0.7,0.8c0.32,0.36,0.64,0.71,0.96,1.06
	l0.01,0.02c0.24,0.26,0.48,0.51,0.72,0.77l0.54,0.56c0.23,0.24,0.46,0.49,0.69,0.72l0.01,0.01c0.33,0.34,0.67,0.68,1.01,1.02l0,0
	c0.25,0.25,0.5,0.5,0.76,0.74c0.23,0.22,0.45,0.43,0.68,0.65c0.21,0.2,0.41,0.39,0.62,0.59c0.38,0.35,0.76,0.7,1.15,1.05l0.73,0.64
	l0.74,0.64c0.2,0.17,0.4,0.35,0.6,0.52c0.4,0.34,0.81,0.68,1.22,1.01c0.26,0.21,0.51,0.42,0.77,0.62l0.73,0.58
	c0.3,0.24,0.6,0.47,0.91,0.7c0.36,0.28,0.72,0.55,1.09,0.82l0.67,0.49c0.3,0.22,0.6,0.43,0.91,0.65c0.33,0.24,0.66,0.47,1,0.7
	l0.88,0.6c0.26,0.18,0.52,0.35,0.79,0.52c0.37,0.24,0.73,0.48,1.1,0.71l0.71,0.45c0.4,0.25,0.8,0.49,1.2,0.74l0.63,0.38
	c0.52,0.31,1.04,0.61,1.57,0.91l0.17,0.1c0.48,0.27,0.95,0.53,1.43,0.79l0.65,0.35c0.49,0.26,0.99,0.52,1.48,0.77l0.56,0.28
	c0.4,0.2,0.81,0.4,1.22,0.59l0.71,0.34c0.51,0.24,1.02,0.47,1.53,0.7c0.21,0.09,0.42,0.18,0.63,0.28c0.38,0.17,0.76,0.33,1.14,0.49
	l0.7,0.29c0.53,0.22,1.05,0.43,1.58,0.64l0.72,0.27c0.38,0.14,0.76,0.29,1.13,0.42c0.24,0.09,0.49,0.18,0.73,0.27
	c0.56,0.2,1.13,0.4,1.7,0.59l0.49,0.16c0.46,0.15,0.92,0.3,1.38,0.44l0.62,0.19c0.6,0.18,1.2,0.36,1.8,0.53l0.41,0.11
	c0.57,0.16,1.14,0.31,1.71,0.46l0.32,0.08c0.65,0.16,1.31,0.32,1.97,0.47l0.38,0.08c0.57,0.13,1.14,0.25,1.71,0.37l0.38,0.08
	c0.66,0.13,1.33,0.26,1.99,0.37l0.37,0.06c0.62,0.11,1.23,0.21,1.85,0.3l0.26,0.04c0.68,0.1,1.37,0.19,2.05,0.28l0.41,0.05
	c0.59,0.07,1.19,0.14,1.79,0.2l0.34,0.04c0.65,0.06,1.31,0.12,1.97,0.17l0.56,0.04c0.62,0.04,1.24,0.08,1.86,0.12l0.23,0.01
	c0.68,0.03,1.37,0.06,2.06,0.08l0.51,0.01c0.7,0.02,1.4,0.03,2.1,0.03s1.4-0.01,2.1-0.03l0.51-0.01c0.69-0.02,1.37-0.04,2.06-0.08
	l0.23-0.01c0.62-0.03,1.24-0.07,1.86-0.12l0.57-0.04c0.66-0.05,1.31-0.11,1.97-0.17l0.34-0.04c0.6-0.06,1.19-0.13,1.79-0.2
	l0.43-0.05c0.68-0.09,1.36-0.18,2.04-0.28l0.26-0.04c0.62-0.09,1.23-0.19,1.84-0.3l0.38-0.07c0.67-0.12,1.33-0.24,1.99-0.37
	l0.37-0.08c0.57-0.12,1.14-0.24,1.71-0.37l0.39-0.09c0.65-0.15,1.3-0.3,1.95-0.47l0.37-0.09c0.54-0.14,1.08-0.28,1.62-0.43
	l0.49-0.14c0.6-0.17,1.19-0.34,1.78-0.52l0.59-0.18c0.46-0.14,0.93-0.29,1.39-0.44l0.52-0.17c0.57-0.19,1.14-0.39,1.7-0.59l0.7-0.25
	c0.39-0.14,0.77-0.29,1.15-0.43c0.24-0.09,0.47-0.18,0.71-0.27c0.54-0.21,1.07-0.42,1.6-0.64l0.63-0.26
	c0.42-0.18,0.84-0.36,1.26-0.54l0.55-0.24c0.52-0.23,1.04-0.47,1.56-0.72l0.71-0.34c0.39-0.19,0.79-0.38,1.18-0.58l0.59-0.29
	c0.5-0.25,0.99-0.51,1.48-0.77l0.66-0.35c0.4-0.22,0.79-0.43,1.19-0.65l0.7-0.39c0.41-0.24,0.83-0.48,1.24-0.72l0.72-0.43
	c0.37-0.23,0.75-0.46,1.12-0.69l0.75-0.48c0.37-0.24,0.75-0.48,1.12-0.72c0.24-0.16,0.48-0.32,0.72-0.48
	c0.32-0.22,0.65-0.44,0.97-0.66c0.34-0.23,0.68-0.47,1.02-0.71l0.85-0.61c0.24-0.17,0.47-0.34,0.71-0.52
	c0.33-0.24,0.65-0.49,0.97-0.73c0.34-0.26,0.67-0.52,1-0.78c0.26-0.2,0.51-0.4,0.77-0.61c0.23-0.19,0.47-0.38,0.7-0.56
	c0.42-0.34,0.84-0.69,1.26-1.04l0.55-0.48c0.28-0.24,0.55-0.48,0.83-0.72l0.66-0.59c0.4-0.36,0.8-0.72,1.19-1.08l0.58-0.54
	l0.76-0.73c0.21-0.21,0.42-0.41,0.63-0.62c0.37-0.36,0.73-0.73,1.09-1.1c0.22-0.22,0.43-0.45,0.65-0.67l0.63-0.66
	c0.22-0.23,0.44-0.46,0.65-0.7c0.34-0.37,0.68-0.74,1.01-1.12c0.22-0.25,0.43-0.49,0.65-0.74l0.58-0.68
	c0.21-0.24,0.41-0.48,0.61-0.72c0.32-0.39,0.64-0.78,0.96-1.17l0.6-0.75l0.59-0.76c0.19-0.25,0.39-0.5,0.58-0.76
	c0.3-0.4,0.6-0.8,0.89-1.2c0.18-0.25,0.36-0.5,0.55-0.76l0.5-0.71c0.31-0.45,0.62-0.9,0.93-1.35l0.44-0.66
	c0.21-0.32,0.42-0.65,0.63-0.97l0.29-0.45c0.19-0.3,0.39-0.61,0.58-0.92h0c8.38-13.59,13.2-29.52,13.2-46.57
	c0-49.71-41.01-90.02-91.59-90.02c-50.57,0-91.59,40.31-91.59,90.02C48.41,155.49,53.23,171.42,61.61,185.01L61.61,185.01z
	 M151.32,26.34c-0.05,0.41-0.09,0.87-0.12,1.37c-0.02,0.51-0.01,1.03,0.02,1.58c0.04,0.54,0.11,0.96,0.21,1.23
	c0.11,0.27,0.22,0.54,0.35,0.79c0.12,0.26,0.31,0.52,0.55,0.8c0.24,0.28,0.58,0.51,1,0.7c0.42,0.2,0.83,0.31,1.23,0.34
	c0.17,0.02,0.43,0.03,0.76,0.03c0.33,0,0.64-0.05,0.92-0.14c0.28-0.09,0.6-0.32,0.94-0.69c0.34-0.37,0.64-0.81,0.88-1.32
	c0.24-0.51,0.42-0.99,0.53-1.42c0.12-0.43,0.23-1.03,0.35-1.8c0.13-0.77,0.21-1.35,0.26-1.74c0.04-0.49,0.09-1.01,0.14-1.57
	c0.05-0.56,0.09-1.13,0.12-1.7c0.03-0.57,0.04-1.05,0.02-1.44c-0.02-0.39-0.07-0.77-0.17-1.13c-0.09-0.36-0.2-0.66-0.32-0.89
	c-0.12-0.23-0.31-0.46-0.56-0.69c-0.25-0.23-0.55-0.41-0.89-0.55c-0.34-0.14-0.72-0.23-1.14-0.28c-0.41-0.03-0.75-0.03-1.02,0.01
	c-0.27,0.04-0.59,0.15-0.96,0.32c-0.37,0.17-0.74,0.5-1.12,0.99c-0.38,0.49-0.67,1.05-0.88,1.69c-0.2,0.64-0.37,1.24-0.5,1.82
	c-0.13,0.57-0.27,1.31-0.42,2.2C151.39,25.76,151.32,26.25,151.32,26.34L151.32,26.34z M178.33,21.81l5.64,1.56l-0.23,0.77
	l-0.83-0.23c-0.32-0.09-0.58-0.13-0.8-0.13c-0.21,0-0.37,0.03-0.48,0.1c-0.11,0.07-0.22,0.21-0.32,0.43
	c-0.11,0.22-0.19,0.41-0.24,0.58l-4.27,14.34l-1.38-0.38l-5.06-15.79l-3.27,10.97c-0.06,0.2-0.1,0.43-0.14,0.68
	c-0.04,0.26-0.02,0.45,0.04,0.58c0.05,0.13,0.17,0.25,0.36,0.37c0.19,0.12,0.42,0.22,0.71,0.29l1.09,0.3l-0.24,0.8l-5.71-1.58
	l0.24-0.8l0.9,0.25c0.23,0.06,0.45,0.1,0.65,0.09c0.2,0,0.36-0.05,0.5-0.13c0.14-0.09,0.26-0.21,0.35-0.38
	c0.1-0.17,0.2-0.42,0.3-0.73l3.37-11.31c0.15-0.5,0.24-0.89,0.27-1.18c0.04-0.28-0.01-0.54-0.15-0.76
	c-0.13-0.22-0.42-0.39-0.86-0.51l-0.92-0.25l0.23-0.77l4.86,1.34l4.37,13.71l2.8-9.41c0.08-0.26,0.13-0.49,0.15-0.7
	c0.02-0.21-0.01-0.37-0.08-0.48c-0.07-0.11-0.18-0.21-0.34-0.3c-0.16-0.09-0.32-0.16-0.48-0.21l-1.28-0.35L178.33,21.81
	L178.33,21.81z M199.07,30.6l0.75,0.37l-2.67,5.05l-0.75-0.37l0.11-0.32c0.12-0.37,0.22-0.72,0.31-1.06
	c0.08-0.34,0.09-0.73,0.04-1.16c-0.06-0.44-0.19-0.84-0.4-1.21c-0.21-0.37-0.44-0.7-0.7-1.01c-0.25-0.3-0.5-0.54-0.74-0.72
	c-0.24-0.18-0.47-0.32-0.71-0.44c-0.21-0.09-0.44-0.16-0.68-0.23c-0.24-0.06-0.5-0.09-0.79-0.08c-0.28,0.01-0.61,0.09-0.97,0.23
	c-0.37,0.14-0.79,0.38-1.28,0.73c-0.48,0.35-0.89,0.72-1.25,1.1c-0.35,0.39-0.68,0.8-1,1.24c-0.32,0.44-0.57,0.83-0.78,1.16
	c-0.2,0.33-0.39,0.65-0.56,0.96c-0.17,0.31-0.35,0.69-0.54,1.15c-0.16,0.33-0.32,0.71-0.49,1.14c-0.17,0.43-0.32,0.84-0.45,1.24
	c-0.12,0.39-0.2,0.82-0.24,1.29c-0.04,0.47,0,0.91,0.12,1.33c0.11,0.41,0.33,0.77,0.64,1.09c0.31,0.32,0.66,0.58,1.06,0.77
	c0.27,0.15,0.58,0.27,0.94,0.36c0.35,0.08,0.71,0.11,1.08,0.09c0.37-0.02,0.77-0.11,1.19-0.27c0.43-0.16,0.72-0.34,0.88-0.57
	c0.16-0.22,0.32-0.44,0.46-0.66c0.14-0.21,0.23-0.35,0.27-0.43l0.72-1.35c0.13-0.25,0.19-0.46,0.18-0.6
	c-0.01-0.15-0.09-0.28-0.23-0.4c-0.14-0.12-0.34-0.25-0.6-0.38l-0.66-0.32l0.4-0.76l6.22,3.05l-0.4,0.76l-0.53-0.26
	c-0.17-0.08-0.33-0.15-0.47-0.19c-0.14-0.04-0.26-0.04-0.38-0.01c-0.12,0.03-0.21,0.1-0.28,0.21c-0.07,0.11-0.21,0.34-0.41,0.7
	l-2.8,4.83l-0.97-0.47c0.1-0.25,0.16-0.43,0.19-0.52c0.03-0.09,0.08-0.27,0.15-0.53c0.07-0.26,0.08-0.49,0.04-0.7
	c-0.05-0.21-0.17-0.36-0.35-0.46c-0.15-0.06-0.38-0.07-0.68-0.04l-1.22,0.17c-0.48,0.04-0.93,0.06-1.33,0.04
	c-0.4-0.02-0.74-0.07-1.01-0.14c-0.27-0.07-0.5-0.15-0.71-0.23c-0.2-0.08-0.43-0.19-0.68-0.3c-0.38-0.17-0.64-0.3-0.79-0.4
	c-0.15-0.1-0.35-0.24-0.59-0.42c-0.24-0.18-0.51-0.41-0.78-0.69c-0.27-0.28-0.54-0.65-0.78-1.11c-0.25-0.46-0.42-0.88-0.53-1.25
	c-0.1-0.38-0.17-0.85-0.19-1.41c-0.02-0.56,0-1.04,0.07-1.43c0.07-0.39,0.18-0.85,0.35-1.36c0.16-0.51,0.3-0.9,0.41-1.17
	c0.11-0.27,0.3-0.64,0.56-1.14c0.13-0.24,0.25-0.45,0.37-0.64c0.12-0.19,0.33-0.47,0.61-0.85c0.29-0.37,0.62-0.76,0.99-1.17
	c0.37-0.4,0.84-0.78,1.41-1.14c0.57-0.36,1.13-0.65,1.67-0.87c0.54-0.22,1.11-0.39,1.71-0.51c0.59-0.12,1.15-0.14,1.67-0.07
	c0.52,0.07,0.93,0.15,1.25,0.24c0.31,0.09,0.6,0.2,0.86,0.33c0.17,0.1,0.38,0.24,0.64,0.42c0.26,0.18,0.51,0.38,0.75,0.62
	c0.25,0.24,0.47,0.46,0.66,0.68l0.91,1.2c0.15,0.18,0.3,0.29,0.46,0.33c0.09,0.03,0.21,0.03,0.34,0.01c0.14-0.03,0.27-0.11,0.4-0.26
	l0.29-0.44L199.07,30.6L199.07,30.6z M205.5,34.15l6.46,4.52l-0.52,0.69l-0.56-0.39c-0.22-0.15-0.41-0.24-0.6-0.27
	c-0.19-0.03-0.39-0.03-0.6,0c-0.21,0.04-0.43,0.13-0.65,0.28c-0.22,0.15-0.42,0.34-0.59,0.57l-5.75,7.62
	c-0.51,0.68-0.85,1.21-1.01,1.58c-0.16,0.38-0.19,0.82-0.08,1.32c0.11,0.51,0.29,0.94,0.55,1.32c0.25,0.37,0.57,0.69,0.94,0.95
	c0.19,0.15,0.38,0.28,0.58,0.38c0.2,0.1,0.52,0.23,0.96,0.38c0.44,0.16,0.9,0.25,1.37,0.28c0.47,0.04,0.92-0.03,1.35-0.19
	c0.43-0.17,0.74-0.33,0.93-0.49c0.19-0.16,0.4-0.36,0.62-0.61c0.22-0.24,0.43-0.48,0.61-0.73l5.62-7.45
	c0.19-0.26,0.32-0.48,0.39-0.68c0.07-0.2,0.1-0.37,0.1-0.5c0-0.14-0.04-0.28-0.13-0.42c-0.09-0.14-0.22-0.27-0.39-0.39l-0.86-0.6
	l0.52-0.69l4.25,2.97l-0.52,0.69l-0.56-0.39c-0.16-0.11-0.32-0.18-0.47-0.21c-0.15-0.03-0.32-0.02-0.49,0.04
	c-0.17,0.05-0.36,0.15-0.55,0.27c-0.19,0.13-0.35,0.29-0.49,0.47l-5.62,7.44c-0.34,0.45-0.57,0.75-0.71,0.91
	c-0.13,0.16-0.36,0.37-0.69,0.63c-0.33,0.26-0.74,0.48-1.25,0.67c-0.5,0.18-1.06,0.27-1.67,0.27c-0.61,0-1.16-0.1-1.67-0.31
	c-0.51-0.2-0.99-0.42-1.45-0.66c-0.45-0.24-0.8-0.45-1.04-0.62c-0.26-0.16-0.58-0.42-0.96-0.76c-0.38-0.35-0.78-0.77-1.2-1.29
	c-0.42-0.52-0.68-1.1-0.78-1.76c-0.09-0.65-0.11-1.12-0.05-1.4c0.06-0.28,0.14-0.54,0.25-0.78c0.11-0.24,0.22-0.45,0.33-0.63
	c0.11-0.19,0.27-0.42,0.48-0.7l5.88-7.79c0.17-0.23,0.3-0.46,0.39-0.69c0.09-0.24,0.13-0.44,0.13-0.62c0-0.17-0.07-0.37-0.2-0.58
	c-0.13-0.21-0.32-0.4-0.56-0.57l-0.58-0.4L205.5,34.15L205.5,34.15z M229.36,53.82l4,4.13l-0.61,0.55l-0.59-0.61
	c-0.22-0.23-0.43-0.4-0.61-0.51c-0.18-0.11-0.34-0.16-0.46-0.15c-0.13,0.01-0.3,0.08-0.51,0.21c-0.21,0.13-0.38,0.26-0.51,0.38
	L218.73,68l-0.98-1.01l4.11-16.04l-8.67,7.78c-0.16,0.14-0.32,0.31-0.48,0.51c-0.17,0.2-0.26,0.37-0.28,0.51
	c-0.02,0.14,0.01,0.31,0.11,0.5c0.1,0.19,0.25,0.39,0.45,0.6l0.77,0.8l-0.63,0.57l-4.05-4.18l0.63-0.57l0.64,0.66
	c0.17,0.17,0.34,0.31,0.51,0.4c0.17,0.1,0.34,0.14,0.5,0.14c0.16-0.01,0.33-0.05,0.51-0.15c0.18-0.1,0.4-0.26,0.65-0.48l8.94-8.03
	c0.4-0.36,0.68-0.65,0.87-0.88c0.18-0.23,0.28-0.47,0.28-0.72c0.01-0.25-0.15-0.54-0.47-0.86l-0.65-0.67l0.61-0.55l3.45,3.56
	l-3.59,13.92l7.44-6.68c0.21-0.19,0.37-0.36,0.5-0.53c0.13-0.17,0.19-0.32,0.19-0.45c0-0.12-0.04-0.27-0.13-0.43
	c-0.09-0.16-0.19-0.3-0.3-0.41l-0.91-0.94L229.36,53.82L229.36,53.82z M221.49,69.85l0.35,0.43c0.2,0.25,0.38,0.45,0.52,0.58
	c0.15,0.14,0.3,0.22,0.48,0.24c0.17,0.02,0.36-0.02,0.56-0.12c0.2-0.1,0.44-0.25,0.71-0.45l10.43-7.84c0.25-0.19,0.41-0.35,0.5-0.5
	c0.09-0.15,0.14-0.27,0.14-0.36c0.01-0.1-0.03-0.23-0.1-0.39c-0.07-0.17-0.18-0.34-0.32-0.51l-0.48-0.6l0.68-0.51l4.84,5.96
	l-0.68,0.51l-0.53-0.66c-0.21-0.26-0.37-0.42-0.48-0.48c-0.11-0.06-0.23-0.09-0.37-0.11c-0.14-0.01-0.29,0-0.45,0.05
	c-0.16,0.05-0.34,0.15-0.55,0.31l-10.43,7.84c-0.28,0.21-0.49,0.41-0.61,0.59c-0.12,0.18-0.19,0.37-0.19,0.56
	c0,0.19,0.05,0.38,0.17,0.55c0.11,0.18,0.23,0.34,0.35,0.49l0.37,0.45l-0.7,0.53l-4.9-6.04L221.49,69.85L221.49,69.85z
	 M247.45,77.77l2.97,4.95l-0.79,0.44l-0.25-0.41c-0.09-0.15-0.21-0.3-0.37-0.44c-0.15-0.14-0.3-0.25-0.45-0.32
	c-0.15-0.07-0.34-0.12-0.58-0.13c-0.24-0.01-0.49,0.01-0.78,0.08l-15.89,3.35l-0.84-1.4l10.08-11.38c0.37-0.43,0.62-0.8,0.74-1.11
	c0.13-0.32,0.18-0.63,0.19-0.95c0-0.32-0.04-0.6-0.11-0.84c-0.07-0.24-0.14-0.41-0.19-0.51l-0.17-0.29l0.79-0.44l4.26,7.11
	l-0.79,0.44L245,75.43c-0.1-0.16-0.23-0.32-0.39-0.47c-0.17-0.15-0.36-0.24-0.6-0.28c-0.23-0.04-0.46,0-0.68,0.13
	c-0.21,0.13-0.38,0.26-0.48,0.4l-7.35,8.16l9.85-2.1c0.19-0.05,0.43-0.12,0.7-0.21c0.27-0.08,0.49-0.18,0.66-0.27
	c0.33-0.2,0.54-0.41,0.62-0.62c0.07-0.21,0.09-0.4,0.06-0.59c-0.04-0.19-0.13-0.4-0.27-0.63l-0.44-0.74L247.45,77.77L247.45,77.77z
	 M236,91.43l0.4,0.95c0.08,0.2,0.17,0.37,0.25,0.5c0.09,0.13,0.19,0.22,0.3,0.27c0.12,0.05,0.29,0.04,0.51-0.01
	c0.22-0.06,0.48-0.14,0.77-0.25l12.38-4.57c0.4-0.15,0.64-0.29,0.7-0.43c0.07-0.13,0.05-0.33-0.05-0.6l-0.49-1.16l0.83-0.31
	l5.17,12.96l-4.63,1.63l-0.28-0.71c0.14-0.09,0.27-0.16,0.39-0.22c0.12-0.06,0.29-0.15,0.51-0.28c0.23-0.13,0.46-0.26,0.71-0.41
	c0.25-0.15,0.46-0.32,0.63-0.49c0.18-0.18,0.32-0.38,0.43-0.62c0.11-0.23,0.17-0.49,0.18-0.77c0.01-0.27-0.01-0.56-0.06-0.85
	c-0.05-0.29-0.16-0.65-0.33-1.06l-1.64-4.12l-6.61,2.44l0.98,2.46c0.06,0.16,0.14,0.34,0.23,0.52c0.09,0.19,0.21,0.33,0.36,0.44
	c0.15,0.11,0.35,0.18,0.6,0.22c0.25,0.04,0.52,0.04,0.82-0.01c0.29-0.05,0.63-0.13,1.02-0.24l0.4-0.12l0.29,0.73l-6.3,2.33
	l-0.29-0.73l0.43-0.18c0.31-0.15,0.64-0.34,0.99-0.56c0.35-0.23,0.57-0.45,0.66-0.66c0.09-0.22,0.12-0.44,0.08-0.66
	c-0.04-0.23-0.11-0.48-0.22-0.76l-0.97-2.43l-5.76,2.13c-0.51,0.19-0.8,0.3-0.88,0.34c-0.08,0.04-0.16,0.11-0.24,0.2
	c-0.07,0.1-0.12,0.21-0.13,0.34c-0.01,0.13,0.04,0.31,0.15,0.54l1.08,2.7c0.08,0.21,0.18,0.43,0.28,0.67
	c0.11,0.24,0.2,0.43,0.28,0.56c0.08,0.13,0.21,0.33,0.41,0.6c0.2,0.27,0.41,0.48,0.64,0.64c0.23,0.16,0.5,0.29,0.82,0.38
	c0.31,0.1,0.67,0.15,1.06,0.17c0.4,0.01,0.88-0.02,1.44-0.11l0.6-0.1l0.32,0.8l-4.95,1.29l-5.2-13.04L236,91.43L236,91.43z
	 M257.19,102.91l0.87-0.19l2.26,9.43c0.09,0.37,0.15,0.69,0.19,0.97c0.04,0.27,0.04,0.65,0.01,1.12c-0.04,0.47-0.2,0.93-0.48,1.37
	c-0.28,0.45-0.56,0.76-0.82,0.95c-0.27,0.19-0.56,0.34-0.88,0.46c-0.32,0.12-0.55,0.2-0.71,0.23c-0.1,0.01-0.28,0.03-0.54,0.07
	c-0.26,0.04-0.51,0.06-0.76,0.07c-0.24,0.01-0.54-0.05-0.89-0.18c-0.36-0.13-0.69-0.31-1.02-0.54c-0.33-0.23-0.58-0.45-0.76-0.63
	c-0.18-0.19-0.39-0.45-0.62-0.8c-0.23-0.35-0.43-0.68-0.59-1l-0.5-0.93c0,0.28-0.01,0.49-0.01,0.65c-0.01,0.16-0.02,0.35-0.04,0.57
	c-0.03,0.22-0.08,0.49-0.16,0.79c-0.09,0.31-0.25,0.63-0.49,0.96c-0.24,0.34-0.52,0.57-0.83,0.7c-0.32,0.13-0.91,0.33-1.79,0.61
	l-1.03,0.33c-0.54,0.14-0.87,0.29-0.99,0.46c-0.12,0.17-0.14,0.39-0.08,0.65c0.04,0.22,0.14,0.4,0.31,0.54
	c0.17,0.14,0.38,0.24,0.62,0.31c0.24,0.07,0.53,0.11,0.87,0.15c0.34,0.03,0.58,0.05,0.73,0.04l0.35,0l0.04,0.79l-0.45,0.03
	c-0.2,0.01-0.32,0.01-0.38,0.01c-0.05-0.01-0.19-0.01-0.43,0l-0.95-0.04c-0.48-0.04-0.92-0.11-1.32-0.22
	c-0.4-0.11-0.78-0.28-1.14-0.54c-0.37-0.25-0.65-0.54-0.87-0.87c-0.21-0.33-0.36-0.67-0.42-1.03c-0.1-0.43-0.09-0.87,0.03-1.31
	c0.12-0.44,0.36-0.8,0.72-1.09c0.36-0.28,0.68-0.48,0.98-0.61c0.3-0.12,0.58-0.22,0.85-0.31c0.27-0.08,0.5-0.15,0.71-0.19l1.22-0.3
	c0.29-0.08,0.68-0.19,1.2-0.32c0.51-0.14,0.9-0.28,1.14-0.42c0.24-0.15,0.44-0.33,0.6-0.56c0.16-0.23,0.24-0.48,0.26-0.78
	c0.01-0.28-0.05-0.71-0.18-1.26l-0.32-1.34l-6.32,1.4c-0.21,0.05-0.4,0.11-0.58,0.19c-0.18,0.08-0.31,0.16-0.4,0.26
	c-0.1,0.09-0.16,0.22-0.19,0.37c-0.03,0.15-0.02,0.34,0.04,0.58l0.14,0.6l-0.89,0.2l-1.64-6.84l0.89-0.2l0.18,0.74
	c0.06,0.25,0.13,0.44,0.22,0.57c0.08,0.14,0.18,0.23,0.29,0.3c0.11,0.06,0.25,0.1,0.42,0.1c0.17,0,0.42-0.03,0.73-0.1l12.18-2.71
	c0.38-0.09,0.68-0.18,0.89-0.27c0.21-0.09,0.37-0.22,0.48-0.36c0.12-0.15,0.19-0.32,0.23-0.53c0.03-0.2,0.02-0.45-0.05-0.74
	L257.19,102.91L257.19,102.91z M251.66,109.49l0.28,1.18c0.08,0.36,0.2,0.72,0.35,1.09c0.14,0.38,0.37,0.72,0.68,1.04
	c0.31,0.32,0.68,0.55,1.13,0.69c0.45,0.13,0.88,0.19,1.29,0.17c0.42-0.02,0.78-0.06,1.08-0.13c0.32-0.08,0.65-0.2,1-0.36
	c0.35-0.15,0.63-0.31,0.83-0.49c0.2-0.17,0.36-0.41,0.5-0.72c0.13-0.31,0.19-0.64,0.19-1.01c-0.01-0.36-0.04-0.68-0.11-0.96
	l-0.23-0.97c-0.09-0.39-0.24-0.64-0.46-0.75c-0.22-0.11-0.63-0.11-1.24,0.03L251.66,109.49L251.66,109.49z M250.84,122.15l0.07,0.73
	c-0.25,0.04-0.51,0.09-0.8,0.16c-0.29,0.07-0.68,0.22-1.16,0.43c-0.48,0.22-0.86,0.47-1.13,0.75c-0.27,0.28-0.52,0.6-0.74,0.93
	c-0.23,0.34-0.43,0.73-0.62,1.17c-0.19,0.45-0.32,0.89-0.37,1.34c-0.06,0.45-0.07,0.84-0.04,1.17c0.03,0.58,0.16,1.07,0.38,1.47
	c0.22,0.39,0.45,0.69,0.69,0.88c0.24,0.19,0.49,0.35,0.76,0.45c0.26,0.1,0.61,0.14,1.04,0.1c0.49-0.06,0.9-0.2,1.24-0.44
	c0.33-0.23,0.61-0.54,0.83-0.91c0.22-0.38,0.47-0.99,0.76-1.84c0.29-0.85,0.51-1.57,0.67-2.18c0.16-0.6,0.28-1.03,0.37-1.28
	c0.08-0.25,0.23-0.55,0.44-0.91c0.2-0.36,0.43-0.68,0.68-0.95c0.25-0.28,0.53-0.52,0.85-0.72c0.32-0.21,0.67-0.38,1.07-0.52
	c0.39-0.13,0.83-0.22,1.3-0.24c0.18-0.01,0.34-0.02,0.49-0.02c0.15,0,0.36,0.02,0.63,0.05c0.27,0.04,0.59,0.09,0.97,0.18
	c0.38,0.09,0.74,0.25,1.1,0.5c0.35,0.25,0.69,0.53,1,0.86c0.32,0.32,0.57,0.68,0.76,1.09c0.19,0.4,0.3,0.73,0.36,0.97
	c0.06,0.24,0.1,0.51,0.13,0.81c0.01,0.3,0.01,0.56-0.01,0.78c-0.01,0.23-0.06,0.56-0.15,1c-0.09,0.44-0.18,0.8-0.25,1.08l-0.29,0.84
	c-0.08,0.19-0.14,0.38-0.19,0.55c-0.04,0.17-0.05,0.31-0.02,0.42c0.01,0.09,0.05,0.17,0.12,0.23c0.07,0.06,0.19,0.09,0.36,0.11
	l1.05,0.05l0.1,0.78l-5.79,0.61l-0.07-0.78c0.34-0.09,0.68-0.19,1.04-0.3c0.35-0.11,0.69-0.26,1.01-0.47
	c0.32-0.21,0.62-0.51,0.91-0.91c0.29-0.4,0.52-0.8,0.7-1.19c0.18-0.39,0.32-0.78,0.43-1.16c0.11-0.38,0.16-0.68,0.18-0.91
	c0.01-0.22,0.01-0.43-0.01-0.62c-0.05-0.42-0.17-0.8-0.33-1.13c-0.16-0.33-0.4-0.62-0.71-0.87c-0.31-0.25-0.64-0.43-0.97-0.55
	c-0.33-0.11-0.65-0.16-0.95-0.15c-0.3,0.02-0.56,0.09-0.78,0.22c-0.24,0.12-0.46,0.3-0.68,0.55c-0.22,0.25-0.42,0.6-0.61,1.05
	c-0.19,0.45-0.38,1-0.58,1.64c-0.19,0.65-0.41,1.38-0.64,2.21c-0.23,0.83-0.4,1.41-0.52,1.74c-0.12,0.33-0.29,0.69-0.52,1.09
	c-0.22,0.4-0.48,0.73-0.76,0.99c-0.28,0.26-0.68,0.5-1.21,0.71c-0.52,0.21-1.09,0.33-1.7,0.37c-0.57,0.02-1.18-0.06-1.82-0.23
	c-0.64-0.17-1.26-0.47-1.84-0.92c-0.58-0.44-1.04-1.01-1.36-1.72c-0.32-0.7-0.52-1.34-0.58-1.93c-0.05-0.34-0.06-0.69-0.05-1.03
	c0.02-0.34,0.08-0.69,0.18-1.04c0.1-0.35,0.25-0.77,0.46-1.27c0.2-0.49,0.4-0.93,0.61-1.31c0.2-0.38,0.33-0.63,0.37-0.74
	c0.04-0.11,0.06-0.18,0.05-0.23c-0.03-0.09-0.07-0.17-0.15-0.22c-0.07-0.06-0.2-0.1-0.38-0.11c-0.18-0.02-0.42-0.02-0.72-0.01
	l-0.81,0.02l-0.07-0.76L250.84,122.15L250.84,122.15z M246.31,135.73l-0.01,0.55c-0.01,0.32,0,0.57,0.02,0.77
	c0.02,0.2,0.09,0.36,0.21,0.48c0.12,0.12,0.29,0.2,0.51,0.24c0.22,0.04,0.5,0.07,0.85,0.08l13.23,0.22
	c0.32,0.01,0.55-0.02,0.72-0.08c0.17-0.06,0.29-0.13,0.35-0.2c0.07-0.07,0.13-0.19,0.18-0.37c0.05-0.17,0.08-0.37,0.09-0.59
	l0.01-0.76l0.86,0.01l-0.14,7.57l-0.86-0.01l0.02-0.83c0.01-0.33-0.02-0.55-0.06-0.67c-0.04-0.11-0.12-0.21-0.21-0.31
	c-0.1-0.1-0.23-0.17-0.38-0.23c-0.15-0.06-0.36-0.09-0.63-0.09l-13.23-0.22c-0.36-0.01-0.65,0.02-0.86,0.09
	c-0.22,0.07-0.39,0.18-0.51,0.32c-0.13,0.15-0.2,0.32-0.23,0.53c-0.03,0.21-0.04,0.4-0.05,0.59l-0.01,0.57l-0.89-0.01l0.14-7.66
	L246.31,135.73L246.31,135.73z M263.09,146.68l-1.79,14.04l-6.17-0.73l0.11-0.82l0.69,0.01c0.2-0.01,0.62-0.05,1.25-0.14
	c0.63-0.08,1.14-0.16,1.51-0.24c0.37-0.07,0.74-0.22,1.08-0.42c0.35-0.2,0.6-0.42,0.76-0.63c0.16-0.21,0.26-0.47,0.3-0.79l0.2-1.53
	l-14.49-1.71c-0.21-0.03-0.43-0.01-0.64,0.03c-0.21,0.05-0.37,0.11-0.48,0.19c-0.11,0.08-0.22,0.25-0.33,0.51
	c-0.11,0.26-0.18,0.54-0.22,0.83l-0.11,0.85l-0.93-0.11l1.12-8.76l0.93,0.11l-0.11,1.04c-0.04,0.33-0.06,0.6-0.03,0.82
	c0.02,0.22,0.08,0.4,0.18,0.54c0.1,0.14,0.25,0.25,0.45,0.34c0.21,0.09,0.43,0.15,0.7,0.18l14.39,1.7l0.16-1.25
	c0.05-0.39,0.05-0.69,0.01-0.9c-0.05-0.21-0.15-0.44-0.3-0.69c-0.15-0.25-0.36-0.49-0.63-0.72c-0.27-0.23-0.59-0.44-0.98-0.63
	c-0.38-0.19-0.81-0.37-1.28-0.53c-0.47-0.17-0.88-0.3-1.25-0.41l-0.38-0.12l0.1-0.78L263.09,146.68L263.09,146.68z M260.57,164
	l-2.09,7.52l-0.76-0.2l0.07-0.25c0.03-0.11,0.04-0.29,0.02-0.53c-0.02-0.25-0.08-0.47-0.2-0.64c-0.12-0.18-0.3-0.29-0.55-0.34
	c-0.13-0.03-0.42-0.04-0.88-0.02c-0.46,0.02-0.7,0.04-0.72,0.05l-5.48,0.8l3.96,3.73c0.27,0.25,0.51,0.44,0.73,0.57
	c0.21,0.13,0.43,0.22,0.65,0.28c0.36,0.08,0.66,0.06,0.88-0.07c0.22-0.12,0.4-0.28,0.53-0.46c0.13-0.19,0.21-0.34,0.24-0.45
	l0.11-0.41l0.76,0.2l-1.47,5.27l-0.76-0.2l0.04-0.16c0.03-0.1,0.01-0.27-0.04-0.5c-0.06-0.23-0.16-0.5-0.31-0.82
	c-0.15-0.32-0.3-0.57-0.44-0.75c-0.15-0.18-0.47-0.51-0.97-0.98l-5.02-4.79l-5.5-1.42c-0.35-0.09-0.62-0.14-0.82-0.14
	c-0.19,0-0.37,0.03-0.54,0.11c-0.17,0.07-0.31,0.19-0.42,0.34c-0.11,0.16-0.22,0.43-0.33,0.81l-0.31,1.12l-0.91-0.23l2.44-8.75
	l0.91,0.23l-0.34,1.24c-0.09,0.3-0.13,0.58-0.12,0.84c0.01,0.25,0.05,0.44,0.13,0.55c0.08,0.11,0.2,0.23,0.37,0.34
	c0.17,0.11,0.45,0.22,0.83,0.32l3.98,1.03l7.62-1.15c0.7-0.12,1.27-0.25,1.71-0.41c0.44-0.15,0.82-0.34,1.13-0.56
	c0.31-0.22,0.55-0.43,0.73-0.65c0.18-0.22,0.28-0.39,0.32-0.51l0.05-0.16L260.57,164L260.57,164z M34.22,143.03l0.86-0.09l0.76,6.91
	l-0.86,0.09l-0.07-0.66c-0.02-0.22-0.08-0.4-0.17-0.53c-0.09-0.14-0.2-0.23-0.34-0.29c-0.14-0.06-0.33-0.08-0.59-0.06
	c-0.26,0.02-0.47,0.06-0.67,0.13l-2.55,0.95l0.64,5.87l3.24,0.58c0.19,0.05,0.37,0.05,0.53,0.01c0.17-0.04,0.29-0.12,0.37-0.22
	c0.08-0.1,0.13-0.24,0.14-0.42c0.02-0.18,0.01-0.36-0.01-0.55l-0.08-0.73l0.86-0.09l0.57,5.21l-0.86,0.09l-0.06-0.52
	c-0.02-0.17-0.08-0.36-0.18-0.56c-0.1-0.19-0.25-0.38-0.43-0.55c-0.18-0.17-0.4-0.31-0.66-0.42c-0.25-0.11-0.53-0.2-0.83-0.26
	l-15.27-3.13l-0.33-3.02l13.71-5.23c0.17-0.06,0.48-0.19,0.91-0.38c0.43-0.19,0.75-0.37,0.94-0.55c0.2-0.18,0.33-0.39,0.39-0.63
	c0.06-0.23,0.09-0.46,0.06-0.68L34.22,143.03L34.22,143.03z M30.26,155.17l-0.58-5.36l-8.97,3.44L30.26,155.17L30.26,155.17z
	 M28.55,141.89l0.03-0.73c0.25-0.01,0.52-0.03,0.81-0.07c0.3-0.04,0.7-0.13,1.21-0.29c0.51-0.16,0.91-0.36,1.22-0.61
	c0.3-0.25,0.59-0.53,0.86-0.84c0.27-0.31,0.52-0.67,0.77-1.09c0.25-0.42,0.43-0.85,0.54-1.29c0.12-0.44,0.18-0.83,0.19-1.16
	c0.04-0.58-0.02-1.08-0.19-1.5c-0.17-0.42-0.36-0.74-0.57-0.96c-0.22-0.22-0.45-0.4-0.7-0.53c-0.25-0.13-0.58-0.21-1.01-0.23
	c-0.49,0-0.92,0.09-1.28,0.29c-0.36,0.19-0.67,0.46-0.94,0.81c-0.27,0.35-0.59,0.92-0.98,1.73c-0.39,0.81-0.71,1.5-0.94,2.08
	c-0.24,0.57-0.41,0.99-0.53,1.23c-0.11,0.24-0.3,0.52-0.55,0.86c-0.25,0.33-0.52,0.62-0.79,0.86c-0.28,0.25-0.59,0.45-0.93,0.62
	c-0.34,0.17-0.72,0.3-1.13,0.39c-0.41,0.09-0.85,0.12-1.32,0.08c-0.18,0-0.34-0.02-0.49-0.04c-0.15-0.02-0.35-0.06-0.61-0.13
	c-0.26-0.07-0.57-0.16-0.94-0.3c-0.36-0.13-0.7-0.34-1.02-0.63c-0.32-0.29-0.61-0.61-0.89-0.97c-0.28-0.36-0.48-0.74-0.61-1.17
	c-0.13-0.42-0.21-0.76-0.23-1c-0.02-0.25-0.03-0.52-0.02-0.82c0.03-0.3,0.06-0.56,0.1-0.78c0.04-0.22,0.13-0.55,0.28-0.98
	c0.15-0.43,0.28-0.78,0.38-1.04l0.4-0.8c0.11-0.18,0.19-0.36,0.25-0.52c0.06-0.17,0.09-0.31,0.08-0.42c0-0.09-0.03-0.18-0.09-0.24
	c-0.06-0.06-0.18-0.12-0.34-0.15l-1.03-0.18l0-0.78l5.82,0.08l-0.03,0.78c-0.35,0.05-0.7,0.11-1.07,0.18
	c-0.37,0.06-0.72,0.18-1.06,0.35c-0.34,0.17-0.68,0.44-1.01,0.8c-0.33,0.36-0.62,0.73-0.84,1.1c-0.23,0.37-0.41,0.74-0.57,1.11
	c-0.15,0.37-0.25,0.66-0.29,0.88c-0.04,0.22-0.07,0.42-0.07,0.61c0,0.42,0.06,0.81,0.18,1.16c0.12,0.34,0.32,0.66,0.59,0.95
	c0.28,0.29,0.58,0.51,0.89,0.66c0.32,0.15,0.62,0.24,0.93,0.26c0.3,0.02,0.57-0.03,0.81-0.13c0.25-0.09,0.5-0.24,0.74-0.46
	c0.25-0.22,0.49-0.54,0.74-0.97c0.25-0.42,0.5-0.95,0.78-1.56c0.28-0.62,0.58-1.32,0.92-2.12c0.33-0.8,0.58-1.35,0.74-1.66
	c0.16-0.31,0.38-0.65,0.66-1.02c0.27-0.37,0.57-0.67,0.88-0.9c0.31-0.22,0.74-0.41,1.29-0.56c0.54-0.15,1.12-0.21,1.73-0.17
	c0.57,0.05,1.17,0.2,1.78,0.44c0.62,0.24,1.19,0.62,1.71,1.13c0.52,0.51,0.9,1.13,1.13,1.86c0.23,0.73,0.34,1.39,0.33,1.98
	c0,0.35-0.02,0.69-0.08,1.03c-0.06,0.34-0.16,0.68-0.31,1.01c-0.14,0.33-0.35,0.73-0.61,1.2c-0.26,0.47-0.52,0.87-0.77,1.23
	c-0.25,0.36-0.4,0.59-0.46,0.68c-0.05,0.1-0.08,0.18-0.08,0.22c0.01,0.09,0.05,0.18,0.12,0.24c0.06,0.07,0.18,0.12,0.36,0.15
	c0.18,0.04,0.41,0.07,0.71,0.1l0.81,0.07l-0.03,0.76L28.55,141.89L28.55,141.89z M17.57,125.67l2.55-13.93l6.12,1.04l-0.15,0.82
	l-0.69-0.04c-0.2,0-0.62,0.02-1.25,0.07c-0.64,0.05-1.14,0.11-1.52,0.16c-0.38,0.06-0.74,0.18-1.1,0.37
	c-0.36,0.19-0.63,0.38-0.8,0.59c-0.17,0.2-0.28,0.46-0.34,0.77l-0.28,1.52l14.37,2.44c0.21,0.04,0.42,0.03,0.64,0
	c0.22-0.04,0.38-0.09,0.49-0.17c0.12-0.07,0.23-0.24,0.36-0.49c0.12-0.25,0.21-0.53,0.26-0.82l0.15-0.84l0.93,0.16l-1.59,8.69
	l-0.92-0.16l0.16-1.03c0.06-0.33,0.09-0.6,0.08-0.82c-0.01-0.22-0.06-0.4-0.15-0.54c-0.09-0.14-0.23-0.27-0.43-0.37
	c-0.2-0.1-0.43-0.17-0.69-0.21l-14.28-2.42l-0.23,1.24c-0.07,0.39-0.09,0.69-0.05,0.9c0.04,0.22,0.12,0.45,0.26,0.71
	c0.14,0.26,0.33,0.51,0.59,0.75c0.26,0.24,0.57,0.47,0.94,0.68c0.37,0.21,0.78,0.4,1.24,0.59c0.46,0.19,0.86,0.35,1.22,0.47
	l0.38,0.13l-0.14,0.77L17.57,125.67L17.57,125.67z M29.74,111.09c-0.7-0.19-1.22-0.35-1.57-0.47c-0.35-0.12-0.73-0.28-1.13-0.48
	c-0.4-0.2-0.78-0.43-1.13-0.68c-0.35-0.25-0.71-0.55-1.08-0.88c-0.37-0.33-0.68-0.66-0.93-0.98c-0.25-0.32-0.47-0.71-0.68-1.16
	c-0.21-0.45-0.36-0.88-0.47-1.29c-0.11-0.41-0.16-0.82-0.16-1.22c0-0.4,0.02-0.74,0.06-1.02c0.04-0.28,0.09-0.53,0.16-0.75
	c0.07-0.19,0.14-0.37,0.21-0.53c0.06-0.15,0.15-0.34,0.27-0.55c0.11-0.22,0.22-0.4,0.32-0.55c0.1-0.14,0.28-0.41,0.57-0.79
	l0.55-0.71c0.21-0.24,0.35-0.41,0.43-0.53c0.07-0.11,0.12-0.24,0.15-0.37c0.04-0.14,0.04-0.26-0.01-0.38
	c-0.05-0.11-0.17-0.22-0.34-0.32l-0.69-0.36l0.22-0.75l5.74,1.31l-0.23,0.76c-0.13,0-0.33-0.02-0.58-0.05
	c-0.25-0.03-0.48-0.04-0.7-0.05c-0.22,0-0.48,0.01-0.78,0.04c-0.3,0.03-0.63,0.11-0.98,0.23c-0.36,0.12-0.7,0.3-1.04,0.56
	c-0.34,0.26-0.66,0.56-0.94,0.89c-0.29,0.33-0.5,0.64-0.66,0.93c-0.15,0.29-0.27,0.56-0.37,0.81c-0.11,0.38-0.17,0.73-0.16,1.04
	c0.01,0.31,0.07,0.63,0.19,0.96c0.11,0.32,0.33,0.65,0.63,0.99c0.31,0.34,0.66,0.64,1.03,0.9c0.38,0.26,0.8,0.51,1.28,0.74
	c0.47,0.24,0.95,0.45,1.43,0.62c0.48,0.17,1.05,0.35,1.72,0.51c0.49,0.13,1.02,0.27,1.59,0.41c0.58,0.14,1.15,0.26,1.71,0.35
	c0.56,0.09,1.11,0.12,1.63,0.08c0.52-0.04,1.05-0.15,1.58-0.33c0.53-0.18,0.97-0.43,1.32-0.74c0.36-0.31,0.65-0.65,0.88-1
	c0.22-0.36,0.37-0.69,0.44-0.98c0.05-0.17,0.09-0.4,0.12-0.7c0.03-0.29,0.02-0.61-0.03-0.96c-0.04-0.34-0.14-0.68-0.3-1
	c-0.16-0.33-0.34-0.64-0.56-0.93c-0.21-0.29-0.45-0.56-0.72-0.83c-0.28-0.27-0.51-0.48-0.7-0.65l-0.67-0.58l0.54-0.52l0.53,0.45
	l0.38,0.3c0.19,0.16,0.41,0.38,0.66,0.65c0.25,0.27,0.48,0.54,0.68,0.81c0.2,0.28,0.4,0.63,0.6,1.04c0.2,0.42,0.35,0.84,0.43,1.27
	c0.08,0.42,0.11,0.87,0.08,1.33c-0.04,0.46-0.12,0.9-0.24,1.33c-0.07,0.29-0.17,0.58-0.29,0.86c-0.12,0.28-0.3,0.61-0.52,1
	c-0.22,0.39-0.59,0.86-1.11,1.41c-0.52,0.55-1.09,0.97-1.72,1.27c-0.63,0.29-1.28,0.49-1.96,0.58c-0.68,0.1-1.3,0.13-1.87,0.12
	c-0.56-0.02-1.04-0.06-1.42-0.13C30.74,111.33,30.28,111.22,29.74,111.09L29.74,111.09z M25.87,91.64l3.34-6.3l0.75,0.36l-0.37,0.7
	c-0.19,0.35-0.29,0.59-0.29,0.72c-0.02,0.13,0.02,0.25,0.09,0.38c0.07,0.12,0.29,0.28,0.66,0.46L35,90.39l2.66-5.03l-4.92-2.41
	c-0.28-0.14-0.51-0.21-0.69-0.23c-0.19-0.02-0.33,0.01-0.44,0.08c-0.11,0.07-0.22,0.22-0.34,0.45l-0.45,0.84l-0.75-0.37l3.32-6.28
	l0.75,0.37l-0.4,0.76c-0.17,0.32-0.25,0.55-0.24,0.67c0.01,0.12,0.07,0.24,0.18,0.35c0.11,0.12,0.27,0.23,0.51,0.34l12.15,5.96
	c0.42,0.21,0.73,0.32,0.91,0.34c0.19,0.02,0.34-0.03,0.48-0.14c0.13-0.11,0.27-0.3,0.4-0.55l0.37-0.7l0.79,0.39l-3.35,6.32
	l-0.79-0.39l0.4-0.76c0.13-0.24,0.19-0.44,0.2-0.59c0.01-0.15-0.04-0.3-0.16-0.43c-0.12-0.13-0.39-0.31-0.83-0.53l-6.22-3.05
	l-2.66,5.03l6.21,3.05c0.35,0.17,0.63,0.28,0.83,0.31c0.2,0.04,0.38,0.01,0.52-0.09c0.14-0.1,0.29-0.3,0.45-0.59l0.39-0.74
	l0.79,0.39l-3.36,6.34l-0.79-0.39l0.31-0.59c0.11-0.2,0.19-0.39,0.24-0.58c0.06-0.19,0.06-0.33,0.02-0.43
	c-0.04-0.1-0.13-0.2-0.29-0.31c-0.15-0.11-0.38-0.24-0.67-0.38l-12.23-6c-0.29-0.14-0.51-0.2-0.64-0.18
	c-0.13,0.03-0.26,0.1-0.37,0.23c-0.11,0.13-0.25,0.34-0.4,0.62L26.62,92L25.87,91.64L25.87,91.64z M49.01,84.13l0.3-0.47
	c0.17-0.27,0.31-0.49,0.39-0.67c0.09-0.18,0.11-0.35,0.07-0.52c-0.04-0.16-0.14-0.32-0.31-0.46c-0.16-0.14-0.39-0.31-0.69-0.48
	l-11.22-6.75c-0.27-0.16-0.49-0.25-0.66-0.28c-0.17-0.03-0.31-0.03-0.41,0c-0.1,0.03-0.21,0.1-0.35,0.22
	c-0.14,0.12-0.27,0.28-0.39,0.47l-0.42,0.64l-0.73-0.44l4.17-6.42l0.73,0.44l-0.46,0.7c-0.18,0.28-0.28,0.48-0.3,0.6
	c-0.02,0.12-0.01,0.24,0.02,0.37c0.04,0.13,0.1,0.26,0.2,0.39c0.1,0.13,0.27,0.26,0.49,0.39l11.23,6.75
	c0.31,0.19,0.57,0.3,0.79,0.35c0.22,0.05,0.42,0.04,0.61-0.02c0.19-0.06,0.35-0.18,0.48-0.34c0.14-0.16,0.26-0.32,0.36-0.48
	l0.32-0.48l0.75,0.45l-4.22,6.5L49.01,84.13L49.01,84.13z M47.17,58.08l3.77-4.33l0.64,0.52l-0.55,0.63
	c-0.21,0.24-0.36,0.46-0.45,0.65c-0.09,0.19-0.12,0.34-0.1,0.46c0.02,0.12,0.11,0.28,0.28,0.45c0.16,0.18,0.31,0.33,0.45,0.45
	l11.88,9.59l-0.92,1.05l-17.05-1.97l9.09,7.34c0.16,0.13,0.36,0.27,0.59,0.39c0.23,0.14,0.42,0.2,0.56,0.21
	c0.14,0.01,0.31-0.05,0.5-0.17c0.19-0.12,0.37-0.29,0.57-0.5l0.73-0.83l0.66,0.53L54,76.93l-0.66-0.53l0.6-0.69
	c0.16-0.18,0.28-0.36,0.35-0.54c0.08-0.17,0.1-0.34,0.08-0.49c-0.03-0.15-0.1-0.31-0.22-0.47c-0.12-0.16-0.31-0.35-0.58-0.56
	l-9.37-7.57c-0.42-0.33-0.75-0.57-1.01-0.72c-0.26-0.15-0.52-0.21-0.78-0.18c-0.26,0.02-0.54,0.21-0.83,0.55l-0.62,0.71l-0.64-0.52
	l3.25-3.73l14.8,1.73l-7.8-6.29c-0.22-0.17-0.42-0.31-0.61-0.41c-0.19-0.1-0.35-0.14-0.49-0.13c-0.13,0.02-0.27,0.07-0.43,0.18
	c-0.15,0.1-0.28,0.22-0.39,0.34l-0.86,0.98L47.17,58.08L47.17,58.08z M77.59,52.22l0.57,0.63l-5.45,4.56l-0.57-0.63l0.52-0.44
	c0.17-0.15,0.29-0.29,0.36-0.44c0.06-0.15,0.08-0.29,0.05-0.44c-0.03-0.14-0.13-0.31-0.29-0.5c-0.16-0.19-0.32-0.34-0.49-0.45
	l-2.27-1.46l-4.63,3.88l1.36,2.88c0.07,0.17,0.17,0.31,0.3,0.42c0.13,0.11,0.27,0.16,0.4,0.17c0.13,0.01,0.28-0.04,0.44-0.13
	c0.16-0.09,0.31-0.19,0.46-0.32l0.58-0.48l0.57,0.63l-4.11,3.44l-0.56-0.63l0.41-0.34c0.14-0.11,0.26-0.27,0.37-0.46
	c0.1-0.19,0.18-0.41,0.22-0.66c0.04-0.24,0.03-0.5-0.02-0.76c-0.05-0.26-0.14-0.53-0.25-0.81l-6.09-13.83l2.38-1.99l12.31,7.8
	c0.15,0.1,0.44,0.27,0.84,0.5c0.41,0.23,0.75,0.38,1.01,0.43c0.26,0.05,0.52,0.04,0.76-0.05c0.23-0.09,0.44-0.2,0.62-0.35
	L77.59,52.22L77.59,52.22z M64.99,56.07l4.22-3.53l-8.07-5.1L64.99,56.07L64.99,56.07z M71.72,37.46l-0.48-0.66l6.47-4.04l0.46,0.68
	l-0.56,0.35c-0.14,0.09-0.28,0.21-0.42,0.36c-0.14,0.15-0.23,0.29-0.27,0.42c-0.04,0.13-0.01,0.3,0.09,0.5
	c0.1,0.21,0.2,0.39,0.32,0.57l6.26,9.27c0.24,0.36,0.42,0.65,0.52,0.88c0.11,0.23,0.18,0.46,0.24,0.7c0.05,0.24,0.06,0.56,0.02,0.95
	c-0.04,0.39-0.21,0.84-0.52,1.34c-0.31,0.5-0.59,0.87-0.85,1.1c-0.26,0.23-0.5,0.43-0.72,0.59c-0.23,0.17-0.4,0.28-0.53,0.35
	c-0.15,0.09-0.34,0.19-0.56,0.29c-0.23,0.1-0.46,0.19-0.69,0.26c-0.24,0.07-0.54,0.13-0.91,0.17c-0.37,0.04-0.76,0.02-1.16-0.07
	c-0.4-0.09-0.71-0.23-0.93-0.41c-0.22-0.18-0.41-0.39-0.57-0.63c-0.18-0.26-0.3-0.53-0.36-0.79c-0.06-0.26-0.04-0.58,0.06-0.96
	c0.1-0.37,0.37-0.7,0.81-0.98c0.27-0.15,0.53-0.23,0.77-0.24c0.25-0.02,0.5,0.03,0.77,0.14c0.27,0.11,0.51,0.3,0.71,0.59
	c0.2,0.29,0.28,0.59,0.24,0.9l-0.13,0.51c-0.04,0.26-0.02,0.46,0.07,0.61c0.09,0.15,0.25,0.24,0.47,0.28
	c0.14,0.03,0.29,0.02,0.47-0.02c0.18-0.04,0.38-0.12,0.6-0.26c0.2-0.11,0.35-0.22,0.43-0.34c0.08-0.12,0.15-0.29,0.19-0.52
	c0.04-0.23,0-0.49-0.15-0.79c-0.14-0.3-0.35-0.66-0.64-1.08l-6.78-10.05c-0.16-0.24-0.32-0.42-0.47-0.54
	c-0.15-0.13-0.3-0.19-0.45-0.22c-0.15-0.02-0.33,0.01-0.53,0.08c-0.21,0.07-0.43,0.18-0.66,0.33L71.72,37.46L71.72,37.46z
	 M88.1,45.72l0.51-0.25c0.29-0.14,0.53-0.27,0.69-0.38c0.17-0.11,0.29-0.24,0.34-0.41c0.05-0.16,0.05-0.34-0.02-0.55
	c-0.06-0.21-0.17-0.46-0.33-0.76l-6.01-11.35c-0.14-0.27-0.28-0.46-0.41-0.57c-0.13-0.11-0.25-0.18-0.34-0.2
	c-0.1-0.03-0.24-0.02-0.42,0.02c-0.18,0.04-0.38,0.1-0.58,0.21l-0.7,0.34l-0.39-0.74l7.01-3.44l0.39,0.74l-0.77,0.38
	c-0.31,0.15-0.5,0.27-0.58,0.37c-0.08,0.09-0.14,0.2-0.19,0.33c-0.04,0.13-0.05,0.27-0.04,0.43c0.02,0.16,0.09,0.35,0.21,0.58
	l6.01,11.35c0.16,0.31,0.33,0.54,0.49,0.69c0.16,0.15,0.34,0.25,0.54,0.28c0.2,0.04,0.39,0.02,0.6-0.05
	c0.2-0.07,0.39-0.15,0.56-0.24l0.53-0.26L95.6,43l-7.1,3.48L88.1,45.72L88.1,45.72z M112.69,35.61l0.28,0.78l-6.83,2.26l-0.28-0.78
	l0.65-0.22c0.22-0.07,0.38-0.17,0.5-0.28c0.12-0.12,0.18-0.24,0.21-0.39c0.03-0.14,0-0.33-0.07-0.56c-0.07-0.24-0.17-0.43-0.28-0.6
	l-1.54-2.18l-5.8,1.92l0.14,3.16c0,0.19,0.03,0.35,0.11,0.5c0.08,0.15,0.18,0.25,0.3,0.3c0.12,0.05,0.28,0.06,0.46,0.04
	c0.18-0.03,0.36-0.07,0.55-0.13l0.73-0.24l0.28,0.78l-5.15,1.71l-0.28-0.78l0.51-0.17c0.17-0.06,0.34-0.16,0.52-0.3
	c0.17-0.14,0.33-0.32,0.46-0.53c0.13-0.21,0.23-0.45,0.28-0.71c0.05-0.26,0.08-0.54,0.08-0.84l-0.27-15.02l2.98-0.99l8.38,11.68
	c0.1,0.15,0.3,0.41,0.59,0.77c0.29,0.37,0.54,0.62,0.77,0.76c0.22,0.14,0.46,0.22,0.72,0.23c0.25,0.01,0.49-0.03,0.71-0.1
	L112.69,35.61L112.69,35.61z M99.51,34.63l5.29-1.75l-5.5-7.64L99.51,34.63L99.51,34.63z M112.14,27.9
	c-0.05-0.27-0.1-0.57-0.14-0.92c-0.05-0.34-0.09-0.77-0.11-1.29c-0.03-0.52-0.02-1,0.03-1.45c0.05-0.45,0.17-0.94,0.36-1.48
	c0.18-0.54,0.39-1,0.63-1.39c0.24-0.38,0.5-0.74,0.78-1.06c0.28-0.32,0.62-0.63,1.02-0.93c0.4-0.3,0.78-0.55,1.14-0.75
	c0.37-0.2,0.73-0.36,1.11-0.47c0.37-0.12,0.76-0.22,1.18-0.29c0.6-0.09,1.18-0.11,1.74-0.08c0.56,0.03,1.09,0.13,1.59,0.29
	c0.5,0.16,0.97,0.35,1.41,0.57c0.43,0.23,0.86,0.5,1.29,0.82c0.43,0.32,0.83,0.71,1.19,1.17c0.37,0.46,0.67,0.98,0.91,1.56
	c0.24,0.58,0.44,1.14,0.59,1.7c0.15,0.55,0.25,0.98,0.31,1.27c0.03,0.25,0.06,0.56,0.1,0.91c0.03,0.35,0.05,0.73,0.07,1.14
	c0.01,0.41,0,0.81-0.04,1.22c-0.04,0.41-0.16,0.92-0.36,1.53c-0.2,0.61-0.44,1.14-0.74,1.58c-0.29,0.44-0.64,0.83-1.03,1.18
	c-0.4,0.34-0.78,0.62-1.16,0.85c-0.38,0.22-0.71,0.4-0.99,0.52c-0.29,0.12-0.62,0.24-0.99,0.35c-0.37,0.11-0.66,0.19-0.87,0.22
	c-0.25,0.05-0.61,0.1-1.05,0.11c-0.45,0.01-0.88-0.01-1.28-0.07c-0.4-0.06-0.9-0.18-1.5-0.38c-0.59-0.19-1.1-0.4-1.51-0.66
	c-0.41-0.25-0.85-0.61-1.31-1.08c-0.46-0.47-0.82-0.9-1.09-1.31c-0.27-0.4-0.48-0.82-0.65-1.24c-0.17-0.42-0.3-0.8-0.38-1.13
	C112.28,28.58,112.2,28.24,112.14,27.9L112.14,27.9z M115.91,28.24c0.07,0.41,0.18,0.85,0.31,1.35c0.13,0.49,0.3,0.99,0.5,1.51
	c0.2,0.51,0.4,0.88,0.58,1.12c0.18,0.23,0.38,0.45,0.57,0.66c0.2,0.21,0.45,0.41,0.77,0.6c0.32,0.19,0.71,0.32,1.17,0.39
	c0.46,0.07,0.89,0.06,1.27-0.02c0.17-0.03,0.42-0.09,0.74-0.18c0.32-0.09,0.6-0.23,0.84-0.4c0.24-0.17,0.48-0.48,0.7-0.92
	c0.22-0.45,0.36-0.95,0.44-1.51c0.07-0.56,0.1-1.06,0.08-1.5c-0.02-0.45-0.09-1.05-0.21-1.82c-0.12-0.77-0.21-1.35-0.28-1.74
	c-0.11-0.48-0.22-1-0.34-1.54c-0.12-0.55-0.26-1.1-0.4-1.65c-0.14-0.56-0.28-1.02-0.42-1.39c-0.14-0.37-0.3-0.71-0.5-1.03
	c-0.2-0.32-0.4-0.57-0.58-0.76c-0.18-0.19-0.43-0.35-0.74-0.5c-0.31-0.15-0.65-0.24-1.02-0.27c-0.37-0.04-0.75-0.02-1.18,0.06
	c-0.4,0.08-0.73,0.18-0.97,0.29c-0.25,0.12-0.52,0.31-0.82,0.57c-0.3,0.27-0.56,0.69-0.77,1.26c-0.22,0.58-0.32,1.19-0.33,1.86
	c0,0.67,0.03,1.29,0.07,1.88c0.05,0.59,0.14,1.32,0.27,2.22C115.79,27.67,115.87,28.16,115.91,28.24L115.91,28.24z M129.93,15.93
	l14.69-0.25l0.11,5.98l-0.86,0.01l-0.09-0.66c-0.04-0.19-0.14-0.58-0.32-1.17c-0.18-0.59-0.33-1.06-0.46-1.41
	c-0.13-0.35-0.32-0.67-0.58-0.97c-0.26-0.3-0.51-0.52-0.75-0.64c-0.24-0.12-0.52-0.18-0.85-0.18l-1.6,0.03l0.26,14.04
	c0,0.21,0.05,0.41,0.12,0.61c0.08,0.2,0.16,0.34,0.27,0.43c0.1,0.1,0.29,0.17,0.57,0.24c0.28,0.06,0.58,0.1,0.89,0.09l0.89-0.01
	l0.02,0.9l-9.17,0.15l-0.02-0.9l1.08-0.04c0.34-0.01,0.63-0.03,0.85-0.08c0.22-0.05,0.4-0.13,0.53-0.25
	c0.13-0.11,0.23-0.27,0.29-0.48c0.06-0.21,0.09-0.44,0.08-0.69l-0.25-13.95l-1.31,0.02c-0.41,0.01-0.72,0.05-0.93,0.12
	c-0.21,0.08-0.44,0.2-0.67,0.38c-0.24,0.18-0.45,0.41-0.66,0.7c-0.2,0.29-0.37,0.63-0.51,1.02c-0.14,0.39-0.26,0.82-0.37,1.29
	c-0.11,0.47-0.19,0.88-0.25,1.25l-0.06,0.38l-0.82,0.01L129.93,15.93L129.93,15.93z M210.09,189.05
	c-15.51,21.64-41.12,35.77-70.09,35.77c-47.32,0-85.7-37.72-85.7-84.23c0-7.16,0.91-14.11,2.62-20.75l3.92,1.77
	c-1.5,6.08-2.31,12.44-2.31,18.98c0,44.22,36.48,80.07,81.47,80.07c27.26,0,51.39-13.17,66.18-33.38L210.09,189.05L210.09,189.05z"
	/>
<path class="st2" d="M104.2,95.89h34.72l23.61,85.58h-34.72l-7.7-27.92h22.45h3.53l-6.57-19.22h-24.71L104.2,95.89L104.2,95.89z
	 M60.45,95.89h34.72l10.6,38.44H82.14l6.56,19.22h22.37l7.7,27.92H84.06L60.45,95.89L60.45,95.89z"/>
<path class="st3" d="M91.21,149.83l-3.59-11.76l7.45,0.23l0.6,1.97l-5.05-0.16l0.83,2.73l4.69,0.15l0.6,1.97l-4.69-0.15l0.95,3.11
	l5.23,0.16l0.6,1.97L91.21,149.83L91.21,149.83z M107.96,142.48l-2.53-0.08c-0.51-1.4-1.45-2.16-2.84-2.29
	c-1.3,0.04-1.56,1.46-0.79,4.26c0.93,2.8,2.07,4.24,3.4,4.32c1.35,0,1.84-0.72,1.48-2.16l2.52,0.08c0.63,2.58-0.53,3.84-3.48,3.79
	c-3.03-0.18-5.18-2.22-6.45-6.12c-1.14-3.98-0.22-5.99,2.75-6.02C105.03,138.45,107,139.86,107.96,142.48L107.96,142.48z
	 M113.24,138.87l2.34,0.07l2.4,7.88c0.71,2.58-0.12,3.88-2.5,3.89c-2.35-0.03-3.99-1.36-4.91-3.99l2.4,0.07
	c0.44,1.44,1.1,2.17,1.98,2.2c0.8,0.02,1.02-0.68,0.66-2.12c-0.01-0.04-0.02-0.1,0-0.19L113.24,138.87L113.24,138.87z
	 M118.18,140.98l-0.6-1.97l9.02,0.28l0.6,1.97l-3.31-0.1l2.99,9.79l-2.41-0.07l-2.98-9.79L118.18,140.98L118.18,140.98z
	 M136.04,139.58l2.4,0.07l2.25,7.37c0.77,2.92-0.37,4.37-3.43,4.36c-3.19-0.18-5.27-1.74-6.25-4.66l-2.25-7.37l2.41,0.07l1.96,6.42
	c0.64,2.62,1.84,3.9,3.61,3.83c1.76,0.18,2.18-1.05,1.26-3.68L136.04,139.58L136.04,139.58z"/>
<path class="st4" d="M143.03,96.81c0,0,69.43-4.58,77.04,84.66c-17.12,0-34.24,0-51.36,0C171.26,144.44,162.03,116.75,143.03,96.81
	L143.03,96.81z"/>
</svg>
