<?xml version="1.0" encoding="utf-8"?>
<!-- Generator: Adobe Illustrator 25.2.0, SVG Export Plug-In . SVG Version: 6.00 Build 0)  -->
<svg version="1.1" id="图层_1" xmlns="http://www.w3.org/2000/svg" xmlns:xlink="http://www.w3.org/1999/xlink" x="0px" y="0px"
	 viewBox="0 0 280 280" style="enable-background:new 0 0 280 280;" xml:space="preserve">
<style type="text/css">
	.st0{fill:#4285F3;}
	.st1{fill:#FCFCFE;}
	.st2{fill:#4385F3;}
</style>
<path class="st0" d="M234.43,280H45.57C20.4,280,0,259.6,0,234.43V45.57C0,20.4,20.4,0,45.57,0h188.87C259.6,0,280,20.4,280,45.57
	v188.87C280,259.6,259.6,280,234.43,280z"/>
<g>
	<path class="st0" d="M278.65,34.69c0,70.21,0,140.43,0,210.64c-3.07,5.68-4.59,12.07-8.72,17.32c-6.76,8.6-15.91,13.01-25.95,16.13
		c-70.17,0-140.33,0-210.5,0c-1.14-1.81-3.24-1.6-4.9-2.18c-16.98-5.94-28.4-20.87-28.45-38.79c-0.17-65.6-0.18-131.2,0-196.8
		C0.19,22,13.17,6.1,31.49,1.3C32.62,1,34.04,1.41,34.72,0c69.75,0,139.51,0,209.26,0c10.74,3.2,20.26,8.18,27.03,17.6
		C274.76,22.83,276.24,28.94,278.65,34.69z M57.87,111.54c11.26,0,20.87,0.24,30.46-0.1c4.77-0.17,7.75,0.58,8.14,6.13
		c0.28,3.93,2.24,7.5,4.32,10.83c6.94,11.12,17.64,16.59,30.03,18.67c4.92,0.82,7,1.82,5.29,7.09c-1.2,3.68-0.46,7.55,1.93,10.6
		c3.32,4.25,1.37,4.61-2.72,5.1c-15.22,1.82-29.45,6.43-40.9,17.15c-12.62,11.81-11.68,27.38,1.95,37.66
		c19.7,14.86,57.93,14.04,76.79-1.73c7.65-6.4,12.08-14.2,11.67-24.7c-0.45-11.54-5.29-20.53-13.65-28.05
		c-4.59-4.13-9.83-7.58-13.63-12.56c-4.03-5.29-3.79-9.57,0.7-14.35c1.41-1.5,2.81-3.06,4.44-4.3c14.08-10.66,18.37-24.27,12.53-41
		c-0.62-1.77-1.25-3.56,0.57-5.1c7.19-6.07,14.37-12.14,21.66-18.31c2.53,5.25-1.8,8.72-1.85,12.79
		c-0.21,18.37-0.21,36.75-0.02,55.12c0.05,4.54,4.15,6.67,8.43,5.11c3.64-1.32,4.18-4.19,3.96-7.49
		c-1.34-20.01,2.67-40.2-2.44-60.12c-1.88-7.32,0.58-13.95,7.16-18.96c-21.84-0.51-43.04-0.55-64.24-0.5
		c-10.92,0.03-22.85-2.49-32.48,1.1c-9.41,3.5-16.51,13.27-24.57,20.35C80.62,91.43,69.88,100.94,57.87,111.54z"/>
	<path class="st1" d="M57.87,111.54c12.02-10.6,22.75-20.11,33.54-29.57c8.06-7.07,15.16-16.84,24.57-20.35
		c9.63-3.58,21.56-1.07,32.48-1.1c21.2-0.05,42.4-0.02,64.24,0.5c-6.59,5-9.04,11.64-7.16,18.96c5.11,19.92,1.1,40.11,2.44,60.12
		c0.22,3.3-0.32,6.17-3.96,7.49c-4.28,1.55-8.38-0.58-8.43-5.11c-0.2-18.37-0.19-36.75,0.02-55.12c0.05-4.07,4.38-7.53,1.85-12.79
		c-7.29,6.17-14.47,12.25-21.66,18.31c-1.82,1.53-1.19,3.32-0.57,5.1c5.85,16.74,1.55,30.34-12.53,41c-1.63,1.24-3.03,2.8-4.44,4.3
		c-4.5,4.78-4.73,9.05-0.7,14.35c3.79,4.98,9.03,8.43,13.63,12.56c8.36,7.52,13.2,16.51,13.65,28.05c0.41,10.5-4.02,18.3-11.67,24.7
		c-18.86,15.77-57.09,16.59-76.79,1.73c-13.63-10.28-14.57-25.85-1.95-37.66c11.46-10.72,25.69-15.33,40.9-17.15
		c4.09-0.49,6.04-0.84,2.72-5.1c-2.38-3.05-3.12-6.92-1.93-10.6c1.71-5.27-0.37-6.26-5.29-7.09c-12.39-2.08-23.09-7.55-30.03-18.67
		c-2.08-3.34-4.05-6.9-4.32-10.83c-0.39-5.55-3.37-6.3-8.14-6.13C78.74,111.78,69.13,111.54,57.87,111.54z M143.14,176.92
		c-13.27,1.29-24.99,5.12-33.22,15.91c-5.88,7.72-4.81,16.42,2.23,21.91c12.36,9.62,41.67,7.69,52.6-3.46
		c6.58-6.72,7.23-15.78,1.3-22.87C160.04,181.23,151.86,178.2,143.14,176.92z M159.78,117.14c-0.11-15.2-9.68-29.68-22-33.31
		c-10.73-3.16-20.63,1.76-23.71,11.79c-4.42,14.41,4.11,33.35,17.82,39.56C147.48,142.23,159.91,134.2,159.78,117.14z"/>
	<path class="st2" d="M143.14,176.92c8.72,1.27,16.9,4.31,22.91,11.48c5.93,7.09,5.28,16.16-1.3,22.87
		c-10.93,11.15-40.24,13.08-52.6,3.46c-7.04-5.48-8.11-14.19-2.23-21.91C118.14,182.05,129.87,178.21,143.14,176.92z"/>
	<path class="st2" d="M159.78,117.14c0.13,17.06-12.3,25.09-27.89,18.03c-13.71-6.2-22.24-25.15-17.82-39.56
		c3.08-10.03,12.98-14.95,23.71-11.79C150.11,87.46,159.67,101.95,159.78,117.14z"/>
</g>
</svg>
