<?xml version="1.0" encoding="utf-8"?>
<!-- Generator: Adobe Illustrator 25.4.0, SVG Export Plug-In . SVG Version: 6.00 Build 0)  -->
<svg version="1.1" id="图层_1" xmlns="http://www.w3.org/2000/svg" xmlns:xlink="http://www.w3.org/1999/xlink" x="0px" y="0px"
	 viewBox="0 0 280 280" style="enable-background:new 0 0 280 280;" xml:space="preserve">
<style type="text/css">
	.st0{fill:#FDFCFB;}
	.st1{fill:#1F201A;}
	.st2{fill:none;}
	.st3{fill:#DA261D;}
	.st4{fill:#AE271C;}
</style>
<g>
	<path class="st0" d="M247.92,130.94c-16.82,24.23-37.44,42.91-68.21,46.76c-14.3,1.79-28.18-0.59-41.83-4.64
		c-20.98-6.23-40.27-15.69-56.69-30.41c-8-7.17-15.53-14.75-17.76-25.98c-3.46,1.21-1.7,3.57-1.54,5.26
		c1.4,15.17-2.98,27.52-17.03,35.08c-5.29,2.85-10.01,6.84-17.07,5.44c-5.48-1.08-8.55-3.42-9.13-8.81
		c-0.58-5.35,0.78-10.41,2.9-15.28c5.46-12.53,11.17-24.94,16.01-37.76c4.23-11.21,7.23-11.94,17.92-6.11
		c3.4,1.85,6.65,4.5,10.29,5.25c4.56,0.95,5.24-4.62,8.06-6.9c25.97-21.06,56.99-30.01,88.6-37.33c25.15-5.82,50.56-7.04,75.82-0.26
		c22.09,5.93,29.65,18.54,24.87,40.92c-1.9,8.91-4.47,17.58-9.97,25.08c-10.21,4.16-20.29,8.9-31.67,8.77
		c-10.69-0.12-21.26,1.15-32.04-2.03c-12.21-3.61-22.17-10.04-31.5-18.21c-2.51-2.19-4.91-8.38-8.76-4.48
		c-3.23,3.27,1.99,6.7,4.48,9.04c20.12,18.89,44.34,24.35,71.15,21.36C232.7,134.82,239.89,130.91,247.92,130.94z M234.89,58.5
		c-8.56,0.27-14.42,0.78-19.83,3.54c-2.28,1.16-4.6,2.56-4.33,5.49c0.23,2.55,2.44,3.66,4.64,4.47c11.52,4.24,22.78,2.86,33.72-1.97
		c3.95-1.75,4.4-4.18,0.17-6.74C243.99,60.09,238.51,58.1,234.89,58.5z M154.28,88.68c3.97-0.38,7.24-1.97,7.07-6.47
		c-0.15-4.19-2.93-6.58-7.18-6.38c-3.91,0.18-6.73,1.52-6.77,6.48C147.36,87.41,150.33,88.28,154.28,88.68z"/>
	<path class="st0" d="M122.11,240.53c3.76-6.23,7.49-12.48,11.31-18.67c1.31-2.13,2.41-3.63-1.13-4.99
		c-7.01-2.69-8.65-6.38-7.23-15.03c1.82,3.17,3,6.63,6.54,7.68c4.67,1.38,8.82,1.39,11.61-3.88c3.2-6.03,7.14-11.66,10.45-17.64
		c1.76-3.18,3.7-4.48,7.54-3.94c6.78,0.96,13.66,1.18,20.32-0.98c2.77-0.9,3.71,0.06,3.68,2.82c-0.19,17.57-0.33,35.14-0.46,52.71
		c-0.01,1.97-0.09,3.63-2.74,3.69c-2.6,0.06-3.56-1.25-4-3.62c-1.03-5.59-2.09-11.18-5.03-16.22c-3.04-5.21-5.1-5.54-8.87-0.71
		c-3.7,4.74-5.63,10.37-7.28,16.1c-0.69,2.39-1.12,5.23-4.73,4.39c-3.48-0.81-1.89-3.63-1.94-5.65c-0.13-5.2-0.04-10.4-0.04-16.05
		c-11.78,4.29-15.95,17.54-26.87,21.75C122.86,241.71,122.48,241.12,122.11,240.53z"/>
	<path class="st1" d="M247.92,130.94c-8.03-0.03-15.22,3.88-23.1,4.76c-26.81,2.99-51.03-2.47-71.15-21.36
		c-2.49-2.34-7.7-5.77-4.48-9.04c3.85-3.9,6.26,2.29,8.76,4.48c9.34,8.17,19.29,14.6,31.5,18.21c10.78,3.19,21.34,1.91,32.04,2.03
		c11.38,0.12,21.46-4.61,31.67-8.77C251.41,124.48,249.67,127.71,247.92,130.94z"/>
	<path class="st1" d="M234.89,58.5c3.61-0.4,9.1,1.59,14.37,4.79c4.23,2.56,3.78,5-0.17,6.74c-10.93,4.83-22.2,6.21-33.72,1.97
		c-2.2-0.81-4.4-1.92-4.64-4.47c-0.27-2.93,2.05-4.33,4.33-5.49C220.47,59.28,226.34,58.77,234.89,58.5z"/>
	<path class="st1" d="M154.28,88.68c-3.95-0.4-6.92-1.27-6.88-6.37c0.04-4.96,2.86-6.3,6.77-6.48c4.25-0.2,7.03,2.19,7.18,6.38
		C161.52,86.71,158.25,88.3,154.28,88.68z"/>
	<path class="st2" d="M158.49,187.61v-3.58c-2.15,0.33-3.54,1.64-4.83,3.96c-3.31,5.98-7.25,11.61-10.45,17.64
		c-2.8,5.28-6.94,5.26-11.61,3.88c-3.54-1.04-4.72-4.51-6.54-7.68c-1.42,8.65,0.22,12.34,7.23,15.03c3.54,1.36,2.44,2.86,1.13,4.99
		c-3.82,6.19-7.54,12.44-11.31,18.67c0.38,0.59,0.75,1.18,1.13,1.78c10.92-4.2,15.09-17.45,26.87-21.75
		c0,5.65-0.09,10.85,0.04,16.05c0.05,2.02-1.54,4.84,1.94,5.65c3.61,0.84,4.04-2,4.73-4.39c1.65-5.72,3.58-11.36,7.28-16.1
		c3.77-4.83,5.84-4.5,8.87,0.71c2.94,5.04,4,10.62,5.03,16.22c0.44,2.37,1.4,3.68,4,3.62c2.65-0.06,2.73-1.72,2.74-3.69
		c0.13-17.57,0.27-35.14,0.46-52.71c0.02-1.87-0.42-2.89-1.56-3.09v4.79H158.49z"/>
	<path class="st2" d="M238.27,55.26c-25.26-6.78-50.67-5.56-75.82,0.26c-31.61,7.32-62.64,16.26-88.6,37.33
		c-2.81,2.28-3.5,7.85-8.06,6.9c-3.64-0.76-6.89-3.4-10.29-5.25c-10.69-5.83-13.69-5.1-17.92,6.11
		c-4.83,12.81-10.55,25.22-16.01,37.76c-2.12,4.87-3.48,9.93-2.9,15.28c0.58,5.39,3.65,7.73,9.13,8.81
		c7.05,1.39,11.78-2.6,17.07-5.44c14.05-7.56,18.43-19.92,17.03-35.08c-0.16-1.7-1.91-4.06,1.54-5.26
		c2.23,11.23,9.76,18.81,17.76,25.98c16.42,14.73,35.71,24.19,56.69,30.41c6.8,2.02,13.67,3.62,20.61,4.5v-2.74h25.16v2.29
		c28.61-4.89,48.18-22.99,64.27-46.16c1.75-3.23,3.5-6.46,5.24-9.69c5.5-7.49,8.07-16.17,9.97-25.08
		C267.92,73.79,260.36,61.19,238.27,55.26z"/>
	<path class="st3" d="M305.28,4.91c0.01-3.91-0.93-4.5-4.61-4.49C190.95,0.54,81.24,0.54-28.47,0.43c-3.52,0-4.71,0.32-4.7,4.4
		c0.16,91.7,0.12,183.4,0.12,275.1c110.91,0,221.76-0.01,332.61,0.04c3.43,0,5.79,0.67,5.77-4.7
		C305.1,185.15,305.13,95.03,305.28,4.91z M263.13,96.17c-1.9,8.91-4.47,17.58-9.97,25.08c-1.75,3.23-3.5,6.46-5.24,9.69
		c-16.09,23.18-35.66,41.27-64.27,46.16v5.71c1.14,0.2,1.58,1.22,1.56,3.09c-0.19,17.57-0.33,35.14-0.46,52.71
		c-0.01,1.97-0.09,3.63-2.74,3.69c-2.6,0.06-3.56-1.25-4-3.62c-1.03-5.59-2.09-11.18-5.03-16.22c-3.04-5.21-5.1-5.54-8.87-0.71
		c-3.7,4.74-5.63,10.37-7.28,16.1c-0.69,2.39-1.12,5.23-4.73,4.39c-3.48-0.81-1.89-3.63-1.94-5.65c-0.13-5.2-0.04-10.4-0.04-16.05
		c-11.78,4.29-15.95,17.54-26.87,21.75c-0.38-0.59-0.75-1.18-1.13-1.78c3.76-6.23,7.49-12.48,11.31-18.67
		c1.31-2.13,2.41-3.63-1.13-4.99c-7.01-2.69-8.65-6.38-7.23-15.03c1.82,3.17,3,6.63,6.54,7.68c4.67,1.38,8.82,1.39,11.61-3.88
		c3.2-6.03,7.14-11.66,10.45-17.64c1.29-2.32,2.68-3.63,4.83-3.96v-6.48c-6.94-0.88-13.81-2.48-20.61-4.5
		c-20.98-6.23-40.27-15.69-56.69-30.41c-8-7.17-15.53-14.75-17.76-25.98c-3.46,1.21-1.7,3.57-1.54,5.26
		c1.4,15.17-2.98,27.52-17.03,35.08c-5.29,2.85-10.02,6.84-17.07,5.44c-5.48-1.08-8.55-3.42-9.13-8.81
		c-0.58-5.35,0.78-10.41,2.9-15.28c5.46-12.53,11.17-24.94,16.01-37.76c4.23-11.21,7.23-11.94,17.92-6.11
		c3.4,1.85,6.65,4.5,10.29,5.25c4.56,0.95,5.24-4.62,8.06-6.9c25.97-21.06,56.99-30.01,88.6-37.33c25.15-5.82,50.56-7.04,75.82-0.26
		C260.36,61.19,267.92,73.79,263.13,96.17z"/>
	<path class="st4" d="M158.49,177.55v6.48c0.79-0.12,1.68-0.12,2.71,0.03c6.78,0.96,13.66,1.18,20.32-0.98
		c0.9-0.29,1.58-0.37,2.13-0.27v-5.71c-1.3,0.22-2.6,0.43-3.94,0.59C172.54,178.59,165.47,178.44,158.49,177.55z"/>
</g>
</svg>
