<?xml version="1.0" encoding="utf-8"?>
<!-- Generator: Adobe Illustrator 26.3.1, SVG Export Plug-In . SVG Version: 6.00 Build 0)  -->
<svg version="1.1" id="图层_1" xmlns="http://www.w3.org/2000/svg" xmlns:xlink="http://www.w3.org/1999/xlink" x="0px" y="0px"
	 viewBox="0 0 280 280" style="enable-background:new 0 0 280 280;" xml:space="preserve">
<style type="text/css">
	.st0{fill:#CAE1FE;}
	.st1{fill:#DCE9FA;}
	.st2{fill:#FEFEFE;}
	.st3{fill:#BDD7FA;}
	.st4{fill:#DC6570;}
</style>
<path class="st0" d="M279.95,171.71c0,18.4,0,36.81,0,55.21c-0.95,0.95-0.55,2.25-0.8,3.37c-3.52,15.7-18.06,27.43-34.62,27.35
	c-57.11-0.25-114.23-0.08-171.34-0.15c-1.96,0-3.92,0.98-5.89,0.06c-3.47-1.29-7.19-2.13-10.36-3.93
	c-11.99-6.81-18.36-17.2-18.61-31.11c-0.11-6.01-0.11-12.02,0.03-18.02c0.05-2.23-0.73-2.88-2.84-2.75
	c-2.17,0.14-4.32-0.01-6.5-0.44c-12.39-2.47-21.13-9.42-26.41-20.9c-0.83-1.81-0.67-4.12-2.58-5.41c0-41,0-82,0-123
	c0.12-0.14,0.31-0.26,0.33-0.42c1.42-8.3,5.41-15.14,11.72-20.68c5.87-5.16,12.64-8.2,20.49-8.4c6.28-0.16,12.57-0.04,18.85-0.05
	c-0.84,0.83-2.01,0.77-3.03,1.06c-5.62,1.56-10.7,4.05-14.77,8.32c-0.79,0.82-2.42,1.54-2,2.65c0.44,1.18,2.11,0.54,3.22,0.54
	c70.05,0.03,140.1,0.04,210.15,0.01c12.01-0.01,22.22,9.61,22.29,21.89c0.23,36.8,0.12,73.6,0.05,110.4
	c-0.02,8.99-6.34,17.41-14.8,20.36c-3.04,1.06-6.18,1.51-9.35,1.51c-68.77,0.03-137.55,0.01-206.32,0.07c-2.1,0-4.16-1-6.65-0.36
	c7.26,8.38,16.14,12.79,26.72,12.82c61.49,0.14,122.97,0.07,184.46,0.06c3.09,0,6.16,0.05,9.23-0.52
	c9.35-1.74,16.93-6.23,22.61-13.93C276.7,182.62,278.55,177.27,279.95,171.71z M23.57,48.18c1.05-4.45,3.29-8.35,5.9-12.1
	c-0.37-0.14-0.56-0.28-0.69-0.24c-9.89,3.03-16.16,11.6-16.16,22.05c0,36.13,0.02,72.26-0.03,108.39
	c-0.01,5.23,1.57,9.89,4.66,13.95c2.88,3.78,6.52,6.69,11.97,7.8c-2.41-4.49-5.02-8.36-5.66-13.04c3.24,3.02,6.61,5.51,11.43,5.51
	c70.06-0.05,140.13-0.04,210.19-0.04c7.6,0,13.45-5.86,13.45-13.47c0.01-36.81-0.01-73.61,0.03-110.42c0-2.38-0.65-4.49-1.83-6.47
	c-3.16-5.28-8.25-6.84-13.96-6.84c-67.6-0.03-135.21,0.01-202.81-0.06c-5.81-0.01-11.24,0.63-15.71,4.77
	C24.17,48.13,23.83,48.11,23.57,48.18z M224.18,230.02c0,3.55-0.03,7.1,0.01,10.65c0.03,2.94,1.56,4.68,4.09,4.82
	c2.57,0.14,4.5-1.42,4.56-4.33c0.16-7.28,0.16-14.57,0.01-21.85c-0.06-2.94-1.93-4.52-4.49-4.42c-2.55,0.1-4.13,1.84-4.17,4.74
	C224.15,223.1,224.18,226.56,224.18,230.02z M55.8,230.25c0-3.46,0.02-6.91-0.01-10.37c-0.03-3.12-1.56-4.89-4.2-4.98
	c-2.57-0.09-4.45,1.72-4.49,4.77c-0.1,7.09-0.11,14.19,0.02,21.28c0.05,2.97,1.82,4.57,4.37,4.54c2.66-0.03,4.27-1.81,4.31-4.88
	C55.83,237.17,55.8,233.71,55.8,230.25z M194.66,229.85C194.66,229.85,194.67,229.85,194.66,229.85c0.01,3.64-0.08,7.28,0.04,10.92
	c0.1,3.02,1.68,4.66,4.2,4.74c2.65,0.08,4.42-1.61,4.47-4.73c0.11-7.1,0.12-14.19-0.01-21.29c-0.06-3.06-1.96-4.74-4.61-4.57
	c-2.53,0.16-4.03,1.9-4.07,4.84C194.63,223.11,194.66,226.48,194.66,229.85z M85.32,230.66c0,0-0.01,0-0.01,0
	c0-3.73,0.11-7.46-0.03-11.18c-0.12-2.98-1.79-4.59-4.34-4.58c-2.37,0.01-4.23,1.62-4.29,4.39c-0.15,7.27-0.15,14.55,0,21.82
	c0.06,2.93,1.94,4.5,4.5,4.39c2.55-0.11,4.12-1.85,4.16-4.75C85.36,237.39,85.32,234.03,85.32,230.66z M114.84,230.46
	c0-3.55,0.07-7.09-0.02-10.64c-0.09-3.18-1.67-4.89-4.29-4.92c-2.64-0.03-4.35,1.67-4.39,4.81c-0.1,7-0.11,14,0,21
	c0.05,3.37,2.37,5.32,5.22,4.72c2.63-0.55,3.39-2.55,3.45-4.88C114.9,237.19,114.84,233.83,114.84,230.46z M144.36,230.39
	c0-3.55,0.08-7.09-0.02-10.64c-0.1-3.16-1.73-4.86-4.36-4.85c-2.62,0.01-4.28,1.72-4.32,4.88c-0.09,6.91-0.08,13.82,0,20.73
	c0.04,3.19,1.62,4.92,4.23,4.98c2.73,0.07,4.39-1.71,4.47-5.02C144.43,237.12,144.36,233.75,144.36,230.39z M173.88,230.26
	c0-3.46,0.07-6.91-0.02-10.37c-0.08-3.2-1.62-4.93-4.22-5c-2.73-0.07-4.44,1.7-4.48,5.01c-0.08,6.82-0.07,13.64,0,20.46
	c0.03,3.35,1.65,5.14,4.36,5.13c2.7,0,4.28-1.79,4.35-5.14C173.94,236.99,173.88,233.63,173.88,230.26z M253.71,227.59
	c0,2.73-0.03,5.45,0.01,8.18c0.04,2.92,1.56,4.67,4.09,4.81c2.4,0.14,4.42-1.36,4.52-4.1c0.23-5.8,0.22-11.63,0.01-17.43
	c-0.1-2.76-2.1-4.26-4.5-4.14c-2.53,0.13-4.07,1.87-4.12,4.78C253.67,222.32,253.71,224.95,253.71,227.59z"/>
<path class="st1" d="M279.95,171.71c-1.4,5.57-3.24,10.91-6.71,15.61c-5.68,7.7-13.26,12.19-22.61,13.93
	c-3.07,0.57-6.15,0.52-9.23,0.52c-61.49,0-122.97,0.07-184.46-0.06c-10.58-0.02-19.46-4.44-26.72-12.82
	c2.49-0.64,4.55,0.36,6.65,0.36c68.77-0.07,137.55-0.05,206.32-0.07c3.17,0,6.31-0.44,9.35-1.51c8.45-2.95,14.78-11.37,14.8-20.36
	c0.07-36.8,0.18-73.6-0.05-110.4c-0.08-12.28-10.28-21.9-22.29-21.89c-70.05,0.03-140.1,0.02-210.15-0.01
	c-1.11,0-2.78,0.64-3.22-0.54c-0.41-1.11,1.22-1.83,2-2.65c4.07-4.26,9.15-6.76,14.77-8.32c1.02-0.28,2.19-0.23,3.03-1.06
	c2.3-1.38,4.6,0.1,6.9,0.1c62.26-0.1,124.53-0.11,186.79-0.05c14.27,0.01,24.41,6.91,31.13,19.3c1.93,3.57,2.58,7.49,3.69,11.29
	C279.95,92.62,279.95,132.16,279.95,171.71z"/>
<path class="st2" d="M67.3,257.55c1.96,0.92,3.92-0.06,5.89-0.06c57.11,0.07,114.23-0.1,171.34,0.15
	c16.55,0.07,31.1-11.65,34.62-27.35c0.25-1.12-0.15-2.42,0.8-3.37c0,16.95-0.04,33.89,0.05,50.84c0.01,1.87-0.37,2.24-2.24,2.24
	c-92.57-0.06-185.15-0.05-277.72-0.05c0-17.31,0-34.62,0-51.93c0.49,0.38,0.47,0.93,0.57,1.47c2.76,15.29,17.58,28.44,33.63,28.12
	C45.25,257.39,56.28,257.56,67.3,257.55z"/>
<path class="st2" d="M279.95,53.08c-1.12-3.8-1.76-7.72-3.69-11.29c-6.71-12.39-16.86-19.29-31.13-19.3
	c-62.26-0.06-124.53-0.05-186.79,0.05c-2.3,0-4.6-1.48-6.9-0.1c-6.28,0.01-12.57-0.11-18.85,0.05c-7.85,0.2-14.62,3.24-20.49,8.4
	C5.78,36.43,1.79,43.26,0.37,51.57c-0.03,0.15-0.22,0.28-0.33,0.42C0.04,35.32,0.06,18.66,0,2c-0.01-1.53,0.18-2,1.91-2
	c92.05,0.06,184.11,0.06,276.16,0c1.74,0,1.92,0.48,1.91,2C279.92,19.03,279.95,36.05,279.95,53.08z"/>
<path class="st3" d="M67.3,257.55c-11.02,0-22.04-0.17-33.06,0.05c-16.05,0.32-30.87-12.83-33.63-28.12
	c-0.1-0.54-0.08-1.1-0.57-1.47c0-17.68,0-35.35,0-53.03c1.91,1.29,1.75,3.61,2.58,5.41c5.28,11.48,14.02,18.43,26.41,20.9
	c2.17,0.43,4.33,0.58,6.5,0.44c2.1-0.13,2.89,0.52,2.84,2.75c-0.14,6-0.14,12.01-0.03,18.02c0.25,13.91,6.62,24.3,18.61,31.11
	C60.11,255.42,63.83,256.27,67.3,257.55z M26.27,228.08c0-2.91,0.06-5.82-0.02-8.73c-0.07-2.58-1.59-4.23-3.9-4.44
	c-2.47-0.23-4.55,1.17-4.66,3.87c-0.24,5.9-0.25,11.82-0.03,17.72c0.1,2.73,2.15,4.23,4.55,4.07c2.52-0.16,4-1.91,4.05-4.86
	C26.31,233.17,26.28,230.63,26.27,228.08z"/>
<path class="st1" d="M23.57,48.18c0.26-0.07,0.6-0.05,0.78-0.21c4.47-4.14,9.9-4.77,15.71-4.77c67.6,0.07,135.21,0.03,202.81,0.06
	c5.72,0,10.8,1.56,13.96,6.84c1.18,1.97,1.83,4.09,1.83,6.47c-0.04,36.81-0.02,73.61-0.03,110.42c0,7.61-5.85,13.47-13.45,13.47
	c-70.06,0.01-140.13-0.01-210.19,0.04c-4.82,0-8.19-2.49-11.43-5.51c-1.13-2.37-1.13-4.89-1.13-7.44
	c0.02-35.2,0.01-70.4,0.02-105.61C22.45,57.32,22.01,52.67,23.57,48.18z M94.92,127.35c1,0,2-0.02,3,0
	c2.36,0.04,5.15-0.66,6.96,0.37c1.97,1.11,2.03,4.26,2.94,6.51c1.23,3.03,3.38,4.33,5.85,3.45c2.4-0.86,3.28-3.4,2.16-6.4
	c-1.78-4.77-3.59-9.52-5.39-14.28c-3.44-9.1-6.89-18.19-10.32-27.29c-0.87-2.29-2.57-3.6-4.96-3.61c-2.39-0.01-4.1,1.3-4.97,3.59
	c-0.48,1.27-1,2.54-1.49,3.81c-4.81,12.66-9.64,25.31-14.41,37.98c-1.11,2.94-0.21,5.31,2.13,6.16c2.45,0.89,4.56-0.23,5.74-3.12
	c0.62-1.51,1.35-3.01,1.72-4.59c0.53-2.23,1.81-2.78,3.94-2.62C90.18,127.49,92.56,127.35,94.92,127.35z M218.42,103.07
	c-3.46-4.91-6.75-9.58-10.05-14.24c-1.99-2.81-4.22-3.51-6.42-2.05c-2.27,1.5-2.49,4.08-0.51,6.93c3.43,4.93,6.85,9.88,10.4,14.72
	c1.1,1.5,1.14,2.53,0.02,4.06c-4.29,5.88-8.44,11.87-12.61,17.84c-1.9,2.72-1.77,5.26,0.28,6.77c2.13,1.57,4.72,0.84,6.68-1.95
	c3.68-5.2,7.37-10.4,10.98-15.64c0.96-1.39,1.47-1.39,2.44,0.02c3.6,5.26,7.29,10.45,10.99,15.64c2,2.81,4.29,3.49,6.44,2.05
	c2.32-1.56,2.52-3.97,0.48-6.9c-4.21-6.05-8.42-12.11-12.74-18.08c-0.97-1.34-0.95-2.21,0.01-3.53c3.65-5,7.16-10.1,10.74-15.15
	c1.12-1.58,1.72-3.22,0.82-5.09c-1.51-3.13-5.28-3.24-7.52-0.14C225.38,93.12,222.02,97.97,218.42,103.07z M160.37,112.11
	c0,6.92-0.04,13.85,0.02,20.77c0.03,3.52,1.54,4.97,5.03,4.99c5.56,0.03,11.11,0.03,16.67,0c3.12-0.02,4.96-1.64,4.91-4.23
	c-0.04-2.55-1.88-4.06-5.06-4.08c-3.64-0.02-7.29-0.06-10.93,0.02c-1.47,0.03-2.15-0.35-2.1-1.97c0.1-3.09,0.09-6.19,0-9.29
	c-0.04-1.44,0.48-1.91,1.9-1.88c3.19,0.08,6.38,0.04,9.56,0.02c3.3-0.02,5.28-1.59,5.34-4.19c0.06-2.51-2.05-4.3-5.23-4.34
	c-3.1-0.04-6.2-0.1-9.29,0.02c-1.84,0.08-2.36-0.62-2.29-2.36c0.11-2.82,0.12-5.65,0-8.47c-0.07-1.73,0.63-2.18,2.23-2.14
	c3.55,0.09,7.11,0.06,10.66,0.01c3.34-0.05,5.21-1.64,5.2-4.31c-0.01-2.63-1.93-4.2-5.26-4.22c-5.19-0.02-10.38-0.01-15.58,0
	c-4.31,0.01-5.77,1.43-5.79,5.7C160.35,98.81,160.37,105.46,160.37,112.11z M131.28,114.86c0,5.82-0.01,11.65,0,17.47
	c0.01,3.64,1.42,5.48,4.18,5.53c2.89,0.05,4.36-1.83,4.38-5.64c0.02-3.73,0-7.46,0-11.19c0-8.01,0.05-16.02-0.04-24.03
	c-0.02-1.91,0.55-2.62,2.47-2.46c1.63,0.14,3.28,0.07,4.91,0.01c2.77-0.1,4.68-1.93,4.63-4.34c-0.05-2.25-1.93-4.05-4.56-4.17
	c-2.18-0.1-4.37-0.03-6.55-0.03c-5.55,0-11.1-0.05-16.65,0.03c-2.83,0.04-4.7,1.87-4.71,4.29c-0.02,2.4,1.9,4.14,4.73,4.23
	c1.64,0.05,3.28,0.11,4.91-0.01c1.78-0.14,2.35,0.5,2.32,2.29C131.22,102.84,131.28,108.85,131.28,114.86z M41.01,111.87
	c0,6.92-0.02,13.84,0.01,20.76c0.01,3.72,1.42,5.2,5.03,5.24c4.55,0.04,9.11,0.04,13.66,0c3.14-0.03,4.92-1.64,4.87-4.27
	c-0.05-2.51-1.79-4.01-4.78-4.06c-2.37-0.04-4.75-0.18-7.1,0.04c-2.59,0.24-3.42-0.57-3.39-3.26c0.15-11.56,0.06-23.13,0.06-34.69
	c0-1.55,0.1-3.14-1.22-4.31c-1.34-1.18-2.84-1.6-4.54-0.86c-1.78,0.78-2.6,2.18-2.6,4.1C41.02,97.66,41.02,104.76,41.01,111.87z
	 M171.77,168.97c6.16,0.07,12.14-5.82,11.95-11.79c-0.08-2.48-1.64-4.48-3.9-4.44c-2.1,0.03-3.89,0.89-4.34,3.33
	c-0.13,0.71-0.39,1.4-0.62,2.09c-0.44,1.33-1.2,2.1-2.77,2.11c-1.68,0.01-2.8-0.68-3.5-2.1c-0.31-0.64-0.35-1.4-0.59-2.09
	c-0.79-2.34-2.79-3.79-4.62-3.37c-2.2,0.5-3.95,3.07-3.69,5.41C160.37,164.15,165.64,168.9,171.77,168.97z M235.26,168.97
	c5.85,0.04,11.34-4.83,11.85-10.59c0.14-1.63,0.17-3.3-1.3-4.5c-2.76-2.24-5.9-1.13-6.86,2.41c-0.44,1.62-0.48,3.53-2.72,3.92
	c-2.51,0.44-3.76-0.54-4.43-3.45c-0.53-2.3-2.69-4.25-4.48-4.04c-2.38,0.28-4.39,2.64-4.2,4.91
	C223.67,163.9,229.05,168.93,235.26,168.97z M44.48,168.97c6.14,0.04,10.58-3.76,12.12-10.34c0.65-2.81-0.7-5.07-3.47-5.76
	c-1.98-0.5-4.47,1.18-4.86,3.66c-0.36,2.32-1.24,3.71-3.75,3.7c-2.67-0.01-3.23-1.79-3.52-3.94c-0.32-2.36-1.93-3.48-4.12-3.58
	c-2.16-0.1-4.01,1.94-4.01,4.31C32.86,163.54,37.75,168.61,44.48,168.97z M44.41,78.77c6.39,0.61,11.54-4.15,12.39-11.09
	c0.27-2.19-1.23-4.23-3.3-4.69c-2.25-0.5-4.47,0.76-5.17,2.96c-0.16,0.51-0.15,1.07-0.25,1.61c-0.3,1.6-1.24,2.59-2.83,2.94
	c-1.73,0.38-2.72-0.67-3.56-1.93c-0.46-0.69-0.55-1.5-0.71-2.31c-0.43-2.19-2.36-3.62-4.56-3.3c-2.23,0.33-3.42,1.7-3.62,4.03
	C32.28,73.34,39.07,79.61,44.41,78.77z M108.01,168.97c6.53-0.02,11.54-4.77,12.25-11.48c0.21-1.97-1.74-4.51-3.73-4.78
	c-2.19-0.29-3.58,0.98-4.41,2.88c-0.29,0.66-0.37,1.4-0.59,2.09c-0.49,1.52-1.43,2.46-3.12,2.54c-2.58,0.13-3.52-1.48-3.8-3.66
	c-0.35-2.67-2.1-3.78-4.47-3.84c-2-0.05-3.96,2.76-3.88,5.11C96.45,163.48,102.26,168.98,108.01,168.97z M108.06,78.77
	c6.49,0,10.53-3.36,12.02-9.99c0.65-2.87-0.6-5.19-3.09-5.78c-2.53-0.6-4.87,0.86-5.26,3.75c-0.31,2.28-1.29,3.62-3.5,3.75
	c-2.47,0.15-3.1-1.84-3.65-3.7c-0.9-3.01-2.61-4.34-4.97-3.81c-2.44,0.56-3.72,2.87-3.28,5.78
	C97.21,74.61,102.91,79.55,108.06,78.77z M235.36,78.76c4.14,0.47,7.19-1.73,9.66-4.83c1.49-1.86,2.23-4.13,2.13-6.61
	c-0.09-2.41-1.47-4.17-3.55-4.39c-2.37-0.25-4.17,1.07-4.65,3.53c-0.41,2.11-1.23,4-3.65,4.03c-2.36,0.03-3.59-1.46-3.61-3.87
	c0-0.26-0.18-0.51-0.27-0.77c-0.75-2.19-2.65-3.31-4.86-2.88c-2.1,0.42-3.65,2.42-3.4,4.62C223.95,74.51,229.09,79.26,235.36,78.76z
	 M171.97,78.77c6.22,0.68,11.48-5.34,11.74-11.14c0.11-2.53-1.37-4.39-3.65-4.67c-2.51-0.3-3.86,1.11-4.55,3.35
	c-0.24,0.78-0.37,1.62-0.76,2.32c-0.7,1.25-1.71,2.22-3.3,1.87c-1.47-0.32-2.76-0.94-3.03-2.7c-0.11-0.71-0.29-1.41-0.53-2.09
	c-0.85-2.37-2.62-3.18-4.97-2.67c-2.21,0.47-3.52,2.63-3.2,5.02C160.61,74.69,165.28,78.78,171.97,78.77z"/>
<path class="st3" d="M23.57,48.18c-1.56,4.49-1.12,9.14-1.12,13.75c-0.01,35.2,0,70.4-0.02,105.61c0,2.56-0.01,5.08,1.13,7.44
	c0.64,4.67,3.25,8.54,5.66,13.04c-5.45-1.11-9.09-4.01-11.97-7.8c-3.09-4.06-4.66-8.72-4.66-13.95
	c0.05-36.13,0.02-72.26,0.03-108.39c0-10.45,6.28-19.01,16.16-22.05c0.13-0.04,0.32,0.11,0.69,0.24
	C26.86,39.83,24.62,43.73,23.57,48.18z"/>
<path class="st1" d="M224.18,230.02c0-3.46-0.04-6.92,0.01-10.38c0.04-2.9,1.62-4.64,4.17-4.74c2.56-0.1,4.43,1.48,4.49,4.42
	c0.14,7.28,0.15,14.57-0.01,21.85c-0.06,2.91-2,4.48-4.56,4.33c-2.54-0.14-4.06-1.89-4.09-4.82
	C224.15,237.12,224.18,233.57,224.18,230.02z"/>
<path class="st1" d="M55.8,230.25c0,3.46,0.03,6.91-0.01,10.37c-0.04,3.07-1.65,4.85-4.31,4.88c-2.55,0.03-4.32-1.57-4.37-4.54
	c-0.13-7.09-0.12-14.19-0.02-21.28c0.04-3.05,1.92-4.86,4.49-4.77c2.65,0.09,4.18,1.86,4.2,4.98
	C55.82,223.34,55.8,226.8,55.8,230.25z"/>
<path class="st1" d="M194.66,229.85c0-3.37-0.03-6.73,0.01-10.1c0.04-2.94,1.54-4.69,4.07-4.84c2.65-0.16,4.56,1.51,4.61,4.57
	c0.13,7.09,0.12,14.19,0.01,21.29c-0.05,3.13-1.82,4.81-4.47,4.73c-2.52-0.07-4.1-1.72-4.2-4.74
	C194.58,237.13,194.67,233.49,194.66,229.85C194.67,229.85,194.66,229.85,194.66,229.85z"/>
<path class="st1" d="M85.32,230.66c0,3.36,0.04,6.73-0.01,10.09c-0.04,2.9-1.61,4.64-4.16,4.75c-2.57,0.11-4.44-1.46-4.5-4.39
	c-0.15-7.27-0.15-14.55,0-21.82c0.06-2.78,1.92-4.39,4.29-4.39c2.55-0.01,4.22,1.6,4.34,4.58c0.15,3.72,0.03,7.45,0.03,11.18
	C85.31,230.66,85.32,230.66,85.32,230.66z"/>
<path class="st1" d="M114.84,230.46c0,3.36,0.06,6.73-0.02,10.09c-0.06,2.33-0.82,4.33-3.45,4.88c-2.86,0.6-5.17-1.35-5.22-4.72
	c-0.11-7-0.1-14,0-21c0.04-3.14,1.76-4.84,4.39-4.81c2.62,0.03,4.2,1.74,4.29,4.92C114.91,223.37,114.84,226.92,114.84,230.46z"/>
<path class="st1" d="M144.36,230.39c0,3.36,0.07,6.73-0.02,10.09c-0.08,3.31-1.74,5.09-4.47,5.02c-2.6-0.06-4.19-1.79-4.23-4.98
	c-0.08-6.91-0.08-13.82,0-20.73c0.04-3.16,1.7-4.87,4.32-4.88c2.63-0.01,4.27,1.69,4.36,4.85
	C144.44,223.29,144.36,226.84,144.36,230.39z"/>
<path class="st1" d="M173.88,230.26c0,3.36,0.06,6.73-0.02,10.09c-0.07,3.35-1.65,5.14-4.35,5.14c-2.71,0-4.32-1.79-4.36-5.13
	c-0.06-6.82-0.07-13.64,0-20.46c0.04-3.31,1.75-5.08,4.48-5.01c2.6,0.07,4.14,1.8,4.22,5C173.95,223.35,173.88,226.81,173.88,230.26
	z"/>
<path class="st1" d="M253.71,227.59c0-2.63-0.03-5.27,0.01-7.9c0.05-2.91,1.58-4.65,4.12-4.78c2.4-0.12,4.39,1.38,4.5,4.14
	c0.22,5.8,0.22,11.63-0.01,17.43c-0.11,2.75-2.12,4.24-4.52,4.1c-2.53-0.14-4.04-1.89-4.09-4.81
	C253.67,233.04,253.71,230.31,253.71,227.59z"/>
<path class="st1" d="M26.28,228.08c0,2.55,0.03,5.09-0.01,7.64c-0.05,2.95-1.53,4.69-4.05,4.86c-2.4,0.16-4.45-1.34-4.55-4.07
	c-0.22-5.9-0.21-11.82,0.03-17.72c0.11-2.7,2.18-4.1,4.66-3.87c2.32,0.22,3.84,1.86,3.9,4.44
	C26.33,222.26,26.27,225.17,26.28,228.08z"/>
<path class="st4" d="M94.92,127.35c-2.37,0-4.74,0.14-7.09-0.04c-2.13-0.17-3.42,0.38-3.94,2.62c-0.37,1.58-1.1,3.08-1.72,4.59
	c-1.18,2.89-3.29,4.01-5.74,3.12c-2.34-0.85-3.23-3.22-2.13-6.16c4.77-12.67,9.6-25.32,14.41-37.98c0.48-1.27,1-2.54,1.49-3.81
	c0.87-2.29,2.58-3.59,4.97-3.59c2.39,0.01,4.09,1.32,4.96,3.61c3.44,9.1,6.88,18.19,10.32,27.29c1.8,4.76,3.61,9.52,5.39,14.28
	c1.12,3,0.24,5.54-2.16,6.4c-2.46,0.88-4.62-0.42-5.85-3.45c-0.91-2.25-0.98-5.39-2.94-6.51c-1.81-1.02-4.6-0.32-6.96-0.37
	C96.92,127.33,95.92,127.35,94.92,127.35z M95.13,100.5c-2.35,6.17-4.4,11.55-6.43,16.93c-0.37,0.97,0.16,1.32,1.08,1.32
	c3.55-0.01,7.09-0.01,10.64,0c1.1,0,1.49-0.41,1.07-1.5C99.46,111.94,97.46,106.63,95.13,100.5z"/>
<path class="st4" d="M218.42,103.07c3.6-5.1,6.96-9.96,10.42-14.74c2.24-3.1,6.02-2.99,7.52,0.14c0.9,1.87,0.31,3.51-0.82,5.09
	c-3.59,5.05-7.09,10.15-10.74,15.15c-0.96,1.32-0.99,2.18-0.01,3.53c4.32,5.97,8.53,12.03,12.74,18.08c2.04,2.93,1.84,5.35-0.48,6.9
	c-2.15,1.44-4.44,0.75-6.44-2.05c-3.7-5.19-7.39-10.38-10.99-15.64c-0.97-1.41-1.48-1.41-2.44-0.02
	c-3.61,5.25-7.3,10.44-10.98,15.64c-1.97,2.78-4.56,3.52-6.68,1.95c-2.05-1.51-2.18-4.05-0.28-6.77
	c4.17-5.97,8.32-11.95,12.61-17.84c1.11-1.53,1.07-2.57-0.02-4.06c-3.55-4.84-6.97-9.79-10.4-14.72c-1.98-2.84-1.75-5.43,0.51-6.93
	c2.21-1.46,4.43-0.76,6.42,2.05C211.67,93.49,214.96,98.17,218.42,103.07z"/>
<path class="st4" d="M160.37,112.11c0-6.65-0.02-13.3,0.01-19.95c0.02-4.27,1.48-5.69,5.79-5.7c5.19-0.01,10.38-0.02,15.58,0
	c3.33,0.01,5.25,1.58,5.26,4.22c0.01,2.67-1.86,4.26-5.2,4.31c-3.55,0.05-7.11,0.07-10.66-0.01c-1.6-0.04-2.31,0.41-2.23,2.14
	c0.12,2.82,0.11,5.65,0,8.47c-0.07,1.74,0.46,2.44,2.29,2.36c3.09-0.13,6.19-0.07,9.29-0.02c3.18,0.04,5.29,1.83,5.23,4.34
	c-0.06,2.6-2.04,4.17-5.34,4.19c-3.19,0.02-6.38,0.06-9.56-0.02c-1.41-0.03-1.93,0.44-1.9,1.88c0.08,3.09,0.1,6.2,0,9.29
	c-0.05,1.62,0.63,2,2.1,1.97c3.64-0.07,7.29-0.04,10.93-0.02c3.18,0.02,5.02,1.53,5.06,4.08c0.04,2.59-1.8,4.21-4.91,4.23
	c-5.56,0.03-11.11,0.03-16.67,0c-3.49-0.02-5-1.47-5.03-4.99C160.33,125.95,160.37,119.03,160.37,112.11z"/>
<path class="st4" d="M131.28,114.86c0-6.01-0.06-12.01,0.04-18.02c0.03-1.8-0.54-2.44-2.32-2.29c-1.63,0.13-3.28,0.07-4.91,0.01
	c-2.83-0.09-4.75-1.83-4.73-4.23c0.02-2.42,1.89-4.24,4.71-4.29c5.55-0.08,11.1-0.03,16.65-0.03c2.18,0,4.37-0.07,6.55,0.03
	c2.63,0.12,4.51,1.92,4.56,4.17c0.05,2.42-1.86,4.24-4.63,4.34c-1.64,0.06-3.29,0.13-4.91-0.01c-1.92-0.16-2.49,0.55-2.47,2.46
	c0.09,8.01,0.04,16.02,0.04,24.03c0,3.73,0.01,7.46,0,11.19c-0.02,3.81-1.49,5.69-4.38,5.64c-2.76-0.04-4.18-1.89-4.18-5.53
	C131.27,126.51,131.28,120.68,131.28,114.86z"/>
<path class="st4" d="M41.02,111.87c0-7.1,0.01-14.2,0-21.31c0-1.92,0.82-3.33,2.6-4.1c1.7-0.74,3.2-0.32,4.54,0.86
	c1.32,1.17,1.22,2.76,1.22,4.31c0,11.56,0.08,23.13-0.06,34.69c-0.03,2.69,0.8,3.5,3.39,3.26c2.35-0.22,4.73-0.07,7.1-0.04
	c2.99,0.05,4.73,1.55,4.78,4.06c0.05,2.63-1.72,4.24-4.87,4.27c-4.55,0.05-9.11,0.05-13.66,0c-3.61-0.03-5.02-1.51-5.03-5.24
	C41,125.71,41.01,118.79,41.02,111.87z"/>
<path class="st0" d="M171.77,168.97c-6.13-0.07-11.4-4.82-12.07-10.86c-0.26-2.35,1.49-4.91,3.69-5.41
	c1.82-0.42,3.83,1.03,4.62,3.37c0.23,0.69,0.27,1.45,0.59,2.09c0.69,1.42,1.82,2.11,3.5,2.1c1.57-0.01,2.33-0.78,2.77-2.11
	c0.23-0.69,0.49-1.38,0.62-2.09c0.45-2.43,2.25-3.29,4.34-3.33c2.26-0.04,3.82,1.96,3.9,4.44
	C183.91,163.16,177.94,169.05,171.77,168.97z"/>
<path class="st0" d="M235.26,168.97c-6.22-0.05-11.59-5.07-12.14-11.35c-0.2-2.27,1.82-4.63,4.2-4.91c1.78-0.21,3.95,1.74,4.48,4.04
	c0.67,2.92,1.93,3.89,4.43,3.45c2.24-0.39,2.27-2.3,2.72-3.92c0.97-3.54,4.11-4.65,6.86-2.41c1.47,1.2,1.44,2.87,1.3,4.5
	C246.61,164.14,241.12,169.02,235.26,168.97z"/>
<path class="st0" d="M44.48,168.97c-6.74-0.36-11.63-5.43-11.62-11.95c0-2.37,1.85-4.41,4.01-4.31c2.19,0.1,3.81,1.22,4.12,3.58
	c0.29,2.15,0.85,3.94,3.52,3.94c2.51,0.01,3.39-1.38,3.75-3.7c0.39-2.48,2.88-4.16,4.86-3.66c2.77,0.7,4.12,2.95,3.47,5.76
	C55.07,165.22,50.62,169.01,44.48,168.97z"/>
<path class="st0" d="M44.41,78.77c-5.35,0.83-12.13-5.44-11.59-11.79c0.2-2.33,1.38-3.7,3.62-4.03c2.19-0.33,4.13,1.11,4.56,3.3
	c0.16,0.81,0.25,1.62,0.71,2.31c0.84,1.27,1.83,2.31,3.56,1.93c1.59-0.35,2.53-1.34,2.83-2.94c0.1-0.53,0.08-1.1,0.25-1.61
	c0.69-2.2,2.92-3.45,5.17-2.96c2.07,0.46,3.56,2.51,3.3,4.69C55.96,74.63,50.8,79.38,44.41,78.77z"/>
<path class="st0" d="M108.01,168.97c-5.76,0-11.57-5.49-11.76-11.13c-0.08-2.35,1.88-5.16,3.88-5.11c2.37,0.06,4.12,1.17,4.47,3.84
	c0.28,2.18,1.22,3.78,3.8,3.66c1.69-0.08,2.64-1.03,3.12-2.54c0.22-0.69,0.31-1.43,0.59-2.09c0.83-1.9,2.22-3.17,4.41-2.88
	c1.99,0.26,3.94,2.81,3.73,4.78C119.55,164.2,114.54,168.96,108.01,168.97z"/>
<path class="st0" d="M108.06,78.77c-5.15,0.77-10.85-4.17-11.74-9.99c-0.44-2.9,0.84-5.22,3.28-5.78c2.36-0.54,4.07,0.8,4.97,3.81
	c0.56,1.87,1.18,3.85,3.65,3.7c2.21-0.13,3.19-1.48,3.5-3.75c0.39-2.89,2.73-4.35,5.26-3.75c2.5,0.59,3.74,2.91,3.09,5.78
	C118.59,75.42,114.55,78.77,108.06,78.77z"/>
<path class="st0" d="M235.36,78.76c-6.27,0.5-11.41-4.25-12.2-11.16c-0.25-2.19,1.3-4.2,3.4-4.62c2.21-0.44,4.11,0.69,4.86,2.88
	c0.09,0.26,0.27,0.51,0.27,0.77c0.02,2.41,1.25,3.9,3.61,3.87c2.41-0.03,3.23-1.92,3.65-4.03c0.48-2.46,2.28-3.79,4.65-3.53
	c2.08,0.22,3.45,1.99,3.55,4.39c0.1,2.48-0.65,4.75-2.13,6.61C242.56,77.03,239.51,79.23,235.36,78.76z"/>
<path class="st0" d="M171.97,78.77c-6.69,0-11.36-4.08-12.25-10.71c-0.32-2.39,0.99-4.54,3.2-5.02c2.35-0.5,4.12,0.3,4.97,2.67
	c0.24,0.67,0.43,1.38,0.53,2.09c0.27,1.75,1.56,2.38,3.03,2.7c1.59,0.35,2.6-0.62,3.3-1.87c0.39-0.7,0.52-1.54,0.76-2.32
	c0.69-2.24,2.04-3.65,4.55-3.35c2.28,0.27,3.76,2.14,3.65,4.67C183.45,73.43,178.19,79.45,171.97,78.77z"/>
<path class="st1" d="M95.13,100.5c2.32,6.13,4.33,11.44,6.35,16.75c0.42,1.09,0.04,1.51-1.07,1.5c-3.55-0.01-7.09-0.01-10.64,0
	c-0.92,0-1.45-0.34-1.08-1.32C90.73,112.05,92.79,106.67,95.13,100.5z"/>
</svg>
