<svg id="图层_1" data-name="图层 1" xmlns="http://www.w3.org/2000/svg" viewBox="0 0 97 46"><defs><style>.cls-1{fill:lime;stroke:#000;stroke-miterlimit:10;stroke-width:0.25px;}.cls-2{fill:red;}.cls-3{font-size:10px;font-family:TimesNewRomanPSMT, Times New Roman;}</style></defs><polygon class="cls-1" points="92 30.5 92 40 89 40 89 30.5 86 30.5 86 40 83 40 83 30.5 80 30.5 80 40 77 40 77 30.5 74 30.5 74 40 71 40 71 30.5 68 30.5 68 40 65 40 65 30.5 62 30.5 62 40 59 40 59 30.5 56 30.5 56 40 53 40 53 30.5 50 30.5 50 40 47 40 47 30.5 44 30.5 44 40 41 40 41 30.5 38 30.5 38 40 35 40 35 30.5 32 30.5 32 40 29 40 29 30.5 26 30.5 26 40 23 40 23 30.5 20 30.5 20 40 17 40 17 30.5 14 30.5 14 40 11 40 11 30.5 8 30.5 8 40 5 40 5 30.5 2 30.5 2 40 2 40.5 2 45 95 45 95 40.5 95 40 95 30.5 92 30.5"/><path class="cls-2" d="M53.2,30.5H53V36h3V30.5h3V36h3V30.5h3V36h3V30.5h3V36h3V30.5h-.2a17,17,0,1,0-20.6,0Z"/><text class="cls-3" transform="translate(5.97 25.74) scale(0.58)">Metastable state</text></svg>