<?xml version="1.0" encoding="utf-8"?>
<!-- Generator: Adobe Illustrator 25.2.0, SVG Export Plug-In . SVG Version: 6.00 Build 0)  -->
<svg version="1.1" id="图层_1" xmlns="http://www.w3.org/2000/svg" xmlns:xlink="http://www.w3.org/1999/xlink" x="0px" y="0px"
	 viewBox="0 0 280 280" style="enable-background:new 0 0 280 280;" xml:space="preserve">
<style type="text/css">
	.st0{fill:#D51223;}
	.st1{fill:#C0955D;}
	.st2{font-family:'ArialMT';}
	.st3{font-size:26.1753px;}
</style>
<g>
	<path class="st0" d="M16.98,159.81c1.3-0.3,2.59-0.87,3.88-0.86c11.55,0.13,18.86-6.08,24.07-15.69
		c8.29-15.3,15.55-31.06,20.76-47.68c1.23-3.93,1.78-8.09,2.36-12.18c0.33-2.33,1.32-2.68,3.3-2.02c5.37,1.78,7.42,5.66,5.11,11.3
		c-3.35,8.19-6.98,16.28-10.87,24.22c-5.07,10.36-10.42,20.59-15.82,30.78c-6.17,11.64-16.27,15.74-28.95,14.43
		c-1.35-0.14-2.63-0.9-3.94-1.37C16.91,160.43,16.94,160.12,16.98,159.81z"/>
	<path class="st0" d="M230.31,138.84c1.14-1.71,2.19-3.48,3.43-5.11c3.23-4.25,6.56-8.44,9.83-12.66c2.42-3.12,4.75-6.3,7.28-9.33
		c0.73-0.88,2-1.79,3.02-1.78c0.72,0.01,1.72,1.43,2.08,2.41c1.74,4.69,0.06,7.59-4.8,9.41c-3.69,1.38-7.44,2.82-10.75,4.89
		c-4.58,2.86-4.44,5.81-0.11,8.92c1.04,0.75,2.17,1.37,3.23,2.08c1.55,1.04,3.16,2,4.6,3.18c2.17,1.77,3.79,4.01,3.02,6.95
		c-0.26,0.99-1.49,2.22-2.48,2.43c-3.1,0.68-5.59-0.97-7.08-3.44c-1.42-2.34-2.1-5.13-3.18-7.7c-0.69-1.64-1.52-3.22-2.28-4.83
		c-0.48-0.04-0.97-0.07-1.45-0.11c-1.72,3.97-3.47,7.93-5.13,11.92c-0.62,1.5-0.79,3.24-1.63,4.58c-0.56,0.9-2.09,1.93-2.91,1.74
		c-1.07-0.25-2.21-1.51-2.66-2.61c-0.38-0.93,0-2.29,0.32-3.38c2.16-7.35,4.23-14.74,6.63-22.01c2.4-7.26,5.15-14.41,7.78-21.59
		c0.51-1.4,1.13-2.75,1.77-4.3c-0.68-0.26-1.11-0.37-1.48-0.58c-1.52-0.88-3.03-1.78-4.54-2.68c1.07-1.2,2.02-2.55,3.25-3.56
		c1.7-1.4,3.49-2.84,5.48-3.7c1.79-0.77,3.98-1.23,5.88-0.99c1.91,0.24,2.81,1.96,2.04,4.03c-0.28,0.76-0.63,1.52-1.09,2.18
		c-8.21,11.83-12.38,25.51-17.74,38.64c-0.84,2.06-1.09,4.37-1.61,6.56C229.47,138.56,229.89,138.7,230.31,138.84z"/>
	<path class="st0" d="M217.94,126.18c2.36-0.25,4.48-1.11,5.23-0.44c1.91,1.71,0.66,3.95-0.96,5.05c-7.05,4.8-7.85,11.87-7.6,19.44
		c0.07,2.09,0,4.19-0.09,6.29c-0.09,1.99,0.57,4.59-2.62,4.71c-2.58,0.09-5.39-3.11-5.12-5.66c0.15-1.37,0.77-2.69,0.98-4.06
		c0.25-1.63,0.3-3.3,0.44-4.95c-0.31-0.13-0.62-0.27-0.93-0.4c-1,0.86-2.08,1.65-3,2.59c-3.98,4.09-7.82,8.32-11.92,12.28
		c-1.45,1.4-3.38,2.54-5.29,3.15c-2.42,0.77-4.34-0.47-5.17-2.92c-0.76-2.27,0.05-3.83,2.07-5.29c7.71-5.59,15.37-11.25,22.81-17.18
		c3.2-2.55,4.16-11.2,1.96-14.68c-0.97-1.53-0.76-2.26,0.35-3.55c1.18-1.37,2.2-3.11,2.63-4.85c0.62-2.51,1.75-2.82,3.69-1.59
		c2.15,1.36,4.26,2.79,6.32,4.27c1.89,1.35,1.31,2.62-0.17,3.96C220.3,123.48,219.2,124.82,217.94,126.18z"/>
	<path class="st0" d="M162.48,136.37c-0.25,1.01-0.35,2.58-1.04,3.81c-0.59,1.05-1.93,2.47-2.8,2.38c-1.17-0.12-2.3-1.44-3.25-2.44
		c-0.41-0.43-0.5-1.34-0.45-2.01c0.48-6.44,1.02-12.88,1.55-19.32c0.31-0.11,0.63-0.21,0.94-0.32c1.43,3.25,2.86,6.5,4.29,9.75
		c0.51-0.14,1.02-0.28,1.53-0.43c-0.42-2.77-0.84-5.54-1.35-8.92c1.74,0.97,3.32,1.98,5,2.74c1.32,0.6,2.77,0.9,4.16,1.34
		c0.4-1.42,0.93-2.82,1.17-4.26c0.16-0.97-0.09-2.01-0.15-3.07c-3.55,1.05-6.85,2.02-10.15,2.99c-0.17-0.41-0.34-0.83-0.51-1.24
		c3.35-3.45,7.29-6.3,11.9-7.65c3.38-0.99,7.05,4,6.45,7.66c-1.05,6.29-1.84,12.62-2.74,18.94c-0.16,1.15-0.04,2.42-0.5,3.43
		c-0.59,1.28-1.65,2.34-2.5,3.5c-1.09-0.85-2.18-1.7-3.27-2.55c-0.87-0.68-1.67-1.5-2.64-1.99
		C166.5,137.91,164.78,137.31,162.48,136.37z M170.6,133.31c0.3-1.97,2.24-4.18-0.74-5.23c-1.17-0.42-4.23,0.97-4.19,1.2
		C166.05,131.81,167.87,133,170.6,133.31z"/>
	<path class="st0" d="M132.26,140.53c0.7-3,1.4-6,2.11-9c0.47-0.01,0.94-0.02,1.41-0.03c0.38,1.31,1.08,2.61,1.09,3.92
		c0.04,3.26,0.02,6.56-0.5,9.76c-0.21,1.31-1.57,3.03-2.78,3.42c-1.19,0.39-3.32-0.2-4.22-1.14c-1.82-1.9-3.16-4.3-4.58-6.55
		c-1.81-2.85-2.54-7.11-7.6-5.04c-0.08-0.75-0.27-1.27-0.13-1.37c3.41-2.64,2.32-5.59,1-8.87c-1.23-3.06,1.31-7.85,4.7-9.99
		c1.87-1.18,3.74-2.36,5.48-3.72c0.91-0.71,1.52-1.79,2.26-2.71c-0.25-0.29-0.5-0.59-0.75-0.88c-2.22,1.31-4.47,2.57-6.64,3.95
		c-1.86,1.19-3.55,2.67-5.47,3.76c-2.25,1.28-4.37,0.83-5.65-1.52c-1.41-2.57,1.08-2.93,2.47-3.59c5.45-2.6,10.95-5.1,16.49-7.51
		c1.02-0.44,2.39-0.7,3.39-0.38c1.2,0.38,2.62,1.27,3.09,2.32c0.38,0.83-0.25,2.44-0.92,3.35c-1.01,1.39-2.53,2.41-3.68,3.72
		c-1.41,1.62-3.83,2.77-2.38,5.84c0.27,0.56-1.64,2.69-2.93,3.34c-1.92,0.97-4.17,1.28-6.71,1.99c0.49,1.52,0.95,2.96,1.41,4.39
		c0.28,0.02,0.56,0.03,0.84,0.05c0.37-0.85,0.53-2.17,1.17-2.46c1.21-0.55,2.69-0.52,4.06-0.73c0.12,1.02,0.61,2.17,0.3,3.02
		c-0.61,1.64-2.72,3.49-2.33,4.6c1.04,2.96,3.07,5.57,4.71,8.32C131.4,140.69,131.83,140.61,132.26,140.53z"/>
	<path class="st0" d="M209.38,103.74c1.12-1.26,2.23-2.51,3.56-4c-2.8-1.28-5.29-2.42-8.65-3.96c1.71-0.98,2.41-1.68,3.19-1.79
		c10-1.39,15.93-7.38,19.1-16.6c0.19-0.55,0.4-1.11,0.73-1.58c1.02-1.45,0.97-4.31,3.91-3.37c2.65,0.85,4.73,4.79,3.45,7.09
		c-3.05,5.48-5.66,11.51-9.92,15.9c-3.93,4.06-9.77,6.26-14.76,9.28C209.78,104.39,209.58,104.06,209.38,103.74z"/>
	<path class="st0" d="M62.31,132.65c2.46,2.21,5.1,4.25,7.34,6.66c2.69,2.9,5.1,6.07,7.49,9.22c2.82,3.73,6.25,5.41,10.95,4.05
		c2.39-0.69,4.87-1.09,7.69-1.7c-0.22,1.23-0.13,1.93-0.44,2.3c-4.06,4.94-9.09,8.58-15.56,8.92c-1.88,0.1-4.36-2.02-5.75-3.78
		c-1.84-2.33-2.9-5.28-4.24-7.99c-2.78-5.6-5.52-11.22-8.28-16.82C61.78,133.23,62.05,132.94,62.31,132.65z"/>
	<path class="st0" d="M109.11,122.93c7.46,4.16,4.8,10.69,4.75,15.74c2.15,0.14,3.89,0.25,5.64,0.36c-0.91,1.74-1.56,3.7-2.79,5.16
		c-1.4,1.66-3.23,3.01-5.03,4.28c-2.31,1.63-4.55,0.69-5.28-2.06c-0.15-0.56-0.3-1.17-0.22-1.72
		C107.1,137.58,108.08,130.48,109.11,122.93z"/>
	<path class="st0" d="M205.12,110.86c0.89-0.7,1.71-1.51,2.67-2.08c4.19-2.48,8.42-4.9,12.66-7.3c0.69-0.39,1.5-0.71,2.28-0.78
		c2.47-0.23,5.42,0.29,5.62,2.81c0.14,1.82-1.73,4.85-3.45,5.56c-3.52,1.46-7.53,1.71-11.34,2.47c-1.13,0.23-2.25,0.61-3.39,0.69
		c-1.6,0.12-3.22,0.03-4.83,0.03C205.27,111.79,205.19,111.32,205.12,110.86z"/>
</g>
<text transform="matrix(1 0 0 1 36.0005 202.9561)" class="st1 st2 st3">PEOPLE&apos;S DAILY</text>
</svg>
