<?xml version="1.0" encoding="utf-8"?>
<!-- Generator: Adobe Illustrator 25.2.0, SVG Export Plug-In . SVG Version: 6.00 Build 0)  -->
<svg version="1.1" id="图层_1" xmlns="http://www.w3.org/2000/svg" xmlns:xlink="http://www.w3.org/1999/xlink" x="0px" y="0px"
	 viewBox="0 0 280 280" style="enable-background:new 0 0 280 280;" xml:space="preserve">
<style type="text/css">
	.st0{fill:#D8161C;}
	.st1{fill:#FFFFFF;}
</style>
<path class="st0" d="M246.5,139.5c-0.32,60.13-48.22,107.45-108.4,107.09c-58.69-0.35-106.75-48.77-106.56-107.35
	c0.2-59.4,48.44-107.57,107.78-107.62C198.54,31.58,246.82,80.18,246.5,139.5z M150.42,111.65c0,3.18,0,5.41,0,7.64
	c-0.01,13.48-0.2,26.95,0.07,40.42c0.08,3.81,0.94,7.85,2.46,11.33c2.64,6.05,6.5,11.57,9.07,17.65c2.71,6.41,7.04,8.28,13.65,7.83
	c8.15-0.56,10.42-3.13,5.91-9.85c-11.05-16.48-14.37-34.43-12.47-53.77c0.24-2.46-0.05-4.98,0.05-7.46
	c0.23-5.54-1.39-12.61,1.41-16.17c2.54-3.22,9.93-2.63,15.19-3.71c0.41-0.08,0.82-0.15,1.22-0.25c5.46-1.3,9.43-12.6,5.68-16.78
	c-1.06-1.18-3.2-1.75-4.9-1.9c-2.02-0.17-4.12,0.34-6.16,0.69C150.78,92.53,120,98,89.12,102.81c-7.19,1.12-9.93,4.04-10.18,11.05
	c-0.26,7.32,0.96,9.02,8.38,8.12c5.49-0.67,10.94-1.66,17.12-2.62c0,2.69,0,4.72,0,6.75c0.01,20.73,0,41.46,0.07,62.19
	c0.02,5.56,2.61,8.29,6.6,7.34c6.96-1.66,12.1-8.32,12.15-15.74c0.02-2.9,0.02-5.8,0.02-8.71c0-18.21,0-36.42,0-55.11
	C132.31,114.61,140.96,113.19,150.42,111.65z"/>
<path class="st1" d="M150.42,111.65c-9.45,1.54-18.1,2.96-27.14,4.43c0,18.7,0,36.9,0,55.11c0,2.9,0,5.8-0.02,8.71
	c-0.05,7.42-5.2,14.08-12.15,15.74c-3.99,0.95-6.58-1.78-6.6-7.34c-0.07-20.73-0.05-41.46-0.07-62.19c0-2.03,0-4.06,0-6.75
	c-6.18,0.96-11.63,1.96-17.12,2.62c-7.42,0.9-8.64-0.79-8.38-8.12c0.25-7.01,2.99-9.93,10.18-11.05C120,98,150.78,92.53,181.6,87.31
	c2.04-0.35,4.14-0.86,6.16-0.69c1.7,0.15,3.84,0.72,4.9,1.9c3.75,4.18-0.21,15.48-5.68,16.78c-0.4,0.1-0.81,0.16-1.22,0.25
	c-5.25,1.09-12.65,0.49-15.19,3.71c-2.8,3.56-1.18,10.63-1.41,16.17c-0.1,2.48,0.19,5-0.05,7.46c-1.91,19.34,1.42,37.29,12.47,53.77
	c4.51,6.72,2.24,9.29-5.91,9.85c-6.62,0.45-10.94-1.42-13.65-7.83c-2.57-6.07-6.43-11.6-9.07-17.65c-1.52-3.49-2.39-7.52-2.46-11.33
	c-0.28-13.47-0.09-26.95-0.07-40.42C150.42,117.06,150.42,114.83,150.42,111.65z"/>
</svg>
