<svg id="图层_1" data-name="图层 1" xmlns="http://www.w3.org/2000/svg" xmlns:xlink="http://www.w3.org/1999/xlink" viewBox="0 0 97 46"><defs><style>.cls-1{fill:none;}.cls-2{fill:lime;stroke:#000;stroke-miterlimit:10;stroke-width:0.25px;}.cls-3{fill:red;}.cls-4{font-size:10px;font-family:TimesNewRomanPSMT, Times New Roman;letter-spacing:-0.08em;}.cls-5{letter-spacing:0em;}.cls-6{clip-path:url(#clip-path);}.cls-7{fill:#333;}</style><clipPath id="clip-path"><rect class="cls-1" x="2.9" y="20" width="41.5" height="6.48"/></clipPath></defs><polygon class="cls-2" points="92 30.5 92 40 89 40 89 30.5 86 30.5 86 40 83 40 83 30.5 80 30.5 80 40 77 40 77 30.5 74 30.5 74 40 71 40 71 30.5 68 30.5 68 40 65 40 65 30.5 62 30.5 62 40 59 40 59 30.5 56 30.5 56 40 53 40 53 30.5 50 30.5 50 40 47 40 47 30.5 44 30.5 44 40 41 40 41 30.5 38 30.5 38 40 35 40 35 30.5 32 30.5 32 40 29 40 29 30.5 26 30.5 26 40 23 40 23 30.5 20 30.5 20 40 17 40 17 30.5 14 30.5 14 40 11 40 11 30.5 8 30.5 8 40 5 40 5 30.5 2 30.5 2 40 2 40.5 2 45 95 45 95 40.5 95 40 95 30.5 92 30.5"/><path class="cls-3" d="M80.5,17A17,17,0,1,0,53.2,30.5H53V40h3V30.5h3V40h3V30.5h3V40h3V30.5h3V40h3V30.5h-.2A17,17,0,0,0,80.5,17Z"/><text class="cls-4" transform="translate(4.97 10.74) scale(0.58)">W<tspan class="cls-5" x="8.64" y="0">enzel state</tspan></text><g class="cls-6"><path class="cls-7" d="M3.12,24a1.83,1.83,0,0,1,.56-1.29,1.66,1.66,0,0,1,1.2-.57.9.9,0,0,1,.57.16.52.52,0,0,1,.22.41.49.49,0,0,1-.13.33.42.42,0,0,1-.31.13A.27.27,0,0,1,5,23.14a.26.26,0,0,1-.07-.2A.32.32,0,0,1,5,22.72a.37.37,0,0,1,.14-.14c.05,0,.08,0,.09,0h0l0,0a.32.32,0,0,0-.14-.05.73.73,0,0,0-.22,0,.81.81,0,0,0-.37.09,1,1,0,0,0-.28.21,1.72,1.72,0,0,0-.41.81,4.4,4.4,0,0,0-.14.77.58.58,0,0,0,.17.45.48.48,0,0,0,.38.16h0a1.5,1.5,0,0,0,1.2-.56l.08-.07s0,0,.08.06a.26.26,0,0,1,.07.1s0,0-.06.1l-.19.18a1.24,1.24,0,0,1-.29.2l-.41.16a1.31,1.31,0,0,1-.52.07,1,1,0,0,1-.78-.31A1.18,1.18,0,0,1,3.12,24Z"/><path class="cls-7" d="M6.49,24.29a.59.59,0,0,0,.17.48.59.59,0,0,0,.38.14.84.84,0,0,0,.54-.21,1.63,1.63,0,0,0,.4-.55,4.46,4.46,0,0,0,.15-.49,2.5,2.5,0,0,0,.09-.61.7.7,0,0,0-.12-.44.5.5,0,0,0-.41-.2A.89.89,0,0,0,7,22.8a1.9,1.9,0,0,0-.36.77A3.28,3.28,0,0,0,6.49,24.29Zm.52.86a1,1,0,0,1-.79-.32,1.09,1.09,0,0,1-.3-.78,1.8,1.8,0,0,1,.2-.81,2.24,2.24,0,0,1,.53-.66,1.56,1.56,0,0,1,1-.4h.26l.17.05.23.1a.9.9,0,0,1,.23.2,1.32,1.32,0,0,1,.25.79,1.78,1.78,0,0,1-.56,1.27A1.67,1.67,0,0,1,7,25.15Z"/><path class="cls-7" d="M9.69,23.18a1,1,0,0,1,.11-.43,1,1,0,0,1,.36-.4.94.94,0,0,1,.63-.18.81.81,0,0,1,.58.18.6.6,0,0,1,.19.39.4.4,0,0,1-.11.31.43.43,0,0,1-.25.11.2.2,0,0,1-.15-.06.19.19,0,0,1-.08-.17.28.28,0,0,1,.06-.18.43.43,0,0,1,.11-.12.12.12,0,0,1,.08,0,0,0,0,0,0,0,0l-.05,0a.34.34,0,0,0-.16-.08l-.25,0a.59.59,0,0,0-.46.17.7.7,0,0,0-.15.35.24.24,0,0,0,.13.23,1.09,1.09,0,0,0,.35.12,1.17,1.17,0,0,1,.34.1.63.63,0,0,1,.43.63,1.27,1.27,0,0,1-.07.37,1.63,1.63,0,0,1-.22.37.94.94,0,0,1-.4.29,1.89,1.89,0,0,1-.61.11A1.08,1.08,0,0,1,9.4,25a.6.6,0,0,1-.21-.45.45.45,0,0,1,.13-.37A.42.42,0,0,1,9.61,24a.32.32,0,0,1,.18.06.22.22,0,0,1,.09.2.38.38,0,0,1-.12.29.29.29,0,0,1-.2.12h0s0,0,.05.05l.2.09a1,1,0,0,0,.36,0,1,1,0,0,0,.4-.07.58.58,0,0,0,.24-.18,1.08,1.08,0,0,0,.11-.21.53.53,0,0,0,0-.16A.32.32,0,0,0,10.8,24a.64.64,0,0,0-.31-.11,1.43,1.43,0,0,1-.38-.1.62.62,0,0,1-.31-.23A.7.7,0,0,1,9.69,23.18Z"/><path class="cls-7" d="M12.61,24.21c0,.47.12.7.35.7a.35.35,0,0,0,.2-.07,1,1,0,0,0,.27-.25,2.07,2.07,0,0,0,.31-.57,9.14,9.14,0,0,0,.31-1l0-.11H12.82s0,.09-.06.25a5.13,5.13,0,0,0-.1.51A3.37,3.37,0,0,0,12.61,24.21Zm1.75-2.86c0-.45-.11-.67-.34-.67a.6.6,0,0,0-.46.3,3,3,0,0,0-.36.67c-.09.25-.17.47-.22.66a3,3,0,0,0-.08.33h1.25a1.48,1.48,0,0,0,0-.22c0-.14.07-.32.11-.53A2.84,2.84,0,0,0,14.36,21.35Zm-2.25,2.41a4.33,4.33,0,0,1,.25-1.41,4.18,4.18,0,0,1,.69-1.29,1.57,1.57,0,0,1,.9-.62h.13a.65.65,0,0,1,.54.32,1.93,1.93,0,0,1,.25,1.06,4.46,4.46,0,0,1-.29,1.54,4,4,0,0,1-.74,1.29,1.29,1.29,0,0,1-.87.5h-.05a.68.68,0,0,1-.4-.13.9.9,0,0,1-.25-.35,1.93,1.93,0,0,1-.12-.44A2.42,2.42,0,0,1,12.11,23.76Z"/><path class="cls-7" d="M17.57,24.28a.24.24,0,0,1,.09-.18.25.25,0,0,1,.19-.09.22.22,0,0,1,.15.08.41.41,0,0,1,.07.27,4,4,0,0,1-.08.54c0,.17-.09.31-.13.42a2,2,0,0,1-.16.38.83.83,0,0,1-.25.32.57.57,0,0,1-.33.11.86.86,0,0,1-.36-.08.54.54,0,0,1-.22-.2v0a.57.57,0,0,1-.46.26.85.85,0,0,1-.23,0,1,1,0,0,1-.22-.09.4.4,0,0,1-.16-.18.56.56,0,0,1-.07-.3,2.06,2.06,0,0,1,.16-.68,3.29,3.29,0,0,0,.16-.54h0v-.06l0,0,0,0h0a.26.26,0,0,0-.19.09.62.62,0,0,0-.14.19c0,.07-.06.14-.08.2l0,.1H15s0,0,0,0a.4.4,0,0,1,0-.13,2.08,2.08,0,0,1,.1-.24.91.91,0,0,1,.2-.24.48.48,0,0,1,.3-.11.38.38,0,0,1,.3.12.37.37,0,0,1,.11.27,2.67,2.67,0,0,1-.15.5,2.13,2.13,0,0,0-.15.65.41.41,0,0,0,.09.3.37.37,0,0,0,.25.09c.13,0,.24-.09.34-.28l0,0v-.19s0,0,0,0v-.1a.31.31,0,0,0,0-.08.35.35,0,0,1,0-.12l0-.14s0-.12.05-.2c.09-.36.14-.55.15-.58a.21.21,0,0,1,.2-.12c.06,0,.1,0,.12,0a.36.36,0,0,1,0,.09s-.05.24-.14.6-.13.56-.14.61a.76.76,0,0,0,0,.17v0a.53.53,0,0,0,0,.13.28.28,0,0,0,.09.14.27.27,0,0,0,.2.07c.22,0,.39-.19.52-.57a1.86,1.86,0,0,0,.09-.3,1.8,1.8,0,0,0,.06-.28.43.43,0,0,0-.06-.24,1,1,0,0,0-.12-.15A.18.18,0,0,1,17.57,24.28Z"/><path class="cls-7" d="M21,24.07a.14.14,0,0,1,.11-.13h4.11c.06,0,.09.09.09.13a.16.16,0,0,1-.09.14H21.09A.16.16,0,0,1,21,24.07Zm0-1.27a.15.15,0,0,1,.09-.14h4.13a.16.16,0,0,1,.09.14.15.15,0,0,1-.09.12H21.11A.14.14,0,0,1,21,22.8Z"/><path class="cls-7" d="M31.55,21.43a.48.48,0,0,0-.14-.35.87.87,0,0,0-.55-.19h-.54c-.2,0-.32,0-.35.07s-.08.31-.22.88-.21.86-.21.87a2.84,2.84,0,0,0,.44,0,3.18,3.18,0,0,0,.68-.05.91.91,0,0,0,.64-.39,1.42,1.42,0,0,0,.18-.39A1.5,1.5,0,0,0,31.55,21.43ZM29,20.88h-.21s0,0,0-.08,0-.19.07-.21h1.13l1.2,0a1.91,1.91,0,0,1,.61.19.81.81,0,0,1,.35.3,1.8,1.8,0,0,1,.14.28.91.91,0,0,1,0,.23,1,1,0,0,1-.18.55,1.35,1.35,0,0,1-.44.39,4.8,4.8,0,0,1-.43.23.71.71,0,0,1-.25.08l.05,0a.78.78,0,0,1,.43.72c0,.05,0,.18,0,.4s0,.4,0,.54v.25a.21.21,0,0,0,.08.12.34.34,0,0,0,.16.06.37.37,0,0,0,.3-.15.79.79,0,0,0,.17-.31.38.38,0,0,1,.05-.11l.1,0c.09,0,.13,0,.13.08a.8.8,0,0,1-.16.37.68.68,0,0,1-.58.38h-.06a1.18,1.18,0,0,1-.65-.16.66.66,0,0,1-.29-.52,2.82,2.82,0,0,1,.1-.55,3.34,3.34,0,0,0,.1-.48.52.52,0,0,0-.28-.49.47.47,0,0,0-.16-.05l-.46,0h-.45l-.21.86c-.14.58-.21.87-.21.88s0,0,0,0l0,0a.18.18,0,0,0,.11,0,.89.89,0,0,1,.22,0h.2a.15.15,0,0,1,0,.06,1.09,1.09,0,0,1,0,.12.27.27,0,0,1-.07.12H27.79c-.07,0-.11,0-.11-.06s0,0,0-.1.05-.13.07-.13h.13l.39,0a.2.2,0,0,0,.13-.08s.16-.63.46-1.83.45-1.84.45-1.91S29.21,20.89,29,20.88Z"/><path class="cls-7" d="M32.6,24a1.83,1.83,0,0,1,.56-1.29,1.66,1.66,0,0,1,1.21-.57.85.85,0,0,1,.56.16.52.52,0,0,1,.22.41.48.48,0,0,1-.12.33.46.46,0,0,1-.32.13.29.29,0,0,1-.19-.06.26.26,0,0,1-.07-.2.32.32,0,0,1,.07-.22.61.61,0,0,1,.14-.14c.05,0,.08,0,.09,0h0s0,0,0,0a.27.27,0,0,0-.13-.05.81.81,0,0,0-.59.06.85.85,0,0,0-.28.21,1.73,1.73,0,0,0-.42.81,4.15,4.15,0,0,0-.13.77.55.55,0,0,0,.17.45.46.46,0,0,0,.37.16h0a1.49,1.49,0,0,0,1.19-.56l.08-.07s.05,0,.09.06.06.07.06.1,0,0-.06.1l-.18.18a1.31,1.31,0,0,1-.3.2l-.41.16a1.29,1.29,0,0,1-.52.07,1,1,0,0,1-.78-.31A1.18,1.18,0,0,1,32.6,24Z"/><path class="cls-7" d="M36,24.29a.62.62,0,0,0,.17.48.59.59,0,0,0,.38.14.84.84,0,0,0,.54-.21,1.51,1.51,0,0,0,.4-.55,4.46,4.46,0,0,0,.15-.49,2.5,2.5,0,0,0,.09-.61.7.7,0,0,0-.12-.44.5.5,0,0,0-.41-.2.91.91,0,0,0-.72.39,1.9,1.9,0,0,0-.36.77A5.25,5.25,0,0,0,36,24.29Zm.52.86a1,1,0,0,1-.78-.32,1.09,1.09,0,0,1-.3-.78,1.78,1.78,0,0,1,.19-.81,2.24,2.24,0,0,1,.53-.66,1.59,1.59,0,0,1,1-.4h.26l.16.05.23.1a.9.9,0,0,1,.23.2,1.32,1.32,0,0,1,.25.79,1.78,1.78,0,0,1-.56,1.27A1.67,1.67,0,0,1,36.49,25.15Z"/><path class="cls-7" d="M39.18,23.18a1,1,0,0,1,.1-.43,1,1,0,0,1,.36-.4.94.94,0,0,1,.63-.18.79.79,0,0,1,.58.18.56.56,0,0,1,.19.39.4.4,0,0,1-.11.31.41.41,0,0,1-.25.11.24.24,0,0,1-.15-.06.21.21,0,0,1-.08-.17.28.28,0,0,1,.06-.18.65.65,0,0,1,.11-.12.12.12,0,0,1,.08,0s0,0,0,0l-.05,0a.34.34,0,0,0-.16-.08l-.25,0a.55.55,0,0,0-.45.17.56.56,0,0,0-.15.35.24.24,0,0,0,.12.23,1.07,1.07,0,0,0,.36.12,1.18,1.18,0,0,1,.33.1.63.63,0,0,1,.43.63,1,1,0,0,1-.07.37,2,2,0,0,1-.21.37,1,1,0,0,1-.41.29,1.89,1.89,0,0,1-.61.11,1.1,1.1,0,0,1-.71-.19.63.63,0,0,1-.21-.45.45.45,0,0,1,.14-.37.4.4,0,0,1,.28-.11.28.28,0,0,1,.18.06.22.22,0,0,1,.09.2.42.42,0,0,1-.11.29.34.34,0,0,1-.2.12h0s0,0,0,.05l.2.09a1,1,0,0,0,.36,0,1,1,0,0,0,.4-.07.7.7,0,0,0,.25-.18,2.21,2.21,0,0,0,.11-.21.5.5,0,0,0,0-.16.32.32,0,0,0-.14-.28.64.64,0,0,0-.31-.11,1.65,1.65,0,0,1-.38-.1.55.55,0,0,1-.3-.23A.63.63,0,0,1,39.18,23.18Z"/><path class="cls-7" d="M42.1,24.21c0,.47.11.7.34.7a.4.4,0,0,0,.21-.07,1,1,0,0,0,.26-.25,2.07,2.07,0,0,0,.31-.57,7.27,7.27,0,0,0,.31-1l0-.11H42.3s0,.09-.06.25-.07.32-.1.51A3.22,3.22,0,0,0,42.1,24.21Zm1.74-2.86c0-.45-.11-.67-.34-.67a.57.57,0,0,0-.45.3,2.69,2.69,0,0,0-.37.67c-.09.25-.16.47-.22.66a3,3,0,0,0-.08.33h1.26s0-.08,0-.22.06-.32.1-.53A2.21,2.21,0,0,0,43.84,21.35Zm-2.25,2.41a4.33,4.33,0,0,1,.25-1.41,4.18,4.18,0,0,1,.69-1.29,1.57,1.57,0,0,1,.9-.62h.13a.65.65,0,0,1,.54.32,1.93,1.93,0,0,1,.25,1.06,4.24,4.24,0,0,1-.29,1.54,4,4,0,0,1-.74,1.29,1.25,1.25,0,0,1-.87.5h0A.71.71,0,0,1,42,25a.9.9,0,0,1-.25-.35,2.64,2.64,0,0,1-.12-.44A2.42,2.42,0,0,1,41.59,23.76Z"/></g></svg>