<svg id="图层_1" data-name="图层 1" xmlns="http://www.w3.org/2000/svg" xmlns:xlink="http://www.w3.org/1999/xlink" viewBox="0 0 156.9 272.79"><defs><style>.cls-1,.cls-4,.cls-5,.cls-6,.cls-7,.cls-9{fill:none;}.cls-2{fill:#fff;}.cls-3{clip-path:url(#clip-path);}.cls-4{stroke:#919191;stroke-width:0.2px;}.cls-4,.cls-5,.cls-6,.cls-7,.cls-9{stroke-miterlimit:10;}.cls-5,.cls-6,.cls-7{stroke:#000;}.cls-5{stroke-width:0.3px;}.cls-6{stroke-width:1.5px;}.cls-8{clip-path:url(#clip-path-4);}.cls-9{stroke:#ff1d25;}.cls-10{fill:#ff1d25;}</style><clipPath id="clip-path"><rect class="cls-1" x="-346.84" y="-88.08" width="754" height="465"/></clipPath><clipPath id="clip-path-4"><rect class="cls-1" x="-79.41" y="28.06" width="219.13" height="232.72"/></clipPath></defs><rect class="cls-2" x="-382.84" y="-124.08" width="826" height="537"/><g class="cls-3"><path class="cls-4" d="M-346.84,369.06h754m-754-16h754m-754-32.1h754m-754-16h754m-754-16.05h754m-754-32.09h754m-754-16.05h754m-754-16h754m-754-32.1h754m-754-16h754m-754-16h754m-754-32.09h754m-754-16.05h754m-754-16h754m-754-32.1h754m-754-16h754m-754-16h754M-346.84,0h754m-754-16h754m-754-16h754m-754-32.09h754m-754-16h754m-754,457.15v-465m30.16,465v-465m15.08,465v-465m15.08,465v-465m30.16,465v-465m15.08,465v-465m15.08,465v-465m30.16,465v-465m15.08,465v-465m15.08,465v-465m30.16,465v-465m15.08,465v-465m15.08,465v-465m30.16,465v-465m15.08,465v-465m15.08,465v-465m30.16,465v-465M0,376.92v-465m15.08,465v-465m30.16,465v-465m15.08,465v-465m15.08,465v-465m30.16,465v-465m15.08,465v-465m15.08,465v-465m30.16,465v-465m15.08,465v-465m15.08,465v-465m30.16,465v-465m15.08,465v-465m15.08,465v-465m30.16,465v-465m15.08,465v-465m15.08,465v-465m30.16,465v-465m15.08,465v-465m15.08,465v-465m30.16,465v-465"/><path class="cls-5" d="M-346.84,337h754m-754-64.18h754m-754-64.19h754m-754-64.18h754m-754-64.19h754m-754-64.18h754m-754-64.19h754M-331.76,376.92v-465m60.32,465v-465m60.32,465v-465m60.32,465v-465m60.32,465v-465m60.32,465v-465m60.32,465v-465m60.32,465v-465m60.32,465v-465m60.32,465v-465m60.32,465v-465m60.32,465v-465m60.32,465v-465"/></g><g class="cls-3"><line class="cls-6" x1="-346.84" y1="144.42" x2="407.16" y2="144.42"/></g><path d="M13.28,156.15a2.52,2.52,0,0,0-2.5,1.91,7.24,7.24,0,0,0-.37,2.46,6,6,0,0,0,.61,2.94,2.4,2.4,0,0,0,2.25,1.31,2.5,2.5,0,0,0,2.42-1.6,6.85,6.85,0,0,0,.51-2.83,5.91,5.91,0,0,0-.57-2.84,2.47,2.47,0,0,0-2.35-1.35Zm0,7.66a1.49,1.49,0,0,1-1.44-1.19A7.85,7.85,0,0,1,12,158a1.45,1.45,0,0,1,1.37-.88,1.34,1.34,0,0,1,1.37.93,6.77,6.77,0,0,1,.35,2.35,5.22,5.22,0,0,1-.49,2.71,1.5,1.5,0,0,1-1.31.72Z"/><path d="M84.73,156.15a2.54,2.54,0,0,0-2.51,1.91,7.51,7.51,0,0,0-.36,2.46,6,6,0,0,0,.61,2.94,2.4,2.4,0,0,0,2.25,1.31,2.48,2.48,0,0,0,2.41-1.6,6.85,6.85,0,0,0,.51-2.83,5.92,5.92,0,0,0-.56-2.84,2.47,2.47,0,0,0-2.35-1.35Zm0,7.66a1.49,1.49,0,0,1-1.44-1.19,7.85,7.85,0,0,1,.15-4.64,1.45,1.45,0,0,1,1.37-.88,1.35,1.35,0,0,1,1.37.93,6.77,6.77,0,0,1,.35,2.35,5.33,5.33,0,0,1-.49,2.71,1.5,1.5,0,0,1-1.31.72Zm4.47.74H90.4v-1.28H89.18v1.28Zm5.57-4.88a1.7,1.7,0,0,1-1-.33,1.13,1.13,0,0,1-.44-.93,1.39,1.39,0,0,1,.34-.92,1.37,1.37,0,0,1,1.1-.4,1.48,1.48,0,0,1,1.14.4,1.23,1.23,0,0,1,.38.86,1.27,1.27,0,0,1-.39.93,1.48,1.48,0,0,1-1.09.39Zm.07,4.15a1.73,1.73,0,0,1-1.35-.47,1.6,1.6,0,0,1-.44-1.14,1.53,1.53,0,0,1,.48-1.19,1.74,1.74,0,0,1,1.23-.43A1.92,1.92,0,0,1,96,161a1.55,1.55,0,0,1,.5,1.24,1.45,1.45,0,0,1-.49,1.18,1.87,1.87,0,0,1-1.21.39Zm-1.5-3.75a2.31,2.31,0,0,0-1.08.83,2.28,2.28,0,0,0-.37,1.29,2.32,2.32,0,0,0,.85,1.93,3.29,3.29,0,0,0,2.07.67A2.78,2.78,0,0,0,96.9,164a2.6,2.6,0,0,0,.74-1.87,2.13,2.13,0,0,0-.56-1.53,2.79,2.79,0,0,0-.82-.55,2.24,2.24,0,0,0,.69-.54,2,2,0,0,0-.29-2.75,3.1,3.1,0,0,0-3.81,0,2.18,2.18,0,0,0-.68,1.62,1.63,1.63,0,0,0,.46,1.21,1.91,1.91,0,0,0,.69.44Z"/><path d="M144.92,158.6v6h1.13v-8.36h-.83a1.82,1.82,0,0,1-.68,1.23,4.24,4.24,0,0,1-1.59.38v.8Zm4.58,6h1.22v-1.28H149.5v1.28Zm5.82-8.43a2.7,2.7,0,0,0-2.68,2.09,8.16,8.16,0,0,0-.38,2.65,4.3,4.3,0,0,0,.85,3,2.74,2.74,0,0,0,2,.89,2.61,2.61,0,0,0,2.12-.88,3.07,3.07,0,0,0,.74-2,2.51,2.51,0,0,0-.78-2,2.76,2.76,0,0,0-1.84-.68,2.6,2.6,0,0,0-1.13.24,2.3,2.3,0,0,0-.91.79,4.72,4.72,0,0,1,.58-2.34,1.61,1.61,0,0,1,1.41-.81,1.32,1.32,0,0,1,1.15.52,1.87,1.87,0,0,1,.3.78h1a2.46,2.46,0,0,0-.55-1.5,2.31,2.31,0,0,0-2-.73Zm-.08,7.7a1.61,1.61,0,0,1-1.29-.54,2,2,0,0,1-.47-1.34,1.7,1.7,0,0,1,.52-1.36,1.75,1.75,0,0,1,1.19-.45,1.46,1.46,0,0,1,1.34.59,2.26,2.26,0,0,1,0,2.54,1.44,1.44,0,0,1-1.25.56Z"/><path class="cls-6" d="M-316.68,146.42v-4m15.08,4v-4m15.08,4v-4m30.16,4v-4m15.08,4v-4m15.08,4v-4m30.16,4v-4m15.08,4v-4m15.08,4v-4m30.16,4v-4m15.08,4v-4m15.08,4v-4m30.16,4v-4m15.08,4v-4m15.08,4v-4m30.16,4v-4m15.08,4v-4m15.08,4v-4m30.16,4v-4m15.08,4v-4m15.08,4v-4m30.16,4v-4m15.08,4v-4m15.08,4v-4m30.16,4v-4m15.08,4v-4m15.08,4v-4m30.16,4v-4m15.08,4v-4m15.08,4v-4m30.16,4v-4m15.08,4v-4m15.08,4v-4m30.16,4v-4m15.08,4v-4m15.08,4v-4m-708.76,6v-8m60.32,8v-8m60.32,8v-8m60.32,8v-8m60.32,8v-8m60.32,8v-8m60.32,8v-8m60.32,8v-8m60.32,8v-8m60.32,8v-8m60.32,8v-8m60.32,8v-8m60.32,8v-8"/><g class="cls-3"><line class="cls-6" x1="30.16" y1="376.92" x2="30.16" y2="-88.08"/></g><path d="M3.53,275.6H6.47v-1.09H3.53v1.09Zm6.62-3.14v5.94h1.13V270h-.84a1.87,1.87,0,0,1-.67,1.24,4.49,4.49,0,0,1-1.59.37v.81Zm4.58,5.94H16v-1.28H14.73v1.28ZM20.54,270a2.71,2.71,0,0,0-2.67,2.09,7.94,7.94,0,0,0-.38,2.65,4.28,4.28,0,0,0,.85,3,2.71,2.71,0,0,0,2,.9,2.64,2.64,0,0,0,2.13-.89,3.05,3.05,0,0,0,.74-2,2.49,2.49,0,0,0-.79-2,2.71,2.71,0,0,0-1.84-.67,2.58,2.58,0,0,0-1.12.23,2.26,2.26,0,0,0-.91.8,4.56,4.56,0,0,1,.58-2.34,1.57,1.57,0,0,1,1.4-.82,1.32,1.32,0,0,1,1.16.53,2,2,0,0,1,.3.78h1a2.48,2.48,0,0,0-.56-1.51,2.32,2.32,0,0,0-2-.73Zm-.07,7.71a1.61,1.61,0,0,1-1.29-.54,2,2,0,0,1-.47-1.34,1.71,1.71,0,0,1,.51-1.36,1.77,1.77,0,0,1,1.2-.45,1.47,1.47,0,0,1,1.34.58,2.32,2.32,0,0,1,.37,1.23,2.12,2.12,0,0,1-.42,1.32,1.44,1.44,0,0,1-1.24.56Z"/><path d="M3.53,211.41H6.47v-1.08H3.53v1.08Zm6.74-5.59a2.53,2.53,0,0,0-2.5,1.91,7.49,7.49,0,0,0-.37,2.46A6,6,0,0,0,8,213.13a2.42,2.42,0,0,0,2.25,1.31,2.49,2.49,0,0,0,2.41-1.6,6.85,6.85,0,0,0,.51-2.83,6,6,0,0,0-.56-2.84,2.48,2.48,0,0,0-2.36-1.35Zm0,7.66a1.51,1.51,0,0,1-1.45-1.19,6.46,6.46,0,0,1-.27-2.06A6,6,0,0,1,9,207.65a1.42,1.42,0,0,1,1.36-.88,1.34,1.34,0,0,1,1.37.93,6.5,6.5,0,0,1,.35,2.35,5.28,5.28,0,0,1-.48,2.7,1.5,1.5,0,0,1-1.31.73Zm4.47.73H16v-1.27H14.73v1.27Zm5.57-4.87a1.63,1.63,0,0,1-1-.34,1.1,1.1,0,0,1-.44-.92,1.37,1.37,0,0,1,.34-.93,1.39,1.39,0,0,1,1.1-.39,1.51,1.51,0,0,1,1.14.39,1.25,1.25,0,0,1,.38.87,1.28,1.28,0,0,1-.4.93,1.46,1.46,0,0,1-1.08.39Zm.06,4.15A1.77,1.77,0,0,1,19,213a1.64,1.64,0,0,1-.43-1.14,1.54,1.54,0,0,1,.47-1.19,1.77,1.77,0,0,1,1.24-.43,1.89,1.89,0,0,1,1.27.42,1.5,1.5,0,0,1,.5,1.24,1.45,1.45,0,0,1-.48,1.18,1.88,1.88,0,0,1-1.22.39Zm-1.5-3.75a2.35,2.35,0,0,0-1.08.83,2.27,2.27,0,0,0-.36,1.29,2.29,2.29,0,0,0,.85,1.93,3.25,3.25,0,0,0,2.07.66,2.74,2.74,0,0,0,2.1-.77,2.58,2.58,0,0,0,.75-1.87,2.13,2.13,0,0,0-.56-1.53,2.93,2.93,0,0,0-.82-.55,2.24,2.24,0,0,0,.69-.54,2,2,0,0,0,.39-1.27,1.93,1.93,0,0,0-.68-1.48,2.66,2.66,0,0,0-1.89-.64,2.64,2.64,0,0,0-1.93.67,2.21,2.21,0,0,0-.68,1.61,1.64,1.64,0,0,0,.47,1.22,2,2,0,0,0,.68.44Z"/><path d="M8.28,77.45a2.52,2.52,0,0,0-2.5,1.91,7.24,7.24,0,0,0-.37,2.46A6,6,0,0,0,6,84.76a2.4,2.4,0,0,0,2.25,1.31,2.5,2.5,0,0,0,2.42-1.6,6.85,6.85,0,0,0,.51-2.83,5.91,5.91,0,0,0-.57-2.84,2.47,2.47,0,0,0-2.35-1.35Zm0,7.66a1.49,1.49,0,0,1-1.44-1.19A7.85,7.85,0,0,1,7,79.28a1.44,1.44,0,0,1,1.37-.88,1.34,1.34,0,0,1,1.37.93,6.73,6.73,0,0,1,.35,2.35,5.22,5.22,0,0,1-.49,2.71,1.5,1.5,0,0,1-1.31.72Zm4.47.73H14V84.57H12.73v1.27ZM18.3,81a1.64,1.64,0,0,1-1-.34,1.09,1.09,0,0,1-.43-.92,1.27,1.27,0,0,1,1.43-1.32,1.48,1.48,0,0,1,1.14.39,1.25,1.25,0,0,1,.38.87,1.27,1.27,0,0,1-.39.93A1.48,1.48,0,0,1,18.3,81Zm.07,4.15A1.77,1.77,0,0,1,17,84.65a1.65,1.65,0,0,1-.44-1.14,1.52,1.52,0,0,1,.48-1.19,1.76,1.76,0,0,1,1.23-.43,1.92,1.92,0,0,1,1.28.42,1.53,1.53,0,0,1,.5,1.24,1.46,1.46,0,0,1-.49,1.18,1.85,1.85,0,0,1-1.21.39Zm-1.5-3.75a2.25,2.25,0,0,0-1.08.83,2.27,2.27,0,0,0-.36,1.29,2.32,2.32,0,0,0,.84,1.93,3.29,3.29,0,0,0,2.07.66,2.78,2.78,0,0,0,2.11-.77,2.61,2.61,0,0,0,.74-1.87,2.13,2.13,0,0,0-.56-1.53,2.79,2.79,0,0,0-.82-.55,2.24,2.24,0,0,0,.69-.54,1.91,1.91,0,0,0,.4-1.27,1.94,1.94,0,0,0-.69-1.48,2.62,2.62,0,0,0-1.89-.64,2.6,2.6,0,0,0-1.92.67,2.18,2.18,0,0,0-.68,1.62,1.63,1.63,0,0,0,.46,1.21,2,2,0,0,0,.69.44Z"/><path d="M8.15,15.72v5.94H9.28V13.3H8.45a1.88,1.88,0,0,1-.68,1.24,4.49,4.49,0,0,1-1.59.37v.81Zm4.58,5.94H14V20.38H12.73v1.28Zm5.82-8.43a2.71,2.71,0,0,0-2.68,2.09A8.2,8.2,0,0,0,15.49,18a4.28,4.28,0,0,0,.86,3,2.7,2.7,0,0,0,2,.9A2.62,2.62,0,0,0,20.5,21a3,3,0,0,0,.74-2,2.51,2.51,0,0,0-.78-2,2.73,2.73,0,0,0-1.84-.67,2.6,2.6,0,0,0-1.13.23,2.32,2.32,0,0,0-.91.8A4.66,4.66,0,0,1,17.16,15a1.6,1.6,0,0,1,1.41-.82,1.31,1.31,0,0,1,1.15.53,1.77,1.77,0,0,1,.3.78h1A2.47,2.47,0,0,0,20.51,14a2.33,2.33,0,0,0-2-.73Zm-.08,7.71a1.61,1.61,0,0,1-1.29-.54,2,2,0,0,1-.47-1.34,1.72,1.72,0,0,1,.52-1.36,1.75,1.75,0,0,1,1.19-.45,1.45,1.45,0,0,1,1.34.58,2.24,2.24,0,0,1,.37,1.23,2.18,2.18,0,0,1-.41,1.32,1.46,1.46,0,0,1-1.25.56Z"/><path class="cls-6" d="M28.16,369.06h4m-4-16h4m-4-32.1h4m-4-16h4m-4-16.05h4m-4-32.09h4m-4-16.05h4m-4-16h4m-4-32.1h4m-4-16h4m-4-16h4m-4-32.09h4m-4-16.05h4m-4-16h4m-4-32.1h4m-4-16h4m-4-16h4M28.16,0h4m-4-16h4m-4-16h4m-4-32.09h4m-4-16h4m-6,417.2h8m-8-64.18h8m-8-64.19h8m-8-64.18h8m-8-64.19h8m-8-64.18h8m-8-64.19h8"/><path class="cls-7" d="M-347.34-88.58h755v466h-755Zm0,0"/><g class="cls-8"><path class="cls-7" d="M-75.56,159.26l0,.13m0,0,.14,1.06m-1-11.09,0,.92m0,0,.75,8.8m0,0,0,.18m-.81-19.79,0,1m0,0v7.91m0,0,0,1m.81-19.78,0,.17m0,0-.75,8.8m0,0,0,.92m1-11.09-.14,1.06m0,0,0,.14m7.64,59.36.74,1.8m0,0,1.83,4.14m-6-15.84,1.45,4.51m0,0,.47,1.34m0,0,1.54,4.05m-4.35-13L-73.5,171m0,0-.41-1.87m2.53,9.89-.89-3.08m-1.89-8-1.24-7.48m1.49,8.7-.25-1.22m-1.24-39.55,1.24-7.48m0,0,.25-1.22m.41-1.87,1.23-4.94m0,0,.89-3.08m-2.53,9.89.41-1.87m5.58-17.92-1.54,4m0,0-.47,1.34m0,0-1.45,4.51m6-15.83-1.83,4.13m0,0-.74,1.8m10.23,108.83.94,1.44m0,0,1.46,2.12M-60.57,204l-.65-1.13m0,0-2.19-4.06m5.72,9.89-2.88-4.7M-64,197.56l-1.3-2.68m1.94,4-.64-1.27M-65.35,94l1.3-2.69m0,0,.64-1.27m2.19-4.06.65-1.13m0,0,2.88-4.7M-63.41,90l2.19-4.06m5.93-9.39-1.46,2.12m0,0-.94,1.44m7.18,138.51,2.39,2.84m0,0,2.88,3.19M-52.6,216l-2.69-3.69m4.78,6.34L-52.6,216M-55.29,76.55l2.69-3.68m0,0,2.09-2.66m5.27-6-2.88,3.2m0,0-2.39,2.83m9.09,158.3,3.21,3m0,0,3,2.59m-8.14-7.45-1.91-2m3.82,3.86-1.91-1.88M-45.24,64.18l1.91-2m0,0,1.91-1.88m6.23-5.57-3,2.59m0,0-3.21,3m11.85,178.09,2.6,1.81m0,0,1.84,1.21M-32.76,236l-2.43-1.94m5.62,4.33L-32.76,236M-35.19,54.75l2.43-1.94m0,0,3.19-2.38m4.44-3L-27,48.61m0,0-2.6,1.82m8.74,193.64-4.3-2.64m10,5.73-2.42-1.25m0,0-3.33-1.84M-25.13,47.4l4.3-2.63m0,0,3.33-1.85m0,0,2.42-1.25m2.35,206.63,5.35,2.32m0,0,2.35.9m-9.28-4-.77-.38m2.35,1.14-1.58-.76m-.77-205.87.77-.38m0,0,1.58-.76M-5,37.31l-2.35.91m0,0-5.35,2.31M0,253.25l-5-1.73M5,254.68l-5-1.43m0,0H0M-5,37.31l5-1.72m0,0H0m0,0,5-1.43M7.89,255.38,5,254.68m10.05,2.06-1.77-.28m0,0-5.42-1.08M5,34.15l2.86-.7m0,0,5.42-1.07m0,0,1.77-.29m1.29,224.84-1.29-.19m10,1-.47,0m0,0-8.29-.8M15.08,32.09l1.29-.18m0,0,8.29-.81m0,0,.47,0m.43,226.69-.43,0m10.06,0-.43,0m0,0h-9.2M25.13,31.08l.43,0m0,0h9.2m0,0,.43,0m.47,226.65-.47,0m10.05-1-1.29.19m0,0-8.29.8M35.19,31.08l.47,0m0,0,8.29.81m0,0,1.29.18M47,256.46l-1.77.28m10-2.06-2.86.7m0,0L47,256.46M45.24,32.09l1.77.29m0,0,5.42,1.07m0,0,2.86.7m5,219.1-5,1.43m10.06-3.16-5,1.73m0,0h0m-5-219.1,5,1.43m0,0h0m0,0,5,1.72m0,214.21,2.35-.9m0,0,5.35-2.32m2.35-1.14-.77.38m0,0-1.58.76m0-207.77,1.58.76m0,0,.77.38m-7.7-3.45-2.35-.91m7.7,3.22L67.7,38.22M77.82,245.91l-2.42,1.25m10-5.73-4.3,2.64m0,0-3.33,1.84M75.4,41.67l2.42,1.25m0,0,3.33,1.85m0,0,4.3,2.63m0,194,1.84-1.21m0,0,2.6-1.81m5.62-4.33L93.08,236m0,0-3.19,2.39m0-188,3.19,2.38m0,0,2.43,1.94m-8.22-6.14L85.45,47.4m4.44,3-2.6-1.82m8.22,185.47,3-2.59m0,0,3.21-3m3.82-3.86-1.91,2m0,0-1.91,1.88m0-168.19,1.91,1.88m0,0,1.91,2m-7-6.84-3-2.59m6.23,5.57-3.21-3m7,167.31,2.88-3.19m0,0,2.39-2.84m4.78-6.34L112.92,216m0,0-2.09,2.65m0-148.41,2.09,2.66m0,0,2.69,3.68m-7.17-9.17-2.88-3.2m5.27,6-2.39-2.83m7.17,144.9,1.46-2.12m0,0,.94-1.44m5.72-9.89-2.19,4.06m0,0-.65,1.13m0,0-2.88,4.7m7.66-13.84-1.3,2.68m0,0-.64,1.27m0-108.83.64,1.27m0,0,1.3,2.69M118,80.11l2.88,4.7m0,0,.65,1.13m0,0L123.73,90m-6.66-11.33-1.46-2.12m2.4,3.56-.94-1.44m8.6,116.21,1.83-4.14m0,0,.74-1.8m1.54-4.05.47-1.34m0,0L131.7,179m-3.46,9.9,1.54-4.05m4.45-15.74-.41,1.87m0,0L132.59,176m0,0L131.7,179m4-18.59-1.24,7.48m0,0-.25,1.22m0-49.47.25,1.22m0,0,1.24,7.48m-4-18.59.89,3.08m0,0,1.23,4.94m0,0,.41,1.87m-4-14.4-.47-1.34m0,0-1.54-4m3.46,9.9-1.45-4.51m-2.75-7.19L125.67,94m2.57,5.93-.74-1.8m8.22,62.36.14-1.06m0,0,0-.13m0-.18.75-8.8m0,0,0-.92m-.81,9.9,0-.18m.83-10.71v-7.91m0,0,0-1m0,9.89,0-1m-.08-9.82-.75-8.8m0,0,0-.17m.81,9.89,0-.92m-.79-9.11-.14-1.06m.16,1.2,0-.14"/></g><g id="ml_1" data-name="ml=1"><line class="cls-2" x1="30.16" y1="144.42" x2="105.56" y2="64.18"/><line class="cls-9" x1="30.16" y1="144.42" x2="101.47" y2="68.54"/><polygon class="cls-10" points="102.25 73.12 100.63 69.44 96.85 68.05 105.56 64.19 102.25 73.12"/></g><g id="ml_-1" data-name="ml=-1"><line class="cls-2" x1="105.56" y1="224.65" x2="30.16" y2="144.42"/><line class="cls-9" x1="101.47" y1="220.3" x2="30.16" y2="144.42"/><polygon class="cls-10" points="102.25 215.71 100.63 219.4 96.85 220.79 105.56 224.65 102.25 215.71"/></g><g id="ml_0" data-name="ml=0"><line class="cls-2" x1="30.16" y1="144.42" x2="136.73" y2="144.42"/><line class="cls-9" x1="30.16" y1="144.42" x2="130.76" y2="144.42"/><polygon class="cls-10" points="127.95 148.12 129.52 144.42 127.95 140.71 136.73 144.42 127.95 148.12"/></g></svg>