<?xml version="1.0" encoding="utf-8"?>
<!-- Generator: Adobe Illustrator 25.4.0, SVG Export Plug-In . SVG Version: 6.00 Build 0)  -->
<svg version="1.1" id="图层_1" xmlns="http://www.w3.org/2000/svg" xmlns:xlink="http://www.w3.org/1999/xlink" x="0px" y="0px"
	 viewBox="0 0 280 280" style="enable-background:new 0 0 280 280;" xml:space="preserve">
<style type="text/css">
	.st0{fill:#F40A0D;}
	.st1{fill:#FFFFFF;}
	.st2{fill:none;}
</style>
<path class="st0" d="M-0.33,139.98c0-40.58,0-81.15,0-121.73c0-11.14,6.88-18.09,18.05-18.09c81.37-0.01,162.74-0.01,244.11,0.01
	c9.32,0,16.07,5.41,17.58,14.01c0.22,1.27,0.22,2.58,0.22,3.87c0.01,81.59,0.01,163.17,0,244.76c0,10.12-7.17,17.32-17.29,17.32
	c-81.73,0.01-163.46,0.01-245.19,0c-10.33,0-17.45-7-17.46-17.34C-0.35,221.85-0.33,180.92-0.33,139.98
	C-0.33,139.98-0.33,139.98-0.33,139.98z M231.95,170.26c-0.34,6.45,4.39,12.56,11.07,13.73c3.47,0.61,7.21,0.61,10.69,0.04
	c6.47-1.06,11.17-6.68,11.31-13.2c0.17-7.99,0.19-16-0.03-23.99c-0.2-7.49-4.59-12.75-11.87-14.57c-2.35-0.59-4.81-0.75-7.48-1.15
	c0-0.7,0-1.48,0-2.25c-0.02-3.6,0.13-7.22-0.11-10.8c-0.53-7.63-4.36-13.05-11.62-15.62c-2.6-0.92-5.47-1.11-8.23-1.46
	c-1.53-0.19-3.11-0.03-4.84-0.03c0-1.56-0.05-2.77,0.02-3.99c0.07-1.2-0.38-1.68-1.61-1.64c-2.45,0.06-4.9,0.01-7.35,0.01
	c-2.56,0-5.13,0-7.95,0c0,2,0,3.69,0,5.61c-3.76,0-7.26,0-10.92,0c-0.04,0.94-0.1,1.65-0.11,2.35c-0.01,4.11,0.09,8.22-0.04,12.32
	c-0.06,1.85,0.58,2.35,2.34,2.27c2.85-0.13,5.7-0.03,8.61-0.03c0,4.68,0,9.03,0,13.66c-5.52,0-10.88,0-16.31,0
	c0,5.73,0,11.16,0,16.87c5.51,0,10.88,0,16.47,0c0,1.05,0,1.82,0,2.6c0,10.52,0.03,21.04-0.04,31.56c-0.01,1.72,0.52,2.23,2.21,2.19
	c4.1-0.11,8.22-0.14,12.32,0.01c1.94,0.07,2.42-0.55,2.41-2.44c-0.09-10.37-0.04-20.75-0.04-31.13c0-0.84,0-1.68,0-2.62
	c7.87,0,15.49-0.16,23.09,0.08c2.87,0.09,4.31,2.17,4.38,5.22c0.08,3.17,0.02,6.34,0.03,9.51c0,2.21,0,4.42,0,6.89
	C242.66,170.26,237.29,170.26,231.95,170.26z M171.2,167.76c0-16.8,0-33.26,0-49.92c3.1,0,6.05-0.05,8.99,0.02
	c1.41,0.04,1.89-0.47,1.87-1.88c-0.07-4.25-0.1-8.5,0.02-12.75c0.05-1.76-0.44-2.35-2.28-2.34c-11.46,0.08-22.91,0.04-34.37,0.05
	c-0.69,0-1.38,0.08-2.22,0.13c0,4.91,0.09,9.59-0.04,14.26c-0.06,1.99,0.54,2.66,2.54,2.55c2.77-0.16,5.55-0.04,8.33-0.04
	c0,16.83,0,33.29,0,49.91c-4.99,0-9.81,0.05-14.63-0.03c-1.35-0.02-2.07,0.42-2.66,1.64c-2.22,4.6-4.55,9.16-6.83,13.73
	c-0.21,0.42-0.3,0.89-0.47,1.41c19.43,0,38.69,0,58.15,0c0-4.92-0.1-9.67,0.05-14.4c0.06-1.97-0.6-2.44-2.46-2.39
	C180.58,167.84,175.98,167.76,171.2,167.76z M132.1,95.39c-5.03,0-9.69,0.08-14.34-0.04c-1.74-0.04-2.69,0.47-3.46,2.09
	c-2.81,5.92-5.85,11.73-8.69,17.63c-1.81,3.76-3.6,7.54-5.05,11.45c-1.4,3.75,0.25,6.53,4.14,7.52c1.24,0.32,2.56,0.36,3.85,0.4
	c2.19,0.06,4.39,0.02,6.96,0.02c-1.99,4.04-3.87,7.67-5.58,11.37c-1.39,3-2.76,6.03-3.82,9.15c-1.04,3.07,0.34,5.64,3.39,6.7
	c1.33,0.46,2.81,0.68,4.22,0.71c4.25,0.09,8.51-0.07,12.75,0.08c2.12,0.08,3.36-0.41,4.25-2.55c1.35-3.25,3.18-6.3,4.78-9.44
	c0.31-0.61,0.54-1.25,0.8-1.87c-0.34-0.17-0.47-0.28-0.59-0.29c-2.02-0.03-4.03-0.01-6.05-0.06c-3.22-0.08-3.74-0.95-2.31-3.83
	c4.05-8.12,8.1-16.24,12.15-24.36c0.34-0.68,0.65-1.38,1.08-2.3c-0.93-0.08-1.55-0.17-2.17-0.17c-4.18-0.01-8.36,0.02-12.54-0.03
	c-1.27-0.02-2.22,0.19-2.77,1.51c-0.17,0.42-0.92,0.59-1.4,0.88c-0.26-0.61-0.72-1.21-0.72-1.82c0-0.59,0.43-1.2,0.72-1.78
	c3.08-6.19,6.17-12.37,9.25-18.56C131.3,97.14,131.61,96.44,132.1,95.39z M46.22,95.44c0,25.09,0,49.91,0,74.99
	c-3.75,0-7.26,0-10.72,0c-0.61,5.17,2.77,10.97,7.42,13.04c8.97,4,18.18-0.81,19.91-10.43c0.25-1.41,0.25-2.87,0.25-4.31
	c0.02-20.68,0.03-41.36,0.04-62.05c0-3.71,0-7.43,0-11.24C57.36,95.44,51.99,95.44,46.22,95.44z M35.38,117.57
	c-5.34,0-10.3,0.09-15.25-0.04c-1.89-0.05-2.46,0.59-2.58,2.42c-0.55,8.19-1.17,16.38-1.9,24.56c-0.41,4.56-0.2,9.25-2.32,13.55
	c-0.21,0.43,0.11,1.25,0.38,1.79c2.7,5.33,5.44,10.64,8.17,15.96c0.18,0.35,0.46,0.64,0.87,1.21c1.13-1.63,2.18-2.99,3.06-4.45
	c3.09-5.12,5.22-10.68,6-16.55c1.16-8.7,1.78-17.47,2.59-26.22C34.77,125.86,35.04,121.91,35.38,117.57z M86.23,177.02
	c3.03-6.11,5.91-11.9,8.75-17.71c0.19-0.4,0.14-0.97,0.06-1.43c-0.68-4.09-1.65-8.16-2.05-12.28c-0.83-8.6-1.39-17.24-1.98-25.86
	c-0.11-1.6-0.6-2.31-2.32-2.21c-2.23,0.14-4.47,0.04-6.7,0.04c-2.57,0-5.15,0-7.92,0c0.07,1.47,0.09,2.61,0.18,3.75
	c0.43,5.68,0.73,11.37,1.35,17.02c0.83,7.57,1.6,15.18,3,22.66C79.68,166.74,82.22,172.06,86.23,177.02z M129.66,167.76
	c-4.09,0-7.59,0.14-11.08-0.04c-4.57-0.24-9.13-0.78-13.7-1.05c-0.58-0.03-1.48,0.65-1.79,1.23c-2.48,4.62-4.86,9.3-7.26,13.97
	c-0.25,0.48-0.39,1.01-0.7,1.82c1.91,0.36,3.58,0.93,5.26,0.96c6.4,0.11,12.8,0.06,19.2,0c0.6-0.01,1.49-0.39,1.75-0.87
	C124.08,178.66,126.71,173.48,129.66,167.76z M253.5,117.63c1.3,0,2.6,0.08,3.89-0.01c4.46-0.33,7.8-4.08,7.71-8.58
	c-0.1-4.5-3.57-8.09-8.04-8.3c-4.32-0.2-8.15,3.05-8.63,7.43c-0.16,1.42-0.11,2.88-0.11,4.31
	C248.3,117.68,248.31,117.68,253.5,117.63z"/>
<path class="st1" d="M231.95,170.26c5.34,0,10.7,0,16.37,0c0-2.47,0-4.68,0-6.89c0-3.17,0.05-6.34-0.03-9.51
	c-0.08-3.05-1.52-5.13-4.38-5.22c-7.6-0.23-15.22-0.08-23.09-0.08c0,0.93,0,1.77,0,2.62c0,10.38-0.05,20.75,0.04,31.13
	c0.02,1.89-0.47,2.51-2.41,2.44c-4.1-0.15-8.21-0.12-12.32-0.01c-1.69,0.04-2.22-0.47-2.21-2.19c0.07-10.52,0.04-21.04,0.04-31.56
	c0-0.77,0-1.55,0-2.6c-5.59,0-10.96,0-16.47,0c0-5.71,0-11.15,0-16.87c5.43,0,10.79,0,16.31,0c0-4.63,0-8.98,0-13.66
	c-2.9,0-5.76-0.09-8.61,0.03c-1.76,0.08-2.4-0.42-2.34-2.27c0.13-4.1,0.04-8.21,0.04-12.32c0-0.71,0.06-1.41,0.11-2.35
	c3.66,0,7.16,0,10.92,0c0-1.92,0-3.61,0-5.61c2.82,0,5.38,0,7.95,0c2.45,0,4.9,0.05,7.35-0.01c1.23-0.03,1.68,0.44,1.61,1.64
	c-0.07,1.21-0.02,2.43-0.02,3.99c1.73,0,3.31-0.16,4.84,0.03c2.77,0.35,5.64,0.54,8.23,1.46c7.26,2.57,11.1,7.98,11.62,15.62
	c0.25,3.59,0.09,7.2,0.11,10.8c0.01,0.77,0,1.55,0,2.25c2.68,0.4,5.13,0.56,7.48,1.15c7.28,1.82,11.68,7.09,11.87,14.57
	c0.21,7.99,0.2,16,0.03,23.99c-0.14,6.52-4.84,12.15-11.31,13.2c-3.48,0.57-7.22,0.57-10.69-0.04
	C236.35,182.82,231.62,176.71,231.95,170.26z M220.74,131.48c2.5,0,4.63-0.06,6.76,0.02c1.35,0.05,1.74-0.53,1.7-1.79
	c-0.07-1.79-0.01-3.59-0.01-5.38c0-6.71-0.19-6.88-6.88-6.48c-0.07,0-0.17-0.03-0.21,0.01c-0.46,0.46-1.29,0.92-1.31,1.4
	C220.7,123.19,220.74,127.13,220.74,131.48z"/>
<path class="st1" d="M171.2,167.76c4.78,0,9.38,0.08,13.98-0.04c1.86-0.05,2.52,0.42,2.46,2.39c-0.15,4.74-0.05,9.48-0.05,14.4
	c-19.46,0-38.72,0-58.15,0c0.17-0.52,0.26-0.99,0.47-1.41c2.27-4.58,4.61-9.13,6.83-13.73c0.59-1.21,1.31-1.66,2.66-1.64
	c4.82,0.08,9.64,0.03,14.63,0.03c0-16.63,0-33.08,0-49.91c-2.77,0-5.56-0.12-8.33,0.04c-2,0.12-2.6-0.55-2.54-2.55
	c0.14-4.67,0.04-9.35,0.04-14.26c0.84-0.05,1.53-0.13,2.22-0.13c11.46-0.01,22.91,0.03,34.37-0.05c1.84-0.01,2.33,0.58,2.28,2.34
	c-0.11,4.25-0.08,8.5-0.02,12.75c0.02,1.41-0.46,1.91-1.87,1.88c-2.94-0.08-5.88-0.02-8.99-0.02
	C171.2,134.5,171.2,150.96,171.2,167.76z"/>
<path class="st1" d="M132.1,95.39c-0.49,1.05-0.8,1.75-1.14,2.44c-3.08,6.19-6.17,12.37-9.25,18.56c-0.29,0.58-0.72,1.18-0.72,1.78
	c0,0.61,0.46,1.21,0.72,1.82c0.48-0.29,1.22-0.46,1.4-0.88c0.55-1.32,1.5-1.53,2.77-1.51c4.18,0.05,8.36,0.02,12.54,0.03
	c0.62,0,1.24,0.09,2.17,0.17c-0.43,0.92-0.74,1.62-1.08,2.3c-4.05,8.12-8.1,16.24-12.15,24.36c-1.43,2.88-0.92,3.75,2.31,3.83
	c2.02,0.05,4.03,0.03,6.05,0.06c0.13,0,0.25,0.12,0.59,0.29c-0.26,0.61-0.49,1.26-0.8,1.87c-1.61,3.14-3.43,6.19-4.78,9.44
	c-0.89,2.14-2.13,2.62-4.25,2.55c-4.25-0.15-8.5,0.01-12.75-0.08c-1.42-0.03-2.89-0.25-4.22-0.71c-3.05-1.06-4.43-3.63-3.39-6.7
	c1.06-3.12,2.43-6.15,3.82-9.15c1.71-3.7,3.59-7.33,5.58-11.37c-2.57,0-4.77,0.04-6.96-0.02c-1.29-0.04-2.61-0.08-3.85-0.4
	c-3.89-0.99-5.54-3.77-4.14-7.52c1.45-3.9,3.25-7.69,5.05-11.45c2.84-5.91,5.88-11.72,8.69-17.63c0.77-1.62,1.72-2.14,3.46-2.09
	C122.42,95.46,127.07,95.39,132.1,95.39z"/>
<path class="st1" d="M46.22,95.44c5.77,0,11.14,0,16.9,0c0,3.82,0,7.53,0,11.24c-0.01,20.68-0.01,41.36-0.04,62.05
	c0,1.44,0,2.9-0.25,4.31c-1.73,9.63-10.94,14.43-19.91,10.43c-4.65-2.07-8.03-7.87-7.42-13.04c3.47,0,6.97,0,10.72,0
	C46.22,145.35,46.22,120.53,46.22,95.44z"/>
<path class="st1" d="M35.38,117.57c-0.34,4.34-0.61,8.28-0.98,12.22c-0.81,8.75-1.43,17.52-2.59,26.22
	c-0.78,5.87-2.92,11.43-6,16.55c-0.88,1.46-1.93,2.82-3.06,4.45c-0.42-0.57-0.69-0.87-0.87-1.21c-2.74-5.31-5.48-10.62-8.17-15.96
	c-0.27-0.54-0.6-1.36-0.38-1.79c2.12-4.3,1.91-8.98,2.32-13.55c0.73-8.18,1.35-16.37,1.9-24.56c0.12-1.83,0.69-2.47,2.58-2.42
	C25.09,117.66,30.04,117.57,35.38,117.57z"/>
<path class="st1" d="M86.23,177.02c-4.01-4.96-6.55-10.28-7.63-16.02c-1.4-7.48-2.17-15.09-3-22.66
	c-0.62-5.66-0.92-11.35-1.35-17.02c-0.09-1.14-0.11-2.28-0.18-3.75c2.77,0,5.34,0,7.92,0c2.23,0,4.47,0.1,6.7-0.04
	c1.72-0.11,2.21,0.6,2.32,2.21c0.59,8.63,1.15,17.26,1.98,25.86c0.4,4.12,1.36,8.18,2.05,12.28c0.08,0.47,0.13,1.04-0.06,1.43
	C92.14,165.12,89.26,170.91,86.23,177.02z"/>
<path class="st1" d="M129.66,167.76c-2.95,5.72-5.58,10.9-8.31,16.02c-0.25,0.48-1.15,0.86-1.75,0.87c-6.4,0.07-12.8,0.11-19.2,0
	c-1.68-0.03-3.35-0.59-5.26-0.96c0.3-0.8,0.45-1.34,0.7-1.82c2.39-4.67,4.77-9.35,7.26-13.97c0.31-0.58,1.21-1.27,1.79-1.23
	c4.57,0.27,9.12,0.81,13.7,1.05C122.06,167.9,125.57,167.76,129.66,167.76z"/>
<path class="st1" d="M253.5,117.63c-5.19,0.05-5.2,0.05-5.19-5.15c0-1.44-0.05-2.89,0.11-4.31c0.48-4.37,4.31-7.63,8.63-7.43
	c4.47,0.21,7.94,3.79,8.04,8.3c0.1,4.49-3.25,8.25-7.71,8.58C256.09,117.71,254.79,117.63,253.5,117.63z"/>
<path class="st0" d="M220.74,131.48c0-4.35-0.05-8.28,0.06-12.22c0.01-0.48,0.84-0.94,1.31-1.4c0.04-0.04,0.14,0,0.21-0.01
	c6.69-0.4,6.88-0.23,6.88,6.48c0,1.79-0.06,3.59,0.01,5.38c0.05,1.26-0.35,1.84-1.7,1.79C225.37,131.42,223.24,131.48,220.74,131.48
	z"/>
<rect class="st2" width="280" height="280"/>
</svg>
