<?xml version="1.0" encoding="utf-8"?>
<!-- Generator: Adobe Illustrator 25.2.0, SVG Export Plug-In . SVG Version: 6.00 Build 0)  -->
<svg version="1.1" id="图层_1" xmlns="http://www.w3.org/2000/svg" xmlns:xlink="http://www.w3.org/1999/xlink" x="0px" y="0px"
	 viewBox="0 0 280 280" style="enable-background:new 0 0 280 280;" xml:space="preserve">
<style type="text/css">
	.st0{fill:#00AAE7;}
	.st1{fill:#231815;}
	.st2{fill:#F29600;}
	.st3{fill:#0050A2;}
</style>
<g>
	<path class="st0" d="M91.5,180.65H66.79l-14.68-44.3v44.3H28.64v-97.5h23.63l15.75,43.88V83.15H91.5v63.66 M91.5,146.81v33.84"/>
	<g>
		<path class="st1" d="M99.76,89h5.29c-0.05-0.42-0.12-1.06-0.21-1.93c-0.27-2.17-0.39-3.29-0.35-3.37
			c2.42-0.23,3.83-0.35,4.22-0.37c0.55-0.04,0.82,0.01,0.8,0.14c0.1,1.66,0.2,3.5,0.27,5.53h5.29v5.76h-9.8
			c0.07,0.31,0.18,0.74,0.32,1.3c0.66,2.8,0.99,4.37,0.99,4.69c-0.19,0.28-0.89,0.73-2.08,1.39h3.41l1.74-7.14
			c-0.02,0.04,0.57,0.25,1.76,0.63c1.78,0.56,2.67,0.88,2.67,0.98c0.03,0.23-0.06,0.58-0.29,1.04c-0.59,1.21-1.13,2.7-1.63,4.49
			h3.18v5.77h-5.69v3.92h5.15v5.53h-5.15v13.37c0.02,2.4-0.39,3.98-1.23,4.72c-0.39,0.39-0.96,0.66-1.68,0.81
			c-0.71,0.15-1.74,0.21-3.07,0.17c-0.07-1.68-0.35-4.11-0.83-7.32c0.27-0.04,0.63-0.06,1.09-0.09c1.14,0.19,1.66-0.39,1.55-1.76
			v-9.91h-5.42v-5.53h5.42v-3.92H98.8v-5.77h3.9c-0.82-3.06-1.28-4.97-1.39-5.76c1.03-0.5,2.02-1.04,2.96-1.61h-4.51V89z
			 M109.91,120.58c0.3-0.15,0.78-0.44,1.44-0.86c0.68-0.42,1.22-0.75,1.63-0.98c0.2,0.22,0.66,1.61,1.41,4.21
			c0.32,1.1,0.55,1.85,0.67,2.25c0.82-3.11,1.24-6.49,1.26-10.14V88.31c3.68-0.7,7.25-2.23,10.71-4.61c0.91,1.34,2.2,3.42,3.88,6.22
			c0.05,0.35,0.01,0.57-0.13,0.69c-0.89,0.31-2.23,0.71-4.01,1.21c-2.74,0.78-4.79,1.46-6.14,2.02v7.83h10.44v5.99h-3.47v29.68
			h-4.47v-29.68h-2.51v8.3c-0.02,7.76-1.57,15.08-4.65,21.95c-1.78-1.83-3.15-3.09-4.11-3.81c0.02-0.06,0.06-0.15,0.13-0.28
			c1.14-2.81,1.97-4.99,2.51-6.57c-0.3,0.29-0.72,0.68-1.25,1.16c-0.53,0.48-0.95,0.87-1.25,1.15L109.91,120.58z M101.02,132.39
			c-0.3-0.34-0.77-0.91-1.39-1.7c-0.62-0.78-1.09-1.35-1.39-1.7c0.66-1.86,1.76-4.87,3.31-9.02c0.19-0.5,0.32-0.84,0.37-1.01
			c2.08,1.57,3.13,2.54,3.13,2.88c-0.25,0.63-0.7,1.87-1.36,3.72C101.99,130.16,101.1,132.43,101.02,132.39z"/>
		<path class="st1" d="M145.74,125.64h-12.93v-6.68h12.93v-4.84h1.94c2.32-0.02,3.4,0.17,3.26,0.58c0.05,0.27,0.03,0.65-0.05,1.15
			c-0.09,0.57-0.14,1.11-0.14,1.61v1.5h13.06v6.68h-12.92v12.16h-5.16V125.64z M142.4,93.37v21.43h-4.17v-13.02
			c-1.16,2.28-2.17,4.17-3.04,5.65c-1.23-1.75-2.44-3.44-3.63-5.07c3.26-4.71,6.16-11.12,8.71-19.24c3.37,1.92,5.1,3.03,5.21,3.34
			c0.01,0.21-0.47,1.33-1.44,3.35C143.22,91.48,142.68,92.68,142.4,93.37z M142.82,100.05c0.02-0.11,0.28-0.27,0.78-0.46
			c0.93-0.2,2.33-1.04,4.22-2.54V83.34h1.2c2.47,0,3.74,0.27,3.82,0.8c0,0.32-0.04,0.72-0.1,1.18c-0.12,0.73-0.19,1.49-0.19,2.28
			v5.3c2.97-3.13,4.68-5.26,5.13-6.39c0.27-0.46,0.44-0.71,0.5-0.75c2.64,4.09,3.96,6.25,3.98,6.45c-1.3,0.96-3.29,2.75-5.98,5.36
			c-1.62,1.57-2.83,2.71-3.63,3.4v2.88c0,1.77,0.46,2.65,1.39,2.65h2.24c1.12,0.02,1.85-0.42,2.19-1.33
			c0.36-0.83,0.51-2.61,0.45-5.36c1.41,0.85,2.99,1.54,4.73,2.08c-0.11,5.01-0.49,8.05-1.15,9.1c-0.61,1.38-2.08,2.04-4.43,1.96
			h-6.51c-2.43,0.13-3.59-1.63-3.5-5.3v-3.46c-0.27,0.2-0.66,0.47-1.17,0.84c-0.8,0.55-1.42,0.97-1.87,1.23
			C144.39,104.28,143.7,102.2,142.82,100.05z"/>
		<path class="st1" d="M172.73,100.08c1.11,2.57,2.29,5.88,3.55,9.91c-1.23,4.88-2.41,8.5-3.55,10.83V100.08z M172.73,136.44V123.6
			c0.02,0.06,0.06,0.14,0.14,0.23c0.73,1.36,1.19,2.4,1.39,3.11c1.65-3.46,2.98-6.88,3.98-10.26c0.04,0.16,0.1,0.44,0.21,0.84
			c0.66,2.57,1.01,4.02,1.04,4.35c0.93-0.98,1.71-1.63,2.35-1.96c-0.98,2.4-1.98,4.55-2.99,6.45c1.46,0.85,2.61,1.85,3.47,3
			c0.66-1.33,1.7-4.02,3.13-8.1c0.53-1.52,0.82-2.28,0.85-2.28c0.16,0.77,0.38,1.88,0.64,3.34c0.28,1.46,0.5,2.57,0.67,3.34
			c1.12-1.34,2.35-2.38,3.68-3.11c-0.25-1.5-1.12-4.89-2.61-10.17c-0.11-0.34-0.18-0.6-0.24-0.78c1.55-7.39,2.52-12.61,2.94-15.67
			l-4.11-2.07c-0.23,3.2-0.65,6.58-1.25,10.14c-0.82-2.3-1.59-4.3-2.3-5.99l-1.73,1.85l0.91-4.27l-4.17-1.84
			c-0.25,2.92-0.6,5.73-1.04,8.41c-0.05,0-0.45-0.99-1.2-2.97c-0.67-1.74-1.13-2.91-1.36-3.49c-0.61,0.79-1.35,1.71-2.24,2.77v-7.15
			h18.77v35.85c0.06,1.21-0.17,1.91-0.67,2.1c-0.42,0.31-1.68,0.45-3.76,0.43c0.78,1.96,1.19,4.48,1.23,7.55
			c3.34-0.13,5.47-0.72,6.38-1.76c0.99-0.88,1.47-2.93,1.42-6.14V85.1h-27.67v51.35H172.73z M180.23,109.3l1.26-6.34
			c0.72,1.81,1.68,4.68,2.91,8.64c-0.5,2.39-1.05,4.31-1.65,5.77C181.73,114.22,180.89,111.53,180.23,109.3z"/>
	</g>
	<g>
		<g>
			<path class="st2" d="M164.32,178.34l-3.84-3.88c-1.1-1.26-2.11-2.59-3.49-3.55c-1.06-1.26-2.04-2.59-2.92-4.01
				c0.49-0.36,16.69-14.51,27.57-20.56c0.02,0.01,35.1-22.24,69.73-14.55c-0.08-0.16-11.66-0.77-22.21,1.11
				c-10.72,1.61-21.21,4.48-22.21,5.52c0,0.02,9.47-2.38,19.73-3.72c10.17-1.54,21.52-1.08,23.22,0.44
				c-0.06-0.15-10.16-0.54-19.92,1.36c-9.81,1.75-19.52,4.91-20.55,7.08c-0.25-0.59,34.21-6.29,38.55-1.72
				c0.03-0.06-6.53-0.8-8.18,0.03c1.04,0.18,2.08,0.33,3.1,0.57c-1.59,0.16-3.17,0.39-4.76,0.63l-2.88-0.25
				c0.04-0.04,7.83,0.92,8.43,2.19c-0.01,0.17-26.04-4.24-56.17,16.31C179.67,166.72,164.65,176.54,164.32,178.34z"/>
		</g>
	</g>
	<g>
		<path class="st3" d="M67.31,147.81h14.95v6.57h-5.95v6.26h5.56v6.27h-5.56v7.19h6.58v6.57H67.31V147.81z"/>
		<path class="st3" d="M121.5,147.81l-4.03,32.85h-11.2c-1.01-5.04-1.92-10.79-2.73-17.28c-0.41,2.79-1.26,8.55-2.54,17.28H89.85
			l-4.05-32.85h8.77l0.93,11.48l0.91,11.16c0.39-5.79,1.23-13.34,2.53-22.64h9.29c0.08,0.98,0.4,4.6,0.94,10.86l1.1,12.54
			c0.53-7.99,1.35-15.8,2.47-23.41H121.5z"/>
		<path class="st3" d="M144.53,157.64h-8.38v-2.39c0-1.12-0.1-1.83-0.3-2.14c-0.21-0.3-0.55-0.46-1.02-0.46
			c-0.52,0-0.91,0.21-1.18,0.61c-0.27,0.41-0.39,1.03-0.39,1.87c0,1.08,0.15,1.88,0.46,2.42c0.29,0.55,1.13,1.21,2.52,1.96
			c3.99,2.21,6.49,4.01,7.52,5.43c1.03,1.42,1.55,3.69,1.55,6.83c0,2.3-0.29,3.99-0.87,5.06c-0.58,1.08-1.69,1.99-3.34,2.73
			c-1.66,0.73-3.58,1.1-5.77,1.1c-2.41,0-4.47-0.42-6.16-1.27c-1.71-0.85-2.82-1.92-3.34-3.22c-0.53-1.31-0.79-3.17-0.79-5.56v-2.11
			h8.37v3.89c0,1.21,0.12,1.98,0.35,2.33c0.23,0.34,0.65,0.51,1.25,0.51c0.6,0,1.04-0.22,1.33-0.66c0.29-0.45,0.43-1.09,0.43-1.95
			c0-1.9-0.27-3.15-0.82-3.73c-0.56-0.58-1.96-1.54-4.2-2.89c-2.23-1.36-3.72-2.36-4.44-2.98c-0.72-0.63-1.33-1.49-1.8-2.58
			c-0.48-1.09-0.72-2.49-0.72-4.19c0-2.46,0.33-4.27,1.01-5.4c0.67-1.14,1.76-2.03,3.27-2.67c1.5-0.64,3.32-0.96,5.45-0.96
			c2.33,0,4.31,0.35,5.94,1.06c1.64,0.7,2.72,1.59,3.26,2.66c0.53,1.07,0.8,2.88,0.8,5.43V157.64z"/>
	</g>
</g>
</svg>
