<svg id="图层_1" data-name="图层 1" xmlns="http://www.w3.org/2000/svg" xmlns:xlink="http://www.w3.org/1999/xlink" viewBox="0 0 52 49"><defs><style>.cls-1,.cls-4,.cls-6{fill:none;}.cls-2{fill:lime;}.cls-2,.cls-4{stroke:#000;}.cls-2,.cls-4,.cls-6{stroke-miterlimit:10;stroke-width:0.25px;}.cls-3{fill:red;}.cls-5,.cls-8{font-size:3px;}.cls-12,.cls-5,.cls-8{font-family:TimesNewRomanPSMT, Times New Roman;}.cls-6{stroke:blue;}.cls-7{fill:blue;}.cls-8,.cls-9{letter-spacing:-0.04em;}.cls-10{clip-path:url(#clip-path);}.cls-11{fill:#333;}.cls-12{font-size:10px;}.cls-13{letter-spacing:-0.1em;}.cls-14{letter-spacing:-0.06em;}.cls-15{letter-spacing:0em;}</style><clipPath id="clip-path"><rect class="cls-1" x="4.8" y="35" width="42.41" height="13"/></clipPath></defs><rect class="cls-2" x="4" y="16" width="43" height="15"/><path class="cls-3" d="M34.33,16a9.5,9.5,0,0,0-17.66,0Z"/><path class="cls-4" d="M18.14,16c-.14-1-.14-1-1-1.31"/><text class="cls-5" transform="translate(18.68 15.41)">θ</text><line class="cls-6" x1="16.67" y1="16" x2="24.4" y2="16"/><polygon class="cls-7" points="23.57 17.02 23.4 16.84 24.31 16 23.4 15.16 23.57 14.98 24.67 16 23.57 17.02"/><line class="cls-6" x1="8.95" y1="16" x2="16.67" y2="16"/><polygon class="cls-7" points="9.77 17.02 9.94 16.84 9.04 16 9.94 15.16 9.77 14.98 8.67 16 9.77 17.02"/><line class="cls-6" x1="16.67" y1="15.99" x2="18.91" y2="9.26"/><polygon class="cls-7" points="19.62 10.37 19.4 10.47 18.88 9.35 17.8 9.94 17.68 9.72 19 9 19.62 10.37"/><text class="cls-5" transform="translate(14.78 11.82)">γ</text><text class="cls-8" transform="translate(16.11 12.81) scale(0.58)">L</text><text class="cls-5" transform="translate(11.78 17.82)">γ</text><text class="cls-5" transform="translate(13.11 18.81) scale(0.58)">S</text><text class="cls-5" transform="translate(18.78 17.82)">γ</text><text class="cls-5" transform="translate(20.11 18.81) scale(0.58)">S<tspan class="cls-9" x="1.67" y="0">L</tspan></text><g class="cls-10"><path class="cls-11" d="M5,41.69a1.59,1.59,0,0,1,.49-1.12,1.51,1.51,0,0,1,1.07-.5.82.82,0,0,1,.5.14.41.41,0,0,1,.19.36.37.37,0,0,1-.11.28.34.34,0,0,1-.27.12.24.24,0,0,1-.17-.06.21.21,0,0,1-.07-.17.32.32,0,0,1,.07-.19.34.34,0,0,1,.12-.12l.08,0h0a.07.07,0,0,0,0,0,.35.35,0,0,0-.12,0l-.19,0a.8.8,0,0,0-.33.08.75.75,0,0,0-.24.18,1.5,1.5,0,0,0-.37.71,2.89,2.89,0,0,0-.12.66.48.48,0,0,0,.15.39.42.42,0,0,0,.33.14H6A1.32,1.32,0,0,0,7.05,42l.07-.05s0,0,.08.05a.15.15,0,0,1,0,.08s0,.05,0,.08L7,42.28a1.2,1.2,0,0,1-.26.18l-.37.14a1.17,1.17,0,0,1-.46.06.93.93,0,0,1-.69-.27A1,1,0,0,1,5,41.69Z"/><path class="cls-11" d="M8,41.91a.5.5,0,0,0,.15.41.48.48,0,0,0,.34.13.73.73,0,0,0,.47-.18,1.27,1.27,0,0,0,.36-.48,3.47,3.47,0,0,0,.13-.43,2.2,2.2,0,0,0,.08-.52.58.58,0,0,0-.1-.38A.44.44,0,0,0,9,40.29a.83.83,0,0,0-.64.33,1.62,1.62,0,0,0-.31.66A3,3,0,0,0,8,41.91Zm.46.75a.88.88,0,0,1-.69-.28.94.94,0,0,1-.27-.67A1.61,1.61,0,0,1,7.64,41a2,2,0,0,1,.47-.57A1.44,1.44,0,0,1,9,40.08h.23l.15,0a.65.65,0,0,1,.2.09.68.68,0,0,1,.21.17,1.41,1.41,0,0,1,.15.28,1.25,1.25,0,0,1,.06.4,1.51,1.51,0,0,1-.49,1.1A1.5,1.5,0,0,1,8.43,42.66Z"/><path class="cls-11" d="M10.81,41a.84.84,0,0,1,.09-.37.88.88,0,0,1,.32-.35.92.92,0,0,1,.55-.16.75.75,0,0,1,.52.16.51.51,0,0,1,.17.34.37.37,0,0,1-.1.27.33.33,0,0,1-.22.09.2.2,0,0,1-.14,0,.17.17,0,0,1-.06-.14.22.22,0,0,1,.05-.16.53.53,0,0,1,.09-.11l.08,0h0l0,0a.38.38,0,0,0-.14-.06.78.78,0,0,0-.22,0,.48.48,0,0,0-.4.14.51.51,0,0,0-.14.31.22.22,0,0,0,.11.2,1.41,1.41,0,0,0,.32.09,1.38,1.38,0,0,1,.3.09.56.56,0,0,1,.37.55,1,1,0,0,1-.06.32,1.22,1.22,0,0,1-.19.32.83.83,0,0,1-.36.25,1.68,1.68,0,0,1-.54.1.92.92,0,0,1-.62-.17.52.52,0,0,1-.19-.39.39.39,0,0,1,.12-.32.42.42,0,0,1,.25-.1.25.25,0,0,1,.16.06.19.19,0,0,1,.08.17.32.32,0,0,1-.1.25.3.3,0,0,1-.18.11h0s0,0,0,0l.18.07a.8.8,0,0,0,.32,0,.91.91,0,0,0,.35-.06.47.47,0,0,0,.22-.16.54.54,0,0,0,.1-.18.39.39,0,0,0,0-.14.26.26,0,0,0-.12-.24.85.85,0,0,0-.28-.1,1.81,1.81,0,0,1-.34-.08.57.57,0,0,1-.27-.2A.63.63,0,0,1,10.81,41Z"/><path class="cls-11" d="M13.39,41.84c0,.41.1.61.3.61a.38.38,0,0,0,.19-.06,1.32,1.32,0,0,0,.23-.21,2,2,0,0,0,.28-.5,7.65,7.65,0,0,0,.27-.84l0-.09H13.57a1.13,1.13,0,0,1-.05.21l-.09.45A2.37,2.37,0,0,0,13.39,41.84Zm1.55-2.47c0-.39-.1-.59-.31-.59a.55.55,0,0,0-.4.26,2.7,2.7,0,0,0-.32.58c-.08.22-.15.41-.19.57s-.07.26-.08.29h1.11a.91.91,0,0,0,.05-.19c0-.12.06-.27.09-.46A2.07,2.07,0,0,0,14.94,39.37Zm-2,2.09a3.75,3.75,0,0,1,.23-1.23,3.86,3.86,0,0,1,.6-1.12,1.36,1.36,0,0,1,.8-.53h.12a.64.64,0,0,1,.48.28,1.67,1.67,0,0,1,.22.92,3.84,3.84,0,0,1-.26,1.34,3.34,3.34,0,0,1-.66,1.11,1.09,1.09,0,0,1-.76.44h0a.56.56,0,0,1-.36-.12.73.73,0,0,1-.22-.3,1.82,1.82,0,0,1-.11-.38A2.71,2.71,0,0,1,12.94,41.46Z"/><path class="cls-11" d="M17.34,41.72a.11.11,0,0,1,.09-.11h3.64c.06,0,.08.08.08.11a.12.12,0,0,1-.08.12H17.42A.12.12,0,0,1,17.34,41.72Zm0-1.1a.12.12,0,0,1,.08-.12h3.65a.12.12,0,0,1,.08.12s0,.07-.08.1H17.43A.11.11,0,0,1,17.34,40.62Z"/><rect class="cls-11" x="23.75" y="41" width="22.76" height="0.34"/><path class="cls-11" d="M24.27,37.32c-.08,0-.11,0-.11-.06a.57.57,0,0,1,.08-.26,3,3,0,0,1,.23-.35,1.31,1.31,0,0,1,.36-.3,1.06,1.06,0,0,1,.44-.13h.19a.76.76,0,0,1,.45.31,2.45,2.45,0,0,1,.31.75,2.78,2.78,0,0,1,.08.49v0l.07-.15.26-.62.25-.52.12-.22h.17a.09.09,0,0,1,0,0,1.8,1.8,0,0,1-.12.25q-.12.22-.33.72c-.15.34-.29.68-.42,1a3.57,3.57,0,0,0-.07.37c0,.19-.07.39-.12.61a2.37,2.37,0,0,1-.16.51q-.06.15-.15.15c-.07,0-.1,0-.1-.16A5.5,5.5,0,0,1,26,38.55l0-.1v-.11s0-.09,0-.17a1.79,1.79,0,0,0-.33-1.24.73.73,0,0,0-.54-.22.9.9,0,0,0-.51.15.81.81,0,0,0-.32.39s0,0,0,0A.14.14,0,0,1,24.27,37.32Z"/><path class="cls-11" d="M28.31,39.52a.59.59,0,0,0,.43-.21.71.71,0,0,0,.21-.49.36.36,0,0,0-.21-.35l-.56-.15a.68.68,0,0,1-.17-.08.56.56,0,0,1-.24-.49.81.81,0,0,1,.13-.45,1.33,1.33,0,0,1,.26-.3.9.9,0,0,1,.29-.16.78.78,0,0,1,.26-.06h.07a.62.62,0,0,1,.56.25L29.4,37l.1-.12.08-.08h0s.05,0,.05,0,0,.18-.11.49-.12.46-.13.47,0,0-.07,0-.08,0-.08,0,0,0,0,0v-.08s0-.08,0-.1a.61.61,0,0,0,0-.24.53.53,0,0,0-.07-.15l-.1-.1a.61.61,0,0,0-.76.1.59.59,0,0,0-.21.43.37.37,0,0,0,.06.21.3.3,0,0,0,.17.12l.28.08.28.07a.59.59,0,0,1,.26.2.57.57,0,0,1,.13.4,1,1,0,0,1,0,.23.89.89,0,0,1-.07.19,1.58,1.58,0,0,1-.15.24.8.8,0,0,1-.27.24,1,1,0,0,1-.38.16h-.13a.85.85,0,0,1-.63-.23l0,0-.11.13a.62.62,0,0,1-.12.12l-.05,0s-.05,0-.05,0l.23-.94s0,0,.08,0h.06s0,0,0,0v0a.64.64,0,0,0,0,.09.49.49,0,0,0,0,.13.61.61,0,0,0,.08.27.44.44,0,0,0,.17.16.86.86,0,0,0,.21.07Z"/><path class="cls-11" d="M32,37.38v-.07a.12.12,0,0,1,.08-.11h3.33c.06,0,.08.06.08.11s0,.08-.08.11H32.08a.12.12,0,0,1-.08-.11Z"/><path class="cls-11" d="M37.43,37.32q-.12,0-.12-.06A.61.61,0,0,1,37.4,37a1.61,1.61,0,0,1,.23-.35,1.07,1.07,0,0,1,.36-.3,1,1,0,0,1,.44-.13h.19a.82.82,0,0,1,.45.31,2.24,2.24,0,0,1,.3.75,2.06,2.06,0,0,1,.08.49v0l.07-.15c.07-.2.16-.4.26-.62s.17-.38.24-.52a1.48,1.48,0,0,1,.13-.22h.16s0,0,0,0a1.8,1.8,0,0,1-.12.25c-.08.15-.19.39-.34.72s-.28.68-.41,1a1.79,1.79,0,0,0-.08.37,3.85,3.85,0,0,1-.12.61,3.45,3.45,0,0,1-.15.51c0,.1-.1.15-.16.15s-.09,0-.09-.16a5.5,5.5,0,0,1,.31-1.26l0-.1v-.28a1.79,1.79,0,0,0-.33-1.24.73.73,0,0,0-.54-.22.89.89,0,0,0-.5.15.78.78,0,0,0-.33.39.12.12,0,0,1,0,0A.14.14,0,0,1,37.43,37.32Z"/><path class="cls-11" d="M41.46,39.53a.59.59,0,0,0,.44-.21.71.71,0,0,0,.2-.49.35.35,0,0,0-.21-.35l-.55-.15-.17-.08a.58.58,0,0,1-.24-.49.77.77,0,0,1,.13-.45,1.17,1.17,0,0,1,.54-.47.9.9,0,0,1,.26-.06h.08a.63.63,0,0,1,.56.26l0,0,.11-.12.08-.09h0s0,0,0,0,0,.19-.12.49a4.41,4.41,0,0,1-.12.48h-.07c-.05,0-.08,0-.08,0v0a.32.32,0,0,1,0-.07.34.34,0,0,1,0-.11.86.86,0,0,0,0-.24l-.07-.14L42.24,37a.67.67,0,0,0-.33-.08.62.62,0,0,0-.43.19.56.56,0,0,0-.2.42.34.34,0,0,0,.23.34l.28.08.27.07a.64.64,0,0,1,.27.19.59.59,0,0,1,.13.41.89.89,0,0,1,0,.22,1,1,0,0,1-.08.2,1.62,1.62,0,0,1-.14.24,1.09,1.09,0,0,1-.27.24.89.89,0,0,1-.38.15h-.14a.84.84,0,0,1-.62-.22l0-.05-.12.13-.11.13h-.05s0,0,0,0,.07-.33.23-1c0,0,0,0,.08,0h0a.05.05,0,0,1,0,0,.08.08,0,0,1,0,0,.28.28,0,0,1,0,.08.53.53,0,0,0,0,.13.67.67,0,0,0,.07.27.4.4,0,0,0,.18.16.9.9,0,0,0,.21.08Z"/><path class="cls-11" d="M43.75,37.05c-.09,0-.14,0-.14,0s0,0,0,0a.16.16,0,0,1,0-.13h.06l.51,0a6.41,6.41,0,0,0,.66,0h0l0,0a.26.26,0,0,1,0,.07.22.22,0,0,1,0,.08h-.16a.92.92,0,0,0-.33,0,.38.38,0,0,0-.05.11c0,.06-.11.42-.27,1.07-.05.17-.09.36-.14.55s-.09.35-.11.45l0,.14s0,0,0,0h.51l.2,0a.52.52,0,0,0,.2-.07.73.73,0,0,0,.18-.14.65.65,0,0,0,.17-.22,1.11,1.11,0,0,0,.12-.27l.07-.17h.12l0,0-.08.24-.18.49c-.07.17-.1.27-.11.3v0H43.3c-.23,0-.34,0-.34,0a.07.07,0,0,1,0,0c0-.06,0-.08,0-.09h.08l.24,0a.09.09,0,0,0,.08,0s.11-.39.29-1.13.28-1.12.28-1.16S43.91,37.06,43.75,37.05Z"/><path class="cls-11" d="M32.15,45.09c-.07,0-.11,0-.11-.05a.61.61,0,0,1,.09-.26,2,2,0,0,1,.22-.35,1.22,1.22,0,0,1,.37-.3,1,1,0,0,1,.44-.13h.19a.82.82,0,0,1,.45.31,2.15,2.15,0,0,1,.3.75,2.06,2.06,0,0,1,.08.49s0,0,0,0l.07-.16c.07-.19.16-.39.25-.61l.25-.52a1.48,1.48,0,0,1,.13-.22h.16s0,0,0,.06l-.12.25c-.08.15-.2.39-.34.72s-.28.68-.41,1a1.79,1.79,0,0,0-.08.37,3.85,3.85,0,0,1-.12.61,3.89,3.89,0,0,1-.15.51c0,.1-.1.15-.16.15s-.09,0-.09-.16a5.85,5.85,0,0,1,.3-1.26l0-.11v-.1A.81.81,0,0,0,34,46a1.77,1.77,0,0,0-.33-1.24.73.73,0,0,0-.54-.22.89.89,0,0,0-.5.15.78.78,0,0,0-.33.39.12.12,0,0,1,0,0Z"/><path class="cls-11" d="M35.87,44.8h-.15v0a.18.18,0,0,1,0-.14H37a0,0,0,0,1,0,0v.08l0,.07h-.15a1.11,1.11,0,0,0-.33,0s0,0-.06.11-.11.42-.27,1.07l-.14.56c0,.19-.08.34-.11.44l0,.15h.55l.2,0,.2-.07.18-.14a1.28,1.28,0,0,0,.17-.22q.06-.12.12-.27a1.47,1.47,0,0,1,.07-.17.1.1,0,0,1,.07,0h0l0,0a2.51,2.51,0,0,1-.08.24q-.07.22-.18.48a2.3,2.3,0,0,0-.1.3l0,0-.06,0H35.41c-.23,0-.34,0-.34,0a.13.13,0,0,1,0-.06.19.19,0,0,1,0-.09h.33a.1.1,0,0,0,.07,0s.11-.39.3-1.12.28-1.13.28-1.17S36,44.81,35.87,44.8Z"/></g><text class="cls-12" transform="translate(11.47 5.74) scale(0.58)"><tspan class="cls-13">Y</tspan><tspan x="6.22" y="0">oung</tspan><tspan class="cls-14" x="26.22" y="0">’</tspan><tspan class="cls-15" x="29" y="0">s law</tspan></text></svg>