<?xml version="1.0" encoding="utf-8"?>
<!-- Generator: Adobe Illustrator 25.2.0, SVG Export Plug-In . SVG Version: 6.00 Build 0)  -->
<svg version="1.1" id="图层_1" xmlns="http://www.w3.org/2000/svg" xmlns:xlink="http://www.w3.org/1999/xlink" x="0px" y="0px"
	 viewBox="0 0 280 280" style="enable-background:new 0 0 280 280;" xml:space="preserve">
<style type="text/css">
	.st0{fill:#0078D7;}
	.st1{fill:#FFFFFF;}
</style>
<rect class="st0" width="280" height="280"/>
<g>
	<path class="st1" d="M38.43,137.5h17.85c0.39-5.97,0.02-18.82,0.09-27.9h-8.73c-2.44,5.35-4.72,9.75-9.22,11.46
		c-3.88,1.47-5.24,0.78-6.83,0.59c1.97,0.24,8.73-24.31,12.05-28.72c3.48-4.63,9.27-4.63,9.27-4.63c-0.44,5.13-2.98,11.71-3.96,13.9
		h33.12l0.03,7.41H64.15c-0.07,8.96,0.33,21.8,0.01,27.9h20.7l-0.09,7.5l-20.92-0.12c-0.2,1.69-0.37,5.56-0.57,7.06
		c0,0,11,11.51,16.84,18.97v12.83c-6.23-8.3-19.22-23.79-19.22-23.79c-7.83,19.86-18.74,27.03-18.74,27.03H30
		c0,0,23.78-26.08,25.6-41.97H30.77L38.43,137.5z M88.77,101.71h41.46v74.89l-16.86,0.07l-12.58,10.3l-5.1-10.36h-6.93V101.71z
		 M122.54,108.92H96.46v58.88h1.5l4.45,9.26l11.48-9.26h8.65V108.92z"/>
	<path class="st1" d="M147.48,141.84h48.48v-38.64c-11.81,0.55-24.79,1.1-38.93,1.65c-0.39-2.34-5.74-8.25-5.74-8.25
		c70.79-5.07,70.78-5.1,94.53-7.1l0.64,11.03c-10.48,0.78-26.44,1.56-40.68,2.28v39.03H250v8.87h-44.23v20.59
		c0,9.54-5.59,20.41-15.13,20.41c-3.18,0-10.77-0.44-10.77-0.44l-10.34-10.02c0,0,14.63,1.06,18.84,1.06
		c5.13,0.07,7.66-7.21,7.59-12.47v-19.14h-44.67L147.48,141.84z M160.56,115.18l6.32-4.19c4.61,5.45,9.44,11.71,14.5,18.79
		l-7.3,4.96C169.35,127.28,164.84,120.76,160.56,115.18z M218.48,129.88c4.8-5.52,7.64-10.61,12.51-18.07l10.52,1.14
		c-4.8,6.81-11.28,15.5-16.6,21.79L218.48,129.88z"/>
</g>
</svg>
