<svg id="图层_1" data-name="图层 1" xmlns="http://www.w3.org/2000/svg" xmlns:xlink="http://www.w3.org/1999/xlink" viewBox="0 0 236.64 288"><defs><style>.cls-1,.cls-3,.cls-4,.cls-5,.cls-6{fill:none;}.cls-2{clip-path:url(#clip-path);}.cls-3,.cls-4,.cls-5,.cls-6{stroke:#000;stroke-linecap:square;stroke-miterlimit:10;}.cls-3{stroke-width:1.39px;}.cls-4{stroke-width:0.7px;}.cls-5{stroke-width:1.04px;}.cls-6{stroke-width:0;}</style><clipPath id="clip-path"><rect class="cls-1" width="236.64" height="288"/></clipPath></defs><g class="cls-2"><line class="cls-3" x1="234.74" y1="270.72" x2="29.63" y2="270.72"/><line class="cls-3" x1="29.63" y1="270.72" x2="29.63" y2="1.91"/><line class="cls-3" x1="29.63" y1="1.91" x2="234.74" y2="1.91"/><line class="cls-3" x1="234.74" y1="1.91" x2="234.74" y2="270.72"/></g><line class="cls-4" x1="235.09" y1="69.07" x2="230.65" y2="69.07"/><line class="cls-4" x1="227.77" y1="69.07" x2="222.19" y2="69.07"/><line class="cls-4" x1="219.41" y1="69.07" x2="213.74" y2="69.07"/><line class="cls-4" x1="210.95" y1="69.07" x2="205.38" y2="69.07"/><line class="cls-4" x1="202.59" y1="69.07" x2="196.93" y2="69.07"/><line class="cls-4" x1="194.14" y1="69.07" x2="188.56" y2="69.07"/><line class="cls-4" x1="185.69" y1="69.07" x2="180.11" y2="69.07"/><line class="cls-4" x1="177.32" y1="69.07" x2="171.74" y2="69.07"/><line class="cls-4" x1="168.87" y1="69.07" x2="163.29" y2="69.07"/><line class="cls-4" x1="160.5" y1="69.07" x2="154.84" y2="69.07"/><line class="cls-4" x1="152.05" y1="69.07" x2="146.47" y2="69.07"/><line class="cls-4" x1="143.69" y1="69.07" x2="138.02" y2="69.07"/><line class="cls-4" x1="135.23" y1="69.07" x2="129.66" y2="69.07"/><line class="cls-4" x1="126.78" y1="69.07" x2="121.21" y2="69.07"/><line class="cls-4" x1="118.42" y1="69.07" x2="112.75" y2="69.07"/><line class="cls-4" x1="109.97" y1="69.07" x2="104.39" y2="69.07"/><line class="cls-4" x1="101.6" y1="69.07" x2="95.94" y2="69.07"/><line class="cls-4" x1="93.15" y1="69.07" x2="87.57" y2="69.07"/><line class="cls-4" x1="84.7" y1="69.07" x2="79.12" y2="69.07"/><line class="cls-4" x1="76.33" y1="69.07" x2="70.67" y2="69.07"/><line class="cls-4" x1="67.88" y1="69.07" x2="62.3" y2="69.07"/><line class="cls-4" x1="59.51" y1="69.07" x2="53.85" y2="69.07"/><line class="cls-4" x1="51.06" y1="69.07" x2="45.49" y2="69.07"/><line class="cls-4" x1="42.7" y1="69.07" x2="37.03" y2="69.07"/><line class="cls-4" x1="34.25" y1="69.07" x2="29.63" y2="69.07"/><line class="cls-4" x1="235.09" y1="136.31" x2="230.65" y2="136.31"/><line class="cls-4" x1="227.77" y1="136.31" x2="222.2" y2="136.31"/><line class="cls-4" x1="219.41" y1="136.31" x2="213.74" y2="136.31"/><line class="cls-4" x1="210.96" y1="136.31" x2="205.38" y2="136.31"/><line class="cls-4" x1="202.59" y1="136.31" x2="196.93" y2="136.31"/><line class="cls-4" x1="194.14" y1="136.31" x2="188.56" y2="136.31"/><line class="cls-4" x1="185.69" y1="136.31" x2="180.11" y2="136.31"/><line class="cls-4" x1="177.32" y1="136.31" x2="171.75" y2="136.31"/><line class="cls-4" x1="168.87" y1="136.31" x2="163.29" y2="136.31"/><line class="cls-4" x1="160.5" y1="136.31" x2="154.84" y2="136.31"/><line class="cls-4" x1="152.05" y1="136.31" x2="146.48" y2="136.31"/><line class="cls-4" x1="143.69" y1="136.31" x2="138.02" y2="136.31"/><line class="cls-4" x1="135.24" y1="136.31" x2="129.66" y2="136.31"/><line class="cls-4" x1="126.78" y1="136.31" x2="121.21" y2="136.31"/><line class="cls-4" x1="118.42" y1="136.31" x2="112.75" y2="136.31"/><line class="cls-4" x1="109.97" y1="136.31" x2="104.39" y2="136.31"/><line class="cls-4" x1="101.6" y1="136.31" x2="95.94" y2="136.31"/><line class="cls-4" x1="93.15" y1="136.31" x2="87.57" y2="136.31"/><line class="cls-4" x1="84.7" y1="136.31" x2="79.12" y2="136.31"/><line class="cls-4" x1="76.33" y1="136.31" x2="70.67" y2="136.31"/><line class="cls-4" x1="67.88" y1="136.31" x2="62.3" y2="136.31"/><line class="cls-4" x1="59.52" y1="136.31" x2="53.85" y2="136.31"/><line class="cls-4" x1="51.06" y1="136.31" x2="45.49" y2="136.31"/><line class="cls-4" x1="42.7" y1="136.31" x2="37.03" y2="136.31"/><line class="cls-4" x1="34.25" y1="136.31" x2="29.63" y2="136.31"/><line class="cls-4" x1="235.09" y1="203.56" x2="230.65" y2="203.56"/><line class="cls-4" x1="227.77" y1="203.56" x2="222.2" y2="203.56"/><line class="cls-4" x1="219.41" y1="203.56" x2="213.75" y2="203.56"/><line class="cls-4" x1="210.96" y1="203.56" x2="205.38" y2="203.56"/><line class="cls-4" x1="202.59" y1="203.56" x2="196.93" y2="203.56"/><line class="cls-4" x1="194.14" y1="203.56" x2="188.56" y2="203.56"/><line class="cls-4" x1="185.69" y1="203.56" x2="180.11" y2="203.56"/><line class="cls-4" x1="177.32" y1="203.56" x2="171.75" y2="203.56"/><line class="cls-4" x1="168.87" y1="203.56" x2="163.29" y2="203.56"/><line class="cls-4" x1="160.51" y1="203.56" x2="154.84" y2="203.56"/><line class="cls-4" x1="152.05" y1="203.56" x2="146.48" y2="203.56"/><line class="cls-4" x1="143.69" y1="203.56" x2="138.03" y2="203.56"/><line class="cls-4" x1="135.24" y1="203.56" x2="129.66" y2="203.56"/><line class="cls-4" x1="126.78" y1="203.56" x2="121.21" y2="203.56"/><line class="cls-4" x1="118.42" y1="203.56" x2="112.76" y2="203.56"/><line class="cls-4" x1="109.97" y1="203.56" x2="104.39" y2="203.56"/><line class="cls-4" x1="101.6" y1="203.56" x2="95.94" y2="203.56"/><line class="cls-4" x1="93.15" y1="203.56" x2="87.57" y2="203.56"/><line class="cls-4" x1="84.7" y1="203.56" x2="79.12" y2="203.56"/><line class="cls-4" x1="76.33" y1="203.56" x2="70.67" y2="203.56"/><line class="cls-4" x1="67.88" y1="203.56" x2="62.31" y2="203.56"/><line class="cls-4" x1="59.52" y1="203.56" x2="53.85" y2="203.56"/><line class="cls-4" x1="51.06" y1="203.56" x2="45.49" y2="203.56"/><line class="cls-4" x1="42.7" y1="203.56" x2="37.04" y2="203.56"/><line class="cls-4" x1="34.25" y1="203.56" x2="29.63" y2="203.56"/><line class="cls-5" x1="30.33" y1="68.37" x2="175.84" y2="20.79"/><line class="cls-5" x1="29.28" y1="135.96" x2="36.69" y2="135.79"/><line class="cls-5" x1="36.69" y1="135.79" x2="44.44" y2="135.18"/><line class="cls-5" x1="44.44" y1="135.18" x2="52.28" y2="134.31"/><line class="cls-5" x1="52.28" y1="134.31" x2="60.39" y2="133.09"/><line class="cls-5" x1="60.39" y1="133.09" x2="68.67" y2="131.53"/><line class="cls-5" x1="68.67" y1="131.53" x2="77.03" y2="129.7"/><line class="cls-5" x1="77.03" y1="129.7" x2="85.57" y2="127.61"/><line class="cls-5" x1="85.57" y1="127.61" x2="94.11" y2="125.35"/><line class="cls-5" x1="94.11" y1="125.35" x2="102.65" y2="122.83"/><line class="cls-5" x1="102.65" y1="122.83" x2="111.28" y2="120.04"/><line class="cls-5" x1="111.28" y1="120.04" x2="119.81" y2="117.17"/><line class="cls-5" x1="119.81" y1="117.17" x2="128.27" y2="114.13"/><line class="cls-5" x1="128.27" y1="114.13" x2="136.72" y2="111"/><line class="cls-5" x1="136.72" y1="111" x2="145" y2="107.69"/><line class="cls-5" x1="145" y1="107.69" x2="153.19" y2="104.38"/><line class="cls-5" x1="153.19" y1="104.38" x2="161.12" y2="100.9"/><line class="cls-5" x1="161.12" y1="100.9" x2="168.87" y2="97.51"/><line class="cls-5" x1="168.87" y1="97.51" x2="176.37" y2="94.03"/><line class="cls-5" x1="29.63" y1="201.55" x2="32.24" y2="209.04"/><line class="cls-5" x1="32.24" y1="209.04" x2="33.64" y2="212.69"/><line class="cls-5" x1="33.64" y1="212.69" x2="35.12" y2="216.34"/><line class="cls-5" x1="35.12" y1="216.34" x2="36.6" y2="219.91"/><line class="cls-5" x1="36.6" y1="219.91" x2="38.17" y2="223.3"/><line class="cls-5" x1="38.17" y1="223.3" x2="39.83" y2="226.52"/><line class="cls-5" x1="39.83" y1="226.52" x2="41.57" y2="229.48"/><line class="cls-5" x1="41.57" y1="229.48" x2="43.31" y2="232.18"/><line class="cls-5" x1="43.31" y1="232.18" x2="45.14" y2="234.61"/><line class="cls-5" x1="45.14" y1="234.61" x2="47.06" y2="236.61"/><line class="cls-5" x1="47.06" y1="236.61" x2="48.97" y2="238.35"/><line class="cls-5" x1="48.97" y1="238.35" x2="50.98" y2="239.57"/><line class="cls-5" x1="50.98" y1="239.57" x2="53.07" y2="240.35"/><line class="cls-5" x1="53.07" y1="240.35" x2="55.25" y2="240.61"/><line class="cls-5" x1="55.25" y1="240.61" x2="56.12" y2="240.44"/><line class="cls-5" x1="56.12" y1="240.44" x2="57.34" y2="240.09"/><line class="cls-5" x1="57.34" y1="240.09" x2="58.91" y2="239.39"/><line class="cls-5" x1="58.91" y1="239.39" x2="60.83" y2="238.44"/><line class="cls-5" x1="60.83" y1="238.44" x2="63.09" y2="237.22"/><line class="cls-5" x1="63.09" y1="237.22" x2="65.71" y2="235.74"/><line class="cls-5" x1="65.71" y1="235.74" x2="68.76" y2="234"/><line class="cls-5" x1="68.76" y1="234" x2="72.07" y2="231.91"/><line class="cls-5" x1="72.07" y1="231.91" x2="75.81" y2="229.65"/><line class="cls-5" x1="75.81" y1="229.65" x2="79.82" y2="227.13"/><line class="cls-5" x1="79.82" y1="227.13" x2="84.27" y2="224.26"/><line class="cls-5" x1="84.27" y1="224.26" x2="89.06" y2="221.21"/><line class="cls-5" x1="89.06" y1="221.21" x2="94.29" y2="217.82"/><line class="cls-5" x1="94.29" y1="217.82" x2="99.78" y2="214.17"/><line class="cls-5" x1="99.78" y1="214.17" x2="105.7" y2="210.34"/><line class="cls-5" x1="105.7" y1="210.34" x2="112.06" y2="206.16"/><line class="cls-5" x1="112.06" y1="206.16" x2="118.68" y2="201.73"/><line class="cls-5" x1="118.68" y1="201.73" x2="125.74" y2="197.03"/><line class="cls-5" x1="125.74" y1="197.03" x2="133.24" y2="192.07"/><line class="cls-5" x1="133.24" y1="192.07" x2="141.08" y2="186.94"/><line class="cls-5" x1="141.08" y1="186.94" x2="149.27" y2="181.46"/><line class="cls-5" x1="149.27" y1="181.46" x2="157.89" y2="175.72"/><line class="cls-5" x1="157.9" y1="175.72" x2="166.96" y2="169.71"/><line class="cls-5" x1="166.96" y1="169.71" x2="176.37" y2="163.45"/><path d="M215.84,21.13v2.52h1.74l.26-.08.27-.18.17-.08.26-.35.18-.26v-.79l-.35-.52L218,21h-.26l-.18-.08H216.1L216,21h-.08Zm0,5.57.09.09H216l.09.08h1.48l.79-.26.17-.17.35-.52.09-.27v-.52l-.09-.26-.35-.52-.35-.35-.26-.09h-2.09Zm-1.74.43v-.26h.43l.18-.08H215l.09-.09V21.13L215,21h-.26l-.18-.08h-.43V20.7h3.83l.44.08.69.35.18.26.26.26.09.35.08.26-.08.35-.09.26-.26.26-.18.26-.52.26-.43.09.26.09.35.08.26.18.35.17.26.18.17.34.09.27.09.34-.18.7-.26.26-.17.26-.35.26-.35.18-.44.08Z"/><path class="cls-6" d="M214.1,20.7h3.83l.44.08.69.35.18.26.26.26.09.35.08.26-.08.35-.09.26-.26.26-.18.26-.52.26-.43.09.26.09.35.08.26.18.35.17.26.18.17.34.09.27.09.34-.18.7-.26.26-.17.26-.35.26-.35.18-.44.08H214.1v-.26h.43l.18-.08H215l.09-.09V21.13L215,21h-.26l-.18-.08h-.43Zm2,.26L216,21h-.08l-.09.09v2.52h1.74l.26-.08.27-.18.17-.08.26-.35.18-.26v-.79l-.35-.52L218,21h-.26l-.18-.08Zm-.26,2.95V26.7l.09.09H216l.09.08h1.48l.79-.26.17-.17.35-.52.09-.27v-.52l-.09-.26-.35-.52-.35-.35-.26-.09Z"/><polygon points="182.29 22.87 182.29 22.61 182.47 22.44 183.86 22.44 184.04 22.35 184.21 22.18 184.3 22 186.13 14.61 186.21 14.43 186.21 14.17 184.65 14.17 184.21 14.26 183.86 14.35 183.51 14.61 183.43 14.69 183.25 14.95 183.16 15.13 182.99 15.39 182.9 15.74 182.82 16 182.64 16.35 182.55 16.61 182.38 16.78 182.21 16.78 182.21 16.69 182.12 16.69 182.12 16.61 182.38 15.91 182.55 15.21 182.82 14.61 183.08 13.91 183.25 13.74 190.66 13.74 190.66 13.91 190.22 16.61 190.13 16.69 190.13 16.78 189.87 16.78 189.79 16.69 189.79 16.61 189.87 16.35 189.87 16 189.96 15.39 189.96 14.95 189.87 14.69 189.87 14.61 189.61 14.35 188.91 14.17 187.35 14.17 187.26 14.35 187.26 14.61 185.43 22 185.34 22.18 185.6 22.44 187 22.44 187 22.78 186.91 22.87 182.29 22.87"/><polygon class="cls-6" points="183.25 13.74 190.66 13.74 190.66 13.91 190.22 16.61 190.13 16.69 190.13 16.78 189.87 16.78 189.79 16.69 189.79 16.61 189.87 16.35 189.87 16 189.96 15.39 189.96 14.95 189.87 14.69 189.87 14.61 189.61 14.35 188.91 14.17 187.35 14.17 187.26 14.35 187.26 14.61 185.43 22 185.34 22.18 185.6 22.44 187 22.44 187 22.78 186.91 22.87 182.29 22.87 182.29 22.61 182.47 22.44 183.86 22.44 184.04 22.35 184.21 22.18 184.3 22 186.13 14.61 186.21 14.43 186.21 14.17 184.65 14.17 184.21 14.26 183.86 14.35 183.51 14.61 183.43 14.69 183.25 14.95 183.16 15.13 182.99 15.39 182.9 15.74 182.82 16 182.64 16.35 182.55 16.61 182.38 16.78 182.21 16.78 182.21 16.69 182.12 16.69 182.12 16.61 182.38 15.91 182.55 15.21 182.82 14.61 183.08 13.91 183.25 13.74"/><polygon points="207.3 22.87 207.3 22.61 207.47 22.44 208.87 22.44 209.04 22.35 209.22 22.18 209.31 22 211.13 14.61 211.22 14.43 211.22 14.17 209.65 14.17 209.22 14.26 208.87 14.35 208.52 14.61 208.43 14.69 208.26 14.95 208.17 15.13 208 15.39 207.91 15.74 207.82 16 207.65 16.35 207.56 16.61 207.39 16.78 207.21 16.78 207.21 16.69 207.13 16.69 207.13 16.61 207.39 15.91 207.56 15.21 207.82 14.61 208.09 13.91 208.26 13.74 215.67 13.74 215.67 13.91 215.23 16.61 215.14 16.69 215.14 16.78 214.88 16.78 214.79 16.69 214.79 16.61 214.88 16.35 214.88 16 214.97 15.39 214.97 14.95 214.88 14.69 214.88 14.61 214.62 14.35 213.92 14.17 212.35 14.17 212.27 14.35 212.27 14.61 210.44 22 210.35 22.18 210.61 22.44 212.01 22.44 212.01 22.78 211.92 22.87 207.3 22.87"/><polygon class="cls-6" points="208.26 13.74 215.67 13.74 215.67 13.91 215.23 16.61 215.14 16.69 215.14 16.78 214.88 16.78 214.79 16.69 214.79 16.61 214.88 16.35 214.88 16 214.97 15.39 214.97 14.95 214.88 14.69 214.88 14.61 214.62 14.35 213.92 14.17 212.35 14.17 212.27 14.35 212.27 14.61 210.44 22 210.35 22.18 210.61 22.44 212.01 22.44 212.01 22.78 211.92 22.87 207.3 22.87 207.3 22.61 207.47 22.44 208.87 22.44 209.04 22.35 209.22 22.18 209.31 22 211.13 14.61 211.22 14.43 211.22 14.17 209.65 14.17 209.22 14.26 208.87 14.35 208.52 14.61 208.43 14.69 208.26 14.95 208.17 15.13 208 15.39 207.91 15.74 207.82 16 207.65 16.35 207.56 16.61 207.39 16.78 207.21 16.78 207.21 16.69 207.13 16.69 207.13 16.61 207.39 15.91 207.56 15.21 207.82 14.61 208.09 13.91 208.26 13.74"/><polygon points="194.93 23.39 194.75 23.22 194.75 22.96 194.84 22.87 202.07 19.48 194.84 16.09 194.75 16 194.75 15.74 194.93 15.56 195.01 15.56 195.1 15.65 202.77 19.22 202.94 19.39 202.94 19.65 202.86 19.65 202.77 19.74 195.1 23.39 194.93 23.39"/><polygon class="cls-6" points="194.93 15.56 195.01 15.56 195.1 15.65 202.77 19.22 202.94 19.39 202.94 19.65 202.86 19.65 202.77 19.74 195.1 23.39 194.93 23.39 194.75 23.22 194.75 22.96 194.84 22.87 202.07 19.48 194.84 16.09 194.75 16 194.75 15.74 194.93 15.56"/><path d="M215.84,95.68v2.53h1.74l.26-.09.27-.18.17-.08.26-.35.18-.26v-.78l-.35-.53L218,95.6h-.26l-.18-.09H216.1l-.09.09h-.08Zm0,5.57.09.09H216l.09.08h1.48l.79-.26.17-.17.35-.52.09-.26v-.53l-.09-.26-.35-.52-.35-.35-.26-.08h-2.09Zm-1.74.44v-.27h.43l.18-.08H215l.09-.09V95.68L215,95.6h-.26l-.18-.09h-.43v-.26h3.83l.44.08.69.35.18.26.26.26.09.35.08.26-.08.35-.09.26-.26.26-.18.26-.52.27-.43.08.26.09.35.09.26.17.35.17.26.18.17.35.09.26.09.35-.18.69-.26.26-.17.26-.35.26-.35.18-.44.09Z"/><path class="cls-6" d="M214.1,95.25h3.83l.44.08.69.35.18.26.26.26.09.35.08.26-.08.35-.09.26-.26.26-.18.26-.52.27-.43.08.26.09.35.09.26.17.35.17.26.18.17.35.09.26.09.35-.18.69-.26.26-.17.26-.35.26-.35.18-.44.09H214.1v-.27h.43l.18-.08H215l.09-.09V95.68L215,95.6h-.26l-.18-.09h-.43Zm2,.26-.09.09h-.08l-.09.08v2.53h1.74l.26-.09.27-.18.17-.08.26-.35.18-.26v-.78l-.35-.53L218,95.6h-.26l-.18-.09Zm-.26,3v2.78l.09.09H216l.09.08h1.48l.79-.26.17-.17.35-.52.09-.26v-.53l-.09-.26-.35-.52-.35-.35-.26-.08Z"/><polygon points="182.29 97.51 182.29 97.25 182.47 97.08 183.86 97.08 184.04 96.99 184.21 96.81 184.3 96.64 186.13 89.25 186.21 89.07 186.21 88.81 184.65 88.81 184.21 88.9 183.86 88.98 183.51 89.25 183.43 89.33 183.25 89.59 183.16 89.77 182.99 90.03 182.9 90.38 182.82 90.64 182.64 90.98 182.55 91.25 182.38 91.42 182.21 91.42 182.21 91.33 182.12 91.33 182.12 91.25 182.38 90.55 182.55 89.85 182.82 89.25 183.08 88.55 183.25 88.38 190.66 88.38 190.66 88.55 190.22 91.25 190.13 91.33 190.13 91.42 189.87 91.42 189.79 91.33 189.79 91.25 189.87 90.98 189.87 90.64 189.96 90.03 189.96 89.59 189.87 89.33 189.87 89.25 189.61 88.98 188.91 88.81 187.35 88.81 187.26 88.98 187.26 89.25 185.43 96.64 185.34 96.81 185.6 97.08 187 97.08 187 97.42 186.91 97.51 182.29 97.51"/><polygon class="cls-6" points="183.25 88.38 190.66 88.38 190.66 88.55 190.22 91.25 190.13 91.33 190.13 91.42 189.87 91.42 189.79 91.33 189.79 91.25 189.87 90.98 189.87 90.64 189.96 90.03 189.96 89.59 189.87 89.33 189.87 89.25 189.61 88.98 188.91 88.81 187.35 88.81 187.26 88.98 187.26 89.25 185.43 96.64 185.34 96.81 185.6 97.08 187 97.08 187 97.42 186.91 97.51 182.29 97.51 182.29 97.25 182.47 97.08 183.86 97.08 184.04 96.99 184.21 96.81 184.3 96.64 186.13 89.25 186.21 89.07 186.21 88.81 184.65 88.81 184.21 88.9 183.86 88.98 183.51 89.25 183.43 89.33 183.25 89.59 183.16 89.77 182.99 90.03 182.9 90.38 182.82 90.64 182.64 90.98 182.56 91.25 182.38 91.42 182.21 91.42 182.21 91.33 182.12 91.33 182.12 91.25 182.38 90.55 182.56 89.85 182.82 89.25 183.08 88.55 183.25 88.38"/><polygon points="207.3 97.51 207.3 97.25 207.47 97.07 208.87 97.07 209.04 96.99 209.22 96.81 209.31 96.64 211.13 89.25 211.22 89.07 211.22 88.81 209.65 88.81 209.22 88.9 208.87 88.98 208.52 89.25 208.43 89.33 208.26 89.59 208.17 89.77 208 90.03 207.91 90.38 207.82 90.64 207.65 90.98 207.56 91.25 207.39 91.42 207.21 91.42 207.21 91.33 207.13 91.33 207.13 91.25 207.39 90.55 207.56 89.85 207.82 89.25 208.09 88.55 208.26 88.38 215.67 88.38 215.67 88.55 215.23 91.25 215.14 91.33 215.14 91.42 214.88 91.42 214.79 91.33 214.79 91.25 214.88 90.98 214.88 90.64 214.97 90.03 214.97 89.59 214.88 89.33 214.88 89.25 214.62 88.98 213.92 88.81 212.35 88.81 212.27 88.98 212.27 89.25 210.44 96.64 210.35 96.81 210.61 97.07 212.01 97.07 212.01 97.42 211.92 97.51 207.3 97.51"/><polygon class="cls-6" points="208.26 88.38 215.67 88.38 215.67 88.55 215.23 91.25 215.14 91.33 215.14 91.42 214.88 91.42 214.79 91.33 214.79 91.25 214.88 90.98 214.88 90.64 214.97 90.03 214.97 89.59 214.88 89.33 214.88 89.25 214.62 88.98 213.92 88.81 212.35 88.81 212.27 88.98 212.27 89.25 210.44 96.64 210.35 96.81 210.61 97.07 212.01 97.07 212.01 97.42 211.92 97.51 207.3 97.51 207.3 97.25 207.47 97.07 208.87 97.07 209.04 96.99 209.22 96.81 209.31 96.64 211.13 89.25 211.22 89.07 211.22 88.81 209.65 88.81 209.22 88.9 208.87 88.98 208.52 89.25 208.43 89.33 208.26 89.59 208.17 89.77 208 90.03 207.91 90.38 207.82 90.64 207.65 90.98 207.56 91.25 207.39 91.42 207.21 91.42 207.21 91.33 207.13 91.33 207.13 91.25 207.39 90.55 207.56 89.85 207.82 89.25 208.09 88.55 208.26 88.38"/><path d="M194.49,93.07l-.17-.17v-.18l.17-.17h8.63l.09.09.08.17-.08.09V93l-.09.08Zm0,2.61-.17-.17v-.18l.17-.17h8.63l.09.09.08.17-.08.09v.09l-.09.08Z"/><path class="cls-6" d="M194.49,92.55h8.63l.09.09.08.17-.08.09V93l-.09.08h-8.63l-.17-.17v-.18Zm0,2.61h8.63l.09.09.08.17-.08.09v.09l-.09.08h-8.63l-.17-.17v-.18Z"/><path d="M215.84,164.84v2.52h1.74l.26-.08.27-.18.17-.08.26-.35.18-.26v-.79l-.35-.52-.35-.35h-.26l-.18-.08H216.1l-.09.08h-.08Zm0,5.57.09.09H216l.09.08h1.48l.79-.26.17-.17.35-.52.09-.27v-.52l-.09-.26-.35-.52-.35-.35-.26-.09h-2.09Zm-1.74.43v-.26h.43l.18-.08H215l.09-.09v-5.57l-.09-.09h-.26l-.18-.08h-.43v-.26h3.83l.44.08.69.35.18.26.26.26.09.35.08.26-.08.35-.09.26-.26.26-.18.26-.52.26-.43.09.26.09.35.08.26.18.35.17.26.18.17.34.09.27.09.34-.18.7-.26.26-.17.26-.35.26-.35.18-.44.08Z"/><path class="cls-6" d="M214.1,164.41h3.83l.44.08.69.35.18.26.26.26.09.35.08.26-.08.35-.09.26-.26.26-.18.26-.52.26-.43.09.26.09.35.08.26.18.35.17.26.18.17.34.09.27.09.34-.18.7-.26.26-.17.26-.35.26-.35.18-.44.08H214.1v-.26h.43l.18-.08H215l.09-.09v-5.57l-.09-.09h-.26l-.18-.08h-.43Zm2,.26-.09.08h-.08l-.09.09v2.52h1.74l.26-.08.27-.18.17-.08.26-.35.18-.26v-.79l-.35-.52-.35-.35h-.26l-.18-.08Zm-.26,3v2.79l.09.09H216l.09.08h1.48l.79-.26.17-.17.35-.52.09-.27v-.52l-.09-.26-.35-.52-.35-.35-.26-.09Z"/><polygon points="182.29 166.58 182.29 166.32 182.47 166.15 183.86 166.15 184.04 166.06 184.21 165.88 184.3 165.71 186.13 158.32 186.21 158.14 186.21 157.88 184.65 157.88 184.21 157.97 183.86 158.06 183.51 158.32 183.43 158.4 183.25 158.66 183.16 158.84 182.99 159.1 182.9 159.45 182.82 159.71 182.64 160.06 182.56 160.32 182.38 160.49 182.21 160.49 182.21 160.4 182.12 160.4 182.12 160.32 182.38 159.62 182.56 158.93 182.82 158.32 183.08 157.62 183.25 157.45 190.66 157.45 190.66 157.62 190.22 160.32 190.13 160.4 190.13 160.49 189.87 160.49 189.79 160.4 189.79 160.32 189.87 160.06 189.87 159.71 189.96 159.1 189.96 158.66 189.87 158.4 189.87 158.32 189.61 158.06 188.92 157.88 187.35 157.88 187.26 158.06 187.26 158.32 185.43 165.71 185.34 165.88 185.6 166.15 187 166.15 187 166.49 186.91 166.58 182.29 166.58"/><polygon class="cls-6" points="183.25 157.45 190.66 157.45 190.66 157.62 190.22 160.32 190.13 160.4 190.13 160.49 189.87 160.49 189.79 160.4 189.79 160.32 189.87 160.06 189.87 159.71 189.96 159.1 189.96 158.66 189.87 158.4 189.87 158.32 189.61 158.06 188.92 157.88 187.35 157.88 187.26 158.06 187.26 158.32 185.43 165.71 185.34 165.88 185.6 166.15 187 166.15 187 166.49 186.91 166.58 182.29 166.58 182.29 166.32 182.47 166.15 183.86 166.15 184.04 166.06 184.21 165.88 184.3 165.71 186.13 158.32 186.21 158.14 186.21 157.88 184.65 157.88 184.21 157.97 183.86 158.06 183.51 158.32 183.43 158.4 183.25 158.66 183.16 158.84 182.99 159.1 182.9 159.45 182.82 159.71 182.64 160.06 182.56 160.32 182.38 160.49 182.21 160.49 182.21 160.4 182.12 160.4 182.12 160.32 182.38 159.62 182.56 158.93 182.82 158.32 183.08 157.62 183.25 157.45"/><polygon points="207.3 166.58 207.3 166.32 207.47 166.15 208.87 166.15 209.04 166.06 209.22 165.88 209.31 165.71 211.13 158.32 211.22 158.14 211.22 157.88 209.65 157.88 209.22 157.97 208.87 158.06 208.52 158.32 208.43 158.4 208.26 158.66 208.17 158.84 208 159.1 207.91 159.45 207.82 159.71 207.65 160.06 207.56 160.32 207.39 160.49 207.21 160.49 207.21 160.4 207.13 160.4 207.13 160.32 207.39 159.62 207.56 158.93 207.82 158.32 208.09 157.62 208.26 157.45 215.67 157.45 215.67 157.62 215.23 160.32 215.14 160.4 215.14 160.49 214.88 160.49 214.79 160.4 214.79 160.32 214.88 160.06 214.88 159.71 214.97 159.1 214.97 158.66 214.88 158.4 214.88 158.32 214.62 158.06 213.92 157.88 212.35 157.88 212.27 158.06 212.27 158.32 210.44 165.71 210.35 165.88 210.61 166.15 212.01 166.15 212.01 166.49 211.92 166.58 207.3 166.58"/><polygon class="cls-6" points="208.26 157.45 215.67 157.45 215.67 157.62 215.23 160.32 215.14 160.4 215.14 160.49 214.88 160.49 214.79 160.4 214.79 160.32 214.88 160.06 214.88 159.71 214.97 159.1 214.97 158.66 214.88 158.4 214.88 158.32 214.62 158.06 213.92 157.88 212.35 157.88 212.27 158.06 212.27 158.32 210.44 165.71 210.35 165.88 210.61 166.15 212.01 166.15 212.01 166.49 211.92 166.58 207.3 166.58 207.3 166.32 207.47 166.15 208.87 166.15 209.04 166.06 209.22 165.88 209.31 165.71 211.13 158.32 211.22 158.14 211.22 157.88 209.65 157.88 209.22 157.97 208.87 158.06 208.52 158.32 208.43 158.4 208.26 158.66 208.17 158.84 208 159.1 207.91 159.45 207.82 159.71 207.65 160.06 207.56 160.32 207.39 160.49 207.21 160.49 207.21 160.4 207.13 160.4 207.13 160.32 207.39 159.62 207.56 158.93 207.82 158.32 208.09 157.62 208.26 157.45"/><polygon points="202.51 167.1 194.84 163.45 194.75 163.36 194.67 163.36 194.67 163.1 194.84 162.93 202.51 159.36 202.6 159.27 202.68 159.27 202.86 159.45 202.86 159.71 202.77 159.79 195.54 163.19 202.77 166.58 202.86 166.67 202.86 166.93 202.68 167.1 202.51 167.1"/><polygon class="cls-6" points="202.6 159.27 202.68 159.27 202.86 159.45 202.86 159.71 202.77 159.79 195.54 163.19 202.77 166.58 202.86 166.67 202.86 166.93 202.68 167.1 202.51 167.1 194.84 163.45 194.75 163.36 194.67 163.36 194.67 163.1 194.84 162.93 202.51 159.36 202.6 159.27"/><polygon points="16.65 129.35 16.65 129.17 16.56 129 16.56 128.74 16.48 128.65 16.48 128.56 13.34 128.56 13.16 128.74 13.16 128.83 13.08 129 13.08 129.35 12.82 129.35 12.73 128.56 12.73 127.96 13.69 127.96 13.43 127.87 13.16 127.69 12.82 127.17 12.73 126.91 12.73 126.13 12.82 125.87 12.99 125.61 13.34 125.43 13.43 125.35 13.6 125.35 12.9 124.83 12.73 124.3 12.73 123.52 12.82 123.26 12.99 123 13.25 122.82 13.51 122.74 16.39 122.74 16.56 122.56 16.56 122.3 16.65 122.13 16.65 121.95 16.91 121.95 16.91 124.13 16.65 124.13 16.65 123.95 16.56 123.78 16.56 123.52 16.48 123.43 16.48 123.35 13.77 123.35 13.51 123.43 13.34 123.43 12.99 123.61 12.99 123.78 12.9 123.87 12.9 124.3 12.99 124.56 13.34 124.91 13.6 125.09 13.77 125.17 14.12 125.26 14.38 125.35 16.39 125.35 16.56 125.17 16.56 124.91 16.65 124.74 16.65 124.56 16.91 124.56 16.91 126.74 16.65 126.74 16.65 126.56 16.56 126.39 16.56 126.13 16.48 126.04 16.48 125.95 13.51 125.95 12.99 126.22 12.99 126.39 12.9 126.48 12.9 126.91 12.99 127.17 13.34 127.52 13.6 127.69 13.77 127.78 14.12 127.87 14.38 127.96 16.39 127.96 16.56 127.78 16.56 127.52 16.65 127.35 16.65 127.17 16.91 127.17 16.91 129.35 16.65 129.35"/><polygon class="cls-6" points="16.65 121.95 16.91 121.95 16.91 124.13 16.65 124.13 16.65 123.95 16.56 123.78 16.56 123.52 16.48 123.43 16.48 123.35 13.77 123.35 13.51 123.43 13.34 123.43 12.99 123.61 12.99 123.78 12.9 123.87 12.9 124.3 12.99 124.56 13.34 124.91 13.6 125.09 13.77 125.17 14.12 125.26 14.38 125.35 16.39 125.35 16.56 125.17 16.56 124.91 16.65 124.74 16.65 124.56 16.91 124.56 16.91 126.74 16.65 126.74 16.65 126.56 16.56 126.39 16.56 126.13 16.48 126.04 16.48 125.95 13.51 125.95 12.99 126.22 12.99 126.39 12.9 126.48 12.9 126.91 12.99 127.17 13.34 127.52 13.6 127.69 13.77 127.78 14.12 127.87 14.38 127.96 16.39 127.96 16.56 127.78 16.56 127.52 16.65 127.35 16.65 127.17 16.91 127.17 16.91 129.35 16.65 129.35 16.65 129.17 16.56 129 16.56 128.74 16.48 128.65 16.48 128.56 13.34 128.56 13.16 128.74 13.16 128.83 13.08 129 13.08 129.35 12.82 129.35 12.73 128.56 12.73 127.96 13.69 127.96 13.43 127.87 13.16 127.69 12.82 127.17 12.73 126.91 12.73 126.13 12.82 125.87 12.99 125.61 13.34 125.43 13.43 125.35 13.6 125.35 12.9 124.83 12.73 124.3 12.73 123.52 12.82 123.26 12.99 123 13.25 122.82 13.51 122.74 16.39 122.74 16.56 122.56 16.56 122.3 16.65 122.13 16.65 121.95"/><path d="M7.33,140.4l-.18.17-.17.09-.09.17V141l.09.34.17.35.26.26.26.35.53.35,3,.69.26-.08h.26l.35-.18.26-.17.09-.18.09-.08v-.52l-.18-.35-.26-.26-.35-.18-.26-.26-.35-.17-.35-.09-.52-.17-.52-.09-.52-.17-.53-.09h-1ZM15,146.05l-.08-.09v-.52l-.09-.17v-.09l-.17-.09-.27-.08L8.2,143.53l-.35-.18H7.06l-.08.18-.09.26L7,144l.17.18.26.17.35.09.44.17.52.09.09.09v.34H8.72l-1.05-.26-.34-.17-.53-.35-.17-.26v-.7l.09-.17.17-.26.17-.18.53-.17-.35-.35-.35-.43-.17-.26-.09-.26v-.61l.09-.26.34-.53.18-.17.78-.26.53-.09h.61l.52.18.43.08.35.09.35.17.52.35.53.44.69.87.18.43.09.52-.09.35-.18.35-.52.35,2.35.61.18.08h.17l.09-.08v-.09l.09-.26v-.61h.26l.09.09v2.78Z"/><path class="cls-6" d="M8.55,139.35h.61l.52.18.43.08.35.09.35.17.52.35.53.44.69.87.18.43.09.52-.09.35-.18.35-.52.35,2.35.61.18.08h.17l.09-.08v-.09l.09-.26v-.61h.26l.09.09v2.78H15l-.08-.09v-.52l-.09-.17v-.09l-.17-.09-.27-.08L8.2,143.53l-.35-.18H7.06l-.08.18-.09.26L7,144l.17.18.26.17.35.09.44.17.52.09.09.09v.34H8.72l-1.05-.26-.34-.17-.53-.35-.17-.26v-.7l.09-.17.17-.26.17-.18.53-.17-.35-.35-.35-.43-.17-.26-.09-.26v-.61l.09-.26.34-.53.18-.17.78-.26Zm-.88,1-.34.09-.18.17-.17.09-.09.17V141l.09.35.17.35.26.26.26.35.53.35,3,.69.26-.08h.26l.35-.18.26-.17.09-.18.09-.08v-.52l-.18-.35-.26-.26-.35-.18-.26-.26-.35-.17-.35-.09-.52-.17-.52-.09-.52-.17-.53-.09Z"/><polygon points="3.4 136.39 3.32 136.31 3.32 133.09 3.58 133.09 3.75 133.26 3.75 133.96 3.84 134.13 4.19 134.31 7.76 133.87 11.34 133.61 4.54 129.61 4.36 129.52 4.01 129.52 3.84 129.7 3.75 129.87 3.75 130.13 3.67 130.22 3.49 130.22 3.32 130.13 3.32 127.61 3.58 127.61 3.75 127.78 3.75 128.22 3.93 128.56 4.63 129.26 12.82 134.05 12.9 134.13 12.9 134.57 12.82 134.57 4.28 135.35 4.1 135.44 3.93 135.44 3.84 135.52 3.75 135.7 3.75 136.39 3.4 136.39"/><polygon class="cls-6" points="3.32 127.61 3.58 127.61 3.75 127.78 3.75 128.22 3.93 128.56 4.63 129.26 12.82 134.05 12.9 134.13 12.9 134.57 12.82 134.57 4.28 135.35 4.1 135.44 3.93 135.44 3.84 135.52 3.75 135.7 3.75 136.39 3.4 136.39 3.32 136.31 3.32 133.09 3.58 133.09 3.75 133.26 3.75 133.96 3.84 134.13 4.19 134.31 7.76 133.87 11.33 133.61 4.54 129.61 4.36 129.52 4.01 129.52 3.84 129.7 3.75 129.87 3.75 130.13 3.67 130.22 3.49 130.22 3.32 130.13 3.32 127.61"/><path d="M136.81,277.76l-.35.17-.35.26-.26.26-.35.52-.69,3,.08.26v.26l.18.35.17.26.17.09.09.08H136l.27-.17.26-.26.26-.35.26-.43.52-1.57.18-1,.08-.35v-.35l-.08-.35-.09-.26-.17-.26-.09-.17h-.18l-.17-.09Zm-2.62,8.43-.6-.08-1.31.08-.09-.08v-.18l.09-.17h.61l.17-.09v-.08l.09-.09.09-.26,1.48-6.27.09-.43v-.44l-.09-.26-.09-.08-.17-.09-.27.09-.17.17-.09.26-.17.35-.09.43-.17.53-.18.17h-.08l-.09-.09v-.43l.09-.35.17-.35.09-.35.17-.26.26-.26.35-.17h.53l.17.09.26.17.17.17.18.53.7-.7.26-.17.35-.09h.61l.26.09.17.17.26.17.18.26.08.27.18.34.09.26v1l-.09.61-.18.61-.26.52-.35.52-.43.52-.35.35-.44.35-.52.17-.43.09h-.27l-.17-.09-.43-.43-.18-.26-.61,2.35v.43h.17l.18.09H135V286l-.17.17Z"/><path class="cls-6" d="M134.28,277.41h.52l.18.09.26.17.17.17.18.53.7-.7.26-.17.35-.09h.61l.26.09.17.17.26.17.18.26.08.27.18.34.09.26v1l-.09.61-.18.61-.26.52-.35.52-.43.52-.35.35-.44.35-.52.17-.43.09h-.27l-.17-.09-.44-.43-.17-.26-.61,2.35v.43h.18l.17.09H135V286l-.18.17h-.6l-.61-.08-1.31.08-.09-.08v-.18l.09-.17h.61l.17-.09v-.08l.09-.09.09-.26,1.48-6.27.08-.43v-.44l-.08-.26-.09-.08-.17-.09-.26.09-.18.17-.09.26-.17.35-.09.43-.17.53-.18.17h-.08l-.09-.09v-.43l.09-.35.17-.35.09-.35.17-.26.26-.26Zm2.79.26-.26.09-.35.17-.35.26-.26.26-.35.52-.7,3,.09.26v.26l.18.35.17.26.17.09.09.08H136l.27-.17.26-.26.26-.35.26-.43.52-1.57.18-1,.08-.35v-.35l-.08-.35-.09-.26-.17-.26-.09-.17h-.18Z"/><path d="M21.09,271.49l-.43.18-.52.43-.53.52-.52.79-.44.78-.52,1.65-.35,1.74.09.87.17.78.18.44.17.26.26.35.27.17.34.18h.88l.87-.35.52-.44.52-.61.61-.78.44-.87.52-1.74.26-1.65v-.78l-.26-.79-.35-.69-.26-.26-.35-.18-.7-.17Zm-2.26,9.4-.7-.26-.35-.26-.35-.35-.26-.44-.35-.78-.17-.87v-1l.17-1,.27-1,.43-1,.61-.87.7-.78.7-.61.78-.43.87-.35.87-.09.79.09.69.35.35.26.35.34.26.44.35.78.17.87v1l-.17,1-.26,1-.52,1-.53.87-.69.78-.79.61-.78.44-.79.26-.87.08Z"/><path class="cls-6" d="M22.05,271l.79.09.69.35.35.26.35.34.26.44.35.78.17.87v1l-.17,1-.26,1-.52,1-.53.87-.69.78-.79.61-.78.44-.79.26-.87.08-.78-.08-.7-.26-.35-.26-.35-.35-.26-.44-.35-.78-.17-.87v-1l.17-1,.27-1,.43-1,.61-.87.7-.78.7-.61.78-.43.87-.35Zm-.08.35-.88.17-.43.18-.52.43-.53.52-.52.79-.44.78-.52,1.65-.35,1.74.09.87.17.78.18.44.17.26.26.35.27.17.34.18h.88l.87-.35.52-.44.52-.61.61-.78.44-.87.52-1.74.26-1.65v-.78l-.26-.79-.35-.69-.26-.26-.35-.18Z"/></svg>