<svg id="图层_1" data-name="图层 1" xmlns="http://www.w3.org/2000/svg" xmlns:xlink="http://www.w3.org/1999/xlink" viewBox="0 0 254 303"><defs><style>.cls-1,.cls-3,.cls-4,.cls-5{fill:none;}.cls-2{clip-path:url(#clip-path);}.cls-3,.cls-4,.cls-5{stroke:#000;stroke-linecap:square;stroke-miterlimit:10;}.cls-3{stroke-width:1.25px;}.cls-4{stroke-width:0.89px;}.cls-5{stroke-width:0;}</style><clipPath id="clip-path"><rect class="cls-1" y="4.44" width="246.96" height="294"/></clipPath></defs><g class="cls-2"><line class="cls-3" x1="245.18" y1="274.82" x2="25.54" y2="274.82"/><line class="cls-3" x1="25.54" y1="274.82" x2="25.54" y2="5.06"/><line class="cls-3" x1="25.54" y1="5.06" x2="245.18" y2="5.06"/><line class="cls-3" x1="245.18" y1="5.06" x2="245.18" y2="274.82"/></g><line class="cls-4" x1="82.05" y1="46.24" x2="85.61" y2="54.61"/><line class="cls-4" x1="85.61" y1="54.61" x2="89.35" y2="62.46"/><line class="cls-4" x1="89.35" y1="62.46" x2="93.27" y2="69.85"/><line class="cls-4" x1="93.27" y1="69.85" x2="97.36" y2="76.8"/><line class="cls-4" x1="97.36" y1="76.8" x2="101.72" y2="83.31"/><line class="cls-4" x1="101.72" y1="83.31" x2="106.17" y2="89.46"/><line class="cls-4" x1="106.17" y1="89.46" x2="110.8" y2="95.16"/><line class="cls-4" x1="110.8" y1="95.16" x2="115.6" y2="100.51"/><line class="cls-4" x1="115.6" y1="100.51" x2="120.59" y2="105.5"/><line class="cls-4" x1="120.59" y1="105.5" x2="125.66" y2="110.13"/><line class="cls-4" x1="125.66" y1="110.13" x2="130.91" y2="114.41"/><line class="cls-4" x1="130.91" y1="114.41" x2="136.34" y2="118.33"/><line class="cls-4" x1="136.34" y1="118.33" x2="141.86" y2="121.99"/><line class="cls-4" x1="141.86" y1="121.99" x2="147.46" y2="125.37"/><line class="cls-4" x1="147.46" y1="125.37" x2="153.25" y2="128.4"/><line class="cls-4" x1="153.25" y1="128.4" x2="159.12" y2="131.25"/><line class="cls-4" x1="159.12" y1="131.25" x2="165.09" y2="133.84"/><line class="cls-4" x1="165.09" y1="133.84" x2="171.23" y2="136.16"/><line class="cls-4" x1="171.23" y1="136.16" x2="177.37" y2="138.3"/><line class="cls-4" x1="177.37" y1="138.3" x2="183.6" y2="140.17"/><line class="cls-4" x1="183.6" y1="140.17" x2="189.92" y2="141.95"/><line class="cls-4" x1="189.92" y1="141.95" x2="196.32" y2="143.46"/><line class="cls-4" x1="69.77" y1="45.97" x2="70.66" y2="53.19"/><line class="cls-4" x1="70.66" y1="53.19" x2="71.55" y2="59.78"/><line class="cls-4" x1="71.55" y1="59.78" x2="72.53" y2="65.75"/><line class="cls-4" x1="72.53" y1="65.75" x2="73.6" y2="71.28"/><line class="cls-4" x1="73.6" y1="71.28" x2="74.67" y2="76.18"/><line class="cls-4" x1="74.67" y1="76.18" x2="75.74" y2="80.64"/><line class="cls-4" x1="75.74" y1="80.64" x2="76.98" y2="84.65"/><line class="cls-4" x1="76.98" y1="84.65" x2="78.23" y2="88.21"/><line class="cls-4" x1="78.23" y1="88.21" x2="79.56" y2="91.51"/><line class="cls-4" x1="79.56" y1="91.51" x2="80.99" y2="94.45"/><line class="cls-4" x1="80.99" y1="94.45" x2="82.5" y2="97.03"/><line class="cls-4" x1="82.5" y1="97.03" x2="84.1" y2="99.35"/><line class="cls-4" x1="84.1" y1="99.35" x2="85.79" y2="101.49"/><line class="cls-4" x1="85.79" y1="101.49" x2="87.66" y2="103.45"/><line class="cls-4" x1="87.66" y1="103.45" x2="89.62" y2="105.32"/><line class="cls-4" x1="89.62" y1="105.32" x2="91.67" y2="107.01"/><line class="cls-4" x1="91.67" y1="107.01" x2="93.89" y2="108.62"/><line class="cls-4" x1="93.89" y1="108.62" x2="96.2" y2="110.22"/><line class="cls-4" x1="96.2" y1="110.22" x2="103.95" y2="115.66"/><line class="cls-4" x1="103.95" y1="115.66" x2="111.33" y2="121.27"/><line class="cls-4" x1="111.33" y1="121.27" x2="118.28" y2="127.16"/><line class="cls-4" x1="118.28" y1="127.16" x2="123.7" y2="130.99"/><line class="cls-4" x1="123.7" y1="130.99" x2="128.78" y2="134.55"/><line class="cls-4" x1="128.78" y1="134.55" x2="133.58" y2="137.76"/><line class="cls-4" x1="133.58" y1="137.76" x2="138.21" y2="140.7"/><line class="cls-4" x1="138.21" y1="140.7" x2="142.48" y2="143.37"/><line class="cls-4" x1="142.48" y1="143.37" x2="146.49" y2="145.69"/><line class="cls-4" x1="146.49" y1="145.69" x2="150.31" y2="147.83"/><line class="cls-4" x1="150.31" y1="147.83" x2="153.87" y2="149.7"/><line class="cls-4" x1="153.87" y1="149.7" x2="157.26" y2="151.31"/><line class="cls-4" x1="157.26" y1="151.31" x2="160.46" y2="152.82"/><line class="cls-4" x1="160.46" y1="152.82" x2="163.4" y2="154.16"/><line class="cls-4" x1="163.4" y1="154.16" x2="166.24" y2="155.23"/><line class="cls-4" x1="166.24" y1="155.23" x2="168.91" y2="156.12"/><line class="cls-4" x1="168.91" y1="156.12" x2="171.49" y2="156.92"/><line class="cls-4" x1="171.49" y1="156.92" x2="173.9" y2="157.63"/><line class="cls-4" x1="173.9" y1="157.63" x2="176.21" y2="158.17"/><line class="cls-4" x1="176.21" y1="158.17" x2="178.44" y2="158.7"/><line class="cls-4" x1="178.44" y1="158.7" x2="180.48" y2="159.06"/><line class="cls-4" x1="180.48" y1="159.06" x2="182.62" y2="159.42"/><line class="cls-4" x1="182.62" y1="159.42" x2="188.49" y2="160.22"/><line class="cls-4" x1="188.49" y1="160.22" x2="190.36" y2="160.49"/><line class="cls-4" x1="190.36" y1="160.49" x2="192.32" y2="160.75"/><line class="cls-4" x1="62.12" y1="46.24" x2="62.21" y2="53.1"/><line class="cls-4" x1="62.21" y1="53.1" x2="62.39" y2="59.69"/><line class="cls-4" x1="62.39" y1="59.69" x2="62.65" y2="66.02"/><line class="cls-4" x1="62.65" y1="66.02" x2="63.01" y2="72.08"/><line class="cls-4" x1="63.01" y1="72.08" x2="63.37" y2="77.87"/><line class="cls-4" x1="63.37" y1="77.87" x2="63.9" y2="83.4"/><line class="cls-4" x1="63.9" y1="83.4" x2="64.52" y2="88.57"/><line class="cls-4" x1="64.52" y1="88.57" x2="65.24" y2="93.47"/><line class="cls-4" x1="65.24" y1="93.47" x2="66.13" y2="98.01"/><line class="cls-4" x1="66.13" y1="98.01" x2="67.1" y2="102.2"/><line class="cls-4" x1="67.1" y1="102.2" x2="68.17" y2="106.03"/><line class="cls-4" x1="68.17" y1="106.03" x2="69.42" y2="109.51"/><line class="cls-4" x1="69.42" y1="109.51" x2="70.84" y2="112.63"/><line class="cls-4" x1="70.84" y1="112.63" x2="72.36" y2="115.39"/><line class="cls-4" x1="72.36" y1="115.39" x2="74.14" y2="117.71"/><line class="cls-4" x1="74.14" y1="117.71" x2="76" y2="119.67"/><line class="cls-4" x1="76" y1="119.67" x2="78.05" y2="121.18"/><line class="cls-4" x1="78.05" y1="121.18" x2="80.28" y2="122.25"/><line class="cls-4" x1="80.28" y1="122.25" x2="82.68" y2="122.88"/><line class="cls-4" x1="82.68" y1="122.88" x2="85.35" y2="123.06"/><line class="cls-4" x1="85.35" y1="123.06" x2="87.31" y2="123.23"/><line class="cls-4" x1="87.31" y1="123.23" x2="89.26" y2="123.68"/><line class="cls-4" x1="89.26" y1="123.68" x2="91.22" y2="124.57"/><line class="cls-4" x1="91.22" y1="124.57" x2="93.27" y2="125.64"/><line class="cls-4" x1="93.27" y1="125.64" x2="95.41" y2="127.07"/><line class="cls-4" x1="95.41" y1="127.07" x2="97.63" y2="128.76"/><line class="cls-4" x1="97.63" y1="128.76" x2="99.94" y2="130.63"/><line class="cls-4" x1="99.94" y1="130.63" x2="102.26" y2="132.68"/><line class="cls-4" x1="102.26" y1="132.68" x2="104.84" y2="134.91"/><line class="cls-4" x1="104.84" y1="134.91" x2="107.51" y2="137.31"/><line class="cls-4" x1="107.51" y1="137.31" x2="110.27" y2="139.9"/><line class="cls-4" x1="110.27" y1="139.9" x2="113.2" y2="142.57"/><line class="cls-4" x1="113.2" y1="142.57" x2="116.32" y2="145.34"/><line class="cls-4" x1="116.32" y1="145.34" x2="119.7" y2="148.1"/><line class="cls-4" x1="119.7" y1="148.1" x2="123.17" y2="150.95"/><line class="cls-4" x1="123.17" y1="150.95" x2="126.91" y2="153.8"/><line class="cls-4" x1="126.91" y1="153.8" x2="130.91" y2="156.65"/><line class="cls-4" x1="130.91" y1="156.65" x2="135.1" y2="159.51"/><line class="cls-4" x1="135.1" y1="159.51" x2="139.55" y2="162.27"/><line class="cls-4" x1="139.55" y1="162.27" x2="144.26" y2="164.94"/><line class="cls-4" x1="144.26" y1="164.94" x2="149.25" y2="167.53"/><line class="cls-4" x1="149.25" y1="167.53" x2="154.59" y2="169.93"/><line class="cls-4" x1="154.59" y1="169.93" x2="160.19" y2="172.25"/><line class="cls-4" x1="160.19" y1="172.25" x2="166.07" y2="174.39"/><line class="cls-4" x1="166.07" y1="174.39" x2="172.39" y2="176.35"/><line class="cls-4" x1="172.39" y1="176.35" x2="178.97" y2="178.04"/><line class="cls-4" x1="178.97" y1="178.04" x2="185.91" y2="179.56"/><line class="cls-4" x1="185.91" y1="179.56" x2="193.3" y2="180.72"/><line class="cls-4" x1="55.36" y1="45.7" x2="55.27" y2="57.38"/><line class="cls-4" x1="55.27" y1="57.38" x2="55.27" y2="68.87"/><line class="cls-4" x1="55.27" y1="68.87" x2="55.45" y2="80.01"/><line class="cls-4" x1="55.45" y1="80.01" x2="55.8" y2="90.97"/><line class="cls-4" x1="55.8" y1="90.97" x2="56.43" y2="101.67"/><line class="cls-4" x1="56.43" y1="101.67" x2="57.14" y2="112.01"/><line class="cls-4" x1="57.14" y1="112.01" x2="58.12" y2="122.08"/><line class="cls-4" x1="58.12" y1="122.08" x2="59.27" y2="131.79"/><line class="cls-4" x1="59.27" y1="131.79" x2="60.7" y2="141.24"/><line class="cls-4" x1="60.7" y1="141.24" x2="62.39" y2="150.24"/><line class="cls-4" x1="62.39" y1="150.24" x2="64.26" y2="158.88"/><line class="cls-4" x1="64.26" y1="158.88" x2="112.14" y2="158.88"/><line class="cls-4" x1="112.14" y1="158.88" x2="117.39" y2="163.6"/><line class="cls-4" x1="117.39" y1="163.6" x2="122.82" y2="168.06"/><line class="cls-4" x1="122.82" y1="168.06" x2="128.6" y2="172.34"/><line class="cls-4" x1="128.6" y1="172.34" x2="134.65" y2="176.35"/><line class="cls-4" x1="134.65" y1="176.35" x2="140.97" y2="180.09"/><line class="cls-4" x1="140.97" y1="180.09" x2="147.65" y2="183.57"/><line class="cls-4" x1="147.65" y1="183.57" x2="154.59" y2="186.78"/><line class="cls-4" x1="154.59" y1="186.78" x2="161.8" y2="189.72"/><line class="cls-4" x1="161.8" y1="189.72" x2="169.36" y2="192.39"/><line class="cls-4" x1="169.36" y1="192.39" x2="177.28" y2="194.71"/><line class="cls-4" x1="177.28" y1="194.71" x2="185.56" y2="196.85"/><line class="cls-4" x1="185.56" y1="196.85" x2="194.1" y2="198.54"/><line class="cls-4" x1="194.1" y1="198.54" x2="203.09" y2="200.05"/><line class="cls-4" x1="46.73" y1="46.24" x2="46.73" y2="57.11"/><line class="cls-4" x1="46.73" y1="57.11" x2="46.82" y2="67.71"/><line class="cls-4" x1="46.82" y1="67.71" x2="46.9" y2="78.05"/><line class="cls-4" x1="46.9" y1="78.05" x2="47.08" y2="88.12"/><line class="cls-4" x1="47.08" y1="88.12" x2="47.35" y2="97.92"/><line class="cls-4" x1="47.35" y1="97.92" x2="47.71" y2="107.46"/><line class="cls-4" x1="47.71" y1="107.46" x2="48.06" y2="116.64"/><line class="cls-4" x1="48.06" y1="116.64" x2="48.51" y2="125.46"/><line class="cls-4" x1="48.51" y1="125.46" x2="49.04" y2="133.93"/><line class="cls-4" x1="49.04" y1="133.93" x2="49.75" y2="142.13"/><line class="cls-4" x1="49.75" y1="142.13" x2="50.46" y2="149.79"/><line class="cls-4" x1="50.46" y1="149.79" x2="51.27" y2="157.19"/><line class="cls-4" x1="51.27" y1="157.19" x2="52.16" y2="164.05"/><line class="cls-4" x1="52.16" y1="164.05" x2="53.22" y2="170.47"/><line class="cls-4" x1="53.22" y1="170.47" x2="54.29" y2="176.44"/><line class="cls-4" x1="54.29" y1="176.44" x2="55.54" y2="181.96"/><line class="cls-4" x1="55.54" y1="181.96" x2="56.96" y2="187.04"/><line class="cls-4" x1="56.96" y1="187.04" x2="58.39" y2="191.5"/><line class="cls-4" x1="58.39" y1="191.5" x2="133.05" y2="191.5"/><line class="cls-4" x1="133.05" y1="191.5" x2="138.3" y2="194.97"/><line class="cls-4" x1="138.3" y1="194.97" x2="143.29" y2="198.18"/><line class="cls-4" x1="143.29" y1="198.18" x2="148" y2="201.03"/><line class="cls-4" x1="148" y1="201.03" x2="152.45" y2="203.62"/><line class="cls-4" x1="152.45" y1="203.62" x2="156.72" y2="205.85"/><line class="cls-4" x1="156.72" y1="205.85" x2="160.82" y2="207.9"/><line class="cls-4" x1="160.82" y1="207.9" x2="164.65" y2="209.68"/><line class="cls-4" x1="164.65" y1="209.68" x2="168.29" y2="211.28"/><line class="cls-4" x1="168.29" y1="211.28" x2="171.85" y2="212.62"/><line class="cls-4" x1="171.85" y1="212.62" x2="175.15" y2="213.78"/><line class="cls-4" x1="175.15" y1="213.78" x2="178.44" y2="214.85"/><line class="cls-4" x1="178.44" y1="214.85" x2="181.55" y2="215.74"/><line class="cls-4" x1="181.55" y1="215.74" x2="184.58" y2="216.54"/><line class="cls-4" x1="184.58" y1="216.54" x2="187.52" y2="217.25"/><line class="cls-4" x1="187.52" y1="217.25" x2="196.06" y2="218.86"/><line class="cls-4" x1="196.06" y1="218.86" x2="201.58" y2="219.75"/><line class="cls-4" x1="37.83" y1="45.97" x2="37.65" y2="56.66"/><line class="cls-4" x1="37.65" y1="56.66" x2="37.47" y2="67.27"/><line class="cls-4" x1="37.47" y1="67.27" x2="37.29" y2="77.61"/><line class="cls-4" x1="37.29" y1="77.61" x2="37.12" y2="87.77"/><line class="cls-4" x1="37.12" y1="87.77" x2="36.94" y2="97.75"/><line class="cls-4" x1="36.94" y1="97.75" x2="36.94" y2="116.91"/><line class="cls-4" x1="36.94" y1="116.91" x2="37.03" y2="126.18"/><line class="cls-4" x1="37.03" y1="126.18" x2="37.21" y2="135.18"/><line class="cls-4" x1="37.21" y1="135.18" x2="37.47" y2="143.91"/><line class="cls-4" x1="37.47" y1="143.91" x2="37.92" y2="152.38"/><line class="cls-4" x1="37.92" y1="152.38" x2="38.54" y2="160.57"/><line class="cls-4" x1="38.54" y1="160.57" x2="39.25" y2="168.51"/><line class="cls-4" x1="39.25" y1="168.51" x2="40.23" y2="176.08"/><line class="cls-4" x1="40.23" y1="176.08" x2="41.3" y2="183.39"/><line class="cls-4" x1="41.3" y1="183.39" x2="42.63" y2="190.34"/><line class="cls-4" x1="42.63" y1="190.34" x2="44.15" y2="197.02"/><line class="cls-4" x1="44.15" y1="197.02" x2="45.93" y2="203.44"/><line class="cls-4" x1="45.93" y1="203.44" x2="47.89" y2="209.41"/><line class="cls-4" x1="47.89" y1="209.41" x2="50.2" y2="215.03"/><line class="cls-4" x1="50.2" y1="215.03" x2="52.78" y2="220.37"/><line class="cls-4" x1="52.78" y1="220.37" x2="55.63" y2="225.27"/><line class="cls-4" x1="55.63" y1="225.27" x2="168.74" y2="225.27"/><line class="cls-4" x1="168.74" y1="225.27" x2="174.17" y2="228.84"/><line class="cls-4" x1="174.17" y1="228.84" x2="179.69" y2="232.14"/><line class="cls-4" x1="179.69" y1="232.14" x2="185.29" y2="235.17"/><line class="cls-4" x1="185.29" y1="235.17" x2="190.9" y2="237.93"/><line class="cls-4" x1="190.9" y1="237.93" x2="196.68" y2="240.25"/><line class="cls-4" x1="196.68" y1="240.25" x2="202.56" y2="242.21"/><line class="cls-4" x1="202.56" y1="242.21" x2="208.61" y2="243.81"/><line class="cls-4" x1="208.61" y1="243.81" x2="214.66" y2="244.88"/><line class="cls-4" x1="214.66" y1="244.88" x2="220.89" y2="245.59"/><line class="cls-4" x1="58.39" y1="191.5" x2="59.45" y2="194.26"/><line class="cls-4" x1="59.45" y1="194.26" x2="60.43" y2="195.95"/><line class="cls-4" x1="61.77" y1="198" x2="62.3" y2="198.9"/><line class="cls-4" x1="62.3" y1="198.9" x2="64.08" y2="200.68"/><line class="cls-4" x1="64.08" y1="200.68" x2="65.15" y2="201.48"/><line class="cls-4" x1="67.29" y1="202.73" x2="68.18" y2="203.17"/><line class="cls-4" x1="68.18" y1="203.17" x2="70.4" y2="203.8"/><line class="cls-4" x1="70.4" y1="203.8" x2="72" y2="203.98"/><line class="cls-4" x1="74.5" y1="203.89" x2="75.3" y2="203.8"/><line class="cls-4" x1="75.3" y1="203.8" x2="77.79" y2="203.08"/><line class="cls-4" x1="77.79" y1="203.08" x2="79.12" y2="202.46"/><line class="cls-4" x1="81.35" y1="201.3" x2="83.04" y2="200.14"/><line class="cls-4" x1="83.04" y1="200.14" x2="85.17" y2="198.27"/><line class="cls-4" x1="86.87" y1="196.58" x2="88.38" y2="194.97"/><line class="cls-4" x1="88.38" y1="194.97" x2="89.98" y2="192.75"/><line class="cls-4" x1="91.49" y1="190.79" x2="92.92" y2="189"/><line class="cls-4" x1="92.92" y1="189" x2="94.79" y2="187.13"/><line class="cls-4" x1="96.74" y1="185.62" x2="97.28" y2="185.26"/><line class="cls-4" x1="97.28" y1="185.26" x2="99.68" y2="184.01"/><line class="cls-4" x1="99.68" y1="184.01" x2="101.1" y2="183.57"/><line class="cls-4" x1="103.51" y1="182.85" x2="105.02" y2="182.5"/><line class="cls-4" x1="105.02" y1="182.5" x2="107.87" y2="182.32"/><line class="cls-4" x1="107.87" y1="182.32" x2="108.4" y2="182.32"/><line class="cls-4" x1="110.81" y1="182.41" x2="113.83" y2="182.85"/><line class="cls-4" x1="113.83" y1="182.85" x2="115.7" y2="183.3"/><line class="cls-4" x1="118.01" y1="183.92" x2="120.15" y2="184.64"/><line class="cls-4" x1="120.15" y1="184.64" x2="122.64" y2="185.71"/><line class="cls-4" x1="124.87" y1="186.69" x2="126.56" y2="187.58"/><line class="cls-4" x1="126.56" y1="187.58" x2="129.23" y2="189"/><line class="cls-4" x1="131.27" y1="190.34" x2="133.05" y2="191.5"/><line class="cls-4" x1="55.27" y1="237.13" x2="55.27" y2="236.86"/><line class="cls-4" x1="55.27" y1="236.86" x2="55.36" y2="235.97"/><line class="cls-4" x1="55.36" y1="235.97" x2="55.45" y2="234.63"/><line class="cls-4" x1="55.45" y1="234.63" x2="55.54" y2="232.76"/><line class="cls-4" x1="55.54" y1="232.76" x2="55.54" y2="232.23"/><line class="cls-4" x1="55.72" y1="229.73" x2="55.81" y2="228.13"/><line class="cls-4" x1="55.81" y1="228.13" x2="55.9" y2="225.27"/><line class="cls-4" x1="55.9" y1="225.27" x2="55.9" y2="224.83"/><line class="cls-4" x1="56.07" y1="222.42" x2="56.07" y2="222.24"/><line class="cls-4" x1="56.07" y1="222.24" x2="56.25" y2="219.13"/><line class="cls-4" x1="56.25" y1="219.13" x2="56.43" y2="217.43"/><line class="cls-4" x1="56.52" y1="215.03" x2="56.79" y2="210.12"/><line class="cls-4" x1="56.96" y1="207.63" x2="57.14" y2="206.02"/><line class="cls-4" x1="57.14" y1="206.02" x2="57.32" y2="202.99"/><line class="cls-4" x1="57.32" y1="202.99" x2="57.32" y2="202.73"/><line class="cls-4" x1="57.5" y1="200.32" x2="57.5" y2="200.05"/><line class="cls-4" x1="57.5" y1="200.05" x2="57.77" y2="197.47"/><line class="cls-4" x1="57.77" y1="197.47" x2="57.94" y2="195.42"/><line class="cls-4" x1="58.12" y1="192.92" x2="58.3" y2="191.59"/><line class="cls-4" x1="58.3" y1="191.59" x2="58.66" y2="188.91"/><line class="cls-4" x1="58.66" y1="188.91" x2="58.74" y2="188.02"/><line class="cls-4" x1="59.1" y1="185.62" x2="59.63" y2="182.59"/><line class="cls-4" x1="59.63" y1="182.59" x2="59.99" y2="180.8"/><line class="cls-4" x1="60.35" y1="178.31" x2="60.88" y2="175.46"/><line class="cls-4" x1="60.88" y1="175.46" x2="61.24" y2="173.5"/><line class="cls-4" x1="61.68" y1="171.09" x2="62.22" y2="168.33"/><line class="cls-4" x1="62.22" y1="168.33" x2="62.57" y2="166.28"/><line class="cls-4" x1="63.11" y1="163.78" x2="63.46" y2="162"/><line class="cls-4" x1="63.46" y1="162" x2="64.08" y2="159.42"/><line class="cls-4" x1="64.08" y1="159.42" x2="64.17" y2="159.06"/><line class="cls-4" x1="64.8" y1="156.65" x2="65.24" y2="154.87"/><line class="cls-4" x1="65.24" y1="154.87" x2="65.95" y2="152.2"/><line class="cls-4" x1="65.95" y1="152.2" x2="66.04" y2="151.84"/><line class="cls-4" x1="66.75" y1="149.52" x2="66.84" y2="149.35"/><line class="cls-4" x1="66.84" y1="149.35" x2="67.82" y2="146.4"/><line class="cls-4" x1="67.82" y1="146.4" x2="68.36" y2="144.89"/><line class="cls-4" x1="69.16" y1="142.57" x2="70.05" y2="140.26"/><line class="cls-4" x1="70.05" y1="140.26" x2="71.03" y2="138.03"/><line class="cls-4" x1="72.09" y1="135.8" x2="72.72" y2="134.46"/><line class="cls-4" x1="72.72" y1="134.46" x2="74.23" y2="131.7"/><line class="cls-4" x1="74.23" y1="131.7" x2="74.41" y2="131.43"/><line class="cls-4" x1="75.74" y1="129.38" x2="75.74" y2="129.29"/><line class="cls-4" x1="75.74" y1="129.29" x2="77.43" y2="127.16"/><line class="cls-4" x1="77.43" y1="127.16" x2="78.86" y2="125.64"/><line class="cls-4" x1="80.82" y1="124.13" x2="80.9" y2="124.04"/><line class="cls-4" x1="80.9" y1="124.04" x2="82.77" y2="123.15"/><line class="cls-4" x1="82.77" y1="123.15" x2="84.73" y2="122.88"/><line class="cls-4" x1="84.73" y1="122.88" x2="85.53" y2="122.97"/><line class="cls-4" x1="87.85" y1="123.59" x2="88.83" y2="124.04"/><line class="cls-4" x1="88.83" y1="124.04" x2="90.87" y2="125.37"/><line class="cls-4" x1="90.87" y1="125.37" x2="91.94" y2="126.26"/><line class="cls-4" x1="93.72" y1="127.96" x2="94.97" y2="129.21"/><line class="cls-4" x1="94.97" y1="129.21" x2="97.01" y2="131.61"/><line class="cls-4" x1="98.44" y1="133.57" x2="98.97" y2="134.28"/><line class="cls-4" x1="98.97" y1="134.28" x2="100.84" y2="137.05"/><line class="cls-4" x1="100.84" y1="137.05" x2="101.2" y2="137.67"/><line class="cls-4" x1="102.53" y1="139.81" x2="102.71" y2="140.08"/><line class="cls-4" x1="102.71" y1="140.08" x2="104.49" y2="143.02"/><line class="cls-4" x1="104.49" y1="143.02" x2="105.02" y2="144"/><line class="cls-4" x1="106.18" y1="146.23" x2="107.69" y2="148.99"/><line class="cls-4" x1="107.69" y1="148.99" x2="108.49" y2="150.5"/><line class="cls-4" x1="109.56" y1="152.73" x2="110.36" y2="154.51"/><line class="cls-4" x1="110.36" y1="154.51" x2="111.61" y2="156.92"/><line class="cls-4" x1="111.61" y1="156.92" x2="111.7" y2="157.19"/><line class="cls-4" x1="112.77" y1="159.33" x2="113.57" y2="160.84"/><line class="cls-4" x1="113.57" y1="160.84" x2="114.63" y2="162.98"/><line class="cls-4" x1="114.63" y1="162.98" x2="115.08" y2="163.69"/><line class="cls-4" x1="116.33" y1="165.83" x2="117.39" y2="167.7"/><line class="cls-4" x1="117.39" y1="167.7" x2="118.82" y2="170.11"/><line class="cls-4" x1="120.06" y1="172.16" x2="120.51" y2="172.87"/><line class="cls-4" x1="120.51" y1="172.87" x2="122.64" y2="176.44"/><line class="cls-4" x1="123.98" y1="178.49" x2="125.4" y2="180.63"/><line class="cls-4" x1="125.4" y1="180.63" x2="126.65" y2="182.59"/><line class="cls-4" x1="127.98" y1="184.64" x2="128.43" y2="185.26"/><line class="cls-4" x1="128.43" y1="185.26" x2="129.85" y2="187.31"/><line class="cls-4" x1="129.85" y1="187.31" x2="130.83" y2="188.65"/><line class="cls-4" x1="132.26" y1="190.7" x2="133.06" y2="191.59"/><line class="cls-4" x1="133.06" y1="191.59" x2="135.01" y2="194.17"/><line class="cls-4" x1="135.01" y1="194.17" x2="135.28" y2="194.53"/><line class="cls-4" x1="136.88" y1="196.4" x2="137.24" y2="196.85"/><line class="cls-4" x1="137.24" y1="196.85" x2="139.82" y2="199.61"/><line class="cls-4" x1="139.82" y1="199.61" x2="140.27" y2="200.05"/><line class="cls-4" x1="141.87" y1="201.84" x2="142.58" y2="202.55"/><line class="cls-4" x1="142.58" y1="202.55" x2="145.43" y2="205.31"/><line class="cls-4" x1="147.21" y1="207.01" x2="148.81" y2="208.52"/><line class="cls-4" x1="148.81" y1="208.52" x2="150.77" y2="210.3"/><line class="cls-4" x1="152.64" y1="212" x2="155.48" y2="214.49"/><line class="cls-4" x1="155.48" y1="214.49" x2="156.28" y2="215.2"/><line class="cls-4" x1="158.24" y1="216.81" x2="158.95" y2="217.43"/><line class="cls-4" x1="158.95" y1="217.43" x2="161.98" y2="219.93"/><line class="cls-4" x1="163.85" y1="221.53" x2="165.81" y2="223.14"/><line class="cls-4" x1="165.81" y1="223.14" x2="167.68" y2="224.65"/><line class="cls-4" x1="169.63" y1="226.17" x2="172.3" y2="228.22"/><line class="cls-4" x1="172.3" y1="228.22" x2="173.55" y2="229.11"/><line class="cls-4" x1="175.51" y1="230.62" x2="178.09" y2="232.58"/><line class="cls-4" x1="178.09" y1="232.58" x2="179.42" y2="233.56"/><line class="cls-4" x1="181.38" y1="234.99" x2="182.89" y2="236.06"/><line class="cls-4" x1="182.89" y1="236.06" x2="184.85" y2="237.31"/><polygon points="148.1 29.04 148.1 28.77 148.9 28.77 148.99 28.68 149.08 28.68 149.08 24.05 148.9 24.14 148.63 24.22 148.28 24.31 148.01 24.31 148.01 24.05 148.45 24.05 148.81 23.96 149.25 23.78 149.52 23.51 149.7 23.51 149.7 28.59 149.88 28.77 150.77 28.77 150.77 29.04 148.1 29.04"/><polygon class="cls-5" points="149.52 23.51 149.7 23.51 149.7 28.59 149.88 28.77 150.77 28.77 150.77 29.04 148.1 29.04 148.1 28.77 148.9 28.77 148.99 28.68 149.08 28.68 149.08 24.05 148.9 24.14 148.63 24.22 148.28 24.31 148.01 24.31 148.01 24.05 148.45 24.05 148.81 23.96 149.25 23.78 149.52 23.51"/><polygon points="167.5 29.04 167.5 28.77 168.74 27.43 169.63 26.36 169.72 26.1 169.9 25.74 169.99 25.47 169.99 24.85 169.9 24.58 169.81 24.4 169.72 24.14 169.54 23.96 169.19 23.78 168.66 23.78 168.39 23.87 167.85 24.4 167.76 24.67 167.85 24.58 167.94 24.58 168.03 24.67 168.12 24.67 168.3 24.85 168.3 25.29 168.21 25.38 168.03 25.47 167.76 25.47 167.59 25.38 167.5 25.2 167.5 24.76 167.59 24.4 167.76 24.14 168.12 23.78 168.39 23.6 168.66 23.51 169.37 23.51 169.72 23.6 170.26 23.96 170.61 24.49 170.7 24.76 170.7 25.38 170.61 25.65 170.35 26.18 170.17 26.45 169.9 26.72 169.54 26.99 169.01 27.43 168.12 28.41 170.17 28.41 170.26 28.32 170.35 28.32 170.44 28.23 170.44 27.97 170.52 27.79 170.52 27.61 170.79 27.61 170.52 29.04 167.5 29.04"/><polygon class="cls-5" points="168.66 23.51 169.37 23.51 169.72 23.6 170.26 23.96 170.61 24.49 170.7 24.76 170.7 25.38 170.61 25.65 170.35 26.18 170.17 26.45 169.9 26.72 169.54 26.99 169.01 27.43 168.12 28.41 170.17 28.41 170.26 28.32 170.35 28.32 170.44 28.23 170.44 27.97 170.52 27.79 170.52 27.61 170.79 27.61 170.52 29.04 167.5 29.04 167.5 28.77 168.74 27.43 169.63 26.36 169.72 26.1 169.9 25.74 169.99 25.47 169.99 24.85 169.9 24.58 169.81 24.4 169.72 24.14 169.54 23.96 169.19 23.78 168.66 23.78 168.39 23.87 167.85 24.4 167.76 24.67 167.85 24.58 167.94 24.58 168.03 24.67 168.12 24.67 168.3 24.85 168.3 25.29 168.21 25.38 168.03 25.47 167.76 25.47 167.59 25.38 167.5 25.2 167.5 24.76 167.59 24.4 167.76 24.14 168.12 23.78 168.39 23.6 168.66 23.51"/><polygon points="189.12 29.13 188.77 28.95 188.23 28.59 187.97 28.32 187.88 27.97 187.7 27.61 187.7 26.9 187.88 26.54 187.97 26.27 188.06 26.1 188.5 25.65 188.77 25.47 189.48 25.29 189.75 25.38 189.93 25.38 190.19 25.47 190.55 25.65 190.73 26.01 190.73 26.45 190.64 26.45 190.55 26.54 190.37 26.63 190.28 26.54 190.1 26.45 190.01 26.36 190.01 26.01 190.1 25.92 190.28 25.83 190.37 25.83 190.01 25.65 189.75 25.56 189.21 25.56 189.03 25.65 188.68 26.01 188.5 26.27 188.41 26.63 188.41 27.88 188.5 28.14 188.68 28.41 189.03 28.77 189.57 28.95 189.84 28.86 190.01 28.77 190.28 28.68 190.46 28.41 190.64 28.06 190.64 27.97 190.81 27.97 190.81 28.06 190.64 28.59 190.37 28.86 190.1 29.04 189.84 29.13 189.12 29.13"/><polygon class="cls-5" points="189.48 25.29 189.75 25.38 189.93 25.38 190.19 25.47 190.55 25.65 190.73 26.01 190.73 26.45 190.64 26.45 190.55 26.54 190.37 26.63 190.28 26.54 190.1 26.45 190.01 26.36 190.01 26.01 190.1 25.92 190.28 25.83 190.37 25.83 190.01 25.65 189.75 25.56 189.21 25.56 189.03 25.65 188.68 26.01 188.5 26.27 188.41 26.63 188.41 27.88 188.5 28.14 188.68 28.41 189.03 28.77 189.57 28.95 189.84 28.86 190.01 28.77 190.28 28.68 190.46 28.41 190.64 28.06 190.64 27.97 190.81 27.97 190.81 28.06 190.64 28.59 190.37 28.86 190.1 29.04 189.84 29.13 189.12 29.13 188.77 28.95 188.23 28.59 187.97 28.32 187.88 27.97 187.7 27.61 187.7 26.9 187.88 26.54 187.97 26.27 188.06 26.1 188.5 25.65 188.77 25.47 189.48 25.29"/><polygon points="209.06 29.21 208.53 29.04 207.99 28.68 207.81 28.41 207.72 28.14 207.72 27.7 207.99 27.43 208.35 27.43 208.53 27.52 208.61 27.7 208.61 28.14 208.53 28.23 208.44 28.23 208.35 28.32 208.08 28.32 208.26 28.5 208.35 28.68 209.15 28.95 209.59 28.95 209.95 28.77 210.13 28.41 210.31 27.88 210.31 27.61 210.22 27.08 210.13 26.81 209.95 26.45 209.59 26.27 208.79 26.27 208.79 26.18 208.7 26.18 208.7 26.1 209.15 26.1 209.33 26.01 209.5 26.01 209.68 25.92 209.95 25.56 210.04 25.38 210.13 25.11 210.13 24.31 209.95 23.96 209.41 23.69 208.7 23.87 208.44 24.05 208.26 24.22 208.44 24.22 208.61 24.31 208.79 24.67 208.79 24.85 208.61 24.94 208.53 25.03 208.17 25.03 207.99 24.85 207.9 24.67 208.08 24.14 208.17 23.96 208.35 23.78 209.15 23.51 209.68 23.51 210.22 23.69 210.48 23.87 210.66 23.96 210.75 24.14 210.93 24.67 210.93 24.94 210.84 25.11 210.75 25.38 210.22 25.92 209.77 26.1 210.22 26.27 210.39 26.36 210.66 26.54 210.84 26.72 211.02 26.99 211.1 27.34 211.1 27.97 211.02 28.23 210.66 28.77 210.39 28.95 210.04 29.13 209.68 29.21 209.06 29.21"/><polygon class="cls-5" points="209.15 23.51 209.68 23.51 210.22 23.69 210.48 23.87 210.66 23.96 210.75 24.14 210.93 24.67 210.93 24.94 210.84 25.11 210.75 25.38 210.22 25.92 209.77 26.1 210.22 26.27 210.39 26.36 210.66 26.54 210.84 26.72 211.02 26.99 211.11 27.34 211.11 27.97 211.02 28.23 210.66 28.77 210.39 28.95 210.04 29.13 209.68 29.21 209.06 29.21 208.53 29.04 207.99 28.68 207.81 28.41 207.72 28.14 207.72 27.7 207.99 27.43 208.35 27.43 208.53 27.52 208.61 27.7 208.61 28.14 208.53 28.23 208.44 28.23 208.35 28.32 208.08 28.32 208.26 28.5 208.35 28.68 209.15 28.95 209.59 28.95 209.95 28.77 210.13 28.41 210.31 27.88 210.31 27.61 210.22 27.08 210.13 26.81 209.95 26.45 209.59 26.27 208.79 26.27 208.79 26.18 208.7 26.18 208.7 26.1 209.15 26.1 209.33 26.01 209.5 26.01 209.68 25.92 209.95 25.56 210.04 25.38 210.13 25.11 210.13 24.31 209.95 23.96 209.41 23.69 208.7 23.87 208.44 24.05 208.26 24.22 208.44 24.22 208.61 24.31 208.79 24.67 208.79 24.85 208.61 24.94 208.53 25.03 208.17 25.03 207.99 24.85 207.9 24.67 208.08 24.14 208.17 23.96 208.35 23.78 209.15 23.51"/><path d="M228.19,27.43h2.05V24.31ZM229.35,29v-.27h.71v-.09l.09-.09V27.7H228v-.27l2.5-3.92.09-.09h.17v4h.89v.27h-.89v.89h.09v.09l.09.09h.62V29Z"/><path class="cls-5" d="M230.6,23.42h.17v4h.89v.27h-.89v.89h.09v.09l.09.09h.62V29h-2.22v-.27h.71v-.09l.09-.09V27.7H228v-.27l2.5-3.92Zm-.36.89-2.05,3.12h2.05Z"/><polygon points="142.22 25.29 142.22 25.03 142.31 24.94 143.47 24.94 143.83 24.76 143.91 24.67 143.91 24.49 145.52 18.07 145.61 17.9 145.61 17.72 145.52 17.63 144.27 17.63 143.56 17.81 143.29 17.99 143.2 18.16 143.03 18.34 142.85 18.7 142.58 19.5 142.4 19.77 142.4 19.86 142.31 19.95 142.13 19.95 142.13 19.86 142.05 19.86 142.05 19.77 142.22 19.23 142.49 18.61 142.85 17.45 142.94 17.27 149.52 17.27 149.52 17.36 149.08 19.77 149.08 19.86 148.99 19.95 148.72 19.95 148.72 19.77 148.81 19.5 148.81 19.23 148.9 18.97 148.9 18.34 148.81 18.16 148.81 17.99 148.63 17.81 148.36 17.72 148.01 17.63 146.76 17.63 146.59 17.81 146.59 17.9 146.5 18.07 144.89 24.49 144.89 24.76 144.98 24.85 145.16 24.94 146.32 24.94 146.32 25.2 146.23 25.29 142.22 25.29"/><polygon class="cls-5" points="142.94 17.27 149.52 17.27 149.52 17.36 149.08 19.77 149.08 19.86 148.99 19.95 148.72 19.95 148.72 19.77 148.81 19.5 148.81 19.23 148.9 18.97 148.9 18.34 148.81 18.16 148.81 17.99 148.63 17.81 148.36 17.72 148.01 17.63 146.76 17.63 146.59 17.81 146.59 17.9 146.5 18.07 144.89 24.49 144.89 24.76 144.98 24.85 145.16 24.94 146.32 24.94 146.32 25.2 146.23 25.29 142.22 25.29 142.22 25.03 142.31 24.94 143.47 24.94 143.83 24.76 143.91 24.67 143.91 24.49 145.52 18.07 145.61 17.9 145.61 17.72 145.52 17.63 144.27 17.63 143.56 17.81 143.29 17.99 143.2 18.16 143.03 18.34 142.85 18.7 142.58 19.5 142.4 19.77 142.4 19.86 142.31 19.95 142.13 19.95 142.13 19.86 142.05 19.86 142.05 19.77 142.22 19.23 142.49 18.61 142.85 17.45 142.94 17.27"/><polygon points="161.71 25.29 161.71 25.03 161.8 24.94 162.96 24.94 163.32 24.76 163.41 24.67 163.41 24.49 165.01 18.07 165.09 17.9 165.09 17.72 165.01 17.63 163.76 17.63 163.05 17.81 162.78 17.99 162.69 18.16 162.51 18.34 162.34 18.7 162.07 19.5 161.89 19.77 161.89 19.86 161.8 19.95 161.63 19.95 161.63 19.86 161.54 19.86 161.54 19.77 161.71 19.23 161.98 18.61 162.34 17.45 162.43 17.27 169.01 17.27 169.01 17.36 168.57 19.77 168.57 19.86 168.48 19.95 168.21 19.95 168.21 19.77 168.3 19.5 168.3 19.23 168.39 18.97 168.39 18.34 168.3 18.16 168.3 17.99 168.12 17.81 167.85 17.72 167.5 17.63 166.25 17.63 166.07 17.81 166.07 17.9 165.99 18.07 164.38 24.49 164.38 24.76 164.47 24.85 164.65 24.94 165.81 24.94 165.81 25.2 165.72 25.29 161.71 25.29"/><polygon class="cls-5" points="162.43 17.27 169.01 17.27 169.01 17.36 168.57 19.77 168.57 19.86 168.48 19.95 168.21 19.95 168.21 19.77 168.3 19.5 168.3 19.23 168.39 18.97 168.39 18.34 168.3 18.16 168.3 17.99 168.12 17.81 167.85 17.72 167.5 17.63 166.25 17.63 166.07 17.81 166.07 17.9 165.99 18.07 164.38 24.49 164.38 24.76 164.47 24.85 164.65 24.94 165.81 24.94 165.81 25.2 165.72 25.29 161.71 25.29 161.71 25.03 161.8 24.94 162.96 24.94 163.32 24.76 163.41 24.67 163.41 24.49 165.01 18.07 165.09 17.9 165.09 17.72 165.01 17.63 163.76 17.63 163.05 17.81 162.78 17.99 162.69 18.16 162.51 18.34 162.34 18.7 162.07 19.5 161.89 19.77 161.89 19.86 161.8 19.95 161.63 19.95 161.63 19.86 161.54 19.86 161.54 19.77 161.71 19.23 161.98 18.61 162.34 17.45 162.43 17.27"/><polygon points="181.83 25.29 181.83 25.03 181.91 24.94 183.07 24.94 183.43 24.76 183.52 24.67 183.52 24.49 185.12 18.07 185.21 17.9 185.21 17.72 185.12 17.63 183.87 17.63 183.16 17.81 182.89 17.99 182.81 18.16 182.63 18.34 182.45 18.7 182.18 19.5 182 19.77 182 19.86 181.91 19.95 181.74 19.95 181.74 19.86 181.65 19.86 181.65 19.77 181.83 19.23 182.09 18.61 182.45 17.45 182.54 17.27 189.12 17.27 189.12 17.36 188.68 19.77 188.68 19.86 188.59 19.95 188.32 19.95 188.32 19.77 188.41 19.5 188.41 19.23 188.5 18.97 188.5 18.34 188.41 18.16 188.41 17.99 188.23 17.81 187.97 17.72 187.61 17.63 186.37 17.63 186.19 17.81 186.19 17.9 186.1 18.07 184.5 24.49 184.5 24.76 184.59 24.85 184.76 24.94 185.92 24.94 185.92 25.2 185.83 25.29 181.83 25.29"/><polygon class="cls-5" points="182.54 17.27 189.12 17.27 189.12 17.36 188.68 19.77 188.68 19.86 188.59 19.95 188.32 19.95 188.32 19.77 188.41 19.5 188.41 19.23 188.5 18.97 188.5 18.34 188.41 18.16 188.41 17.99 188.23 17.81 187.97 17.72 187.61 17.63 186.37 17.63 186.19 17.81 186.19 17.9 186.1 18.07 184.5 24.49 184.5 24.76 184.59 24.85 184.76 24.94 185.92 24.94 185.92 25.2 185.83 25.29 181.83 25.29 181.83 25.03 181.91 24.94 183.07 24.94 183.43 24.76 183.52 24.67 183.52 24.49 185.12 18.07 185.21 17.9 185.21 17.72 185.12 17.63 183.87 17.63 183.16 17.81 182.89 17.99 182.81 18.16 182.63 18.34 182.45 18.7 182.18 19.5 182 19.77 182 19.86 181.91 19.95 181.74 19.95 181.74 19.86 181.65 19.86 181.65 19.77 181.83 19.23 182.09 18.61 182.45 17.45 182.54 17.27"/><polygon points="201.76 25.29 201.76 25.03 201.85 24.94 203.01 24.94 203.36 24.76 203.45 24.67 203.45 24.49 205.05 18.07 205.14 17.9 205.14 17.72 205.05 17.63 203.81 17.63 203.1 17.81 202.83 17.99 202.74 18.16 202.56 18.34 202.38 18.7 202.12 19.5 201.94 19.77 201.94 19.86 201.85 19.95 201.67 19.95 201.67 19.86 201.58 19.86 201.58 19.77 201.76 19.23 202.03 18.61 202.38 17.45 202.47 17.27 209.06 17.27 209.06 17.36 208.61 19.77 208.61 19.86 208.53 19.95 208.26 19.95 208.26 19.77 208.35 19.5 208.35 19.23 208.44 18.97 208.44 18.34 208.35 18.16 208.35 17.99 208.17 17.81 207.9 17.72 207.55 17.63 206.3 17.63 206.12 17.81 206.12 17.9 206.03 18.07 204.43 24.49 204.43 24.76 204.52 24.85 204.7 24.94 205.85 24.94 205.85 25.2 205.77 25.29 201.76 25.29"/><polygon class="cls-5" points="202.47 17.27 209.06 17.27 209.06 17.36 208.61 19.77 208.61 19.86 208.53 19.95 208.26 19.95 208.26 19.77 208.35 19.5 208.35 19.23 208.44 18.97 208.44 18.34 208.35 18.16 208.35 17.99 208.17 17.81 207.9 17.72 207.55 17.63 206.3 17.63 206.12 17.81 206.12 17.9 206.03 18.07 204.43 24.49 204.43 24.76 204.52 24.85 204.7 24.94 205.85 24.94 205.85 25.2 205.77 25.29 201.76 25.29 201.76 25.03 201.85 24.94 203.01 24.94 203.36 24.76 203.45 24.67 203.45 24.49 205.05 18.07 205.14 17.9 205.14 17.72 205.05 17.63 203.81 17.63 203.1 17.81 202.83 17.99 202.74 18.16 202.56 18.34 202.38 18.7 202.12 19.5 201.94 19.77 201.94 19.86 201.85 19.95 201.67 19.95 201.67 19.86 201.58 19.86 201.58 19.77 201.76 19.23 202.03 18.61 202.38 17.45 202.47 17.27"/><polygon points="222.14 25.29 222.14 25.03 222.23 24.94 223.39 24.94 223.74 24.76 223.83 24.67 223.83 24.49 225.43 18.07 225.52 17.9 225.52 17.72 225.43 17.63 224.19 17.63 223.48 17.81 223.21 17.99 223.12 18.16 222.94 18.34 222.76 18.7 222.5 19.5 222.32 19.77 222.32 19.86 222.23 19.95 222.05 19.95 222.05 19.86 221.96 19.86 221.96 19.77 222.14 19.23 222.41 18.61 222.76 17.45 222.85 17.27 229.44 17.27 229.44 17.36 228.99 19.77 228.99 19.86 228.91 19.95 228.64 19.95 228.64 19.77 228.73 19.5 228.73 19.23 228.82 18.97 228.82 18.34 228.73 18.16 228.73 17.99 228.55 17.81 228.28 17.72 227.93 17.63 226.68 17.63 226.5 17.81 226.5 17.9 226.41 18.07 224.81 24.49 224.81 24.76 224.9 24.85 225.08 24.94 226.24 24.94 226.24 25.2 226.15 25.29 222.14 25.29"/><polygon class="cls-5" points="222.85 17.27 229.44 17.27 229.44 17.36 228.99 19.77 228.99 19.86 228.91 19.95 228.64 19.95 228.64 19.77 228.73 19.5 228.73 19.23 228.82 18.97 228.82 18.34 228.73 18.16 228.73 17.99 228.55 17.81 228.28 17.72 227.93 17.63 226.68 17.63 226.5 17.81 226.5 17.9 226.41 18.07 224.81 24.49 224.81 24.76 224.9 24.85 225.08 24.94 226.24 24.94 226.24 25.2 226.15 25.29 222.14 25.29 222.14 25.03 222.23 24.94 223.39 24.94 223.74 24.76 223.83 24.67 223.83 24.49 225.43 18.07 225.52 17.9 225.52 17.72 225.43 17.63 224.19 17.63 223.48 17.81 223.21 17.99 223.12 18.16 222.94 18.34 222.76 18.7 222.5 19.5 222.32 19.77 222.32 19.86 222.23 19.95 222.05 19.95 222.05 19.86 221.96 19.86 221.96 19.77 222.14 19.23 222.41 18.61 222.76 17.45 222.85 17.27"/><polygon points="160.02 25.74 153.35 22.53 153.26 22.53 153.17 22.44 153.17 22.26 153.35 22.09 160.02 18.97 160.11 18.88 160.2 18.88 160.38 19.05 160.38 19.23 160.2 19.32 153.97 22.35 160.2 25.29 160.38 25.47 160.38 25.65 160.29 25.74 160.02 25.74"/><polygon class="cls-5" points="160.11 18.88 160.2 18.88 160.38 19.05 160.38 19.23 160.2 19.32 153.97 22.35 160.2 25.29 160.38 25.47 160.38 25.65 160.29 25.74 160.02 25.74 153.35 22.53 153.26 22.53 153.17 22.44 153.17 22.26 153.35 22.09 160.02 18.97 160.11 18.88"/><polygon points="180.14 25.74 173.46 22.53 173.37 22.53 173.28 22.44 173.28 22.26 173.46 22.09 180.14 18.97 180.22 18.88 180.31 18.88 180.49 19.05 180.49 19.23 180.31 19.32 174.08 22.35 180.31 25.29 180.49 25.47 180.49 25.65 180.4 25.74 180.14 25.74"/><polygon class="cls-5" points="180.22 18.88 180.31 18.88 180.49 19.05 180.49 19.23 180.31 19.32 174.08 22.35 180.31 25.29 180.49 25.47 180.49 25.65 180.4 25.74 180.14 25.74 173.46 22.53 173.37 22.53 173.28 22.44 173.28 22.26 173.46 22.09 180.14 18.97 180.22 18.88"/><polygon points="200.16 25.74 193.49 22.53 193.4 22.53 193.31 22.44 193.31 22.26 193.49 22.09 200.16 18.97 200.25 18.88 200.34 18.88 200.51 19.05 200.51 19.23 200.34 19.32 194.11 22.35 200.34 25.29 200.51 25.47 200.51 25.65 200.43 25.74 200.16 25.74"/><polygon class="cls-5" points="200.25 18.88 200.34 18.88 200.52 19.05 200.52 19.23 200.34 19.32 194.11 22.35 200.34 25.29 200.52 25.47 200.52 25.65 200.43 25.74 200.16 25.74 193.49 22.53 193.4 22.53 193.31 22.44 193.31 22.26 193.49 22.09 200.16 18.97 200.25 18.88"/><polygon points="220.54 25.74 213.87 22.53 213.78 22.53 213.69 22.44 213.69 22.26 213.87 22.09 220.54 18.97 220.63 18.88 220.72 18.88 220.9 19.05 220.9 19.23 220.72 19.32 214.49 22.35 220.72 25.29 220.9 25.47 220.9 25.65 220.81 25.74 220.54 25.74"/><polygon class="cls-5" points="220.63 18.88 220.72 18.88 220.9 19.05 220.9 19.23 220.72 19.32 214.49 22.35 220.72 25.29 220.9 25.47 220.9 25.65 220.81 25.74 220.54 25.74 213.87 22.53 213.78 22.53 213.69 22.44 213.69 22.26 213.87 22.09 220.54 18.97 220.63 18.88"/><polygon points="189.12 216.01 189.12 215.74 190.01 215.74 190.01 215.65 190.1 215.56 190.1 211.01 189.93 211.1 189.66 211.19 189.03 211.19 189.03 210.93 189.48 210.93 189.84 210.84 190.1 210.75 190.37 210.57 190.55 210.39 190.73 210.39 190.73 215.56 190.81 215.56 190.81 215.65 190.9 215.74 191.79 215.74 191.79 216.01 189.12 216.01"/><polygon class="cls-5" points="190.55 210.39 190.73 210.39 190.73 215.56 190.81 215.56 190.81 215.65 190.9 215.74 191.79 215.74 191.79 216.01 189.12 216.01 189.12 215.74 190.01 215.74 190.01 215.65 190.1 215.56 190.1 211.01 189.93 211.1 189.66 211.19 189.03 211.19 189.03 210.93 189.48 210.93 189.84 210.84 190.1 210.75 190.37 210.57 190.55 210.39"/><polygon points="183.25 212.17 183.25 211.91 183.34 211.82 184.5 211.82 184.76 211.73 184.85 211.64 185.03 211.37 186.63 204.87 186.63 204.51 186.54 204.42 185.3 204.42 184.59 204.6 184.32 204.78 184.14 205.13 183.96 205.31 183.78 205.85 183.7 206.03 183.61 206.38 183.52 206.65 183.43 206.74 183.16 206.74 183.07 206.65 183.16 206.65 183.52 205.4 183.96 204.24 183.96 204.15 184.05 204.06 190.55 204.06 190.55 204.15 190.19 206.65 190.1 206.74 189.84 206.74 189.84 206.38 189.93 206.11 189.93 204.96 189.84 204.78 189.66 204.6 189.39 204.51 189.03 204.42 187.79 204.42 187.61 204.6 187.61 204.69 187.52 204.87 185.92 211.37 185.92 211.64 186.01 211.73 186.28 211.82 187.34 211.82 187.34 212.09 187.25 212.17 183.25 212.17"/><polygon class="cls-5" points="184.05 204.06 190.55 204.06 190.55 204.15 190.19 206.65 190.1 206.74 189.84 206.74 189.84 206.38 189.93 206.11 189.93 204.96 189.84 204.78 189.66 204.6 189.39 204.51 189.03 204.42 187.79 204.42 187.61 204.6 187.61 204.69 187.52 204.87 185.92 211.37 185.92 211.64 186.01 211.73 186.28 211.82 187.34 211.82 187.34 212.09 187.25 212.17 183.25 212.17 183.25 211.91 183.34 211.82 184.5 211.82 184.76 211.73 184.85 211.64 185.03 211.37 186.63 204.87 186.63 204.51 186.54 204.42 185.3 204.42 184.59 204.6 184.32 204.78 184.14 205.13 183.96 205.31 183.78 205.85 183.7 206.03 183.61 206.38 183.52 206.65 183.43 206.74 183.16 206.74 183.07 206.65 183.16 206.65 183.52 205.4 183.96 204.24 183.96 204.15 184.05 204.06"/><polygon points="188.77 195.69 188.77 195.42 190.01 194.08 190.19 193.82 190.46 193.55 190.64 193.28 190.9 192.92 191.08 192.66 191.17 192.39 191.26 192.03 191.26 191.5 191.08 190.96 190.99 190.79 190.64 190.43 190.46 190.34 190.19 190.34 189.84 190.43 189.48 190.61 189.21 190.88 189.03 191.23 189.3 191.23 189.39 191.32 189.48 191.32 189.57 191.41 189.57 191.85 189.48 191.94 189.12 192.12 189.03 192.03 188.86 191.94 188.77 191.85 188.77 191.32 188.86 191.05 189.21 190.52 189.39 190.34 189.93 190.16 190.28 190.07 190.99 190.25 191.26 190.34 191.53 190.52 191.88 191.05 191.97 191.41 191.97 192.12 191.88 192.48 191.62 192.75 191.44 193.1 190.81 193.64 190.55 193.91 190.28 194.08 189.39 195.06 191.26 195.06 191.44 194.97 191.62 194.97 191.71 194.88 191.71 194.53 191.79 194.44 191.79 194.26 192.06 194.26 191.79 195.69 188.77 195.69"/><polygon class="cls-5" points="190.28 190.07 190.99 190.25 191.26 190.34 191.53 190.52 191.88 191.05 191.97 191.41 191.97 192.12 191.88 192.48 191.62 192.75 191.44 193.1 190.81 193.64 190.55 193.91 190.28 194.08 189.39 195.06 191.26 195.06 191.44 194.97 191.62 194.97 191.71 194.88 191.71 194.53 191.79 194.44 191.79 194.26 192.06 194.26 191.79 195.69 188.77 195.69 188.77 195.42 190.01 194.08 190.19 193.82 190.46 193.55 190.64 193.28 190.9 192.92 191.08 192.66 191.17 192.39 191.26 192.03 191.26 191.5 191.08 190.96 190.99 190.79 190.64 190.43 190.46 190.34 190.19 190.34 189.84 190.43 189.48 190.61 189.21 190.88 189.03 191.23 189.3 191.23 189.39 191.32 189.48 191.32 189.57 191.41 189.57 191.85 189.48 191.94 189.12 192.12 189.03 192.03 188.86 191.94 188.77 191.85 188.77 191.32 188.86 191.05 189.21 190.52 189.39 190.34 189.93 190.16 190.28 190.07"/><polygon points="183.25 191.94 183.25 191.68 183.34 191.59 184.5 191.59 184.76 191.5 184.85 191.41 185.03 191.14 186.63 184.64 186.63 184.28 186.54 184.19 185.3 184.19 184.59 184.37 184.32 184.55 184.14 184.9 183.96 185.08 183.78 185.62 183.7 185.79 183.61 186.15 183.52 186.42 183.43 186.51 183.16 186.51 183.07 186.42 183.16 186.42 183.52 185.17 183.96 184.01 183.96 183.92 184.05 183.83 190.55 183.83 190.55 183.92 190.19 186.42 190.1 186.51 189.84 186.51 189.84 186.15 189.93 185.88 189.93 184.73 189.84 184.55 189.66 184.37 189.39 184.28 189.03 184.19 187.79 184.19 187.61 184.37 187.61 184.46 187.52 184.64 185.92 191.14 185.92 191.41 186.01 191.5 186.28 191.59 187.34 191.59 187.34 191.85 187.25 191.94 183.25 191.94"/><polygon class="cls-5" points="184.05 183.83 190.55 183.83 190.55 183.92 190.19 186.42 190.1 186.51 189.84 186.51 189.84 186.15 189.93 185.88 189.93 184.73 189.84 184.55 189.66 184.37 189.39 184.28 189.03 184.19 187.79 184.19 187.61 184.37 187.61 184.46 187.52 184.64 185.92 191.14 185.92 191.41 186.01 191.5 186.28 191.59 187.34 191.59 187.34 191.85 187.25 191.94 183.25 191.94 183.25 191.68 183.34 191.59 184.5 191.59 184.76 191.5 184.85 191.41 185.03 191.14 186.63 184.64 186.63 184.28 186.54 184.19 185.3 184.19 184.59 184.37 184.32 184.55 184.14 184.9 183.96 185.08 183.78 185.62 183.7 185.79 183.61 186.15 183.52 186.42 183.43 186.51 183.16 186.51 183.07 186.42 183.16 186.42 183.52 185.17 183.96 184.01 183.96 183.92 184.05 183.83"/><polygon points="190.01 177.69 189.66 177.51 189.12 177.15 188.86 176.88 188.77 176.53 188.59 176.17 188.59 175.46 188.77 175.01 188.86 174.74 189.12 174.39 189.66 174.03 190.01 173.85 190.64 173.85 190.81 173.94 191.08 173.94 191.26 174.03 191.53 174.3 191.62 174.48 191.71 174.74 191.62 174.92 191.44 175.1 191.17 175.1 190.99 175.01 190.9 174.92 190.9 174.57 190.99 174.48 191.17 174.39 191.26 174.39 191.08 174.21 190.9 174.12 190.64 174.12 190.37 174.03 190.1 174.12 189.93 174.21 189.57 174.57 189.39 174.83 189.3 175.1 189.3 176.08 189.39 176.44 189.57 176.97 189.75 177.15 190.01 177.33 190.1 177.42 190.28 177.51 190.46 177.51 190.99 177.33 191.17 177.24 191.44 176.97 191.53 176.62 191.53 176.53 191.71 176.53 191.79 176.62 191.71 176.88 191.53 177.15 191.26 177.42 190.99 177.6 190.73 177.69 190.01 177.69"/><polygon class="cls-5" points="190.01 173.85 190.64 173.85 190.81 173.94 191.08 173.94 191.26 174.03 191.53 174.3 191.62 174.48 191.71 174.74 191.62 174.92 191.44 175.1 191.17 175.1 190.99 175.01 190.9 174.92 190.9 174.57 190.99 174.48 191.17 174.39 191.26 174.39 191.08 174.21 190.9 174.12 190.64 174.12 190.37 174.03 190.1 174.12 189.93 174.21 189.57 174.57 189.39 174.83 189.3 175.1 189.3 176.08 189.39 176.44 189.57 176.97 189.75 177.15 190.01 177.33 190.1 177.42 190.28 177.51 190.46 177.51 190.99 177.33 191.17 177.24 191.44 176.97 191.53 176.62 191.53 176.53 191.71 176.53 191.79 176.62 191.71 176.88 191.53 177.15 191.26 177.42 190.99 177.6 190.73 177.69 190.01 177.69 189.66 177.51 189.12 177.15 188.86 176.88 188.77 176.53 188.59 176.17 188.59 175.46 188.77 175.01 188.86 174.74 189.12 174.39 189.66 174.03 190.01 173.85"/><polygon points="183.25 173.76 183.25 173.5 183.34 173.41 184.5 173.41 184.76 173.32 184.85 173.23 185.03 172.96 186.63 166.46 186.63 166.1 186.54 166.01 185.3 166.01 184.59 166.19 184.32 166.37 184.14 166.72 183.96 166.9 183.78 167.44 183.7 167.62 183.61 167.97 183.52 168.24 183.43 168.33 183.16 168.33 183.07 168.24 183.16 168.24 183.52 166.99 183.96 165.83 183.96 165.74 184.05 165.65 190.55 165.65 190.55 165.74 190.19 168.24 190.1 168.33 189.84 168.33 189.84 167.97 189.93 167.7 189.93 166.55 189.84 166.37 189.66 166.19 189.39 166.1 189.03 166.01 187.79 166.01 187.61 166.19 187.61 166.28 187.52 166.46 185.92 172.96 185.92 173.23 186.01 173.32 186.28 173.41 187.34 173.41 187.34 173.68 187.25 173.76 183.25 173.76"/><polygon class="cls-5" points="184.05 165.65 190.55 165.65 190.55 165.74 190.19 168.24 190.1 168.33 189.84 168.33 189.84 167.97 189.93 167.7 189.93 166.55 189.84 166.37 189.66 166.19 189.39 166.1 189.03 166.01 187.79 166.01 187.61 166.19 187.61 166.28 187.52 166.46 185.92 172.96 185.92 173.23 186.01 173.32 186.28 173.41 187.34 173.41 187.34 173.68 187.25 173.76 183.25 173.76 183.25 173.5 183.34 173.41 184.5 173.41 184.76 173.32 184.85 173.23 185.03 172.96 186.63 166.46 186.63 166.1 186.54 166.01 185.3 166.01 184.59 166.19 184.32 166.37 184.14 166.72 183.96 166.9 183.78 167.44 183.7 167.62 183.61 167.97 183.52 168.24 183.43 168.33 183.16 168.33 183.07 168.24 183.16 168.24 183.52 166.99 183.96 165.83 183.96 165.74 184.05 165.65"/><polygon points="190.01 158.7 189.48 158.53 188.95 158.17 188.77 157.9 188.68 157.63 188.68 157.19 188.95 156.92 189.3 156.92 189.48 157.01 189.57 157.19 189.57 157.63 189.48 157.72 189.39 157.72 189.3 157.81 189.03 157.81 189.21 158.08 189.57 158.26 190.1 158.44 190.55 158.44 190.9 158.26 190.99 158.08 191.17 157.9 191.17 157.63 191.26 157.37 191.26 157.1 191.17 156.56 191.08 156.3 190.9 155.94 190.37 155.67 189.75 155.67 189.75 155.5 190.28 155.5 190.81 155.23 190.99 154.87 191.08 154.6 191.08 153.71 190.9 153.44 190.73 153.27 190.55 153.18 189.93 153.18 189.66 153.27 189.39 153.44 189.21 153.71 189.57 153.71 189.75 154.07 189.75 154.25 189.48 154.51 189.12 154.51 189.03 154.43 188.86 154.07 188.95 153.8 189.12 153.44 189.39 153.27 189.57 153.09 190.1 152.91 190.64 152.91 191.17 153.09 191.44 153.27 191.62 153.44 191.79 153.8 191.88 154.07 191.88 154.34 191.79 154.6 191.71 154.78 191.53 155.05 191.35 155.23 191.17 155.32 190.99 155.5 190.73 155.58 190.99 155.67 191.17 155.67 191.35 155.85 191.62 156.03 191.79 156.21 191.97 156.47 192.06 156.74 192.06 157.46 191.97 157.72 191.62 158.26 191.35 158.44 190.99 158.61 190.73 158.7 190.01 158.7"/><polygon class="cls-5" points="190.1 152.91 190.64 152.91 191.17 153.09 191.44 153.27 191.62 153.44 191.79 153.8 191.88 154.07 191.88 154.34 191.79 154.6 191.71 154.78 191.53 155.05 191.35 155.23 191.17 155.32 190.99 155.5 190.73 155.58 190.99 155.67 191.17 155.67 191.35 155.85 191.62 156.03 191.79 156.21 191.97 156.47 192.06 156.74 192.06 157.46 191.97 157.72 191.62 158.26 191.35 158.44 190.99 158.61 190.73 158.7 190.01 158.7 189.48 158.53 188.95 158.17 188.77 157.9 188.68 157.63 188.68 157.19 188.95 156.92 189.3 156.92 189.48 157.01 189.57 157.19 189.57 157.63 189.48 157.72 189.39 157.72 189.3 157.81 189.03 157.81 189.21 158.08 189.57 158.26 190.1 158.44 190.55 158.44 190.9 158.26 190.99 158.08 191.17 157.9 191.17 157.63 191.26 157.37 191.26 157.1 191.17 156.56 191.08 156.3 190.9 155.94 190.37 155.67 189.75 155.67 189.75 155.5 190.28 155.5 190.81 155.23 190.99 154.87 191.08 154.6 191.08 153.71 190.9 153.44 190.73 153.27 190.55 153.18 189.93 153.18 189.66 153.27 189.39 153.44 189.21 153.71 189.57 153.71 189.75 154.07 189.75 154.25 189.48 154.51 189.12 154.51 189.03 154.43 188.86 154.07 188.95 153.8 189.12 153.44 189.39 153.27 189.57 153.09 190.1 152.91"/><polygon points="183.25 154.78 183.25 154.51 183.34 154.43 184.5 154.43 184.76 154.34 184.85 154.25 185.03 153.98 186.63 147.47 186.63 147.12 186.54 147.03 185.3 147.03 184.59 147.21 184.32 147.38 184.14 147.74 183.96 147.92 183.78 148.46 183.7 148.63 183.61 148.99 183.52 149.26 183.43 149.35 183.16 149.35 183.07 149.26 183.16 149.26 183.52 148.01 183.96 146.85 183.96 146.76 184.05 146.67 190.55 146.67 190.55 146.76 190.19 149.26 190.1 149.35 189.84 149.35 189.84 148.99 189.93 148.72 189.93 147.56 189.84 147.38 189.66 147.21 189.39 147.12 189.03 147.03 187.79 147.03 187.61 147.21 187.61 147.3 187.52 147.47 185.92 153.98 185.92 154.25 186.01 154.34 186.28 154.43 187.34 154.43 187.34 154.69 187.26 154.78 183.25 154.78"/><polygon class="cls-5" points="184.05 146.67 190.55 146.67 190.55 146.76 190.19 149.26 190.1 149.35 189.84 149.35 189.84 148.99 189.93 148.72 189.93 147.56 189.84 147.38 189.66 147.21 189.39 147.12 189.03 147.03 187.79 147.03 187.61 147.21 187.61 147.3 187.52 147.47 185.92 153.98 185.92 154.25 186.01 154.34 186.28 154.43 187.34 154.43 187.34 154.69 187.26 154.78 183.25 154.78 183.25 154.51 183.34 154.43 184.5 154.43 184.76 154.34 184.85 154.25 185.03 153.98 186.63 147.47 186.63 147.12 186.54 147.03 185.3 147.03 184.59 147.21 184.32 147.38 184.14 147.74 183.96 147.92 183.78 148.46 183.7 148.63 183.61 148.99 183.52 149.26 183.43 149.35 183.16 149.35 183.07 149.26 183.16 149.26 183.52 148.01 183.96 146.85 183.96 146.76 184.05 146.67"/><path d="M188.77,135.09h2v-3Zm1.16,1.69v-.27h.71v-.09l.09-.09v-1h-2.14v-.26l2.49-3.92.09-.09h.18v4h.89v.26h-.89v1h.09v.09l.09.09h.62v.27Z"/><path class="cls-5" d="M191.17,131.08h.18v4h.89v.26h-.89v1h.09v.09l.09.09h.62v.27h-2.22v-.27h.71v-.09l.09-.09v-1h-2.14v-.26l2.49-3.92Zm-.35,1-2,3h2Z"/><polygon points="183.25 133.04 183.25 132.77 183.34 132.68 184.5 132.68 184.76 132.59 184.85 132.5 185.03 132.24 186.63 125.73 186.63 125.37 186.54 125.28 185.3 125.28 184.59 125.46 184.32 125.64 184.14 126 183.96 126.17 183.78 126.71 183.7 126.89 183.61 127.25 183.52 127.51 183.43 127.6 183.16 127.6 183.07 127.51 183.16 127.51 183.52 126.26 183.96 125.11 183.96 125.02 184.05 124.93 190.55 124.93 190.55 125.02 190.19 127.51 190.1 127.6 189.84 127.6 189.84 127.25 189.93 126.98 189.93 125.82 189.84 125.64 189.66 125.46 189.39 125.37 189.04 125.28 187.79 125.28 187.61 125.46 187.61 125.55 187.52 125.73 185.92 132.24 185.92 132.5 186.01 132.59 186.28 132.68 187.34 132.68 187.34 132.95 187.26 133.04 183.25 133.04"/><polygon class="cls-5" points="184.05 124.93 190.55 124.93 190.55 125.02 190.19 127.51 190.1 127.6 189.84 127.6 189.84 127.25 189.93 126.98 189.93 125.82 189.84 125.64 189.66 125.46 189.39 125.37 189.04 125.28 187.79 125.28 187.61 125.46 187.61 125.55 187.52 125.73 185.92 132.24 185.92 132.5 186.01 132.59 186.28 132.68 187.34 132.68 187.34 132.95 187.26 133.04 183.25 133.04 183.25 132.77 183.34 132.68 184.5 132.68 184.76 132.59 184.85 132.5 185.03 132.24 186.63 125.73 186.63 125.37 186.54 125.28 185.3 125.28 184.59 125.46 184.32 125.64 184.14 126 183.96 126.17 183.78 126.71 183.7 126.89 183.61 127.25 183.52 127.51 183.43 127.6 183.16 127.6 183.07 127.51 183.16 127.51 183.52 126.26 183.96 125.11 183.96 125.02 184.05 124.93"/><polygon points="85.89 119.76 85.53 119.67 85.36 119.58 85.09 119.4 84.73 119.05 84.56 118.6 84.47 118.15 84.47 117.62 84.56 117.08 84.73 116.64 85 116.11 85.27 115.66 85.71 115.21 86.07 114.95 86.51 114.68 86.87 114.5 87.14 114.5 87.49 114.41 87.76 114.41 88.29 114.59 88.47 114.77 88.65 115.12 88.74 115.39 88.65 115.66 88.65 115.84 88.47 116.02 88.12 116.19 87.76 116.02 87.67 115.84 87.94 115.3 88.12 115.21 88.29 115.21 88.2 115.03 87.94 114.86 87.76 114.77 87.67 114.68 87.4 114.68 87.14 114.77 86.78 114.86 86.25 115.39 85.98 115.75 85.62 116.64 85.53 117.08 85.36 117.53 85.36 118.06 85.27 118.42 85.36 118.87 85.53 119.14 85.71 119.31 86.25 119.58 86.6 119.49 87.05 119.4 87.49 119.22 87.85 118.96 88.47 118.33 88.47 118.24 88.65 118.24 88.74 118.33 88.74 118.42 88.65 118.51 88.38 118.87 88.03 119.22 87.58 119.49 87.14 119.67 86.6 119.76 85.89 119.76"/><polygon class="cls-5" points="87.49 114.41 87.76 114.41 88.29 114.59 88.47 114.77 88.65 115.13 88.74 115.39 88.65 115.66 88.65 115.84 88.47 116.02 88.12 116.19 87.76 116.02 87.67 115.84 87.94 115.3 88.12 115.21 88.29 115.21 88.2 115.03 87.94 114.86 87.76 114.77 87.67 114.68 87.4 114.68 87.14 114.77 86.78 114.86 86.25 115.39 85.98 115.75 85.62 116.64 85.53 117.08 85.36 117.53 85.36 118.06 85.27 118.42 85.36 118.87 85.53 119.14 85.71 119.31 86.25 119.58 86.6 119.49 87.05 119.4 87.49 119.22 87.85 118.96 88.47 118.33 88.47 118.24 88.65 118.24 88.74 118.33 88.74 118.42 88.65 118.51 88.38 118.87 88.03 119.22 87.58 119.49 87.14 119.67 86.6 119.76 85.89 119.76 85.53 119.67 85.36 119.58 85.09 119.4 84.73 119.05 84.56 118.6 84.47 118.16 84.47 117.62 84.56 117.08 84.73 116.64 85 116.11 85.27 115.66 85.71 115.21 86.07 114.95 86.51 114.68 86.87 114.5 87.14 114.5 87.49 114.41"/><polygon points="143.83 194.44 143.83 194.17 144.72 194.17 144.89 193.99 144.89 189.45 144.36 189.63 143.74 189.63 143.74 189.36 144.36 189.36 144.63 189.27 144.98 189.09 145.34 188.82 145.52 188.82 145.52 193.99 145.61 193.99 145.61 194.08 145.69 194.17 146.59 194.17 146.59 194.44 143.83 194.44"/><polygon class="cls-5" points="145.34 188.82 145.52 188.82 145.52 193.99 145.61 193.99 145.61 194.08 145.69 194.17 146.59 194.17 146.59 194.44 143.83 194.44 143.83 194.17 144.72 194.17 144.89 193.99 144.89 189.45 144.36 189.63 143.74 189.63 143.74 189.36 144.36 189.36 144.63 189.27 144.98 189.09 145.34 188.82"/><path d="M141.42,185.71l-.26.17-.45.45-.27.36-.17.44-.09.45L140,188l-.18.89v.9l.09.26.36.36h.26l.54-.18.26-.27.27-.17.36-.54.62-2.49v-.27l-.09-.09v-.09l-.09-.27-.18-.18-.26-.17-.27-.09Zm-2.13,7.39H139l-.27-.09-.17-.09h-.09l-.09-.17-.09-.09v-.36l.09-.18.18-.18.17-.08h.36l.09.08.09.18v.18l-.09.18v.09l-.18.09-.09.09.18.09h.27l.17.08h.36l.27-.08.18-.09.26-.09.36-.36.35-.53.09-.27.36-1.52-.27.27-.35.27-.72.18h-.26l-.27-.09-.18-.18-.26-.09-.09-.18-.18-.27-.18-.44v-1.07l.09-.36.18-.44.18-.54.26-.44.45-.45.71-.53.44-.18.45-.09.36.09.26.18.18.18.18.26V186l.09-.17.09-.09.17-.09h.27l.09.09.09.17V186l-1.42,5.53-.09.36-.18.26-.27.36-.27.18-.35.26-.36.09-.44.09-.36.09Z"/><path class="cls-5" d="M141.78,185.35l.36.09.26.18.18.17.18.27V186l.09-.18.09-.08.17-.09h.27l.09.09.09.17V186l-1.42,5.53-.09.36-.18.26-.27.36-.27.18-.35.26-.36.09-.44.09-.36.09-.53-.09H139l-.27-.09-.17-.09h-.09l-.09-.17-.09-.09v-.36l.09-.18.18-.18.17-.08h.36l.09.08.09.18v.18l-.09.18v.09l-.18.09-.09.09.18.09h.27l.17.08h.36l.27-.08.18-.09.26-.09.36-.36.35-.53.09-.27.36-1.52-.27.27-.35.27-.72.18h-.26l-.27-.09-.18-.18-.26-.09-.09-.18-.18-.27-.18-.44v-1.07l.09-.36.18-.44.18-.54.26-.44.45-.45.71-.53.44-.18Zm-.09.27-.27.09-.26.17-.45.45-.27.36-.17.44-.09.45L140,188l-.18.89v.9l.09.26.36.36h.26l.54-.18.26-.27.27-.17.36-.54.62-2.49v-.27l-.09-.09v-.09l-.09-.27-.18-.18-.26-.17Z"/><polygon points="101.47 179.82 101.47 179.56 102.36 179.56 102.53 179.38 102.53 174.83 102 175.01 101.38 175.01 101.38 174.74 102 174.74 102.27 174.66 102.62 174.48 102.98 174.21 103.16 174.21 103.16 179.38 103.25 179.38 103.25 179.47 103.33 179.56 104.22 179.56 104.22 179.82 101.47 179.82"/><polygon class="cls-5" points="102.98 174.21 103.16 174.21 103.16 179.38 103.25 179.38 103.25 179.47 103.33 179.56 104.22 179.56 104.22 179.82 101.47 179.82 101.47 179.56 102.36 179.56 102.53 179.38 102.53 174.83 102 175.01 101.38 175.01 101.38 174.74 102 174.74 102.27 174.66 102.62 174.48 102.98 174.21"/><polygon points="96.48 176.26 96.48 176.08 95.68 168.68 95.68 168.42 95.59 168.33 95.59 168.24 95.41 168.24 95.32 168.15 94.79 168.15 94.79 167.88 94.88 167.88 94.88 167.79 97.73 167.79 97.82 167.88 97.82 167.97 97.73 168.06 97.73 168.15 97.19 168.15 96.84 168.33 96.75 168.33 96.75 168.59 97.28 174.83 100.93 168.86 101.02 168.77 101.02 168.51 100.93 168.42 100.84 168.24 100.66 168.24 100.4 168.15 100.31 168.15 100.31 168.06 100.4 167.97 100.4 167.88 100.49 167.79 102.62 167.79 102.71 167.88 102.71 168.06 102.62 168.15 102.53 168.15 102.18 168.24 101.64 168.51 101.38 168.77 101.29 168.95 96.93 176.08 96.84 176.26 96.48 176.26"/><polygon class="cls-5" points="94.88 167.79 97.73 167.79 97.82 167.88 97.82 167.97 97.73 168.06 97.73 168.15 97.19 168.15 96.84 168.33 96.75 168.33 96.75 168.59 97.28 174.83 100.93 168.86 101.02 168.77 101.02 168.51 100.93 168.42 100.84 168.24 100.66 168.24 100.4 168.15 100.31 168.15 100.31 168.06 100.4 167.97 100.4 167.88 100.49 167.79 102.62 167.79 102.71 167.88 102.71 168.06 102.62 168.15 102.53 168.15 102.18 168.24 101.64 168.51 101.38 168.77 101.29 168.95 96.93 176.08 96.84 176.26 96.48 176.26 96.48 176.08 95.68 168.68 95.68 168.42 95.59 168.33 95.59 168.24 95.41 168.24 95.32 168.15 94.79 168.15 94.79 167.88 94.88 167.88 94.88 167.79"/><polygon points="123 164.23 123 163.96 124.25 162.62 124.78 162.09 124.96 161.82 125.14 161.47 125.49 160.93 125.58 160.57 125.58 160.04 125.41 159.5 125.32 159.33 124.96 158.97 124.69 158.88 124.43 158.88 124.07 158.97 123.71 159.15 123.36 159.42 123.27 159.77 123.63 159.77 123.71 159.86 123.8 159.86 123.8 159.95 123.89 160.04 123.89 160.22 123.8 160.4 123.63 160.57 123.36 160.66 123.27 160.57 123.09 160.49 123 160.4 123 159.86 123.09 159.59 123.27 159.33 123.36 159.06 123.63 158.88 123.89 158.79 124.25 158.7 124.52 158.61 124.96 158.7 125.32 158.79 125.58 158.88 125.85 159.06 126.2 159.59 126.38 160.31 126.2 161.02 125.94 161.29 125.76 161.64 125.14 162.18 124.6 162.62 123.63 163.6 125.41 163.6 125.76 163.52 125.94 163.52 126.03 163.43 126.03 163.07 126.12 162.98 126.12 162.8 126.38 162.8 126.12 164.23 123 164.23"/><polygon class="cls-5" points="124.52 158.61 124.96 158.7 125.32 158.79 125.58 158.88 125.85 159.06 126.21 159.59 126.38 160.31 126.21 161.02 125.94 161.29 125.76 161.64 125.14 162.18 124.6 162.62 123.63 163.6 125.41 163.6 125.76 163.52 125.94 163.52 126.03 163.43 126.03 163.07 126.12 162.98 126.12 162.8 126.38 162.8 126.12 164.23 123 164.23 123 163.96 124.25 162.62 124.78 162.09 124.96 161.82 125.14 161.47 125.49 160.93 125.58 160.57 125.58 160.04 125.41 159.5 125.32 159.33 124.96 158.97 124.69 158.88 124.43 158.88 124.07 158.97 123.71 159.15 123.36 159.42 123.27 159.77 123.63 159.77 123.71 159.86 123.8 159.86 123.8 159.95 123.89 160.04 123.89 160.22 123.8 160.4 123.63 160.57 123.36 160.66 123.27 160.57 123.09 160.49 123 160.4 123 159.86 123.09 159.59 123.27 159.33 123.36 159.06 123.63 158.88 123.89 158.79 124.25 158.7 124.52 158.61"/><path d="M121,155.41l-.26.17-.45.45-.26.36-.18.44-.09.45-.18.44-.18.89v.9l.09.26.36.36h.26l.54-.18.27-.27.26-.17.36-.54.62-2.49v-.27l-.09-.09V156l-.09-.27-.17-.18-.27-.17-.27-.09Zm-2.13,7.39h-.27l-.26-.09-.18-.09H118l-.09-.17-.09-.09V162l.09-.18.18-.18.18-.09h.35l.09.09.09.18V162l-.09.18v.09l-.18.09-.09.09.18.09h.27l.18.08h.35l.27-.08.18-.09.26-.09.36-.36.36-.53.08-.27.36-1.52L121,160l-.35.27-.71.18h-.27l-.27-.09-.18-.18L119,160l-.09-.18-.18-.27-.18-.44v-1.07l.09-.36.18-.44.18-.54.26-.44.45-.45.71-.53.45-.18.44-.09.36.09.26.18.18.17.18.27v-.09l.09-.18.09-.08.18-.09h.26l.09.09.09.17v.09l-1.42,5.53-.09.35-.18.27-.27.36-.26.18-.36.26-.36.09-.44.09-.36.09Z"/><path class="cls-5" d="M121.31,155.05l.36.09.26.18.18.17.18.27v-.09l.09-.18.09-.08.18-.09h.26l.09.09.09.17v.09l-1.42,5.53-.09.35-.18.27-.27.36-.26.18-.36.26-.36.09-.44.09-.36.09-.53-.09h-.27l-.26-.09-.18-.09H118l-.09-.17-.09-.09V162l.09-.18.18-.18.18-.09h.35l.09.09.09.18V162l-.09.18v.09l-.18.09-.09.09.18.09h.27l.18.08h.35l.27-.08.18-.09.26-.09.36-.36.36-.53.08-.27.36-1.52L121,160l-.35.27-.71.18h-.27l-.27-.09-.18-.18L119,160l-.09-.18-.18-.27-.18-.44v-1.07l.09-.36.18-.44.18-.54.26-.44.45-.45.71-.53.45-.18Zm-.09.27-.27.09-.26.17-.45.45-.26.36-.18.44-.09.45-.18.44-.18.89v.9l.09.26.36.36h.26l.54-.18.27-.27.26-.17.36-.54.62-2.49v-.27l-.09-.09V156l-.09-.27-.17-.18-.27-.17Z"/><polygon points="58.13 165.03 58.13 164.76 59.37 163.43 59.91 162.89 60.08 162.62 60.26 162.27 60.62 161.73 60.7 161.38 60.7 160.84 60.53 160.31 60.44 160.13 60.08 159.77 59.82 159.68 59.55 159.68 59.19 159.77 58.84 159.95 58.57 160.22 58.39 160.57 58.75 160.57 58.84 160.66 58.93 160.66 58.93 160.75 59.02 160.84 59.02 161.02 58.93 161.2 58.75 161.38 58.57 161.47 58.21 161.29 58.13 161.2 58.13 160.66 58.21 160.4 58.57 159.86 58.75 159.68 59.02 159.59 59.37 159.5 59.64 159.42 60.08 159.5 60.44 159.59 60.7 159.68 60.97 159.86 61.33 160.4 61.51 161.11 61.33 161.82 61.06 162.09 60.88 162.45 60.26 162.98 59.73 163.43 58.75 164.41 60.53 164.41 60.88 164.32 61.06 164.32 61.15 164.23 61.15 163.87 61.24 163.78 61.24 163.6 61.51 163.6 61.24 165.03 58.13 165.03"/><polygon class="cls-5" points="59.64 159.42 60.08 159.5 60.44 159.59 60.71 159.68 60.97 159.86 61.33 160.4 61.51 161.11 61.33 161.82 61.06 162.09 60.88 162.45 60.26 162.98 59.73 163.43 58.75 164.41 60.53 164.41 60.88 164.32 61.06 164.32 61.15 164.23 61.15 163.87 61.24 163.78 61.24 163.6 61.51 163.6 61.24 165.03 58.13 165.03 58.13 164.76 59.37 163.43 59.91 162.89 60.08 162.62 60.26 162.27 60.62 161.73 60.71 161.38 60.71 160.84 60.53 160.31 60.44 160.13 60.08 159.77 59.82 159.68 59.55 159.68 59.19 159.77 58.84 159.95 58.57 160.22 58.39 160.57 58.75 160.57 58.84 160.66 58.93 160.66 58.93 160.75 59.02 160.84 59.02 161.02 58.93 161.2 58.75 161.38 58.57 161.47 58.21 161.29 58.13 161.2 58.13 160.66 58.21 160.4 58.57 159.86 58.75 159.68 59.02 159.59 59.37 159.5 59.64 159.42"/><polygon points="55.54 161.38 55.19 161.2 55.01 161.02 54.92 160.75 54.83 160.57 54.83 160.31 54.92 159.95 56.43 153.98 56.43 153.8 56.52 153.71 56.52 153.62 56.43 153.53 56.34 153.53 56.17 153.44 55.63 153.44 55.54 153.36 55.63 153.27 55.63 153.18 55.72 153.09 55.81 153.09 57.32 153 57.41 153 57.41 153.09 55.72 159.95 55.63 160.22 55.63 160.93 55.9 161.2 56.08 161.11 56.26 160.93 56.43 160.66 56.52 160.49 56.61 160.22 56.7 159.86 56.79 159.59 56.79 159.5 56.88 159.42 57.06 159.42 57.15 159.5 57.15 159.59 56.97 160.13 56.88 160.49 56.7 160.75 56.61 161.02 56.34 161.2 56.26 161.29 56.08 161.38 55.54 161.38"/><polygon class="cls-5" points="57.32 153 57.41 153 57.41 153.09 55.72 159.95 55.63 160.22 55.63 160.93 55.9 161.2 56.08 161.11 56.26 160.93 56.43 160.66 56.52 160.49 56.61 160.22 56.7 159.86 56.79 159.59 56.79 159.5 56.88 159.42 57.06 159.42 57.15 159.5 57.15 159.59 56.97 160.13 56.88 160.49 56.7 160.75 56.61 161.02 56.34 161.2 56.26 161.29 56.08 161.38 55.54 161.38 55.19 161.2 55.01 161.02 54.92 160.75 54.83 160.57 54.83 160.31 54.92 159.95 56.43 153.98 56.43 153.8 56.52 153.71 56.52 153.62 56.43 153.53 56.34 153.53 56.17 153.44 55.63 153.44 55.54 153.36 55.63 153.27 55.63 153.18 55.72 153.09 55.81 153.09 57.32 153"/><polygon points="53.14 198.09 53.14 197.83 54.03 197.83 54.21 197.65 54.21 193.1 53.67 193.28 53.05 193.28 53.05 193.01 53.67 193.01 53.94 192.92 54.3 192.75 54.65 192.48 54.83 192.48 54.83 197.65 54.92 197.65 54.92 197.74 55.01 197.83 55.9 197.83 55.9 198.09 53.14 198.09"/><polygon class="cls-5" points="54.65 192.48 54.83 192.48 54.83 197.65 54.92 197.65 54.92 197.74 55.01 197.83 55.9 197.83 55.9 198.09 53.14 198.09 53.14 197.83 54.03 197.83 54.21 197.65 54.21 193.1 53.67 193.28 53.05 193.28 53.05 193.01 53.67 193.01 53.94 192.92 54.3 192.75 54.65 192.48"/><polygon points="50.2 194.44 49.85 194.26 49.67 194.08 49.58 193.82 49.49 193.64 49.49 193.37 49.58 193.01 51.09 187.04 51.09 186.86 51.18 186.78 51.18 186.69 51.09 186.6 51.01 186.6 50.83 186.51 50.29 186.51 50.2 186.42 50.29 186.33 50.29 186.24 50.38 186.15 50.47 186.15 51.98 186.06 52.07 186.06 52.07 186.15 50.38 193.01 50.29 193.28 50.29 193.99 50.56 194.26 50.74 194.17 50.92 193.99 51.09 193.73 51.18 193.55 51.27 193.28 51.36 192.92 51.45 192.66 51.45 192.57 51.54 192.48 51.72 192.48 51.81 192.57 51.81 192.66 51.63 193.19 51.54 193.55 51.36 193.82 51.27 194.08 51.01 194.26 50.92 194.35 50.74 194.44 50.2 194.44"/><polygon class="cls-5" points="51.98 186.06 52.07 186.06 52.07 186.15 50.38 193.01 50.29 193.28 50.29 193.99 50.56 194.26 50.74 194.17 50.92 193.99 51.09 193.73 51.18 193.55 51.27 193.28 51.36 192.92 51.45 192.66 51.45 192.57 51.54 192.48 51.72 192.48 51.81 192.57 51.81 192.66 51.63 193.19 51.54 193.55 51.36 193.82 51.27 194.08 51.01 194.26 50.92 194.35 50.74 194.44 50.2 194.44 49.85 194.26 49.67 194.08 49.58 193.82 49.49 193.64 49.49 193.37 49.58 193.01 51.09 187.04 51.09 186.86 51.18 186.78 51.18 186.69 51.09 186.6 51.01 186.6 50.83 186.51 50.29 186.51 50.2 186.42 50.29 186.33 50.29 186.24 50.38 186.15 50.47 186.15 51.98 186.06"/><polygon points="213.69 226.43 213.69 226.16 214.58 226.16 214.75 226.08 214.75 221.53 214.22 221.71 213.6 221.71 213.6 221.53 214.49 221.35 215.2 221 215.38 221 215.38 225.99 215.56 226.16 216.45 226.16 216.45 226.43 213.69 226.43"/><polygon class="cls-5" points="215.2 221 215.38 221 215.38 225.99 215.56 226.16 216.45 226.16 216.45 226.43 213.69 226.43 213.69 226.16 214.58 226.16 214.75 226.08 214.75 221.53 214.22 221.71 213.6 221.71 213.6 221.53 214.49 221.35 215.2 221"/><polygon points="214.4 217.43 214.4 217.34 214.75 214.76 214.84 214.58 214.93 214.49 215.11 214.4 215.38 214.4 215.47 214.49 215.47 214.76 214.58 217.34 214.49 217.43 214.4 217.43"/><polygon class="cls-5" points="215.11 214.4 215.38 214.4 215.47 214.49 215.47 214.76 214.58 217.34 214.49 217.43 214.4 217.43 214.4 217.34 214.75 214.76 214.84 214.58 214.93 214.49 215.11 214.4"/><path d="M211,218l-.45.44-.26.36-.18.44-.09.45-.18.45-.18.89v.8l.09.27.36.35h.53l.54-.35.26-.27.18-.27.18-.18.62-2.49v-.27l-.09-.09v-.09l-.09-.27-.17-.17-.27-.18h-.54Zm-1.87,7.13-.27-.09h-.27l-.17-.09-.18-.18-.09-.18v-.27l.09-.17.18-.18.17-.09H209l.18.18v.26l-.09.18v.09l-.18.09-.09.09H209l.27.09h.8l.18-.09.26-.18L211,224l.18-.27.08-.27.36-1.42-.27.17-.35.27-.71.18H210l-.27-.09-.18-.09-.35-.27-.36-.71v-1.07l.09-.35.18-.54.18-.44.26-.45.45-.45.71-.53.45-.18h.71l.35.18.18.18.18.26.18-.35H213l.17-.09.09.09h.09l.09.18v.17L212,223.49l-.09.27-.18.36-.53.53-.72.36-.44.09Z"/><path class="cls-5" d="M211.2,217.52h.71l.35.18.18.18.18.26.18-.35H213l.17-.09.09.09h.09l.09.18v.17L212,223.49l-.09.27-.18.36-.53.53-.72.36-.44.09h-.89l-.27-.09h-.27l-.17-.09-.18-.18-.09-.18v-.27l.09-.17.18-.18.17-.09H209l.18.18v.26l-.09.18v.09l-.18.09-.09.09H209l.27.09h.8l.18-.09.26-.18L211,224l.18-.27.08-.27.36-1.42-.27.17-.35.27-.71.18H210l-.27-.09-.18-.09-.35-.27-.36-.71v-1.07l.09-.35.18-.54.18-.44.26-.45.45-.45.71-.53Zm.08.27L211,218l-.45.44-.26.36-.18.44-.09.45-.18.45-.18.89v.8l.09.27.36.35h.53l.54-.35.26-.27.18-.27.18-.18.62-2.49v-.27l-.09-.09v-.09l-.09-.27-.17-.17-.27-.18Z"/><polygon points="72.9 222.51 72.9 222.24 73.79 222.24 73.97 222.16 73.97 217.61 73.43 217.79 72.81 217.79 72.81 217.61 73.7 217.43 74.41 217.07 74.59 217.07 74.59 222.07 74.77 222.24 75.66 222.24 75.66 222.51 72.9 222.51"/><polygon class="cls-5" points="74.41 217.07 74.59 217.07 74.59 222.07 74.77 222.24 75.66 222.24 75.66 222.51 72.9 222.51 72.9 222.24 73.79 222.24 73.97 222.16 73.97 217.61 73.43 217.79 72.81 217.79 72.81 217.61 73.7 217.43 74.41 217.07"/><polygon points="76.55 210.57 76.55 210.48 76.9 207.9 76.99 207.72 77.08 207.63 77.26 207.54 77.53 207.54 77.61 207.63 77.61 207.9 76.72 210.48 76.64 210.57 76.55 210.57"/><polygon class="cls-5" points="77.26 207.54 77.53 207.54 77.61 207.63 77.61 207.9 76.72 210.48 76.64 210.57 76.55 210.57 76.55 210.48 76.9 207.9 76.99 207.72 77.08 207.63 77.26 207.54"/><polygon points="67.91 219.04 67.91 218.86 67.11 211.55 67.11 211.37 67.02 211.28 67.02 211.19 66.85 211.19 66.76 211.1 66.22 211.1 66.22 210.84 66.31 210.84 66.31 210.75 69.16 210.75 69.25 210.84 69.25 210.93 69.16 211.01 69.16 211.1 68.63 211.1 68.45 211.19 68.27 211.19 68.18 211.37 68.18 211.46 68.45 214.58 68.72 217.61 72.36 211.82 72.45 211.73 72.45 211.46 72.36 211.37 72.28 211.19 72.1 211.1 71.74 211.1 71.74 211.01 71.83 210.93 71.83 210.84 71.92 210.75 74.06 210.75 74.14 210.84 74.14 211.01 74.06 211.1 73.97 211.1 73.61 211.19 73.43 211.19 73.25 211.28 72.81 211.73 72.72 211.91 68.36 218.86 68.18 219.04 67.91 219.04"/><polygon class="cls-5" points="66.31 210.75 69.16 210.75 69.25 210.84 69.25 210.93 69.16 211.01 69.16 211.1 68.63 211.1 68.45 211.19 68.27 211.19 68.18 211.37 68.18 211.46 68.45 214.58 68.72 217.61 72.36 211.82 72.45 211.73 72.45 211.46 72.36 211.37 72.28 211.19 72.1 211.1 71.74 211.1 71.74 211.01 71.83 210.93 71.83 210.84 71.92 210.75 74.06 210.75 74.14 210.84 74.14 211.01 74.06 211.1 73.97 211.1 73.61 211.19 73.43 211.19 73.25 211.28 72.81 211.73 72.72 211.91 68.36 218.86 68.18 219.04 67.91 219.04 67.91 218.86 67.11 211.55 67.11 211.37 67.02 211.28 67.02 211.19 66.85 211.19 66.76 211.1 66.22 211.1 66.22 210.84 66.31 210.84 66.31 210.75"/><polygon points="47.36 44.19 47.36 43.92 48.25 43.92 48.42 43.83 48.42 39.28 47.89 39.46 47.27 39.46 47.27 39.28 48.16 39.11 48.87 38.75 49.05 38.75 49.05 43.74 49.23 43.92 50.12 43.92 50.12 44.19 47.36 44.19"/><polygon class="cls-5" points="48.87 38.75 49.05 38.75 49.05 43.74 49.23 43.92 50.12 43.92 50.12 44.19 47.36 44.19 47.36 43.92 48.25 43.92 48.42 43.83 48.42 39.28 47.89 39.46 47.27 39.46 47.27 39.28 48.16 39.11 48.87 38.75"/><polygon points="47.98 32.24 47.98 32.16 48.34 29.57 48.42 29.39 48.51 29.3 48.69 29.21 48.96 29.21 49.05 29.3 49.05 29.57 48.16 32.16 48.07 32.24 47.98 32.24"/><polygon class="cls-5" points="48.69 29.21 48.96 29.21 49.05 29.3 49.05 29.57 48.16 32.16 48.07 32.24 47.98 32.24 47.98 32.16 48.34 29.57 48.42 29.39 48.51 29.3 48.69 29.21"/><polygon points="44.42 40.53 44.06 40.35 43.89 40.18 43.8 39.91 43.71 39.73 43.71 39.46 43.8 39.2 45.31 33.31 45.31 33.14 45.4 33.05 45.4 32.96 45.22 32.78 44.51 32.78 44.42 32.69 44.51 32.6 44.51 32.51 44.6 32.42 44.69 32.42 46.2 32.33 46.29 32.33 46.29 32.42 44.6 39.2 44.51 39.37 44.51 40.09 44.6 40.27 44.69 40.27 44.78 40.35 44.95 40.27 45.31 39.91 45.58 39.11 45.67 38.75 45.67 38.66 46.02 38.66 46.02 38.75 45.93 39.02 45.84 39.37 45.76 39.64 45.58 39.91 45.49 40.18 45.22 40.35 45.13 40.44 44.95 40.53 44.42 40.53"/><polygon class="cls-5" points="46.2 32.33 46.29 32.33 46.29 32.42 44.6 39.2 44.51 39.37 44.51 40.09 44.6 40.27 44.69 40.27 44.78 40.35 44.95 40.27 45.31 39.91 45.58 39.11 45.67 38.75 45.67 38.66 46.02 38.66 46.02 38.75 45.93 39.02 45.84 39.37 45.76 39.64 45.58 39.91 45.49 40.18 45.22 40.35 45.13 40.44 44.95 40.53 44.42 40.53 44.06 40.35 43.89 40.18 43.8 39.91 43.71 39.73 43.71 39.46 43.8 39.2 45.31 33.31 45.31 33.14 45.4 33.05 45.4 32.96 45.22 32.78 44.51 32.78 44.42 32.69 44.51 32.6 44.51 32.51 44.6 32.42 44.69 32.42 46.2 32.33"/><polygon points="56.7 44.19 56.7 44.01 57.95 42.58 58.48 42.05 59.19 40.98 59.28 40.62 59.28 40.09 59.1 39.55 59.02 39.37 58.84 39.2 58.66 39.11 58.13 38.93 57.77 39.02 57.41 39.2 57.15 39.46 56.97 39.82 57.32 39.82 57.41 39.91 57.5 39.91 57.5 40 57.59 40.09 57.59 40.27 57.5 40.44 57.32 40.62 57.15 40.71 56.79 40.53 56.7 40.44 56.7 39.91 56.79 39.64 56.97 39.37 57.32 39.02 57.59 38.84 57.95 38.75 58.75 38.75 59.02 38.84 59.55 39.2 59.73 39.37 59.91 39.64 60.08 40.35 59.91 41.07 59.64 41.34 59.46 41.6 59.19 41.87 58.84 42.14 58.3 42.67 57.32 43.56 59.55 43.56 59.73 43.38 59.73 43.12 59.82 42.94 59.82 42.76 60.08 42.76 59.82 44.19 56.7 44.19"/><polygon class="cls-5" points="57.95 38.75 58.75 38.75 59.02 38.84 59.55 39.2 59.73 39.37 59.91 39.64 60.08 40.35 59.91 41.07 59.64 41.34 59.46 41.6 59.19 41.87 58.84 42.14 58.3 42.67 57.32 43.56 59.55 43.56 59.73 43.38 59.73 43.12 59.82 42.94 59.82 42.76 60.08 42.76 59.82 44.19 56.7 44.19 56.7 44.01 57.95 42.58 58.48 42.05 59.19 40.98 59.28 40.62 59.28 40.09 59.1 39.55 59.02 39.37 58.84 39.2 58.66 39.11 58.13 38.93 57.77 39.02 57.41 39.2 57.15 39.46 56.97 39.82 57.32 39.82 57.41 39.91 57.5 39.91 57.5 40 57.59 40.09 57.59 40.27 57.5 40.44 57.32 40.62 57.15 40.71 56.79 40.53 56.7 40.44 56.7 39.91 56.79 39.64 56.97 39.37 57.32 39.02 57.59 38.84 57.95 38.75"/><polygon points="57.77 32.24 57.77 32.16 58.13 29.57 58.21 29.39 58.3 29.3 58.48 29.21 58.75 29.21 58.84 29.3 58.84 29.57 57.95 32.16 57.86 32.24 57.77 32.24"/><polygon class="cls-5" points="58.48 29.21 58.75 29.21 58.84 29.3 58.84 29.57 57.95 32.16 57.86 32.24 57.77 32.24 57.77 32.16 58.13 29.57 58.21 29.39 58.3 29.3 58.48 29.21"/><polygon points="54.21 40.53 53.85 40.35 53.67 40.18 53.59 39.91 53.5 39.73 53.5 39.46 53.59 39.2 55.1 33.31 55.1 33.14 55.19 33.05 55.19 32.96 55.01 32.78 54.3 32.78 54.21 32.69 54.3 32.6 54.3 32.51 54.39 32.42 54.48 32.42 55.99 32.33 56.08 32.33 56.08 32.42 54.39 39.2 54.3 39.37 54.3 40.09 54.39 40.27 54.48 40.27 54.56 40.35 54.74 40.27 55.1 39.91 55.37 39.11 55.45 38.75 55.45 38.66 55.81 38.66 55.81 38.75 55.72 39.02 55.63 39.37 55.54 39.64 55.37 39.91 55.28 40.18 55.01 40.35 54.92 40.44 54.74 40.53 54.21 40.53"/><polygon class="cls-5" points="55.99 32.33 56.08 32.33 56.08 32.42 54.39 39.2 54.3 39.37 54.3 40.09 54.39 40.27 54.48 40.27 54.56 40.35 54.74 40.27 55.1 39.91 55.37 39.11 55.45 38.75 55.45 38.66 55.81 38.66 55.81 38.75 55.72 39.02 55.63 39.37 55.54 39.64 55.37 39.91 55.28 40.18 55.01 40.35 54.92 40.44 54.74 40.53 54.21 40.53 53.85 40.35 53.67 40.18 53.59 39.91 53.5 39.73 53.5 39.46 53.59 39.2 55.1 33.31 55.1 33.14 55.19 33.05 55.19 32.96 55.01 32.78 54.3 32.78 54.21 32.69 54.3 32.6 54.3 32.51 54.39 32.42 54.48 32.42 55.99 32.33"/><polygon points="213.33 206.56 213.33 206.38 214.58 204.96 215.11 204.42 215.82 203.35 215.91 203 215.91 202.46 215.74 201.93 215.65 201.75 215.47 201.57 215.29 201.48 214.76 201.3 214.4 201.39 214.04 201.57 213.78 201.84 213.6 202.19 213.96 202.19 214.04 202.28 214.13 202.28 214.13 202.37 214.22 202.46 214.22 202.64 214.13 202.82 213.96 203 213.78 203.08 213.42 202.91 213.33 202.82 213.33 202.28 213.42 202.01 213.6 201.75 213.96 201.39 214.22 201.21 214.58 201.12 215.38 201.12 215.65 201.21 216.18 201.57 216.36 201.75 216.53 202.01 216.71 202.73 216.53 203.44 216.27 203.71 216.09 203.97 215.82 204.24 215.47 204.51 214.93 205.04 213.96 205.94 216.18 205.94 216.36 205.76 216.36 205.49 216.45 205.31 216.45 205.13 216.71 205.13 216.45 206.56 213.33 206.56"/><polygon class="cls-5" points="214.58 201.12 215.38 201.12 215.65 201.21 216.18 201.57 216.36 201.75 216.54 202.01 216.71 202.73 216.54 203.44 216.27 203.71 216.09 203.97 215.82 204.24 215.47 204.51 214.93 205.04 213.96 205.94 216.18 205.94 216.36 205.76 216.36 205.49 216.45 205.31 216.45 205.13 216.71 205.13 216.45 206.56 213.33 206.56 213.33 206.38 214.58 204.96 215.11 204.42 215.82 203.35 215.91 203 215.91 202.46 215.74 201.93 215.65 201.75 215.47 201.57 215.29 201.48 214.76 201.3 214.4 201.39 214.04 201.57 213.78 201.84 213.6 202.19 213.96 202.19 214.04 202.28 214.13 202.28 214.13 202.37 214.22 202.46 214.22 202.64 214.13 202.82 213.96 203 213.78 203.08 213.42 202.91 213.33 202.82 213.33 202.28 213.42 202.01 213.6 201.75 213.96 201.39 214.22 201.21 214.58 201.12"/><polygon points="214.4 197.56 214.4 197.47 214.76 194.88 214.84 194.71 214.93 194.62 215.11 194.53 215.38 194.53 215.47 194.62 215.47 194.88 214.58 197.47 214.49 197.56 214.4 197.56"/><polygon class="cls-5" points="215.11 194.53 215.38 194.53 215.47 194.62 215.47 194.88 214.58 197.47 214.49 197.56 214.4 197.56 214.4 197.47 214.76 194.88 214.84 194.71 214.93 194.62 215.11 194.53"/><path d="M211,198.18l-.45.45-.26.35-.18.45-.09.45-.18.44-.18.89v.8l.09.27.36.36h.53l.54-.36.26-.27.18-.26.18-.18.62-2.5v-.26l-.09-.09v-.09l-.09-.27-.17-.18-.27-.18h-.53Zm-1.87,7.13-.27-.09h-.26l-.18-.09-.18-.17-.09-.18v-.27l.09-.18.18-.18.18-.09H209l.18.18v.27l-.09.18v.09l-.18.09-.09.09H209l.27.08h.8l.18-.08.26-.18.54-.54.18-.26.09-.27.35-1.43-.27.18-.35.27-.71.18H210l-.27-.09-.18-.09-.35-.27-.36-.71v-1.07l.09-.36.18-.53.18-.45.26-.44.45-.45.71-.54.45-.17h.71l.35.17.18.18.18.27.18-.36H213l.17-.09.09.09h.09l.09.18v.18L212,203.71l-.09.27-.18.35-.53.54-.72.35-.44.09Z"/><path class="cls-5" d="M211.2,197.74h.71l.35.18.18.17.18.27.18-.36H213l.17-.08.09.08h.09l.09.18v.18L212,203.71l-.09.27-.18.35-.53.54-.72.35-.44.09h-.89l-.27-.09h-.26l-.18-.09-.18-.17-.09-.18v-.27l.09-.18.18-.18.18-.09H209l.18.18v.27l-.09.18v.09l-.18.09-.09.09H209l.27.08h.8l.18-.08.26-.18.54-.54.18-.26.08-.27.36-1.43-.27.18-.35.27-.71.18H210l-.27-.09-.18-.09-.35-.27-.36-.71v-1.07l.09-.36.18-.53.18-.45.26-.44.45-.45.71-.53Zm.08.26-.26.18-.45.45-.26.35-.18.45-.09.45-.18.44-.18.89v.8l.09.27.36.36h.53l.54-.36.26-.27.18-.26.18-.18.62-2.5v-.26l-.09-.09v-.09l-.09-.27-.17-.18-.27-.18Z"/><polygon points="146.76 296.3 146.76 296.03 147.3 296.03 147.39 295.94 147.39 293.36 147.21 293 147.21 292.92 147.03 292.83 146.94 292.83 146.76 292.74 146.59 292.83 146.32 292.92 146.14 293 145.96 293.18 145.78 293.54 145.7 293.81 145.7 295.94 145.78 296.03 146.32 296.03 146.32 296.3 144.45 296.3 144.45 296.03 144.98 296.03 145.07 295.94 145.07 293.36 144.9 293 144.9 292.92 144.72 292.83 144.63 292.83 144.54 292.74 144 292.92 143.83 293 143.65 293.18 143.47 293.54 143.38 293.81 143.38 295.94 143.47 296.03 144 296.03 144 296.3 142.14 296.3 142.14 296.03 142.67 296.03 142.76 295.94 142.76 293.09 142.67 293 142.58 293 142.4 292.92 142.14 292.92 142.14 292.65 142.76 292.65 143.29 292.56 143.29 293.45 143.47 293.09 143.83 292.83 144 292.74 144.54 292.56 144.72 292.65 144.98 292.65 145.16 292.74 145.43 292.92 145.61 293.09 145.61 293.45 145.87 293.09 146.14 292.83 146.32 292.74 146.85 292.56 147.03 292.65 147.3 292.65 147.48 292.74 147.74 292.92 147.92 293.27 148.01 293.54 148.01 295.94 148.1 296.03 148.63 296.03 148.63 296.3 146.76 296.3"/><polygon class="cls-5" points="143.29 292.56 143.29 293.45 143.47 293.09 143.83 292.83 144 292.74 144.54 292.56 144.72 292.65 144.98 292.65 145.16 292.74 145.43 292.92 145.61 293.09 145.61 293.45 145.87 293.09 146.14 292.83 146.32 292.74 146.85 292.56 147.03 292.65 147.3 292.65 147.48 292.74 147.74 292.92 147.92 293.27 148.01 293.54 148.01 295.94 148.1 296.03 148.63 296.03 148.63 296.3 146.76 296.3 146.76 296.03 147.3 296.03 147.39 295.94 147.39 293.36 147.21 293 147.21 292.92 147.03 292.83 146.94 292.83 146.76 292.74 146.59 292.83 146.32 292.92 146.14 293 145.96 293.18 145.78 293.54 145.7 293.81 145.7 295.94 145.78 296.03 146.32 296.03 146.32 296.3 144.45 296.3 144.45 296.03 144.98 296.03 145.07 295.94 145.07 293.36 144.9 293 144.9 292.92 144.72 292.83 144.63 292.83 144.54 292.74 144 292.92 143.83 293 143.65 293.18 143.47 293.54 143.38 293.81 143.38 295.94 143.47 296.03 144 296.03 144 296.3 142.14 296.3 142.14 296.03 142.67 296.03 142.76 295.94 142.76 293.09 142.67 293 142.58 293 142.4 292.92 142.14 292.92 142.14 292.65 142.76 292.65 143.29 292.56"/><polygon points="137.51 292.83 137.42 292.74 137.42 292.65 136.71 285.25 136.62 285.07 136.62 284.89 136.53 284.81 136.44 284.81 136.26 284.72 135.73 284.72 135.73 284.63 135.82 284.54 135.82 284.45 135.91 284.36 138.66 284.36 138.66 284.45 138.75 284.45 138.66 284.54 138.66 284.72 138.13 284.72 137.78 284.89 137.69 284.98 137.69 285.16 137.95 288.28 138.31 291.4 141.78 285.43 141.87 285.34 141.87 284.98 141.69 284.81 141.51 284.81 141.34 284.72 141.25 284.72 141.25 284.54 141.42 284.36 143.47 284.36 143.56 284.45 143.56 284.63 143.47 284.72 143.38 284.72 143.03 284.81 142.49 285.07 142.22 285.34 142.14 285.52 137.86 292.65 137.86 292.74 137.78 292.83 137.51 292.83"/><polygon class="cls-5" points="135.91 284.36 138.66 284.36 138.66 284.45 138.75 284.45 138.66 284.54 138.66 284.72 138.13 284.72 137.78 284.89 137.69 284.98 137.69 285.16 137.95 288.28 138.31 291.4 141.78 285.43 141.87 285.34 141.87 284.98 141.69 284.81 141.51 284.81 141.34 284.72 141.25 284.72 141.25 284.54 141.42 284.36 143.47 284.36 143.56 284.45 143.56 284.63 143.47 284.72 143.38 284.72 143.03 284.81 142.49 285.07 142.22 285.34 142.14 285.52 137.86 292.65 137.86 292.74 137.78 292.83 137.51 292.83 137.42 292.74 137.42 292.65 136.71 285.25 136.62 285.07 136.62 284.89 136.53 284.81 136.44 284.81 136.26 284.72 135.73 284.72 135.73 284.63 135.82 284.54 135.82 284.45 135.91 284.36"/><path d="M5.08,112l-.08.17-.09.27.17.54.54.53.44.36,2.58.62h.09l.09-.09h.27l.27-.18.17-.09.18-.26.09-.27-.09-.27-.18-.18-.17-.26-.27-.18-.45-.27-.35-.18-.45-.18L7.31,112,6,111.74l-.35.09H5.44Zm6.86,4.81-.09-.09v-.45l-.09-.09v-.09l-.09-.08-.27-.09-5.34-1.34-.44-.09H5.26l-.18.09-.08.09-.09.18.17.35.81.27.62.18.09.09V116H6.51l-.27-.09-.35-.09-.27-.09-.36-.09-.18-.18-.26-.18-.18-.53.09-.27v-.18l.35-.35.18-.09.27-.09-.36-.27-.26-.36-.18-.44-.09-.36.09-.35.18-.36.26-.27.27-.18.45-.17.44-.09h.53l.45.17.71.18.36.18.44.27.45.35.26.36.27.45.18.53V114l-.18.35-.18.18-.26.18,2,.53h.27l.09-.09V115l.09-.18v-.54H12l.17.18V115l-.08.53v.62l.08.54-.08.09Z"/><path class="cls-5" d="M6.33,110.94h.53l.45.17.71.18.36.18.44.27.45.35.26.36.27.45.18.53V114l-.18.35-.18.18-.26.18,2,.53h.27l.09-.09V115l.09-.18v-.54H12l.17.18V115l-.08.53v.62l.08.54-.08.09h-.18l-.09-.09v-.45l-.09-.09v-.09l-.09-.08-.27-.09-5.34-1.34-.44-.09H5.26l-.18.09-.08.09-.09.18.17.35.81.27.62.18.09.09V116H6.51l-.27-.09-.35-.09-.27-.09-.36-.09-.18-.18-.26-.18-.18-.53.09-.27v-.18l.35-.35.18-.09.27-.09-.36-.27-.26-.36-.18-.44-.09-.36.09-.35.18-.36.26-.27.27-.18.45-.17Zm-.36.8-.35.09H5.44l-.36.18-.08.17-.09.27.17.54.54.53.44.36,2.58.62h.09l.09-.09h.27l.27-.18.17-.09.18-.26.09-.27-.09-.27-.18-.18-.17-.26-.27-.18-.45-.27-.35-.18-.45-.18L7.31,112Z"/><path d="M19.06,276.43l-.36.18-.53.35-.45.45-.53.62-.36.71-.27.72-.17.71-.27,1.52v.71l.27,1.07.26.27.18.26.27.18.35.09h.72l.44-.09L19,284l.53-.44.45-.45.53-.71.36-.71.53-1.52.18-1.43v-.44l-.18-.89L21.1,277l-.35-.35-.27-.18-.36-.09h-.71Zm-1.78,8.2-.89-.36L16,284l-.27-.26-.26-.36-.27-.71-.18-.72.18-1.6.27-.8.35-.81.54-.8.62-.62.89-.71.44-.27.81-.27.71-.09.53.09.45.09.35.18.36.27.35.35.18.36.27.44.09.45.09.53v.81l-.09.8-.71,1.6-.36.54-.36.44-.44.45-.45.36-.89.53-.71.27-.8.09Z"/><path class="cls-5" d="M19.86,276l.53.09.45.09.35.18.36.27.35.35.18.36.27.44.09.45.09.53v.81l-.09.8-.71,1.6-.36.54-.36.44-.44.45-.45.36-.89.53-.71.27-.8.09h-.44l-.89-.36L16,284l-.27-.26-.26-.36-.27-.71-.18-.72.18-1.6.27-.8.35-.81.54-.8.62-.62.89-.71.44-.27.81-.27Zm-.45.36-.35.09-.36.18-.53.35-.45.45-.53.62-.36.71-.27.72-.17.71-.27,1.52v.71l.27,1.07.26.27.18.26.27.18.35.09h.72l.44-.09L19,284l.53-.44.45-.45.53-.71.36-.71.53-1.52.18-1.43v-.44l-.18-.89L21.1,277l-.35-.35-.27-.18-.36-.09Z"/></svg>